<svg xmlns="http://www.w3.org/2000/svg" xmlns:xlink="http://www.w3.org/1999/xlink" width="1584" zoomAndPan="magnify" viewBox="0 0 1188 296.999993" height="396" preserveAspectRatio="xMidYMid meet" version="1.0"><path fill="#202b3d" d="M 803.554688 15.882812 C 835.464844 15.882812 863.050781 42.464844 863.9375 74.289062 C 864.394531 90.902344 858.207031 106.683594 846.523438 118.742188 C 834.890625 130.714844 819.425781 137.332031 802.953125 137.359375 C 802.925781 137.359375 802.898438 137.359375 802.867188 137.359375 C 786.769531 137.359375 771.476562 130.859375 759.789062 119.058594 C 747.988281 107.140625 741.3125 90.84375 741.515625 74.34375 C 741.886719 43.09375 769.929688 16.3125 802.8125 15.882812 C 803.070312 15.882812 803.296875 15.882812 803.554688 15.882812 Z M 802.867188 131.632812 C 802.898438 131.632812 802.925781 131.632812 802.953125 131.632812 C 817.847656 131.601562 831.882812 125.585938 842.425781 114.730469 C 853.023438 103.789062 858.636719 89.496094 858.238281 74.429688 C 857.40625 45.644531 832.457031 21.613281 803.585938 21.613281 C 803.355469 21.613281 803.125 21.613281 802.898438 21.613281 C 773.050781 22.011719 747.585938 46.1875 747.273438 74.402344 C 747.101562 89.382812 753.171875 104.164062 763.886719 115.019531 C 774.453125 125.730469 788.316406 131.632812 802.867188 131.632812 Z M 802.867188 131.632812 " fill-opacity="1" fill-rule="nonzero"/><path fill="#202b3d" d="M 526.972656 15.882812 C 558.882812 15.882812 586.464844 42.464844 587.355469 74.289062 C 587.8125 90.902344 581.625 106.683594 569.9375 118.742188 C 558.308594 130.714844 542.84375 137.332031 526.371094 137.359375 C 526.34375 137.359375 526.316406 137.359375 526.257812 137.359375 C 510.160156 137.359375 494.863281 130.859375 483.179688 119.058594 C 471.375 107.140625 464.730469 90.84375 464.902344 74.34375 C 465.246094 43.09375 493.316406 16.3125 526.171875 15.882812 C 526.457031 15.882812 526.714844 15.882812 526.972656 15.882812 Z M 526.257812 131.632812 C 526.285156 131.632812 526.316406 131.632812 526.34375 131.632812 C 541.238281 131.601562 555.273438 125.617188 565.816406 114.761719 C 576.414062 103.820312 582.027344 89.527344 581.625 74.460938 C 580.824219 45.671875 555.875 21.640625 526.972656 21.640625 C 526.746094 21.640625 526.515625 21.640625 526.285156 21.640625 C 496.441406 22.042969 470.976562 46.214844 470.660156 74.429688 C 470.488281 89.410156 476.53125 104.191406 487.273438 115.046875 C 497.871094 125.730469 511.707031 131.632812 526.257812 131.632812 Z M 526.257812 131.632812 " fill-opacity="1" fill-rule="nonzero"/><path fill="#202b3d" d="M 662.027344 158.210938 C 693.9375 158.210938 721.519531 184.792969 722.410156 216.617188 C 722.867188 233.230469 716.679688 249.011719 704.992188 261.070312 C 693.363281 273.042969 677.898438 279.660156 661.425781 279.691406 C 661.398438 279.691406 661.371094 279.691406 661.3125 279.691406 C 645.214844 279.691406 629.917969 273.1875 618.230469 261.386719 C 606.429688 249.472656 599.757812 233.171875 599.957031 216.675781 C 600.300781 185.425781 628.371094 158.640625 661.226562 158.210938 C 661.511719 158.210938 661.769531 158.210938 662.027344 158.210938 Z M 661.339844 273.933594 C 661.371094 273.933594 661.398438 273.933594 661.425781 273.933594 C 676.320312 273.902344 690.355469 267.917969 700.898438 257.0625 C 711.496094 246.121094 717.109375 231.828125 716.707031 216.761719 C 715.90625 187.972656 690.957031 163.941406 662.058594 163.941406 C 661.828125 163.941406 661.597656 163.941406 661.371094 163.941406 C 631.523438 164.34375 606.058594 188.519531 605.742188 216.730469 C 605.570312 231.710938 611.644531 246.492188 622.355469 257.347656 C 632.925781 268.0625 646.789062 273.933594 661.339844 273.933594 Z M 661.339844 273.933594 " fill-opacity="1" fill-rule="nonzero"/><path fill="#202b3d" d="M 391.917969 158.210938 C 423.828125 158.210938 451.414062 184.792969 452.300781 216.617188 C 452.757812 233.230469 446.570312 249.011719 434.886719 261.070312 C 423.253906 273.042969 407.789062 279.660156 391.316406 279.691406 C 391.289062 279.691406 391.261719 279.691406 391.203125 279.691406 C 375.105469 279.691406 359.808594 273.1875 348.125 261.386719 C 336.324219 249.472656 329.648438 233.171875 329.847656 216.675781 C 330.191406 185.425781 358.261719 158.640625 391.117188 158.210938 C 391.402344 158.210938 391.660156 158.210938 391.917969 158.210938 Z M 391.203125 273.933594 C 391.230469 273.933594 391.261719 273.933594 391.289062 273.933594 C 406.183594 273.902344 420.21875 267.917969 430.761719 257.0625 C 441.386719 246.121094 446.972656 231.828125 446.570312 216.761719 C 445.769531 187.972656 420.820312 163.941406 391.917969 163.941406 C 391.691406 163.941406 391.460938 163.941406 391.230469 163.941406 C 361.386719 164.34375 335.921875 188.519531 335.605469 216.730469 C 335.433594 231.710938 341.476562 246.492188 352.21875 257.347656 C 362.816406 268.0625 376.652344 273.933594 391.203125 273.933594 Z M 391.203125 273.933594 " fill-opacity="1" fill-rule="nonzero"/><path fill="#202b3d" d="M 663.976562 9.125 C 667.386719 9.125 670.820312 9.382812 674.257812 9.867188 C 697.519531 13.332031 715.476562 27.742188 722.324219 48.449219 C 725.101562 56.816406 726.449219 65.550781 727.308594 72.195312 C 734.554688 127.878906 750.652344 144.292969 805.589844 152.027344 C 840.507812 156.980469 863.277344 182.246094 863.566406 216.417969 C 863.824219 248.957031 840.421875 277.339844 809.171875 282.441406 C 774.710938 288.082031 743.777344 268.632812 733.953125 235.179688 C 731.460938 226.699219 729.828125 218.507812 729.082031 210.832031 C 725.761719 176.144531 700.582031 151.855469 666.46875 150.363281 C 627.855469 148.703125 601.476562 169.699219 596.035156 206.5625 C 592.308594 231.683594 588.128906 260.15625 557.851562 275.480469 C 537.371094 285.847656 514.628906 285.964844 495.410156 275.765625 C 476.1875 265.570312 463.527344 246.664062 460.605469 223.921875 C 460.292969 221.429688 460.003906 218.910156 459.71875 216.386719 C 458.488281 205.417969 457.226562 194.046875 452.671875 184.050781 C 448.835938 175.628906 443.25 168.039062 436.117188 161.449219 C 428.296875 154.261719 423.140625 152.511719 412.859375 149.019531 C 406.039062 146.699219 399.195312 146.011719 391.976562 145.265625 C 385.390625 144.605469 378.601562 143.917969 372.011719 141.941406 C 351.359375 135.785156 335.550781 118.742188 329.792969 96.371094 C 323.890625 73.484375 329.5625 50.457031 344.945312 34.757812 C 354.710938 24.820312 368.203125 18.347656 382.984375 16.542969 C 420.992188 11.902344 452.960938 37.851562 459.03125 78.269531 C 459.519531 81.449219 459.863281 84.714844 460.207031 87.894531 C 461.066406 95.882812 461.867188 103.417969 464.589844 110.148438 C 474.871094 135.527344 504.832031 153.457031 531.355469 150.222656 C 562.722656 146.355469 584.433594 127.019531 592.480469 95.828125 C 593.855469 90.472656 595.03125 84.742188 596.148438 79.214844 C 599.300781 63.6875 602.535156 47.621094 611.472656 34.960938 C 622.988281 18.71875 642.867188 9.125 663.976562 9.125 Z M 797.484375 277.683594 C 801.007812 277.683594 804.585938 277.398438 808.226562 276.796875 C 836.296875 272.214844 858.066406 245.71875 857.835938 216.472656 C 857.578125 185.28125 836.753906 162.222656 804.789062 157.726562 C 747.101562 149.589844 729.226562 131.375 721.605469 72.96875 C 720.777344 66.554688 719.488281 58.191406 716.851562 50.285156 C 710.695312 31.664062 694.453125 18.71875 673.398438 15.566406 C 650.742188 12.214844 628.285156 21.152344 616.171875 38.339844 C 607.949219 50.027344 604.796875 65.464844 601.792969 80.417969 C 600.644531 86.003906 599.5 91.789062 598.066406 97.316406 C 589.503906 130.484375 565.441406 151.855469 532.101562 155.980469 C 503.144531 159.53125 470.488281 139.996094 459.316406 112.382812 C 456.28125 104.878906 455.394531 96.601562 454.535156 88.582031 C 454.191406 85.488281 453.875 82.277344 453.390625 79.214844 C 447.773438 41.976562 418.472656 18.089844 383.699219 22.328125 C 370.207031 23.988281 357.890625 29.859375 349.039062 38.855469 C 335.0625 53.089844 329.933594 74.085938 335.347656 95.023438 C 340.617188 115.449219 354.941406 130.972656 373.671875 136.558594 C 379.746094 138.363281 385.992188 138.992188 392.578125 139.679688 C 399.824219 140.425781 407.300781 141.167969 414.492188 143.632812 C 425.433594 147.355469 431.304688 149.363281 440.011719 157.355469 C 447.71875 164.429688 453.734375 172.648438 457.886719 181.785156 C 462.8125 192.613281 464.128906 204.414062 465.417969 215.84375 C 465.707031 218.335938 465.964844 220.828125 466.277344 223.289062 C 468.941406 244.171875 480.515625 261.5 498.074219 270.8125 C 515.601562 280.121094 536.425781 279.976562 555.246094 270.46875 C 580.882812 257.492188 585.953125 235.464844 590.332031 205.820312 C 596.292969 165.6875 624.761719 142.832031 666.726562 144.664062 C 703.820312 146.269531 731.175781 172.648438 734.8125 210.316406 C 735.5 217.621094 737.074219 225.46875 739.480469 233.601562 C 747.386719 260.640625 770.445312 277.683594 797.484375 277.683594 Z M 797.484375 277.683594 " fill-opacity="1" fill-rule="nonzero"/></svg>