<svg xmlns="http://www.w3.org/2000/svg" xmlns:xlink="http://www.w3.org/1999/xlink" width="851" zoomAndPan="magnify" viewBox="0 0 638.25 236.249991" height="315" preserveAspectRatio="xMidYMid meet" version="1.0"><defs><filter x="0%" y="0%" width="100%" height="100%" id="35f3cee2a6"><feColorMatrix values="0 0 0 0 1 0 0 0 0 1 0 0 0 0 1 0 0 0 1 0" color-interpolation-filters="sRGB"/></filter><g/><clipPath id="68332ed0a0"><path d="M 0.636719 0 L 636.867188 0 L 636.867188 235.503906 L 0.636719 235.503906 Z M 0.636719 0 " clip-rule="nonzero"/></clipPath><mask id="9f0ae38cf8"><g filter="url(#35f3cee2a6)"><rect x="-63.825" width="765.9" fill="#000000" y="-23.624999" height="283.499989" fill-opacity="0.4"/></g></mask><clipPath id="d5390f9ca8"><path d="M 0.5625 0.511719 L 151.761719 0.511719 L 151.761719 2.183594 L 0.5625 2.183594 Z M 0.5625 0.511719 " clip-rule="nonzero"/></clipPath><clipPath id="2a6e5c3265"><rect x="0" width="152" y="0" height="3"/></clipPath><mask id="533e9321d2"><g filter="url(#35f3cee2a6)"><rect x="-63.825" width="765.9" fill="#000000" y="-23.624999" height="283.499989" fill-opacity="0.3"/></g></mask><clipPath id="fdead543f0"><path d="M 0.160156 0.859375 L 13.617188 0.859375 L 13.617188 14.316406 L 0.160156 14.316406 Z M 0.160156 0.859375 " clip-rule="nonzero"/></clipPath><clipPath id="364350bfe6"><path d="M 6.890625 0.859375 L 8.476562 5.996094 L 13.617188 5.996094 L 9.460938 9.175781 L 11.046875 14.316406 L 6.890625 11.136719 L 2.730469 14.316406 L 4.320312 9.175781 L 0.160156 5.996094 L 5.300781 5.996094 Z M 6.890625 0.859375 " clip-rule="nonzero"/></clipPath><clipPath id="16526da055"><path d="M 0.160156 0.859375 L 13.617188 0.859375 L 13.617188 14.316406 L 0.160156 14.316406 Z M 0.160156 0.859375 " clip-rule="nonzero"/></clipPath><clipPath id="c730c15258"><path d="M 6.890625 0.859375 L 8.476562 5.996094 L 13.617188 5.996094 L 9.460938 9.175781 L 11.046875 14.316406 L 6.890625 11.136719 L 2.730469 14.316406 L 4.320312 9.175781 L 0.160156 5.996094 L 5.300781 5.996094 Z M 6.890625 0.859375 " clip-rule="nonzero"/></clipPath><clipPath id="4aeb313e85"><rect x="0" width="14" y="0" height="15"/></clipPath><clipPath id="d8af54c16f"><rect x="0" width="14" y="0" height="15"/></clipPath><mask id="5d2fa2cf49"><g filter="url(#35f3cee2a6)"><rect x="-63.825" width="765.9" fill="#000000" y="-23.624999" height="283.499989" fill-opacity="0.15"/></g></mask><clipPath id="917432a293"><path d="M 1.066406 0.382812 L 60.875 0.382812 L 60.875 15.335938 L 1.066406 15.335938 Z M 1.066406 0.382812 " clip-rule="nonzero"/></clipPath><clipPath id="d3ecab56ed"><path d="M 53.398438 0.382812 C 57.527344 0.382812 60.875 3.730469 60.875 7.859375 C 60.875 11.988281 57.527344 15.335938 53.398438 15.335938 L 8.542969 15.335938 C 4.414062 15.335938 1.066406 11.988281 1.066406 7.859375 C 1.066406 3.730469 4.414062 0.382812 8.542969 0.382812 Z M 53.398438 0.382812 " clip-rule="nonzero"/></clipPath><clipPath id="cfb0e43184"><path d="M 0.0664062 0.382812 L 59.875 0.382812 L 59.875 15.335938 L 0.0664062 15.335938 Z M 0.0664062 0.382812 " clip-rule="nonzero"/></clipPath><clipPath id="2a648ec367"><path d="M 52.398438 0.382812 C 56.527344 0.382812 59.875 3.730469 59.875 7.859375 C 59.875 11.988281 56.527344 15.335938 52.398438 15.335938 L 7.542969 15.335938 C 3.414062 15.335938 0.0664062 11.988281 0.0664062 7.859375 C 0.0664062 3.730469 3.414062 0.382812 7.542969 0.382812 Z M 52.398438 0.382812 " clip-rule="nonzero"/></clipPath><clipPath id="4e6576f4a6"><rect x="0" width="60" y="0" height="16"/></clipPath><clipPath id="84615982d8"><rect x="0" width="61" y="0" height="16"/></clipPath><clipPath id="569ca4b469"><path d="M 45.492188 104.667969 L 63.4375 104.667969 L 63.4375 122.609375 L 45.492188 122.609375 Z M 45.492188 104.667969 " clip-rule="nonzero"/></clipPath><clipPath id="cd78d2462d"><path d="M 54.464844 104.667969 L 63.4375 109.152344 L 63.4375 118.125 L 54.464844 122.609375 L 45.492188 118.125 L 45.492188 109.152344 Z M 54.464844 104.667969 " clip-rule="nonzero"/></clipPath><clipPath id="942a6abfe5"><path d="M 0.492188 0.667969 L 18.4375 0.667969 L 18.4375 18.609375 L 0.492188 18.609375 Z M 0.492188 0.667969 " clip-rule="nonzero"/></clipPath><clipPath id="6513bb57c1"><path d="M 9.464844 0.667969 L 18.4375 5.152344 L 18.4375 14.125 L 9.464844 18.609375 L 0.492188 14.125 L 0.492188 5.152344 Z M 9.464844 0.667969 " clip-rule="nonzero"/></clipPath><clipPath id="afcefbdef7"><rect x="0" width="19" y="0" height="19"/></clipPath><clipPath id="32a318bb09"><path d="M 0.636719 0 L 61 0 L 61 60 L 0.636719 60 Z M 0.636719 0 " clip-rule="nonzero"/></clipPath><mask id="109ce54f22"><g filter="url(#35f3cee2a6)"><rect x="-63.825" width="765.9" fill="#000000" y="-23.624999" height="283.499989" fill-opacity="0.43"/></g></mask><clipPath id="1a558f5ac1"><path d="M 0.636719 0 L 60.445312 0 L 60.445312 59.808594 L 0.636719 59.808594 Z M 0.636719 0 " clip-rule="nonzero"/></clipPath><clipPath id="dd7ff9de2e"><path d="M 15.589844 -29.90625 C -9.183594 -29.90625 -29.269531 -9.820312 -29.269531 14.953125 C -29.269531 39.726562 -9.183594 59.808594 15.589844 59.808594 C 40.363281 59.808594 60.445312 39.726562 60.445312 14.953125 C 60.445312 -9.820312 40.363281 -29.90625 15.589844 -29.90625 Z M 15.589844 -29.90625 " clip-rule="nonzero"/></clipPath><clipPath id="c9bb0ec388"><path d="M 0.636719 0 L 60.445312 0 L 60.445312 59.808594 L 0.636719 59.808594 Z M 0.636719 0 " clip-rule="nonzero"/></clipPath><clipPath id="6d8d3440c0"><path d="M 15.589844 -29.90625 C -9.183594 -29.90625 -29.269531 -9.820312 -29.269531 14.953125 C -29.269531 39.726562 -9.183594 59.808594 15.589844 59.808594 C 40.363281 59.808594 60.445312 39.726562 60.445312 14.953125 C 60.445312 -9.820312 40.363281 -29.90625 15.589844 -29.90625 Z M 15.589844 -29.90625 " clip-rule="nonzero"/></clipPath><clipPath id="f1bb70c883"><rect x="0" width="61" y="0" height="60"/></clipPath><clipPath id="c85c60690e"><rect x="0" width="61" y="0" height="60"/></clipPath><clipPath id="c42fdb7f0b"><rect x="0" width="112" y="0" height="102"/></clipPath><clipPath id="ff7dd3ed5d"><path d="M 237.378906 96.421875 L 280.742188 96.421875 L 280.742188 139.785156 L 237.378906 139.785156 Z M 237.378906 96.421875 " clip-rule="nonzero"/></clipPath><clipPath id="3aebdf1e6b"><path d="M 0.445312 7.066406 L 50.730469 7.066406 L 50.730469 57.351562 L 0.445312 57.351562 Z M 0.445312 7.066406 " clip-rule="nonzero"/></clipPath><clipPath id="ccc6662ff6"><path d="M 29 2 L 50.941406 2 L 50.941406 19 L 29 19 Z M 29 2 " clip-rule="nonzero"/></clipPath><clipPath id="fb8a5dfca2"><path d="M 35.285156 0.96875 L 50.707031 7.964844 L 45.023438 20.496094 L 29.601562 13.503906 Z M 35.285156 0.96875 " clip-rule="nonzero"/></clipPath><clipPath id="cdbee10830"><path d="M 39.464844 2.863281 L 50.679688 7.953125 L 40.816406 18.589844 L 29.601562 13.503906 Z M 39.464844 2.863281 " clip-rule="nonzero"/></clipPath><clipPath id="95d84c5766"><path d="M 0.410156 0.671875 L 21.703125 0.671875 L 21.703125 16.703125 L 0.410156 16.703125 Z M 0.410156 0.671875 " clip-rule="nonzero"/></clipPath><clipPath id="0388105d43"><path d="M 6.285156 -1.03125 L 21.707031 5.964844 L 16.023438 18.496094 L 0.601562 11.503906 Z M 6.285156 -1.03125 " clip-rule="nonzero"/></clipPath><clipPath id="f7ef99c403"><path d="M 10.464844 0.863281 L 21.679688 5.953125 L 11.816406 16.589844 L 0.601562 11.503906 Z M 10.464844 0.863281 " clip-rule="nonzero"/></clipPath><clipPath id="779acb4720"><rect x="0" width="22" y="0" height="17"/></clipPath><clipPath id="648d0f16cf"><path d="M 2 57 L 49 57 L 49 79.46875 L 2 79.46875 Z M 2 57 " clip-rule="nonzero"/></clipPath><clipPath id="15e3d88b46"><path d="M 48.265625 79.265625 L 2.804688 79.203125 L 2.835938 57.289062 L 48.296875 57.347656 Z M 48.265625 79.265625 " clip-rule="nonzero"/></clipPath><clipPath id="2d48c1edca"><path d="M 2.839844 57.289062 C 2.824219 69.226562 13.160156 79.21875 25.539062 79.234375 C 37.917969 79.25 48.277344 69.285156 48.296875 57.347656 L 35.675781 57.332031 C 35.667969 62.640625 31.058594 67.074219 25.554688 67.066406 C 20.050781 67.058594 15.453125 62.613281 15.460938 57.304688 Z M 2.839844 57.289062 " clip-rule="nonzero"/></clipPath><clipPath id="13f7c688ad"><path d="M 0.617188 0.21875 L 46.3125 0.21875 L 46.3125 22.46875 L 0.617188 22.46875 Z M 0.617188 0.21875 " clip-rule="nonzero"/></clipPath><clipPath id="c0ad219277"><path d="M 46.265625 22.265625 L 0.804688 22.203125 L 0.835938 0.289062 L 46.296875 0.347656 Z M 46.265625 22.265625 " clip-rule="nonzero"/></clipPath><clipPath id="3ff43c6b9c"><path d="M 0.839844 0.289062 C 0.824219 12.226562 11.160156 22.21875 23.539062 22.234375 C 35.917969 22.25 46.277344 12.285156 46.296875 0.347656 L 33.675781 0.332031 C 33.667969 5.640625 29.058594 10.074219 23.554688 10.066406 C 18.050781 10.058594 13.453125 5.613281 13.460938 0.304688 Z M 0.839844 0.289062 " clip-rule="nonzero"/></clipPath><clipPath id="b15f1a160d"><rect x="0" width="47" y="0" height="23"/></clipPath><clipPath id="2c69498bbd"><rect x="0" width="51" y="0" height="80"/></clipPath><clipPath id="d613615cb3"><path d="M 193.679688 96.421875 L 237.042969 96.421875 L 237.042969 139.785156 L 193.679688 139.785156 Z M 193.679688 96.421875 " clip-rule="nonzero"/></clipPath><clipPath id="0732579eb2"><path d="M 0.078125 34.347656 L 44.871094 34.347656 L 44.871094 79.140625 L 0.078125 79.140625 Z M 0.078125 34.347656 " clip-rule="nonzero"/></clipPath><clipPath id="e2619305b6"><path d="M 34.425781 4.824219 L 44.855469 4.824219 L 44.855469 79.121094 L 34.425781 79.121094 Z M 34.425781 4.824219 " clip-rule="nonzero"/></clipPath><clipPath id="e2f092f418"><path d="M 0.425781 0.824219 L 10.855469 0.824219 L 10.855469 75.121094 L 0.425781 75.121094 Z M 0.425781 0.824219 " clip-rule="nonzero"/></clipPath><clipPath id="0c1ed7c588"><rect x="0" width="11" y="0" height="76"/></clipPath><clipPath id="921a02a434"><path d="M 22.765625 0.0507812 L 44.851562 0.0507812 L 44.851562 10.480469 L 22.765625 10.480469 Z M 22.765625 0.0507812 " clip-rule="nonzero"/></clipPath><clipPath id="172167c93a"><path d="M 0.765625 0.0507812 L 22.851562 0.0507812 L 22.851562 10.480469 L 0.765625 10.480469 Z M 0.765625 0.0507812 " clip-rule="nonzero"/></clipPath><clipPath id="8fca9c0bca"><rect x="0" width="23" y="0" height="11"/></clipPath><clipPath id="73b2173d35"><rect x="0" width="46" y="0" height="80"/></clipPath><mask id="5b63f3d80f"><g filter="url(#35f3cee2a6)"><rect x="-63.825" width="765.9" fill="#000000" y="-23.624999" height="283.499989" fill-opacity="0.34"/></g></mask><clipPath id="8d58cb6891"><path d="M 0.734375 0.859375 L 42 0.859375 L 42 12 L 0.734375 12 Z M 0.734375 0.859375 " clip-rule="nonzero"/></clipPath><clipPath id="8008c36b48"><path d="M 44 0.859375 L 55.761719 0.859375 L 55.761719 12 L 44 12 Z M 44 0.859375 " clip-rule="nonzero"/></clipPath><clipPath id="03e24c2517"><path d="M 14 16 L 55.761719 16 L 55.761719 27.027344 L 14 27.027344 Z M 14 16 " clip-rule="nonzero"/></clipPath><clipPath id="d49bdd6633"><path d="M 0.734375 16 L 12 16 L 12 27.027344 L 0.734375 27.027344 Z M 0.734375 16 " clip-rule="nonzero"/></clipPath><clipPath id="498e154f12"><rect x="0" width="56" y="0" height="28"/></clipPath><clipPath id="5d87c9c3b2"><path d="M 505 184 L 636.867188 184 L 636.867188 235.503906 L 505 235.503906 Z M 505 184 " clip-rule="nonzero"/></clipPath><mask id="54fe351016"><g filter="url(#35f3cee2a6)"><rect x="-63.825" width="765.9" fill="#000000" y="-23.624999" height="283.499989" fill-opacity="0.39"/></g></mask><clipPath id="cd435cd078"><path d="M 0.347656 0.488281 L 95 0.488281 L 95 51.503906 L 0.347656 51.503906 Z M 0.347656 0.488281 " clip-rule="nonzero"/></clipPath><clipPath id="208300ff36"><path d="M 38 0.488281 L 131.867188 0.488281 L 131.867188 51.503906 L 38 51.503906 Z M 38 0.488281 " clip-rule="nonzero"/></clipPath><clipPath id="99afc70e3d"><path d="M 62 25 L 108 25 L 108 51.503906 L 62 51.503906 Z M 62 25 " clip-rule="nonzero"/></clipPath><clipPath id="218b12e6fe"><rect x="0" width="132" y="0" height="52"/></clipPath><mask id="e16c3bf0d3"><g filter="url(#35f3cee2a6)"><rect x="-63.825" width="765.9" fill="#000000" y="-23.624999" height="283.499989" fill-opacity="0.48"/></g></mask><clipPath id="d098372752"><path d="M 37 0.664062 L 40 0.664062 L 40 3 L 37 3 Z M 37 0.664062 " clip-rule="nonzero"/></clipPath><clipPath id="508e1110de"><path d="M 56 19 L 58.589844 19 L 58.589844 22 L 56 22 Z M 56 19 " clip-rule="nonzero"/></clipPath><clipPath id="2bee5d56cd"><path d="M 6 2 L 45 2 L 45 41.675781 L 6 41.675781 Z M 6 2 " clip-rule="nonzero"/></clipPath><clipPath id="7ee02849df"><path d="M 0.421875 8 L 28 8 L 28 36 L 0.421875 36 Z M 0.421875 8 " clip-rule="nonzero"/></clipPath><clipPath id="c99d0a1e40"><rect x="0" width="59" y="0" height="42"/></clipPath></defs><g clip-path="url(#68332ed0a0)"><path fill="#ffffff" d="M 0.636719 0 L 636.867188 0 L 636.867188 235.503906 L 0.636719 235.503906 Z M 0.636719 0 " fill-opacity="1" fill-rule="nonzero"/><path fill="#fff0d0" d="M 0.636719 0 L 636.867188 0 L 636.867188 235.503906 L 0.636719 235.503906 Z M 0.636719 0 " fill-opacity="1" fill-rule="nonzero"/></g><g mask="url(#9f0ae38cf8)"><g transform="matrix(1, 0, 0, 1, 74, 116)"><g clip-path="url(#2a6e5c3265)"><g clip-path="url(#d5390f9ca8)"><path stroke-linecap="butt" transform="matrix(0.747627, 0, 0, 0.747627, 1.39874, 0.629738)" fill="none" stroke-linejoin="miter" d="M -0.000405078 1.002063 L 200.002323 1.002063 " stroke="#000000" stroke-width="2" stroke-opacity="1" stroke-miterlimit="4"/></g></g></g></g><g mask="url(#533e9321d2)"><g transform="matrix(1, 0, 0, 1, 150, 44)"><g clip-path="url(#d8af54c16f)"><g clip-path="url(#fdead543f0)"><g clip-path="url(#364350bfe6)"><g transform="matrix(1, 0, 0, 1, -0.000000000000028422, -0.000000000000007105)"><g clip-path="url(#4aeb313e85)"><g clip-path="url(#16526da055)"><g clip-path="url(#c730c15258)"><path fill="#000000" d="M 0.160156 0.859375 L 13.617188 0.859375 L 13.617188 14.316406 L 0.160156 14.316406 Z M 0.160156 0.859375 " fill-opacity="1" fill-rule="nonzero"/></g></g></g></g></g></g></g></g></g><g mask="url(#5d2fa2cf49)"><g transform="matrix(1, 0, 0, 1, 22, 194)"><g clip-path="url(#84615982d8)"><g clip-path="url(#917432a293)"><g clip-path="url(#d3ecab56ed)"><g transform="matrix(1, 0, 0, 1, 1, -0.000000000000056843)"><g clip-path="url(#4e6576f4a6)"><g clip-path="url(#cfb0e43184)"><g clip-path="url(#2a648ec367)"><path fill="#000000" d="M 0.0664062 0.382812 L 59.875 0.382812 L 59.875 15.335938 L 0.0664062 15.335938 Z M 0.0664062 0.382812 " fill-opacity="1" fill-rule="nonzero"/></g></g></g></g></g></g></g></g></g><g clip-path="url(#569ca4b469)"><g clip-path="url(#cd78d2462d)"><g transform="matrix(1, 0, 0, 1, 45, 104)"><g clip-path="url(#afcefbdef7)"><g clip-path="url(#942a6abfe5)"><g clip-path="url(#6513bb57c1)"><path fill="#000000" d="M 0.492188 0.667969 L 18.4375 0.667969 L 18.4375 18.609375 L 0.492188 18.609375 Z M 0.492188 0.667969 " fill-opacity="1" fill-rule="nonzero"/></g></g></g></g></g></g><g clip-path="url(#32a318bb09)"><g mask="url(#109ce54f22)"><g transform="matrix(1, 0, 0, 1, 0, 0)"><g clip-path="url(#c85c60690e)"><g clip-path="url(#1a558f5ac1)"><g clip-path="url(#dd7ff9de2e)"><g transform="matrix(1, 0, 0, 1, 0, 0)"><g clip-path="url(#f1bb70c883)"><g clip-path="url(#c9bb0ec388)"><g clip-path="url(#6d8d3440c0)"><path fill="#f4442e" d="M -29.269531 -29.90625 L 60.445312 -29.90625 L 60.445312 59.808594 L -29.269531 59.808594 Z M -29.269531 -29.90625 " fill-opacity="1" fill-rule="nonzero"/></g></g></g></g></g></g></g></g></g></g><g transform="matrix(1, 0, 0, 1, 324, 59)"><g clip-path="url(#c42fdb7f0b)"><g fill="#000000" fill-opacity="1"><g transform="translate(0.442072, 80.344479)"><g><path d="M 11.265625 -37.5 C 10.773438 -37.5 10.398438 -37.675781 10.140625 -38.03125 C 9.878906 -38.382812 9.789062 -38.90625 9.875 -39.59375 L 12.625 -57.03125 C 12.875 -59.21875 13.507812 -60.894531 14.53125 -62.0625 C 15.5625 -63.226562 16.898438 -63.8125 18.546875 -63.8125 C 20.191406 -63.8125 21.203125 -63.234375 21.578125 -62.078125 C 21.960938 -60.929688 21.675781 -59.25 20.71875 -57.03125 L 13.859375 -39.5625 C 13.554688 -38.84375 13.1875 -38.316406 12.75 -37.984375 C 12.3125 -37.660156 11.816406 -37.5 11.265625 -37.5 Z M 11.265625 -37.5 "/></g></g></g><g fill="#000000" fill-opacity="1"><g transform="translate(14.267928, 80.344479)"><g><path d="M 13.203125 -13.328125 C 11.941406 -11.210938 11.410156 -9.484375 11.609375 -8.140625 C 11.816406 -6.796875 12.550781 -5.863281 13.8125 -5.34375 L 15.421875 -4.8125 C 16.023438 -4.507812 16.441406 -4.171875 16.671875 -3.796875 C 16.898438 -3.429688 17.015625 -3.054688 17.015625 -2.671875 C 17.015625 -1.847656 16.71875 -1.195312 16.125 -0.71875 C 15.539062 -0.238281 14.757812 0 13.78125 0 L 0.53125 0 C -0.457031 0 -1.195312 -0.203125 -1.6875 -0.609375 C -2.175781 -1.023438 -2.421875 -1.585938 -2.421875 -2.296875 C -2.421875 -2.960938 -2.222656 -3.554688 -1.828125 -4.078125 C -1.429688 -4.597656 -0.644531 -5.1875 0.53125 -5.84375 C 1.519531 -6.363281 2.597656 -7.375 3.765625 -8.875 C 4.929688 -10.382812 6.101562 -12.164062 7.28125 -14.21875 L 24.375 -42.46875 C 27.914062 -47.957031 31.710938 -52.023438 35.765625 -54.671875 C 39.828125 -57.316406 44.09375 -58.640625 48.5625 -58.640625 C 50.34375 -58.640625 51.585938 -58.382812 52.296875 -57.875 C 53.015625 -57.363281 53.375 -56.722656 53.375 -55.953125 C 53.375 -54.941406 52.851562 -54.125 51.8125 -53.5 C 50.601562 -52.976562 49.65625 -52.242188 48.96875 -51.296875 C 48.28125 -50.347656 47.925781 -48.925781 47.90625 -47.03125 C 47.90625 -46.070312 47.890625 -44.789062 47.859375 -43.1875 C 47.828125 -41.582031 47.789062 -39.78125 47.75 -37.78125 C 47.71875 -35.78125 47.6875 -33.691406 47.65625 -31.515625 C 47.625 -29.335938 47.59375 -27.175781 47.5625 -25.03125 C 47.539062 -22.894531 47.515625 -20.890625 47.484375 -19.015625 C 47.460938 -17.140625 47.453125 -15.492188 47.453125 -14.078125 C 47.453125 -12.671875 47.453125 -11.625 47.453125 -10.9375 C 47.472656 -9.84375 47.546875 -8.9375 47.671875 -8.21875 C 47.796875 -7.507812 48.0625 -6.90625 48.46875 -6.40625 C 48.882812 -5.914062 49.546875 -5.425781 50.453125 -4.9375 C 51.359375 -4.28125 51.8125 -3.5 51.8125 -2.59375 C 51.8125 -1.820312 51.519531 -1.195312 50.9375 -0.71875 C 50.363281 -0.238281 49.554688 0 48.515625 0 L 28.734375 0 C 27.753906 0 27.070312 -0.222656 26.6875 -0.671875 C 26.300781 -1.128906 26.109375 -1.671875 26.109375 -2.296875 C 26.109375 -2.984375 26.3125 -3.539062 26.71875 -3.96875 C 27.132812 -4.394531 27.753906 -4.769531 28.578125 -5.09375 L 30.34375 -5.546875 C 31.21875 -5.847656 31.851562 -6.441406 32.25 -7.328125 C 32.65625 -8.222656 32.867188 -9.34375 32.890625 -10.6875 C 32.921875 -11.539062 32.957031 -12.601562 33 -13.875 C 33.039062 -15.144531 33.070312 -16.5625 33.09375 -18.125 L 16.078125 -18.125 Z M 28.953125 -39.765625 L 18.703125 -22.609375 L 33.1875 -22.609375 C 33.269531 -25.210938 33.335938 -27.910156 33.390625 -30.703125 C 33.441406 -33.503906 33.492188 -36.226562 33.546875 -38.875 C 33.609375 -41.519531 33.648438 -43.867188 33.671875 -45.921875 C 33.046875 -45.265625 32.34375 -44.441406 31.5625 -43.453125 C 30.78125 -42.472656 29.910156 -41.242188 28.953125 -39.765625 Z M 28.953125 -39.765625 "/></g></g></g><g fill="#000000" fill-opacity="1"><g transform="translate(70.556111, 80.344479)"><g><path d="M 22.375 -7.984375 C 22.175781 -7.210938 22.1875 -6.628906 22.40625 -6.234375 C 22.625 -5.835938 22.992188 -5.554688 23.515625 -5.390625 L 25.40625 -4.8125 C 26.582031 -4.34375 27.171875 -3.613281 27.171875 -2.625 C 27.171875 -1.863281 26.875 -1.234375 26.28125 -0.734375 C 25.695312 -0.242188 24.882812 0 23.84375 0 L 3.40625 0 C 2.289062 0 1.53125 -0.210938 1.125 -0.640625 C 0.726562 -1.066406 0.53125 -1.609375 0.53125 -2.265625 C 0.53125 -2.953125 0.742188 -3.519531 1.171875 -3.96875 C 1.597656 -4.414062 2.113281 -4.738281 2.71875 -4.9375 L 4.765625 -5.46875 C 5.421875 -5.65625 5.921875 -5.945312 6.265625 -6.34375 C 6.609375 -6.75 6.921875 -7.414062 7.203125 -8.34375 C 7.472656 -9.28125 7.847656 -10.601562 8.328125 -12.3125 C 8.804688 -14.03125 9.347656 -16 9.953125 -18.21875 C 10.554688 -20.4375 11.175781 -22.78125 11.8125 -25.25 C 12.457031 -27.71875 13.101562 -30.175781 13.75 -32.625 C 14.394531 -35.082031 15.003906 -37.421875 15.578125 -39.640625 C 16.160156 -41.859375 16.660156 -43.820312 17.078125 -45.53125 C 17.503906 -47.25 17.816406 -48.570312 18.015625 -49.5 C 18.148438 -50.21875 18.140625 -50.785156 17.984375 -51.203125 C 17.835938 -51.628906 17.445312 -51.941406 16.8125 -52.140625 L 14.890625 -52.75 C 13.703125 -53.21875 13.109375 -53.945312 13.109375 -54.9375 C 13.109375 -55.726562 13.40625 -56.363281 14 -56.84375 C 14.59375 -57.320312 15.460938 -57.5625 16.609375 -57.5625 L 36.921875 -57.5625 C 38.046875 -57.5625 38.800781 -57.347656 39.1875 -56.921875 C 39.570312 -56.503906 39.765625 -55.976562 39.765625 -55.34375 C 39.765625 -54.65625 39.550781 -54.082031 39.125 -53.625 C 38.695312 -53.175781 38.171875 -52.84375 37.546875 -52.625 L 35.4375 -52.046875 C 34.78125 -51.828125 34.300781 -51.539062 34 -51.1875 C 33.695312 -50.832031 33.394531 -50.191406 33.09375 -49.265625 C 32.820312 -48.410156 32.46875 -47.210938 32.03125 -45.671875 C 31.59375 -44.140625 31.101562 -42.375 30.5625 -40.375 C 30.03125 -38.375 29.46875 -36.253906 28.875 -34.015625 C 28.289062 -31.785156 27.703125 -29.523438 27.109375 -27.234375 C 26.523438 -24.953125 25.960938 -22.75 25.421875 -20.625 C 24.890625 -18.5 24.40625 -16.550781 23.96875 -14.78125 C 23.53125 -13.007812 23.164062 -11.523438 22.875 -10.328125 C 22.59375 -9.140625 22.425781 -8.359375 22.375 -7.984375 Z M 22.375 -7.984375 "/></g></g></g></g></g><g clip-path="url(#ff7dd3ed5d)"><path fill="#f4442e" d="M 259.222656 96.421875 C 271.28125 96.421875 281.070312 106.210938 281.070312 118.265625 C 281.070312 130.324219 271.28125 140.113281 259.222656 140.113281 C 247.167969 140.113281 237.378906 130.324219 237.378906 118.265625 C 237.378906 106.210938 247.167969 96.421875 259.222656 96.421875 Z M 259.222656 107.34375 C 265.253906 107.34375 270.148438 112.238281 270.148438 118.265625 C 270.148438 124.296875 265.253906 129.191406 259.222656 129.191406 C 253.195312 129.191406 248.300781 124.296875 248.300781 118.265625 C 248.300781 112.238281 253.195312 107.34375 259.222656 107.34375 Z M 259.222656 107.34375 " fill-opacity="1" fill-rule="evenodd"/></g><g transform="matrix(1, 0, 0, 1, 143, 88)"><g clip-path="url(#2c69498bbd)"><g clip-path="url(#3aebdf1e6b)"><path fill="#f4442e" d="M 25.554688 7.066406 C 39.414062 7.066406 50.667969 18.316406 50.667969 32.175781 C 50.667969 46.035156 39.414062 57.289062 25.554688 57.289062 C 11.695312 57.289062 0.445312 46.035156 0.445312 32.175781 C 0.445312 18.316406 11.695312 7.066406 25.554688 7.066406 Z M 25.554688 19.621094 C 32.484375 19.621094 38.109375 25.246094 38.109375 32.175781 C 38.109375 39.105469 32.484375 44.734375 25.554688 44.734375 C 18.625 44.734375 13 39.105469 13 32.175781 C 13 25.246094 18.625 19.621094 25.554688 19.621094 Z M 25.554688 19.621094 " fill-opacity="1" fill-rule="evenodd"/></g><g clip-path="url(#ccc6662ff6)"><g clip-path="url(#fb8a5dfca2)"><g clip-path="url(#cdbee10830)"><g transform="matrix(1, 0, 0, 1, 29, 2)"><g clip-path="url(#779acb4720)"><g clip-path="url(#95d84c5766)"><g clip-path="url(#0388105d43)"><g clip-path="url(#f7ef99c403)"><path fill="#f4442e" d="M 6.285156 -1.03125 L 21.660156 5.941406 L 15.972656 18.476562 L 0.601562 11.503906 Z M 6.285156 -1.03125 " fill-opacity="1" fill-rule="nonzero"/></g></g></g></g></g></g></g></g><g clip-path="url(#648d0f16cf)"><g clip-path="url(#15e3d88b46)"><g clip-path="url(#2d48c1edca)"><g transform="matrix(1, 0, 0, 1, 2, 57)"><g clip-path="url(#b15f1a160d)"><g clip-path="url(#13f7c688ad)"><g clip-path="url(#c0ad219277)"><g clip-path="url(#3ff43c6b9c)"><path fill="#000000" d="M 46.265625 22.265625 L 0.804688 22.203125 L 0.835938 0.289062 L 46.296875 0.347656 Z M 46.265625 22.265625 " fill-opacity="1" fill-rule="nonzero"/></g></g></g></g></g></g></g></g></g></g><g clip-path="url(#d613615cb3)"><path fill="#f4442e" d="M 215.523438 96.421875 C 227.582031 96.421875 237.367188 106.210938 237.367188 118.265625 C 237.367188 130.324219 227.582031 140.113281 215.523438 140.113281 C 203.46875 140.113281 193.679688 130.324219 193.679688 118.265625 C 193.679688 106.210938 203.46875 96.421875 215.523438 96.421875 Z M 215.523438 107.34375 C 221.550781 107.34375 226.445312 112.238281 226.445312 118.265625 C 226.445312 124.296875 221.550781 129.191406 215.523438 129.191406 C 209.496094 129.191406 204.601562 124.296875 204.601562 118.265625 C 204.601562 112.238281 209.496094 107.34375 215.523438 107.34375 Z M 215.523438 107.34375 " fill-opacity="1" fill-rule="evenodd"/></g><g transform="matrix(1, 0, 0, 1, 281, 61)"><g clip-path="url(#73b2173d35)"><g clip-path="url(#0732579eb2)"><path fill="#f4442e" d="M 22.464844 34.347656 C 34.816406 34.347656 44.847656 44.378906 44.847656 56.734375 C 44.847656 69.085938 34.816406 79.117188 22.464844 79.117188 C 10.109375 79.117188 0.078125 69.085938 0.078125 56.734375 C 0.078125 44.378906 10.109375 34.347656 22.464844 34.347656 Z M 22.464844 45.542969 C 28.640625 45.542969 33.65625 50.554688 33.65625 56.734375 C 33.65625 62.910156 28.640625 67.925781 22.464844 67.925781 C 16.285156 67.925781 11.273438 62.910156 11.273438 56.734375 C 11.273438 50.554688 16.285156 45.542969 22.464844 45.542969 Z M 22.464844 45.542969 " fill-opacity="1" fill-rule="evenodd"/></g><g clip-path="url(#e2619305b6)"><g transform="matrix(1, 0, 0, 1, 34, 4)"><g clip-path="url(#0c1ed7c588)"><g clip-path="url(#e2f092f418)"><path fill="#f4442e" d="M 0.425781 0.824219 L 10.855469 0.824219 L 10.855469 75.132812 L 0.425781 75.132812 Z M 0.425781 0.824219 " fill-opacity="1" fill-rule="nonzero"/></g></g></g></g><g clip-path="url(#921a02a434)"><g transform="matrix(1, 0, 0, 1, 22, -0.000000000000014211)"><g clip-path="url(#8fca9c0bca)"><g clip-path="url(#172167c93a)"><path fill="#000000" d="M 22.851562 0.0507812 L 22.851562 10.480469 L 0.769531 10.480469 L 0.769531 0.0507812 Z M 22.851562 0.0507812 " fill-opacity="1" fill-rule="nonzero"/></g></g></g></g></g></g><g mask="url(#5b63f3d80f)"><g transform="matrix(1, 0, 0, 1, 359, 198)"><g clip-path="url(#498e154f12)"><g clip-path="url(#8d58cb6891)"><path fill="#f4442e" d="M 41.894531 6.363281 C 41.894531 7.878906 41.28125 9.257812 40.28125 10.257812 C 39.285156 11.253906 37.910156 11.871094 36.386719 11.871094 L 6.246094 11.871094 C 3.207031 11.871094 0.746094 9.402344 0.746094 6.367188 C 0.746094 4.851562 1.363281 3.472656 2.359375 2.472656 C 3.355469 1.476562 4.730469 0.859375 6.253906 0.859375 L 36.394531 0.859375 C 39.429688 0.859375 41.894531 3.320312 41.894531 6.363281 Z M 41.894531 6.363281 " fill-opacity="1" fill-rule="nonzero"/></g><g clip-path="url(#8008c36b48)"><path fill="#000000" d="M 55.640625 6.363281 C 55.640625 6.722656 55.605469 7.082031 55.535156 7.4375 C 55.464844 7.789062 55.359375 8.132812 55.222656 8.46875 C 55.085938 8.800781 54.914062 9.121094 54.714844 9.417969 C 54.511719 9.71875 54.285156 10 54.03125 10.253906 C 53.773438 10.507812 53.496094 10.738281 53.195312 10.9375 C 52.894531 11.140625 52.578125 11.308594 52.246094 11.445312 C 51.910156 11.585938 51.566406 11.6875 51.210938 11.757812 C 50.859375 11.832031 50.5 11.867188 50.140625 11.867188 C 49.777344 11.867188 49.417969 11.832031 49.066406 11.757812 C 48.710938 11.6875 48.367188 11.585938 48.03125 11.445312 C 47.699219 11.308594 47.382812 11.140625 47.082031 10.9375 C 46.78125 10.738281 46.503906 10.507812 46.246094 10.253906 C 45.992188 10 45.765625 9.71875 45.5625 9.417969 C 45.363281 9.121094 45.191406 8.800781 45.054688 8.46875 C 44.917969 8.132812 44.8125 7.789062 44.742188 7.4375 C 44.671875 7.082031 44.636719 6.722656 44.636719 6.363281 C 44.636719 6 44.671875 5.644531 44.742188 5.289062 C 44.8125 4.933594 44.917969 4.589844 45.054688 4.257812 C 45.191406 3.921875 45.363281 3.605469 45.5625 3.304688 C 45.765625 3.003906 45.992188 2.726562 46.246094 2.472656 C 46.503906 2.214844 46.78125 1.988281 47.082031 1.785156 C 47.382812 1.585938 47.699219 1.417969 48.03125 1.277344 C 48.367188 1.140625 48.710938 1.035156 49.066406 0.964844 C 49.417969 0.894531 49.777344 0.859375 50.140625 0.859375 C 50.5 0.859375 50.859375 0.894531 51.210938 0.964844 C 51.566406 1.035156 51.910156 1.140625 52.246094 1.277344 C 52.578125 1.417969 52.894531 1.585938 53.195312 1.785156 C 53.496094 1.988281 53.773438 2.214844 54.03125 2.472656 C 54.285156 2.726562 54.511719 3.003906 54.714844 3.304688 C 54.914062 3.605469 55.085938 3.921875 55.222656 4.257812 C 55.359375 4.589844 55.464844 4.933594 55.535156 5.289062 C 55.605469 5.644531 55.640625 6 55.640625 6.363281 Z M 55.640625 6.363281 " fill-opacity="1" fill-rule="nonzero"/></g><g clip-path="url(#03e24c2517)"><path fill="#f4442e" d="M 14.488281 21.527344 C 14.488281 23.046875 15.105469 24.425781 16.105469 25.421875 C 17.101562 26.421875 18.476562 27.039062 20 27.039062 L 50.140625 27.039062 C 53.179688 27.039062 55.640625 24.570312 55.640625 21.535156 C 55.640625 20.015625 55.023438 18.636719 54.027344 17.640625 C 53.03125 16.644531 51.65625 16.027344 50.132812 16.027344 L 20 16.027344 C 16.957031 16.027344 14.488281 18.488281 14.488281 21.527344 Z M 14.488281 21.527344 " fill-opacity="1" fill-rule="nonzero"/></g><g clip-path="url(#d49bdd6633)"><path fill="#000000" d="M 11.75 21.527344 C 11.75 21.890625 11.714844 22.25 11.644531 22.601562 C 11.574219 22.957031 11.46875 23.300781 11.332031 23.636719 C 11.195312 23.96875 11.023438 24.285156 10.824219 24.585938 C 10.621094 24.886719 10.394531 25.164062 10.140625 25.421875 C 9.882812 25.675781 9.605469 25.902344 9.304688 26.105469 C 9.003906 26.304688 8.6875 26.476562 8.355469 26.613281 C 8.019531 26.75 7.675781 26.855469 7.320312 26.925781 C 6.96875 26.996094 6.609375 27.03125 6.246094 27.03125 C 5.886719 27.03125 5.527344 26.996094 5.175781 26.925781 C 4.820312 26.855469 4.476562 26.75 4.140625 26.613281 C 3.808594 26.476562 3.492188 26.304688 3.191406 26.105469 C 2.890625 25.902344 2.613281 25.675781 2.355469 25.421875 C 2.101562 25.164062 1.871094 24.886719 1.671875 24.585938 C 1.472656 24.285156 1.300781 23.96875 1.164062 23.636719 C 1.023438 23.300781 0.921875 22.957031 0.851562 22.601562 C 0.78125 22.25 0.746094 21.890625 0.746094 21.527344 C 0.746094 21.167969 0.78125 20.808594 0.851562 20.457031 C 0.921875 20.101562 1.023438 19.757812 1.164062 19.421875 C 1.300781 19.089844 1.472656 18.773438 1.671875 18.472656 C 1.871094 18.171875 2.101562 17.894531 2.355469 17.636719 C 2.613281 17.382812 2.890625 17.152344 3.191406 16.953125 C 3.492188 16.753906 3.808594 16.582031 4.140625 16.445312 C 4.476562 16.304688 4.820312 16.203125 5.175781 16.132812 C 5.527344 16.0625 5.886719 16.027344 6.246094 16.027344 C 6.609375 16.027344 6.96875 16.0625 7.320312 16.132812 C 7.675781 16.203125 8.019531 16.304688 8.355469 16.445312 C 8.6875 16.582031 9.003906 16.753906 9.304688 16.953125 C 9.605469 17.152344 9.882812 17.382812 10.140625 17.636719 C 10.394531 17.894531 10.621094 18.171875 10.824219 18.472656 C 11.023438 18.773438 11.195312 19.089844 11.332031 19.421875 C 11.46875 19.757812 11.574219 20.101562 11.644531 20.457031 C 11.714844 20.808594 11.75 21.167969 11.75 21.527344 Z M 11.75 21.527344 " fill-opacity="1" fill-rule="nonzero"/></g></g></g></g><g clip-path="url(#5d87c9c3b2)"><g mask="url(#54fe351016)"><g transform="matrix(1, 0, 0, 1, 505, 184)"><g clip-path="url(#218b12e6fe)"><g clip-path="url(#cd435cd078)"><path fill="#000000" d="M 94.574219 47.589844 C 94.574219 49.132812 94.496094 50.671875 94.347656 52.207031 C 94.195312 53.742188 93.96875 55.265625 93.667969 56.777344 C 93.367188 58.289062 92.992188 59.785156 92.542969 61.261719 C 92.097656 62.738281 91.578125 64.1875 90.988281 65.613281 C 90.398438 67.039062 89.738281 68.433594 89.011719 69.792969 C 88.285156 71.152344 87.492188 72.472656 86.636719 73.757812 C 85.777344 75.039062 84.859375 76.277344 83.882812 77.46875 C 82.902344 78.660156 81.867188 79.804688 80.777344 80.894531 C 79.6875 81.984375 78.542969 83.019531 77.351562 84 C 76.160156 84.976562 74.921875 85.894531 73.640625 86.753906 C 72.355469 87.609375 71.035156 88.402344 69.675781 89.128906 C 68.316406 89.855469 66.921875 90.515625 65.496094 91.105469 C 64.070312 91.695312 62.621094 92.214844 61.144531 92.660156 C 59.667969 93.109375 58.171875 93.484375 56.660156 93.785156 C 55.148438 94.085938 53.625 94.3125 52.089844 94.464844 C 50.554688 94.613281 49.015625 94.691406 47.472656 94.691406 C 45.929688 94.691406 44.390625 94.613281 42.855469 94.464844 C 41.320312 94.3125 39.796875 94.085938 38.28125 93.785156 C 36.769531 93.484375 35.273438 93.109375 33.796875 92.660156 C 32.324219 92.214844 30.871094 91.695312 29.445312 91.105469 C 28.019531 90.515625 26.628906 89.855469 25.269531 89.128906 C 23.90625 88.402344 22.585938 87.609375 21.304688 86.753906 C 20.019531 85.894531 18.785156 84.976562 17.589844 84 C 16.398438 83.019531 15.257812 81.984375 14.164062 80.894531 C 13.074219 79.804688 12.039062 78.660156 11.0625 77.46875 C 10.082031 76.277344 9.164062 75.039062 8.308594 73.757812 C 7.449219 72.472656 6.660156 71.152344 5.933594 69.792969 C 5.203125 68.433594 4.546875 67.039062 3.957031 65.613281 C 3.363281 64.1875 2.847656 62.738281 2.398438 61.261719 C 1.949219 59.785156 1.574219 58.289062 1.273438 56.777344 C 0.972656 55.265625 0.75 53.742188 0.597656 52.207031 C 0.445312 50.671875 0.371094 49.132812 0.371094 47.589844 C 0.371094 46.046875 0.445312 44.507812 0.597656 42.972656 C 0.75 41.4375 0.972656 39.914062 1.273438 38.398438 C 1.574219 36.886719 1.949219 35.390625 2.398438 33.914062 C 2.847656 32.441406 3.363281 30.988281 3.957031 29.5625 C 4.546875 28.136719 5.203125 26.746094 5.933594 25.386719 C 6.660156 24.023438 7.449219 22.703125 8.308594 21.421875 C 9.164062 20.136719 10.082031 18.898438 11.0625 17.707031 C 12.039062 16.515625 13.074219 15.375 14.164062 14.28125 C 15.257812 13.191406 16.398438 12.15625 17.589844 11.179688 C 18.785156 10.199219 20.019531 9.28125 21.304688 8.425781 C 22.585938 7.566406 23.90625 6.777344 25.269531 6.050781 C 26.628906 5.320312 28.019531 4.664062 29.445312 4.074219 C 30.871094 3.480469 32.324219 2.964844 33.796875 2.515625 C 35.273438 2.066406 36.769531 1.691406 38.28125 1.390625 C 39.796875 1.089844 41.320312 0.863281 42.855469 0.714844 C 44.390625 0.5625 45.929688 0.488281 47.472656 0.488281 C 49.015625 0.488281 50.554688 0.5625 52.089844 0.714844 C 53.625 0.863281 55.148438 1.089844 56.660156 1.390625 C 58.171875 1.691406 59.667969 2.066406 61.144531 2.515625 C 62.621094 2.964844 64.070312 3.480469 65.496094 4.074219 C 66.921875 4.664062 68.316406 5.320312 69.675781 6.050781 C 71.035156 6.777344 72.355469 7.566406 73.640625 8.425781 C 74.921875 9.28125 76.160156 10.199219 77.351562 11.179688 C 78.542969 12.15625 79.6875 13.191406 80.777344 14.28125 C 81.867188 15.375 82.902344 16.515625 83.882812 17.707031 C 84.859375 18.898438 85.777344 20.136719 86.636719 21.421875 C 87.492188 22.703125 88.285156 24.023438 89.011719 25.386719 C 89.738281 26.746094 90.398438 28.136719 90.988281 29.5625 C 91.578125 30.988281 92.097656 32.441406 92.542969 33.914062 C 92.992188 35.390625 93.367188 36.886719 93.667969 38.398438 C 93.96875 39.914062 94.195312 41.4375 94.347656 42.972656 C 94.496094 44.507812 94.574219 46.046875 94.574219 47.589844 Z M 94.574219 47.589844 " fill-opacity="1" fill-rule="nonzero"/></g><g clip-path="url(#208300ff36)"><path fill="#f4442e" d="M 85.039062 94.382812 C 59.238281 94.382812 38.246094 73.390625 38.246094 47.589844 C 38.246094 21.785156 59.238281 0.792969 85.039062 0.792969 C 110.84375 0.792969 131.835938 21.785156 131.835938 47.589844 C 131.835938 73.390625 110.84375 94.382812 85.039062 94.382812 Z M 85.039062 3.542969 C 60.753906 3.542969 40.996094 23.300781 40.996094 47.589844 C 40.996094 71.875 60.753906 91.632812 85.039062 91.632812 C 109.328125 91.632812 129.085938 71.875 129.085938 47.589844 C 129.085938 23.300781 109.328125 3.542969 85.039062 3.542969 Z M 85.039062 3.542969 " fill-opacity="1" fill-rule="nonzero"/></g><g clip-path="url(#99afc70e3d)"><path fill="#f4442e" d="M 85.039062 69.710938 C 72.84375 69.710938 62.917969 59.785156 62.917969 47.589844 C 62.917969 35.390625 72.84375 25.464844 85.039062 25.464844 C 97.238281 25.464844 107.164062 35.390625 107.164062 47.589844 C 107.164062 59.785156 97.238281 69.710938 85.039062 69.710938 Z M 85.039062 28.21875 C 74.359375 28.21875 65.667969 36.90625 65.667969 47.589844 C 65.667969 58.269531 74.359375 66.960938 85.039062 66.960938 C 95.722656 66.960938 104.414062 58.269531 104.414062 47.589844 C 104.414062 36.90625 95.722656 28.21875 85.039062 28.21875 Z M 85.039062 28.21875 " fill-opacity="1" fill-rule="nonzero"/></g></g></g></g></g><g mask="url(#e16c3bf0d3)"><g transform="matrix(1, 0, 0, 1, 549, 10)"><g clip-path="url(#c99d0a1e40)"><g clip-path="url(#d098372752)"><path fill="#f4442e" d="M 38.492188 0.664062 L 39.441406 1.609375 L 38.492188 2.558594 L 37.546875 1.609375 Z M 38.492188 0.664062 " fill-opacity="1" fill-rule="nonzero"/></g><path fill="#f4442e" d="M 40.222656 2.390625 L 41.167969 3.335938 L 40.222656 4.285156 L 39.273438 3.335938 Z M 40.222656 2.390625 " fill-opacity="1" fill-rule="nonzero"/><path fill="#f4442e" d="M 41.949219 4.117188 L 42.894531 5.066406 L 41.949219 6.011719 L 41 5.066406 Z M 41.949219 4.117188 " fill-opacity="1" fill-rule="nonzero"/><path fill="#f4442e" d="M 43.675781 5.84375 L 44.621094 6.792969 L 43.675781 7.738281 L 42.726562 6.792969 Z M 43.675781 5.84375 " fill-opacity="1" fill-rule="nonzero"/><path fill="#f4442e" d="M 45.402344 7.570312 L 46.347656 8.519531 L 45.402344 9.464844 L 44.457031 8.519531 Z M 45.402344 7.570312 " fill-opacity="1" fill-rule="nonzero"/><path fill="#f4442e" d="M 47.128906 9.296875 L 48.078125 10.246094 L 47.128906 11.191406 L 46.183594 10.246094 Z M 47.128906 9.296875 " fill-opacity="1" fill-rule="nonzero"/><path fill="#f4442e" d="M 48.855469 11.023438 L 49.804688 11.972656 L 48.855469 12.917969 L 47.910156 11.972656 Z M 48.855469 11.023438 " fill-opacity="1" fill-rule="nonzero"/><path fill="#f4442e" d="M 50.582031 12.75 L 51.53125 13.699219 L 50.582031 14.644531 L 49.636719 13.699219 Z M 50.582031 12.75 " fill-opacity="1" fill-rule="nonzero"/><path fill="#f4442e" d="M 52.3125 14.480469 L 53.257812 15.425781 L 52.3125 16.371094 L 51.363281 15.425781 Z M 52.3125 14.480469 " fill-opacity="1" fill-rule="nonzero"/><path fill="#f4442e" d="M 54.039062 16.207031 L 54.984375 17.152344 L 54.039062 18.101562 L 53.089844 17.152344 Z M 54.039062 16.207031 " fill-opacity="1" fill-rule="nonzero"/><path fill="#f4442e" d="M 55.765625 17.933594 L 56.710938 18.878906 L 55.765625 19.828125 L 54.816406 18.878906 Z M 55.765625 17.933594 " fill-opacity="1" fill-rule="nonzero"/><g clip-path="url(#508e1110de)"><path fill="#f4442e" d="M 57.492188 19.660156 L 58.4375 20.609375 L 57.492188 21.554688 L 56.542969 20.609375 Z M 57.492188 19.660156 " fill-opacity="1" fill-rule="nonzero"/></g><path fill="#f4442e" d="M 36.820312 2.335938 L 37.769531 3.28125 L 36.820312 4.230469 L 35.875 3.28125 Z M 36.820312 2.335938 " fill-opacity="1" fill-rule="nonzero"/><path fill="#f4442e" d="M 38.550781 4.0625 L 39.496094 5.007812 L 38.550781 5.957031 L 37.601562 5.007812 Z M 38.550781 4.0625 " fill-opacity="1" fill-rule="nonzero"/><path fill="#f4442e" d="M 40.277344 5.789062 L 41.222656 6.734375 L 40.277344 7.683594 L 39.328125 6.734375 Z M 40.277344 5.789062 " fill-opacity="1" fill-rule="nonzero"/><path fill="#f4442e" d="M 42.003906 7.515625 L 42.949219 8.460938 L 42.003906 9.410156 L 41.054688 8.460938 Z M 42.003906 7.515625 " fill-opacity="1" fill-rule="nonzero"/><path fill="#f4442e" d="M 43.730469 9.242188 L 44.675781 10.191406 L 43.730469 11.136719 L 42.78125 10.191406 Z M 43.730469 9.242188 " fill-opacity="1" fill-rule="nonzero"/><path fill="#f4442e" d="M 45.457031 10.96875 L 46.40625 11.917969 L 45.457031 12.863281 L 44.511719 11.917969 Z M 45.457031 10.96875 " fill-opacity="1" fill-rule="nonzero"/><path fill="#f4442e" d="M 47.183594 12.695312 L 48.132812 13.644531 L 47.183594 14.589844 L 46.238281 13.644531 Z M 47.183594 12.695312 " fill-opacity="1" fill-rule="nonzero"/><path fill="#f4442e" d="M 48.910156 14.421875 L 49.859375 15.371094 L 48.910156 16.316406 L 47.964844 15.371094 Z M 48.910156 14.421875 " fill-opacity="1" fill-rule="nonzero"/><path fill="#f4442e" d="M 50.640625 16.152344 L 51.585938 17.097656 L 50.640625 18.046875 L 49.691406 17.097656 Z M 50.640625 16.152344 " fill-opacity="1" fill-rule="nonzero"/><path fill="#f4442e" d="M 52.367188 17.878906 L 53.3125 18.824219 L 52.367188 19.773438 L 51.421875 18.824219 Z M 52.367188 17.878906 " fill-opacity="1" fill-rule="nonzero"/><path fill="#f4442e" d="M 54.09375 19.605469 L 55.042969 20.550781 L 54.09375 21.5 L 53.148438 20.550781 Z M 54.09375 19.605469 " fill-opacity="1" fill-rule="nonzero"/><path fill="#f4442e" d="M 55.820312 21.332031 L 56.769531 22.277344 L 55.820312 23.226562 L 54.875 22.277344 Z M 55.820312 21.332031 " fill-opacity="1" fill-rule="nonzero"/><path fill="#f4442e" d="M 35.152344 4.003906 L 36.097656 4.953125 L 35.152344 5.898438 L 34.203125 4.953125 Z M 35.152344 4.003906 " fill-opacity="1" fill-rule="nonzero"/><path fill="#f4442e" d="M 36.878906 5.730469 L 37.824219 6.679688 L 36.878906 7.625 L 35.929688 6.679688 Z M 36.878906 5.730469 " fill-opacity="1" fill-rule="nonzero"/><path fill="#f4442e" d="M 38.605469 7.457031 L 39.550781 8.40625 L 38.605469 9.351562 L 37.660156 8.40625 Z M 38.605469 7.457031 " fill-opacity="1" fill-rule="nonzero"/><path fill="#f4442e" d="M 40.332031 9.183594 L 41.28125 10.132812 L 40.332031 11.078125 L 39.386719 10.132812 Z M 40.332031 9.183594 " fill-opacity="1" fill-rule="nonzero"/><path fill="#f4442e" d="M 42.058594 10.914062 L 43.007812 11.863281 L 42.058594 12.808594 L 41.113281 11.863281 Z M 42.058594 10.914062 " fill-opacity="1" fill-rule="nonzero"/><path fill="#f4442e" d="M 43.785156 12.640625 L 44.734375 13.589844 L 43.785156 14.535156 L 42.839844 13.589844 Z M 43.785156 12.640625 " fill-opacity="1" fill-rule="nonzero"/><path fill="#f4442e" d="M 45.515625 14.367188 L 46.460938 15.316406 L 45.515625 16.261719 L 44.566406 15.316406 Z M 45.515625 14.367188 " fill-opacity="1" fill-rule="nonzero"/><path fill="#f4442e" d="M 47.242188 16.097656 L 48.1875 17.042969 L 47.242188 17.992188 L 46.292969 17.042969 Z M 47.242188 16.097656 " fill-opacity="1" fill-rule="nonzero"/><path fill="#f4442e" d="M 48.96875 17.824219 L 49.914062 18.769531 L 48.96875 19.71875 L 48.019531 18.769531 Z M 48.96875 17.824219 " fill-opacity="1" fill-rule="nonzero"/><path fill="#f4442e" d="M 50.695312 19.550781 L 51.640625 20.496094 L 50.695312 21.445312 L 49.746094 20.496094 Z M 50.695312 19.550781 " fill-opacity="1" fill-rule="nonzero"/><path fill="#f4442e" d="M 52.421875 21.277344 L 53.371094 22.222656 L 52.421875 23.171875 L 51.476562 22.222656 Z M 52.421875 21.277344 " fill-opacity="1" fill-rule="nonzero"/><path fill="#f4442e" d="M 54.148438 23.003906 L 55.097656 23.949219 L 54.148438 24.898438 L 53.203125 23.949219 Z M 54.148438 23.003906 " fill-opacity="1" fill-rule="nonzero"/><path fill="#f4442e" d="M 33.480469 5.675781 L 34.429688 6.625 L 33.480469 7.570312 L 32.535156 6.625 Z M 33.480469 5.675781 " fill-opacity="1" fill-rule="nonzero"/><path fill="#f4442e" d="M 35.207031 7.40625 L 36.15625 8.351562 L 35.207031 9.300781 L 34.261719 8.351562 Z M 35.207031 7.40625 " fill-opacity="1" fill-rule="nonzero"/><path fill="#f4442e" d="M 36.933594 9.132812 L 37.882812 10.078125 L 36.933594 11.027344 L 35.988281 10.078125 Z M 36.933594 9.132812 " fill-opacity="1" fill-rule="nonzero"/><path fill="#f4442e" d="M 38.660156 10.859375 L 39.609375 11.804688 L 38.660156 12.753906 L 37.714844 11.804688 Z M 38.660156 10.859375 " fill-opacity="1" fill-rule="nonzero"/><path fill="#f4442e" d="M 40.390625 12.585938 L 41.335938 13.53125 L 40.390625 14.480469 L 39.441406 13.53125 Z M 40.390625 12.585938 " fill-opacity="1" fill-rule="nonzero"/><path fill="#f4442e" d="M 42.117188 14.3125 L 43.0625 15.257812 L 42.117188 16.207031 L 41.167969 15.257812 Z M 42.117188 14.3125 " fill-opacity="1" fill-rule="nonzero"/><path fill="#f4442e" d="M 43.84375 16.039062 L 44.789062 16.984375 L 43.84375 17.933594 L 42.894531 16.984375 Z M 43.84375 16.039062 " fill-opacity="1" fill-rule="nonzero"/><path fill="#f4442e" d="M 45.570312 17.765625 L 46.515625 18.714844 L 45.570312 19.660156 L 44.621094 18.714844 Z M 45.570312 17.765625 " fill-opacity="1" fill-rule="nonzero"/><path fill="#f4442e" d="M 47.296875 19.496094 L 48.242188 20.441406 L 47.296875 21.386719 L 46.347656 20.441406 Z M 47.296875 19.496094 " fill-opacity="1" fill-rule="nonzero"/><path fill="#f4442e" d="M 49.023438 21.222656 L 49.96875 22.167969 L 49.023438 23.117188 L 48.074219 22.167969 Z M 49.023438 21.222656 " fill-opacity="1" fill-rule="nonzero"/><path fill="#f4442e" d="M 50.75 22.949219 L 51.699219 23.894531 L 50.75 24.84375 L 49.804688 23.894531 Z M 50.75 22.949219 " fill-opacity="1" fill-rule="nonzero"/><path fill="#f4442e" d="M 52.476562 24.675781 L 53.425781 25.621094 L 52.476562 26.570312 L 51.53125 25.621094 Z M 52.476562 24.675781 " fill-opacity="1" fill-rule="nonzero"/><path fill="#f4442e" d="M 31.808594 7.347656 L 32.753906 8.296875 L 31.808594 9.242188 L 30.859375 8.296875 Z M 31.808594 7.347656 " fill-opacity="1" fill-rule="nonzero"/><path fill="#f4442e" d="M 33.535156 9.074219 L 34.484375 10.023438 L 33.535156 10.96875 L 32.589844 10.023438 Z M 33.535156 9.074219 " fill-opacity="1" fill-rule="nonzero"/><path fill="#f4442e" d="M 35.261719 10.804688 L 36.210938 11.75 L 35.261719 12.695312 L 34.316406 11.75 Z M 35.261719 10.804688 " fill-opacity="1" fill-rule="nonzero"/><path fill="#f4442e" d="M 36.988281 12.53125 L 37.9375 13.476562 L 36.988281 14.425781 L 36.042969 13.476562 Z M 36.988281 12.53125 " fill-opacity="1" fill-rule="nonzero"/><path fill="#f4442e" d="M 38.71875 14.257812 L 39.664062 15.203125 L 38.71875 16.152344 L 37.769531 15.203125 Z M 38.71875 14.257812 " fill-opacity="1" fill-rule="nonzero"/><path fill="#f4442e" d="M 40.445312 15.984375 L 41.390625 16.929688 L 40.445312 17.878906 L 39.496094 16.929688 Z M 40.445312 15.984375 " fill-opacity="1" fill-rule="nonzero"/><path fill="#f4442e" d="M 42.171875 17.710938 L 43.117188 18.65625 L 42.171875 19.605469 L 41.222656 18.65625 Z M 42.171875 17.710938 " fill-opacity="1" fill-rule="nonzero"/><path fill="#f4442e" d="M 43.898438 19.4375 L 44.84375 20.382812 L 43.898438 21.332031 L 42.949219 20.382812 Z M 43.898438 19.4375 " fill-opacity="1" fill-rule="nonzero"/><path fill="#f4442e" d="M 45.625 21.164062 L 46.574219 22.109375 L 45.625 23.058594 L 44.679688 22.109375 Z M 45.625 21.164062 " fill-opacity="1" fill-rule="nonzero"/><path fill="#f4442e" d="M 47.351562 22.890625 L 48.300781 23.839844 L 47.351562 24.785156 L 46.40625 23.839844 Z M 47.351562 22.890625 " fill-opacity="1" fill-rule="nonzero"/><path fill="#f4442e" d="M 49.078125 24.617188 L 50.027344 25.566406 L 49.078125 26.511719 L 48.132812 25.566406 Z M 49.078125 24.617188 " fill-opacity="1" fill-rule="nonzero"/><path fill="#f4442e" d="M 50.804688 26.347656 L 51.753906 27.292969 L 50.804688 28.242188 L 49.859375 27.292969 Z M 50.804688 26.347656 " fill-opacity="1" fill-rule="nonzero"/><path fill="#f4442e" d="M 30.136719 9.019531 L 31.082031 9.96875 L 30.136719 10.914062 L 29.1875 9.96875 Z M 30.136719 9.019531 " fill-opacity="1" fill-rule="nonzero"/><path fill="#f4442e" d="M 31.863281 10.746094 L 32.8125 11.695312 L 31.863281 12.640625 L 30.917969 11.695312 Z M 31.863281 10.746094 " fill-opacity="1" fill-rule="nonzero"/><path fill="#f4442e" d="M 33.589844 12.472656 L 34.539062 13.421875 L 33.589844 14.367188 L 32.644531 13.421875 Z M 33.589844 12.472656 " fill-opacity="1" fill-rule="nonzero"/><path fill="#f4442e" d="M 35.316406 14.199219 L 36.265625 15.148438 L 35.316406 16.09375 L 34.371094 15.148438 Z M 35.316406 14.199219 " fill-opacity="1" fill-rule="nonzero"/><path fill="#f4442e" d="M 37.042969 15.929688 L 37.992188 16.875 L 37.042969 17.824219 L 36.097656 16.875 Z M 37.042969 15.929688 " fill-opacity="1" fill-rule="nonzero"/><path fill="#f4442e" d="M 38.773438 17.65625 L 39.71875 18.601562 L 38.773438 19.550781 L 37.824219 18.601562 Z M 38.773438 17.65625 " fill-opacity="1" fill-rule="nonzero"/><path fill="#f4442e" d="M 40.5 19.382812 L 41.445312 20.328125 L 40.5 21.277344 L 39.550781 20.328125 Z M 40.5 19.382812 " fill-opacity="1" fill-rule="nonzero"/><path fill="#f4442e" d="M 42.226562 21.109375 L 43.175781 22.058594 L 42.226562 23.003906 L 41.28125 22.058594 Z M 42.226562 21.109375 " fill-opacity="1" fill-rule="nonzero"/><path fill="#f4442e" d="M 43.953125 22.835938 L 44.902344 23.785156 L 43.953125 24.730469 L 43.007812 23.785156 Z M 43.953125 22.835938 " fill-opacity="1" fill-rule="nonzero"/><path fill="#f4442e" d="M 45.683594 24.5625 L 46.628906 25.511719 L 45.683594 26.457031 L 44.734375 25.511719 Z M 45.683594 24.5625 " fill-opacity="1" fill-rule="nonzero"/><path fill="#f4442e" d="M 47.410156 26.289062 L 48.355469 27.238281 L 47.410156 28.183594 L 46.460938 27.238281 Z M 47.410156 26.289062 " fill-opacity="1" fill-rule="nonzero"/><path fill="#f4442e" d="M 49.136719 28.015625 L 50.082031 28.964844 L 49.136719 29.910156 L 48.1875 28.964844 Z M 49.136719 28.015625 " fill-opacity="1" fill-rule="nonzero"/><path fill="#f4442e" d="M 28.464844 10.691406 L 29.414062 11.636719 L 28.464844 12.585938 L 27.519531 11.636719 Z M 28.464844 10.691406 " fill-opacity="1" fill-rule="nonzero"/><path fill="#f4442e" d="M 30.191406 12.417969 L 31.140625 13.363281 L 30.191406 14.3125 L 29.246094 13.363281 Z M 30.191406 12.417969 " fill-opacity="1" fill-rule="nonzero"/><path fill="#f4442e" d="M 31.921875 14.144531 L 32.867188 15.089844 L 31.921875 16.039062 L 30.972656 15.089844 Z M 31.921875 14.144531 " fill-opacity="1" fill-rule="nonzero"/><path fill="#f4442e" d="M 33.648438 15.871094 L 34.59375 16.816406 L 33.648438 17.765625 L 32.699219 16.816406 Z M 33.648438 15.871094 " fill-opacity="1" fill-rule="nonzero"/><path fill="#f4442e" d="M 35.375 17.601562 L 36.320312 18.546875 L 35.375 19.496094 L 34.425781 18.546875 Z M 35.375 17.601562 " fill-opacity="1" fill-rule="nonzero"/><path fill="#f4442e" d="M 37.101562 19.328125 L 38.046875 20.273438 L 37.101562 21.222656 L 36.152344 20.273438 Z M 37.101562 19.328125 " fill-opacity="1" fill-rule="nonzero"/><path fill="#f4442e" d="M 38.828125 21.054688 L 39.777344 22 L 38.828125 22.949219 L 37.882812 22 Z M 38.828125 21.054688 " fill-opacity="1" fill-rule="nonzero"/><path fill="#f4442e" d="M 40.554688 22.78125 L 41.503906 23.730469 L 40.554688 24.675781 L 39.609375 23.730469 Z M 40.554688 22.78125 " fill-opacity="1" fill-rule="nonzero"/><path fill="#f4442e" d="M 42.28125 24.507812 L 43.230469 25.457031 L 42.28125 26.402344 L 41.335938 25.457031 Z M 42.28125 24.507812 " fill-opacity="1" fill-rule="nonzero"/><path fill="#f4442e" d="M 44.007812 26.234375 L 44.957031 27.183594 L 44.007812 28.128906 L 43.0625 27.183594 Z M 44.007812 26.234375 " fill-opacity="1" fill-rule="nonzero"/><path fill="#f4442e" d="M 45.738281 27.960938 L 46.683594 28.910156 L 45.738281 29.855469 L 44.789062 28.910156 Z M 45.738281 27.960938 " fill-opacity="1" fill-rule="nonzero"/><path fill="#f4442e" d="M 47.464844 29.6875 L 48.410156 30.636719 L 47.464844 31.582031 L 46.515625 30.636719 Z M 47.464844 29.6875 " fill-opacity="1" fill-rule="nonzero"/><path fill="#f4442e" d="M 26.796875 12.363281 L 27.742188 13.308594 L 26.796875 14.257812 L 25.847656 13.308594 Z M 26.796875 12.363281 " fill-opacity="1" fill-rule="nonzero"/><path fill="#f4442e" d="M 28.523438 14.089844 L 29.46875 15.039062 L 28.523438 15.984375 L 27.574219 15.039062 Z M 28.523438 14.089844 " fill-opacity="1" fill-rule="nonzero"/><path fill="#f4442e" d="M 30.25 15.816406 L 31.195312 16.765625 L 30.25 17.710938 L 29.300781 16.765625 Z M 30.25 15.816406 " fill-opacity="1" fill-rule="nonzero"/><path fill="#f4442e" d="M 31.976562 17.542969 L 32.921875 18.492188 L 31.976562 19.4375 L 31.027344 18.492188 Z M 31.976562 17.542969 " fill-opacity="1" fill-rule="nonzero"/><path fill="#f4442e" d="M 33.703125 19.269531 L 34.652344 20.21875 L 33.703125 21.164062 L 32.757812 20.21875 Z M 33.703125 19.269531 " fill-opacity="1" fill-rule="nonzero"/><path fill="#f4442e" d="M 35.429688 20.996094 L 36.378906 21.945312 L 35.429688 22.890625 L 34.484375 21.945312 Z M 35.429688 20.996094 " fill-opacity="1" fill-rule="nonzero"/><path fill="#f4442e" d="M 37.15625 22.722656 L 38.105469 23.671875 L 37.15625 24.617188 L 36.210938 23.671875 Z M 37.15625 22.722656 " fill-opacity="1" fill-rule="nonzero"/><path fill="#f4442e" d="M 38.882812 24.453125 L 39.832031 25.398438 L 38.882812 26.347656 L 37.9375 25.398438 Z M 38.882812 24.453125 " fill-opacity="1" fill-rule="nonzero"/><path fill="#f4442e" d="M 40.609375 26.179688 L 41.558594 27.125 L 40.609375 28.074219 L 39.664062 27.125 Z M 40.609375 26.179688 " fill-opacity="1" fill-rule="nonzero"/><path fill="#f4442e" d="M 42.335938 27.90625 L 43.285156 28.855469 L 42.335938 29.800781 L 41.390625 28.855469 Z M 42.335938 27.90625 " fill-opacity="1" fill-rule="nonzero"/><path fill="#f4442e" d="M 44.066406 29.632812 L 45.011719 30.582031 L 44.066406 31.527344 L 43.117188 30.582031 Z M 44.066406 29.632812 " fill-opacity="1" fill-rule="nonzero"/><path fill="#f4442e" d="M 45.792969 31.359375 L 46.738281 32.308594 L 45.792969 33.253906 L 44.84375 32.308594 Z M 45.792969 31.359375 " fill-opacity="1" fill-rule="nonzero"/><path fill="#f4442e" d="M 25.121094 14.035156 L 26.070312 14.980469 L 25.121094 15.929688 L 24.175781 14.980469 Z M 25.121094 14.035156 " fill-opacity="1" fill-rule="nonzero"/><path fill="#f4442e" d="M 26.851562 15.761719 L 27.796875 16.707031 L 26.851562 17.65625 L 25.902344 16.707031 Z M 26.851562 15.761719 " fill-opacity="1" fill-rule="nonzero"/><path fill="#f4442e" d="M 28.578125 17.488281 L 29.523438 18.4375 L 28.578125 19.382812 L 27.628906 18.4375 Z M 28.578125 17.488281 " fill-opacity="1" fill-rule="nonzero"/><path fill="#f4442e" d="M 30.304688 19.214844 L 31.25 20.164062 L 30.304688 21.109375 L 29.355469 20.164062 Z M 30.304688 19.214844 " fill-opacity="1" fill-rule="nonzero"/><path fill="#f4442e" d="M 32.03125 20.941406 L 32.980469 21.890625 L 32.03125 22.835938 L 31.085938 21.890625 Z M 32.03125 20.941406 " fill-opacity="1" fill-rule="nonzero"/><path fill="#f4442e" d="M 33.757812 22.667969 L 34.707031 23.617188 L 33.757812 24.5625 L 32.8125 23.617188 Z M 33.757812 22.667969 " fill-opacity="1" fill-rule="nonzero"/><path fill="#f4442e" d="M 35.484375 24.394531 L 36.433594 25.34375 L 35.484375 26.289062 L 34.539062 25.34375 Z M 35.484375 24.394531 " fill-opacity="1" fill-rule="nonzero"/><path fill="#f4442e" d="M 37.210938 26.121094 L 38.160156 27.070312 L 37.210938 28.015625 L 36.265625 27.070312 Z M 37.210938 26.121094 " fill-opacity="1" fill-rule="nonzero"/><path fill="#f4442e" d="M 38.941406 27.847656 L 39.886719 28.796875 L 38.941406 29.742188 L 37.992188 28.796875 Z M 38.941406 27.847656 " fill-opacity="1" fill-rule="nonzero"/><path fill="#f4442e" d="M 40.667969 29.578125 L 41.613281 30.523438 L 40.667969 31.472656 L 39.71875 30.523438 Z M 40.667969 29.578125 " fill-opacity="1" fill-rule="nonzero"/><path fill="#f4442e" d="M 42.394531 31.304688 L 43.339844 32.25 L 42.394531 33.199219 L 41.445312 32.25 Z M 42.394531 31.304688 " fill-opacity="1" fill-rule="nonzero"/><path fill="#f4442e" d="M 44.121094 33.03125 L 45.070312 33.980469 L 44.121094 34.925781 L 43.175781 33.980469 Z M 44.121094 33.03125 " fill-opacity="1" fill-rule="nonzero"/><path fill="#f4442e" d="M 23.453125 15.703125 L 24.398438 16.652344 L 23.453125 17.597656 L 22.503906 16.652344 Z M 23.453125 15.703125 " fill-opacity="1" fill-rule="nonzero"/><path fill="#f4442e" d="M 25.179688 17.433594 L 26.125 18.378906 L 25.179688 19.328125 L 24.230469 18.378906 Z M 25.179688 17.433594 " fill-opacity="1" fill-rule="nonzero"/><path fill="#f4442e" d="M 26.90625 19.160156 L 27.851562 20.105469 L 26.90625 21.054688 L 25.957031 20.105469 Z M 26.90625 19.160156 " fill-opacity="1" fill-rule="nonzero"/><path fill="#f4442e" d="M 28.632812 20.886719 L 29.578125 21.832031 L 28.632812 22.78125 L 27.683594 21.832031 Z M 28.632812 20.886719 " fill-opacity="1" fill-rule="nonzero"/><path fill="#f4442e" d="M 30.359375 22.613281 L 31.304688 23.5625 L 30.359375 24.507812 L 29.410156 23.5625 Z M 30.359375 22.613281 " fill-opacity="1" fill-rule="nonzero"/><path fill="#f4442e" d="M 32.085938 24.339844 L 33.035156 25.289062 L 32.085938 26.234375 L 31.140625 25.289062 Z M 32.085938 24.339844 " fill-opacity="1" fill-rule="nonzero"/><path fill="#f4442e" d="M 33.8125 26.066406 L 34.761719 27.015625 L 33.8125 27.960938 L 32.867188 27.015625 Z M 33.8125 26.066406 " fill-opacity="1" fill-rule="nonzero"/><path fill="#f4442e" d="M 35.542969 27.796875 L 36.488281 28.742188 L 35.542969 29.691406 L 34.59375 28.742188 Z M 35.542969 27.796875 " fill-opacity="1" fill-rule="nonzero"/><path fill="#f4442e" d="M 37.269531 29.523438 L 38.214844 30.46875 L 37.269531 31.417969 L 36.320312 30.46875 Z M 37.269531 29.523438 " fill-opacity="1" fill-rule="nonzero"/><path fill="#f4442e" d="M 38.996094 31.25 L 39.945312 32.195312 L 38.996094 33.144531 L 38.050781 32.195312 Z M 38.996094 31.25 " fill-opacity="1" fill-rule="nonzero"/><path fill="#f4442e" d="M 40.722656 32.976562 L 41.671875 33.921875 L 40.722656 34.871094 L 39.777344 33.921875 Z M 40.722656 32.976562 " fill-opacity="1" fill-rule="nonzero"/><path fill="#f4442e" d="M 42.449219 34.703125 L 43.398438 35.648438 L 42.449219 36.597656 L 41.503906 35.648438 Z M 42.449219 34.703125 " fill-opacity="1" fill-rule="nonzero"/><path fill="#f4442e" d="M 21.78125 17.375 L 22.726562 18.324219 L 21.78125 19.269531 L 20.832031 18.324219 Z M 21.78125 17.375 " fill-opacity="1" fill-rule="nonzero"/><path fill="#f4442e" d="M 23.507812 19.101562 L 24.453125 20.050781 L 23.507812 20.996094 L 22.558594 20.050781 Z M 23.507812 19.101562 " fill-opacity="1" fill-rule="nonzero"/><path fill="#f4442e" d="M 25.234375 20.828125 L 26.179688 21.777344 L 25.234375 22.722656 L 24.289062 21.777344 Z M 25.234375 20.828125 " fill-opacity="1" fill-rule="nonzero"/><path fill="#f4442e" d="M 26.964844 22.558594 L 27.910156 23.503906 L 26.964844 24.453125 L 26.015625 23.503906 Z M 26.964844 22.558594 " fill-opacity="1" fill-rule="nonzero"/><path fill="#f4442e" d="M 28.6875 24.285156 L 29.636719 25.234375 L 28.6875 26.179688 L 27.742188 25.234375 Z M 28.6875 24.285156 " fill-opacity="1" fill-rule="nonzero"/><path fill="#f4442e" d="M 30.414062 26.011719 L 31.363281 26.960938 L 30.414062 27.90625 L 29.46875 26.960938 Z M 30.414062 26.011719 " fill-opacity="1" fill-rule="nonzero"/><path fill="#f4442e" d="M 32.144531 27.738281 L 33.089844 28.6875 L 32.144531 29.632812 L 31.195312 28.6875 Z M 32.144531 27.738281 " fill-opacity="1" fill-rule="nonzero"/><path fill="#f4442e" d="M 33.871094 29.46875 L 34.816406 30.414062 L 33.871094 31.363281 L 32.921875 30.414062 Z M 33.871094 29.46875 " fill-opacity="1" fill-rule="nonzero"/><path fill="#f4442e" d="M 35.597656 31.195312 L 36.542969 32.140625 L 35.597656 33.089844 L 34.648438 32.140625 Z M 35.597656 31.195312 " fill-opacity="1" fill-rule="nonzero"/><path fill="#f4442e" d="M 37.324219 32.921875 L 38.269531 33.867188 L 37.324219 34.816406 L 36.375 33.867188 Z M 37.324219 32.921875 " fill-opacity="1" fill-rule="nonzero"/><path fill="#f4442e" d="M 39.050781 34.648438 L 40 35.59375 L 39.050781 36.542969 L 38.105469 35.59375 Z M 39.050781 34.648438 " fill-opacity="1" fill-rule="nonzero"/><path fill="#f4442e" d="M 40.777344 36.375 L 41.726562 37.320312 L 40.777344 38.269531 L 39.832031 37.320312 Z M 40.777344 36.375 " fill-opacity="1" fill-rule="nonzero"/><g clip-path="url(#2bee5d56cd)"><path fill="#f3a62a" d="M 6.359375 22.28125 L 25.664062 2.976562 L 44.96875 22.28125 L 25.664062 41.585938 Z M 6.359375 22.28125 " fill-opacity="1" fill-rule="nonzero"/></g><g clip-path="url(#7ee02849df)"><path fill="#000000" d="M 0.4375 22.167969 L 14.003906 8.601562 L 27.570312 22.167969 L 14.003906 35.734375 Z M 0.4375 22.167969 " fill-opacity="1" fill-rule="nonzero"/></g></g></g></g></svg>