<svg xmlns="http://www.w3.org/2000/svg" xmlns:xlink="http://www.w3.org/1999/xlink" width="2000" zoomAndPan="magnify" viewBox="0 0 1500 1499.999933" height="2000" preserveAspectRatio="xMidYMid meet" version="1.0"><path fill="#d9d9d9" d="M 750.417969 214.601562 C 774.371094 214.625 794.65625 215.644531 811.273438 217.660156 C 912.269531 230.003906 1001.199219 265.851562 1078.066406 325.203125 C 1135.058594 369.207031 1181.027344 422.347656 1215.972656 484.617188 C 1251.992188 548.800781 1274.070312 615.582031 1282.207031 684.957031 C 1291.371094 763.09375 1284.480469 838.070312 1261.535156 909.894531 C 1191.375 1129.585938 981.988281 1286.90625 749.675781 1286.746094 C 517.332031 1286.554688 308.203125 1128.972656 238.332031 909.1875 C 215.492188 837.320312 208.710938 762.332031 217.984375 684.21875 C 226.226562 614.839844 248.402344 548.09375 284.503906 483.976562 C 319.539062 421.746094 365.582031 368.671875 422.636719 324.753906 C 499.589844 265.507812 588.566406 229.777344 689.5625 217.566406 C 706.175781 215.570312 726.460938 214.582031 750.417969 214.601562 Z M 749.128906 1057.816406 C 749.300781 1058.203125 749.398438 1058.972656 749.417969 1060.132812 C 749.742188 1086.792969 749.515625 1117.285156 748.742188 1151.609375 C 748.464844 1163.738281 752.808594 1171.90625 761.78125 1176.113281 C 771.335938 1180.578125 779.898438 1180.09375 787.476562 1174.664062 C 913.503906 1084.65625 985.410156 1033.515625 1003.207031 1021.238281 C 1039.417969 996.273438 1064.308594 976.730469 1077.875 962.605469 C 1132.128906 906.128906 1165.421875 835.871094 1169.800781 758.464844 C 1175.757812 652.855469 1128.492188 554.296875 1045.097656 489.382812 C 1004.871094 458.066406 959.632812 437.726562 909.378906 428.367188 C 889.136719 424.589844 854.4375 422.863281 805.28125 423.183594 C 751.296875 423.527344 707.011719 423.550781 672.433594 423.25 C 627.355469 422.863281 586.976562 426.082031 548.789062 439.414062 C 479.949219 463.410156 425.597656 504.421875 385.738281 562.441406 C 349.03125 615.859375 329.839844 676.296875 329.648438 740.402344 C 329.519531 787.304688 340.1875 832.921875 361.652344 877.246094 C 413.589844 984.46875 524.253906 1055.753906 644.546875 1056.171875 C 681.105469 1056.300781 714.945312 1056.183594 746.070312 1055.820312 C 746.734375 1055.808594 747.34375 1055.984375 747.898438 1056.347656 C 748.457031 1056.710938 748.867188 1057.199219 749.128906 1057.816406 Z M 749.128906 1057.816406 " fill-opacity="1" fill-rule="nonzero"/><path fill="#d9d9d9" d="M 750 817.90625 C 767.730469 817.925781 782.195312 816.59375 793.402344 813.914062 C 843.933594 801.847656 884.929688 775.949219 916.398438 736.21875 C 924 726.621094 929.730469 721.074219 933.59375 719.570312 C 944.734375 715.320312 954.167969 714.03125 965.050781 719.34375 C 985.882812 729.519531 991.648438 755.953125 976.449219 775.082031 C 920.390625 845.722656 840.476562 888.324219 750 888.257812 C 659.488281 888.226562 579.605469 845.59375 523.609375 774.886719 C 508.445312 755.761719 514.210938 729.328125 535.042969 719.152344 C 545.957031 713.871094 555.390625 715.160156 566.5 719.410156 C 570.363281 720.914062 576.09375 726.472656 583.695312 736.089844 C 615.117188 775.84375 656.097656 801.773438 706.628906 813.878906 C 717.832031 816.5625 732.289062 817.90625 750 817.90625 Z M 750 817.90625 " fill-opacity="1" fill-rule="nonzero"/></svg>