<svg xmlns="http://www.w3.org/2000/svg" xmlns:xlink="http://www.w3.org/1999/xlink" width="2000" zoomAndPan="magnify" viewBox="0 0 1500 1499.999933" height="2000" preserveAspectRatio="xMidYMid meet" version="1.0"><path fill="#202b3d" d="M 750.414062 218.039062 C 774.214844 218.0625 794.371094 219.074219 810.878906 221.078125 C 911.226562 233.34375 999.585938 268.960938 1075.960938 327.933594 C 1132.585938 371.652344 1178.261719 424.449219 1212.984375 486.324219 C 1248.769531 550.09375 1270.707031 616.445312 1278.789062 685.375 C 1287.898438 763.007812 1281.050781 837.507812 1258.25 908.871094 C 1188.539062 1127.148438 980.5 1283.460938 749.679688 1283.300781 C 518.828125 1283.109375 311.039062 1126.542969 241.617188 908.164062 C 218.925781 836.761719 212.1875 762.25 221.398438 684.640625 C 229.589844 615.707031 251.621094 549.390625 287.496094 485.683594 C 322.300781 423.855469 368.050781 371.121094 424.738281 327.484375 C 501.199219 268.621094 589.601562 233.117188 689.949219 220.984375 C 706.457031 219 726.613281 218.019531 750.414062 218.039062 Z M 749.136719 1055.839844 C 749.304688 1056.222656 749.402344 1056.992188 749.421875 1058.144531 C 749.742188 1084.632812 749.519531 1114.929688 748.75 1149.03125 C 748.472656 1161.082031 752.792969 1169.195312 761.707031 1173.375 C 771.199219 1177.8125 779.707031 1177.332031 787.238281 1171.9375 C 912.453125 1082.511719 983.902344 1031.695312 1001.582031 1019.496094 C 1037.5625 994.691406 1062.292969 975.273438 1075.769531 961.238281 C 1129.675781 905.125 1162.753906 835.320312 1167.105469 758.414062 C 1173.023438 653.480469 1126.0625 555.554688 1043.203125 491.058594 C 1003.234375 459.941406 958.285156 439.730469 908.359375 430.433594 C 888.246094 426.679688 853.769531 424.960938 804.929688 425.28125 C 751.289062 425.625 707.289062 425.644531 672.929688 425.347656 C 628.140625 424.960938 588.023438 428.160156 550.082031 441.40625 C 481.683594 465.25 427.683594 505.996094 388.078125 563.648438 C 351.605469 616.722656 332.539062 676.769531 332.347656 740.464844 C 332.21875 787.066406 342.820312 832.386719 364.144531 876.429688 C 415.75 982.960938 525.703125 1053.792969 645.226562 1054.207031 C 681.546875 1054.335938 715.171875 1054.21875 746.09375 1053.855469 C 746.753906 1053.84375 747.359375 1054.019531 747.914062 1054.378906 C 748.46875 1054.742188 748.875 1055.226562 749.136719 1055.839844 Z M 749.136719 1055.839844 " fill-opacity="1" fill-rule="nonzero"/><path fill="#202b3d" d="M 750 817.46875 C 767.617188 817.492188 781.992188 816.167969 793.125 813.503906 C 843.328125 801.515625 884.066406 775.785156 915.332031 736.304688 C 922.882812 726.773438 928.578125 721.257812 932.414062 719.765625 C 943.484375 715.542969 952.859375 714.265625 963.671875 719.542969 C 984.371094 729.652344 990.097656 755.917969 974.996094 774.921875 C 919.296875 845.109375 839.894531 887.433594 750 887.371094 C 660.070312 887.339844 580.699219 844.980469 525.066406 774.726562 C 509.996094 755.726562 515.722656 729.460938 536.421875 719.351562 C 547.265625 714.105469 556.640625 715.382812 567.679688 719.605469 C 571.515625 721.097656 577.210938 726.625 584.761719 736.179688 C 615.984375 775.675781 656.699219 801.441406 706.90625 813.46875 C 718.039062 816.136719 732.402344 817.46875 750 817.46875 Z M 750 817.46875 " fill-opacity="1" fill-rule="nonzero"/></svg>