<svg xmlns="http://www.w3.org/2000/svg" xmlns:xlink="http://www.w3.org/1999/xlink" width="851" zoomAndPan="magnify" viewBox="0 0 638.25 236.249991" height="315" preserveAspectRatio="xMidYMid meet" version="1.0"><defs><clipPath id="0a299987d6"><path d="M 0.636719 0 L 636.867188 0 L 636.867188 235.503906 L 0.636719 235.503906 Z M 0.636719 0 " clip-rule="nonzero"/></clipPath><clipPath id="092111d03d"><path d="M 256.722656 29.472656 L 383.820312 29.472656 L 383.820312 156.570312 L 256.722656 156.570312 Z M 256.722656 29.472656 " clip-rule="nonzero"/></clipPath><clipPath id="ca905d905c"><path d="M 330 18 L 384 18 L 384 59 L 330 59 Z M 330 18 " clip-rule="nonzero"/></clipPath><clipPath id="979ba5af1b"><path d="M 344.777344 14.070312 L 383.753906 31.75 L 369.386719 63.421875 L 330.410156 45.742188 Z M 344.777344 14.070312 " clip-rule="nonzero"/></clipPath><clipPath id="4f8fb5c5eb"><path d="M 355.335938 18.859375 L 383.679688 31.714844 L 358.753906 58.601562 L 330.410156 45.742188 Z M 355.335938 18.859375 " clip-rule="nonzero"/></clipPath><clipPath id="e15b95ab14"><path d="M 0.308594 0.660156 L 53.898438 0.660156 L 53.898438 40.613281 L 0.308594 40.613281 Z M 0.308594 0.660156 " clip-rule="nonzero"/></clipPath><clipPath id="5a4a608229"><path d="M 14.777344 -3.929688 L 53.753906 13.75 L 39.386719 45.421875 L 0.410156 27.742188 Z M 14.777344 -3.929688 " clip-rule="nonzero"/></clipPath><clipPath id="b43ce9d4a9"><path d="M 25.335938 0.859375 L 53.679688 13.714844 L 28.753906 40.601562 L 0.410156 27.742188 Z M 25.335938 0.859375 " clip-rule="nonzero"/></clipPath><clipPath id="7ececc6c00"><rect x="0" width="54" y="0" height="41"/></clipPath><clipPath id="e1b7d1d7e3"><path d="M 262 156 L 378 156 L 378 212 L 262 212 Z M 262 156 " clip-rule="nonzero"/></clipPath><clipPath id="727510df5d"><path d="M 377.582031 211.945312 L 262.691406 211.789062 L 262.765625 156.398438 L 377.65625 156.554688 Z M 377.582031 211.945312 " clip-rule="nonzero"/></clipPath><clipPath id="a95ac5be63"><path d="M 262.78125 156.398438 C 262.738281 186.570312 288.859375 211.824219 320.144531 211.867188 C 351.429688 211.910156 377.617188 186.726562 377.65625 156.554688 L 345.761719 156.511719 C 345.746094 169.929688 334.097656 181.128906 320.183594 181.113281 C 306.269531 181.09375 294.65625 169.859375 294.675781 156.441406 Z M 262.78125 156.398438 " clip-rule="nonzero"/></clipPath><clipPath id="e15e440960"><path d="M 0.605469 0.222656 L 115.679688 0.222656 L 115.679688 55.96875 L 0.605469 55.96875 Z M 0.605469 0.222656 " clip-rule="nonzero"/></clipPath><clipPath id="77ce5fc17c"><path d="M 115.582031 55.945312 L 0.691406 55.789062 L 0.765625 0.398438 L 115.65625 0.554688 Z M 115.582031 55.945312 " clip-rule="nonzero"/></clipPath><clipPath id="e9435ad17c"><path d="M 0.78125 0.398438 C 0.738281 30.570312 26.859375 55.824219 58.144531 55.867188 C 89.429688 55.910156 115.617188 30.726562 115.65625 0.554688 L 83.761719 0.511719 C 83.746094 13.929688 72.097656 25.128906 58.183594 25.113281 C 44.269531 25.09375 32.65625 13.859375 32.675781 0.441406 Z M 0.78125 0.398438 " clip-rule="nonzero"/></clipPath><clipPath id="d555c9ba20"><rect x="0" width="116" y="0" height="56"/></clipPath></defs><g clip-path="url(#0a299987d6)"><path fill="#ffffff" d="M 0.636719 0 L 636.867188 0 L 636.867188 235.503906 L 0.636719 235.503906 Z M 0.636719 0 " fill-opacity="1" fill-rule="nonzero"/><path fill="#202c59" d="M 0.636719 0 L 636.867188 0 L 636.867188 235.503906 L 0.636719 235.503906 Z M 0.636719 0 " fill-opacity="1" fill-rule="nonzero"/></g><g clip-path="url(#092111d03d)"><path fill="#fff0d0" d="M 320.191406 29.476562 C 355.21875 29.476562 383.660156 57.914062 383.660156 92.941406 C 383.660156 127.96875 355.21875 156.410156 320.191406 156.410156 C 285.164062 156.410156 256.722656 127.96875 256.722656 92.941406 C 256.722656 57.914062 285.164062 29.476562 320.191406 29.476562 Z M 320.191406 61.207031 C 337.707031 61.207031 351.925781 75.425781 351.925781 92.941406 C 351.925781 110.457031 337.707031 124.675781 320.191406 124.675781 C 302.675781 124.675781 288.457031 110.457031 288.457031 92.941406 C 288.457031 75.425781 302.675781 61.207031 320.191406 61.207031 Z M 320.191406 61.207031 " fill-opacity="1" fill-rule="evenodd"/></g><g clip-path="url(#ca905d905c)"><g clip-path="url(#979ba5af1b)"><g clip-path="url(#4f8fb5c5eb)"><g transform="matrix(1, 0, 0, 1, 330, 18)"><g clip-path="url(#7ececc6c00)"><g clip-path="url(#e15b95ab14)"><g clip-path="url(#5a4a608229)"><g clip-path="url(#b43ce9d4a9)"><path fill="#fff0d0" d="M 14.777344 -3.929688 L 53.628906 13.691406 L 39.261719 45.367188 L 0.410156 27.742188 Z M 14.777344 -3.929688 " fill-opacity="1" fill-rule="nonzero"/></g></g></g></g></g></g></g></g><g clip-path="url(#e1b7d1d7e3)"><g clip-path="url(#727510df5d)"><g clip-path="url(#a95ac5be63)"><g transform="matrix(1, 0, 0, 1, 262, 156)"><g clip-path="url(#d555c9ba20)"><g clip-path="url(#e15e440960)"><g clip-path="url(#77ce5fc17c)"><g clip-path="url(#e9435ad17c)"><path fill="#f4442e" d="M 115.582031 55.945312 L 0.691406 55.789062 L 0.765625 0.398438 L 115.65625 0.554688 Z M 115.582031 55.945312 " fill-opacity="1" fill-rule="nonzero"/></g></g></g></g></g></g></g></g></svg>