<svg xmlns="http://www.w3.org/2000/svg" xmlns:xlink="http://www.w3.org/1999/xlink" width="666" zoomAndPan="magnify" viewBox="0 0 499.5 499.499998" height="666" preserveAspectRatio="xMidYMid meet" version="1.0"><defs><clipPath id="dcc1db6518"><path d="M 118.074219 62.449219 L 387.054688 62.449219 L 387.054688 331.429688 L 118.074219 331.429688 Z M 118.074219 62.449219 " clip-rule="nonzero"/></clipPath><clipPath id="96770ac926"><path d="M 274 39 L 388 39 L 388 125 L 274 125 Z M 274 39 " clip-rule="nonzero"/></clipPath><clipPath id="f0a74686ea"><path d="M 304.652344 29.808594 L 387.230469 67.269531 L 356.789062 134.382812 L 274.207031 96.921875 Z M 304.652344 29.808594 " clip-rule="nonzero"/></clipPath><clipPath id="5100b0366a"><path d="M 327.023438 39.957031 L 387.078125 67.199219 L 334.261719 124.164062 L 274.207031 96.921875 Z M 327.023438 39.957031 " clip-rule="nonzero"/></clipPath><clipPath id="e36755d12a"><path d="M 0.046875 0.800781 L 113 0.800781 L 113 85.195312 L 0.046875 85.195312 Z M 0.046875 0.800781 " clip-rule="nonzero"/></clipPath><clipPath id="bab68355d5"><path d="M 30.652344 -9.191406 L 113.230469 28.269531 L 82.789062 95.382812 L 0.207031 57.921875 Z M 30.652344 -9.191406 " clip-rule="nonzero"/></clipPath><clipPath id="99f6f5e2a2"><path d="M 53.023438 0.957031 L 113.078125 28.199219 L 60.261719 85.164062 L 0.207031 57.921875 Z M 53.023438 0.957031 " clip-rule="nonzero"/></clipPath><clipPath id="28524a9c33"><rect x="0" width="114" y="0" height="86"/></clipPath><clipPath id="5f7b63a21d"><path d="M 130 331 L 375 331 L 375 449 L 130 449 Z M 130 331 " clip-rule="nonzero"/></clipPath><clipPath id="2479a413af"><path d="M 374.167969 449.097656 L 130.730469 448.769531 L 130.890625 331.40625 L 374.328125 331.734375 Z M 374.167969 449.097656 " clip-rule="nonzero"/></clipPath><clipPath id="58d3f3fabc"><path d="M 130.921875 331.40625 C 130.832031 395.332031 186.175781 448.84375 252.464844 448.933594 C 318.753906 449.023438 374.242188 395.660156 374.328125 331.734375 L 306.75 331.644531 C 306.710938 360.074219 282.035156 383.804688 252.554688 383.765625 C 223.070312 383.726562 198.460938 359.925781 198.496094 331.496094 Z M 130.921875 331.40625 " clip-rule="nonzero"/></clipPath><clipPath id="3cc48a2bb1"><path d="M 0.667969 0.347656 L 244.503906 0.347656 L 244.503906 118 L 0.667969 118 Z M 0.667969 0.347656 " clip-rule="nonzero"/></clipPath><clipPath id="629070ecc7"><path d="M 244.167969 118.097656 L 0.730469 117.769531 L 0.890625 0.40625 L 244.328125 0.734375 Z M 244.167969 118.097656 " clip-rule="nonzero"/></clipPath><clipPath id="6e7a1c7ed7"><path d="M 0.921875 0.40625 C 0.832031 64.332031 56.175781 117.84375 122.464844 117.933594 C 188.753906 118.023438 244.242188 64.660156 244.328125 0.734375 L 176.75 0.644531 C 176.710938 29.074219 152.035156 52.804688 122.554688 52.765625 C 93.070312 52.726562 68.460938 28.925781 68.496094 0.496094 Z M 0.921875 0.40625 " clip-rule="nonzero"/></clipPath><clipPath id="c7dc2f09eb"><rect x="0" width="245" y="0" height="118"/></clipPath></defs><path fill="#ffffff" d="M 0 0 L 499 0 L 499 499 L 0 499 Z M 0 0 " fill-opacity="1" fill-rule="nonzero"/><path fill="#fff0d0" d="M 0 0 L 499 0 L 499 499 L 0 499 Z M 0 0 " fill-opacity="1" fill-rule="nonzero"/><g clip-path="url(#dcc1db6518)"><path fill="#000000" d="M 252.546875 62.453125 C 326.765625 62.453125 387.019531 122.710938 387.019531 196.925781 C 387.019531 271.144531 326.765625 331.402344 252.546875 331.402344 C 178.328125 331.402344 118.074219 271.144531 118.074219 196.925781 C 118.074219 122.710938 178.328125 62.453125 252.546875 62.453125 Z M 252.546875 129.691406 C 289.65625 129.691406 319.785156 159.816406 319.785156 196.925781 C 319.785156 234.035156 289.65625 264.164062 252.546875 264.164062 C 215.4375 264.164062 185.308594 234.035156 185.308594 196.925781 C 185.308594 159.816406 215.4375 129.691406 252.546875 129.691406 Z M 252.546875 129.691406 " fill-opacity="1" fill-rule="evenodd"/></g><g clip-path="url(#96770ac926)"><g clip-path="url(#f0a74686ea)"><g clip-path="url(#5100b0366a)"><g transform="matrix(1, 0, 0, 1, 274, 39)"><g clip-path="url(#28524a9c33)"><g clip-path="url(#e36755d12a)"><g clip-path="url(#bab68355d5)"><g clip-path="url(#99f6f5e2a2)"><path fill="#000000" d="M 30.652344 -9.191406 L 112.96875 28.148438 L 82.523438 95.261719 L 0.207031 57.921875 Z M 30.652344 -9.191406 " fill-opacity="1" fill-rule="nonzero"/></g></g></g></g></g></g></g></g><g clip-path="url(#5f7b63a21d)"><g clip-path="url(#2479a413af)"><g clip-path="url(#58d3f3fabc)"><g transform="matrix(1, 0, 0, 1, 130, 331)"><g clip-path="url(#c7dc2f09eb)"><g clip-path="url(#3cc48a2bb1)"><g clip-path="url(#629070ecc7)"><g clip-path="url(#6e7a1c7ed7)"><path fill="#f4442e" d="M 244.167969 118.097656 L 0.730469 117.769531 L 0.890625 0.40625 L 244.328125 0.734375 Z M 244.167969 118.097656 " fill-opacity="1" fill-rule="nonzero"/></g></g></g></g></g></g></g></g></svg>