<svg xmlns="http://www.w3.org/2000/svg" xmlns:xlink="http://www.w3.org/1999/xlink" width="666" zoomAndPan="magnify" viewBox="0 0 499.5 499.499998" height="666" preserveAspectRatio="xMidYMid meet" version="1.0"><defs><clipPath id="9746f64c13"><path d="M 118.074219 62.449219 L 387.054688 62.449219 L 387.054688 331.429688 L 118.074219 331.429688 Z M 118.074219 62.449219 " clip-rule="nonzero"/></clipPath><clipPath id="815efcf985"><path d="M 274 39 L 388 39 L 388 125 L 274 125 Z M 274 39 " clip-rule="nonzero"/></clipPath><clipPath id="8c210cec9b"><path d="M 304.652344 29.808594 L 387.230469 67.269531 L 356.789062 134.382812 L 274.207031 96.921875 Z M 304.652344 29.808594 " clip-rule="nonzero"/></clipPath><clipPath id="b05ccad039"><path d="M 327.023438 39.957031 L 387.078125 67.199219 L 334.261719 124.164062 L 274.207031 96.921875 Z M 327.023438 39.957031 " clip-rule="nonzero"/></clipPath><clipPath id="8ffd5a7e69"><path d="M 0.046875 0.800781 L 113 0.800781 L 113 85.195312 L 0.046875 85.195312 Z M 0.046875 0.800781 " clip-rule="nonzero"/></clipPath><clipPath id="a80a415012"><path d="M 30.652344 -9.191406 L 113.230469 28.269531 L 82.789062 95.382812 L 0.207031 57.921875 Z M 30.652344 -9.191406 " clip-rule="nonzero"/></clipPath><clipPath id="38c13b65c2"><path d="M 53.023438 0.957031 L 113.078125 28.199219 L 60.261719 85.164062 L 0.207031 57.921875 Z M 53.023438 0.957031 " clip-rule="nonzero"/></clipPath><clipPath id="0c4da612fa"><rect x="0" width="114" y="0" height="86"/></clipPath><clipPath id="b9bac2c3b3"><path d="M 130 331 L 375 331 L 375 449 L 130 449 Z M 130 331 " clip-rule="nonzero"/></clipPath><clipPath id="c7b4bf1a39"><path d="M 374.167969 449.097656 L 130.730469 448.769531 L 130.890625 331.40625 L 374.328125 331.734375 Z M 374.167969 449.097656 " clip-rule="nonzero"/></clipPath><clipPath id="ede94fc2a1"><path d="M 130.921875 331.40625 C 130.832031 395.332031 186.175781 448.84375 252.464844 448.933594 C 318.753906 449.023438 374.242188 395.660156 374.328125 331.734375 L 306.75 331.644531 C 306.710938 360.074219 282.035156 383.804688 252.554688 383.765625 C 223.070312 383.726562 198.460938 359.925781 198.496094 331.496094 Z M 130.921875 331.40625 " clip-rule="nonzero"/></clipPath><clipPath id="a4fabed612"><path d="M 0.667969 0.347656 L 244.503906 0.347656 L 244.503906 118 L 0.667969 118 Z M 0.667969 0.347656 " clip-rule="nonzero"/></clipPath><clipPath id="a3ff9ed395"><path d="M 244.167969 118.097656 L 0.730469 117.769531 L 0.890625 0.40625 L 244.328125 0.734375 Z M 244.167969 118.097656 " clip-rule="nonzero"/></clipPath><clipPath id="dee1a5aef9"><path d="M 0.921875 0.40625 C 0.832031 64.332031 56.175781 117.84375 122.464844 117.933594 C 188.753906 118.023438 244.242188 64.660156 244.328125 0.734375 L 176.75 0.644531 C 176.710938 29.074219 152.035156 52.804688 122.554688 52.765625 C 93.070312 52.726562 68.460938 28.925781 68.496094 0.496094 Z M 0.921875 0.40625 " clip-rule="nonzero"/></clipPath><clipPath id="c04151353e"><rect x="0" width="245" y="0" height="118"/></clipPath><clipPath id="af0a58488f"><path d="M 0 112 L 499 112 L 499 227 L 0 227 Z M 0 112 " clip-rule="nonzero"/></clipPath></defs><g clip-path="url(#9746f64c13)"><path fill="#000000" d="M 252.546875 62.453125 C 326.765625 62.453125 387.019531 122.710938 387.019531 196.925781 C 387.019531 271.144531 326.765625 331.402344 252.546875 331.402344 C 178.328125 331.402344 118.074219 271.144531 118.074219 196.925781 C 118.074219 122.710938 178.328125 62.453125 252.546875 62.453125 Z M 252.546875 129.691406 C 289.65625 129.691406 319.785156 159.816406 319.785156 196.925781 C 319.785156 234.035156 289.65625 264.164062 252.546875 264.164062 C 215.4375 264.164062 185.308594 234.035156 185.308594 196.925781 C 185.308594 159.816406 215.4375 129.691406 252.546875 129.691406 Z M 252.546875 129.691406 " fill-opacity="1" fill-rule="evenodd"/></g><g clip-path="url(#815efcf985)"><g clip-path="url(#8c210cec9b)"><g clip-path="url(#b05ccad039)"><g transform="matrix(1, 0, 0, 1, 274, 39)"><g clip-path="url(#0c4da612fa)"><g clip-path="url(#8ffd5a7e69)"><g clip-path="url(#a80a415012)"><g clip-path="url(#38c13b65c2)"><path fill="#000000" d="M 30.652344 -9.191406 L 112.96875 28.148438 L 82.523438 95.261719 L 0.207031 57.921875 Z M 30.652344 -9.191406 " fill-opacity="1" fill-rule="nonzero"/></g></g></g></g></g></g></g></g><g clip-path="url(#b9bac2c3b3)"><g clip-path="url(#c7b4bf1a39)"><g clip-path="url(#ede94fc2a1)"><g transform="matrix(1, 0, 0, 1, 130, 331)"><g clip-path="url(#c04151353e)"><g clip-path="url(#a4fabed612)"><g clip-path="url(#a3ff9ed395)"><g clip-path="url(#dee1a5aef9)"><path fill="#f4442e" d="M 244.167969 118.097656 L 0.730469 117.769531 L 0.890625 0.40625 L 244.328125 0.734375 Z M 244.167969 118.097656 " fill-opacity="1" fill-rule="nonzero"/></g></g></g></g></g></g></g></g><g clip-path="url(#af0a58488f)"><path stroke-linecap="butt" transform="matrix(0.749244, 0.00301397, -0.00301397, 0.749244, 0.0923733, 162.271762)" fill="none" stroke-linejoin="miter" d="M 0.00191036 6.498361 L 1571.382959 6.501272 " stroke="#fff0d0" stroke-width="13" stroke-opacity="1" stroke-miterlimit="4"/></g></svg>