<svg xmlns="http://www.w3.org/2000/svg" xmlns:xlink="http://www.w3.org/1999/xlink" width="666" zoomAndPan="magnify" viewBox="0 0 499.5 499.499998" height="666" preserveAspectRatio="xMidYMid meet" version="1.0"><path fill="#202b3d" d="M 249.644531 55.617188 C 258.320312 55.625 265.667969 55.992188 271.683594 56.722656 C 308.253906 61.195312 340.460938 74.175781 368.296875 95.667969 C 388.933594 111.601562 405.578125 130.84375 418.234375 153.394531 C 431.277344 176.636719 439.273438 200.820312 442.21875 225.941406 C 445.539062 254.234375 443.042969 281.386719 434.734375 307.398438 C 409.324219 386.949219 333.503906 443.921875 249.378906 443.863281 C 165.242188 443.792969 89.511719 386.730469 64.210938 307.140625 C 55.9375 281.117188 53.484375 253.960938 56.839844 225.671875 C 59.824219 200.550781 67.855469 176.378906 80.929688 153.160156 C 93.617188 130.628906 110.289062 111.410156 130.949219 95.503906 C 158.816406 74.050781 191.035156 61.113281 227.609375 56.6875 C 233.625 55.964844 240.972656 55.609375 249.644531 55.617188 Z M 249.179688 360.960938 C 249.242188 361.101562 249.277344 361.382812 249.285156 361.800781 C 249.402344 371.457031 249.320312 382.496094 249.039062 394.925781 C 248.9375 399.316406 250.511719 402.277344 253.761719 403.800781 C 257.222656 405.417969 260.324219 405.242188 263.066406 403.273438 C 308.703125 370.683594 334.742188 352.164062 341.1875 347.714844 C 354.300781 338.675781 363.3125 331.597656 368.226562 326.484375 C 387.871094 306.03125 399.929688 280.589844 401.515625 252.5625 C 403.671875 214.316406 386.554688 178.625 356.355469 155.121094 C 341.789062 143.78125 325.40625 136.414062 307.210938 133.023438 C 299.878906 131.65625 287.316406 131.03125 269.515625 131.148438 C 249.964844 131.273438 233.929688 131.28125 221.40625 131.171875 C 205.082031 131.03125 190.460938 132.199219 176.632812 137.023438 C 151.703125 145.714844 132.023438 160.566406 117.585938 181.578125 C 104.296875 200.921875 97.347656 222.804688 97.277344 246.019531 C 97.230469 263.003906 101.09375 279.523438 108.867188 295.574219 C 127.671875 334.402344 167.75 360.214844 211.308594 360.367188 C 224.546875 360.414062 236.800781 360.371094 248.070312 360.238281 C 248.3125 360.234375 248.53125 360.296875 248.734375 360.429688 C 248.9375 360.5625 249.085938 360.738281 249.179688 360.960938 Z M 249.179688 360.960938 " fill-opacity="1" fill-rule="nonzero"/><path fill="#202b3d" d="M 249.496094 274.085938 C 255.914062 274.09375 261.152344 273.609375 265.210938 272.640625 C 283.511719 268.269531 298.355469 258.890625 309.75 244.503906 C 312.503906 241.03125 314.578125 239.019531 315.976562 238.476562 C 320.011719 236.9375 323.429688 236.46875 327.371094 238.394531 C 334.914062 242.078125 337 251.652344 331.496094 258.578125 C 311.199219 284.160156 282.257812 299.585938 249.496094 299.5625 C 216.71875 299.550781 187.792969 284.113281 167.515625 258.507812 C 162.023438 251.582031 164.109375 242.007812 171.652344 238.324219 C 175.605469 236.414062 179.023438 236.878906 183.046875 238.417969 C 184.445312 238.960938 186.519531 240.976562 189.273438 244.457031 C 200.652344 258.851562 215.492188 268.242188 233.789062 272.628906 C 237.847656 273.597656 243.082031 274.085938 249.496094 274.085938 Z M 249.496094 274.085938 " fill-opacity="1" fill-rule="nonzero"/></svg>