<svg xmlns="http://www.w3.org/2000/svg" xmlns:xlink="http://www.w3.org/1999/xlink" width="392" zoomAndPan="magnify" viewBox="0 0 294 482.999988" height="644" preserveAspectRatio="xMidYMid meet" version="1.0"><defs><clipPath id="3a1f563101"><path d="M 41 169 L 202 169 L 202 254 L 41 254 Z M 41 169 " clip-rule="nonzero"/></clipPath><clipPath id="89d39b9a9f"><path d="M 29.128906 218.007812 L 52.914062 137.847656 L 212.300781 185.136719 L 188.519531 265.300781 Z M 29.128906 218.007812 " clip-rule="nonzero"/></clipPath><clipPath id="d54823bb7b"><path d="M 165.859375 171.355469 C 191.425781 178.941406 206.824219 203.035156 200.253906 225.171875 C 193.6875 247.308594 167.640625 259.105469 142.074219 251.519531 C 116.511719 243.933594 41.023438 177.925781 41.023438 177.925781 C 41.023438 177.925781 140.292969 163.773438 165.859375 171.355469 Z M 165.859375 171.355469 " clip-rule="nonzero"/></clipPath><clipPath id="a216926c9d"><path d="M 0 0 L 161 0 L 161 85 L 0 85 Z M 0 0 " clip-rule="nonzero"/></clipPath><clipPath id="7b53dfd90f"><path d="M -11.871094 49.007812 L 11.914062 -31.152344 L 171.300781 16.136719 L 147.519531 96.300781 Z M -11.871094 49.007812 " clip-rule="nonzero"/></clipPath><clipPath id="8f2bcf060d"><path d="M 124.859375 2.355469 C 150.425781 9.941406 165.824219 34.035156 159.253906 56.171875 C 152.6875 78.308594 126.640625 90.105469 101.074219 82.519531 C 75.511719 74.933594 0.0234375 8.925781 0.0234375 8.925781 C 0.0234375 8.925781 99.292969 -5.226562 124.859375 2.355469 Z M 124.859375 2.355469 " clip-rule="nonzero"/></clipPath><clipPath id="be93cfcce7"><rect x="0" width="161" y="0" height="85"/></clipPath><clipPath id="0ce00f7b73"><path d="M 14 188 L 237 188 L 237 328 L 14 328 Z M 14 188 " clip-rule="nonzero"/></clipPath><clipPath id="d4d32b9841"><path d="M 0.0078125 290.933594 L 29.941406 156.164062 L 250.527344 205.15625 L 220.59375 339.925781 Z M 0.0078125 290.933594 " clip-rule="nonzero"/></clipPath><clipPath id="20bb52f1c4"><path d="M 14.976562 223.550781 C 63.097656 203.371094 140.335938 180.683594 187.648438 191.191406 C 222.105469 198.84375 243.371094 235.253906 235.109375 272.441406 C 226.851562 309.632812 192.171875 333.613281 157.714844 325.960938 C 110.402344 315.453125 86.425781 227.074219 14.976562 223.550781 Z M 14.976562 223.550781 " clip-rule="nonzero"/></clipPath><clipPath id="47cae7fcc9"><path d="M 0.878906 0 L 223 0 L 223 140 L 0.878906 140 Z M 0.878906 0 " clip-rule="nonzero"/></clipPath><clipPath id="8a20bad648"><path d="M -13.992188 102.933594 L 15.941406 -31.835938 L 236.527344 17.15625 L 206.59375 151.925781 Z M -13.992188 102.933594 " clip-rule="nonzero"/></clipPath><clipPath id="98a7e5b396"><path d="M 0.976562 35.550781 C 49.097656 15.371094 126.335938 -7.316406 173.648438 3.191406 C 208.105469 10.84375 229.371094 47.253906 221.109375 84.441406 C 212.851562 121.632812 178.171875 145.613281 143.714844 137.960938 C 96.402344 127.453125 72.425781 39.074219 0.976562 35.550781 Z M 0.976562 35.550781 " clip-rule="nonzero"/></clipPath><clipPath id="7c807420fd"><rect x="0" width="223" y="0" height="140"/></clipPath><clipPath id="d4dcbc5d6b"><path d="M 186.875 2.890625 L 275.304688 2.890625 L 275.304688 111.28125 L 186.875 111.28125 Z M 186.875 2.890625 " clip-rule="nonzero"/></clipPath><clipPath id="69808e7fa7"><path d="M 0.875 0.890625 L 89.082031 0.890625 L 89.082031 109.28125 L 0.875 109.28125 Z M 0.875 0.890625 " clip-rule="nonzero"/></clipPath><clipPath id="491a23f35b"><rect x="0" width="90" y="0" height="110"/></clipPath><clipPath id="3b26d599ef"><path d="M 64.863281 158.910156 L 285.929688 158.910156 L 285.929688 379.976562 L 64.863281 379.976562 Z M 64.863281 158.910156 " clip-rule="nonzero"/></clipPath><clipPath id="e2ccb2f9e1"><path d="M 168.835938 0 L 257.898438 0 L 257.898438 89.0625 L 168.835938 89.0625 Z M 168.835938 0 " clip-rule="nonzero"/></clipPath><clipPath id="7e82b91c4c"><path d="M 213.367188 0 C 188.773438 0 168.835938 19.9375 168.835938 44.53125 C 168.835938 69.125 188.773438 89.0625 213.367188 89.0625 C 237.960938 89.0625 257.898438 69.125 257.898438 44.53125 C 257.898438 19.9375 237.960938 0 213.367188 0 Z M 213.367188 0 " clip-rule="nonzero"/></clipPath><clipPath id="5ccf13a7d9"><path d="M 0.835938 0 L 89.898438 0 L 89.898438 89.0625 L 0.835938 89.0625 Z M 0.835938 0 " clip-rule="nonzero"/></clipPath><clipPath id="a7c7023e50"><path d="M 45.367188 0 C 20.773438 0 0.835938 19.9375 0.835938 44.53125 C 0.835938 69.125 20.773438 89.0625 45.367188 89.0625 C 69.960938 89.0625 89.898438 69.125 89.898438 44.53125 C 89.898438 19.9375 69.960938 0 45.367188 0 Z M 45.367188 0 " clip-rule="nonzero"/></clipPath><clipPath id="05065ec798"><rect x="0" width="90" y="0" height="90"/></clipPath><clipPath id="8850c982b2"><path d="M 164 20 L 285 20 L 285 321 L 164 321 Z M 164 20 " clip-rule="nonzero"/></clipPath><clipPath id="ff22ac06e9"><path d="M 243.996094 17.019531 L 292.929688 308.675781 L 205.121094 323.410156 L 156.1875 31.753906 Z M 243.996094 17.019531 " clip-rule="nonzero"/></clipPath><clipPath id="68c9bfdd38"><path d="M 252.058594 166.71875 C 274.773438 213.261719 295.804688 258.949219 277.453125 311.246094 L 224.488281 320.132812 C 242.941406 266.121094 219.582031 219.125 197.054688 173.6875 C 174.339844 127.144531 153.308594 81.457031 171.65625 29.15625 L 224.621094 20.269531 C 206.171875 74.285156 229.53125 121.28125 252.058594 166.71875 Z M 252.058594 166.71875 " clip-rule="nonzero"/></clipPath><clipPath id="ba8d26e947"><path d="M 0 0.160156 L 121 0.160156 L 121 300.160156 L 0 300.160156 Z M 0 0.160156 " clip-rule="nonzero"/></clipPath><clipPath id="9fbfb1df45"><path d="M 79.996094 -2.980469 L 128.929688 288.675781 L 41.121094 303.410156 L -7.8125 11.753906 Z M 79.996094 -2.980469 " clip-rule="nonzero"/></clipPath><clipPath id="5acef5fd79"><path d="M 88.058594 146.71875 C 110.773438 193.261719 131.804688 238.949219 113.453125 291.246094 L 60.488281 300.132812 C 78.941406 246.121094 55.582031 199.125 33.054688 153.6875 C 10.339844 107.144531 -10.691406 61.457031 7.65625 9.15625 L 60.621094 0.269531 C 42.171875 54.285156 65.53125 101.28125 88.058594 146.71875 Z M 88.058594 146.71875 " clip-rule="nonzero"/></clipPath><clipPath id="cafcdc273b"><rect x="0" width="121" y="0" height="301"/></clipPath><clipPath id="6d809d8ac8"><rect x="0" width="294" y="0" height="381"/></clipPath><clipPath id="4b718be78d"><path d="M 73.566406 379.949219 L 280 379.949219 L 280 482.972656 L 73.566406 482.972656 Z M 73.566406 379.949219 " clip-rule="nonzero"/></clipPath><clipPath id="86a8ac43e3"><path d="M 73.566406 379.949219 C 73.566406 436.066406 120.476562 482.972656 176.589844 482.972656 C 232.707031 482.972656 279.613281 436.066406 279.613281 379.949219 L 222.410156 379.949219 C 222.410156 404.90625 201.546875 425.769531 176.589844 425.769531 C 151.636719 425.769531 130.773438 404.90625 130.773438 379.949219 Z M 73.566406 379.949219 " clip-rule="nonzero"/></clipPath><clipPath id="92f61858d8"><path d="M 0.566406 0.949219 L 206.839844 0.949219 L 206.839844 103.972656 L 0.566406 103.972656 Z M 0.566406 0.949219 " clip-rule="nonzero"/></clipPath><clipPath id="56abeee6be"><path d="M 0.566406 0.949219 C 0.566406 57.066406 47.476562 103.972656 103.589844 103.972656 C 159.707031 103.972656 206.613281 57.066406 206.613281 0.949219 L 149.410156 0.949219 C 149.410156 25.90625 128.546875 46.769531 103.589844 46.769531 C 78.636719 46.769531 57.773438 25.90625 57.773438 0.949219 Z M 0.566406 0.949219 " clip-rule="nonzero"/></clipPath><clipPath id="7e67068179"><rect x="0" width="207" y="0" height="104"/></clipPath></defs><g><g clip-path="url(#6d809d8ac8)"><g clip-path="url(#3a1f563101)"><g clip-path="url(#89d39b9a9f)"><g clip-path="url(#d54823bb7b)"><g transform="matrix(1, 0, 0, 1, 41, 169)"><g clip-path="url(#be93cfcce7)"><g clip-path="url(#a216926c9d)"><g clip-path="url(#7b53dfd90f)"><g clip-path="url(#8f2bcf060d)"><path fill="#d23f11" d="M -11.871094 49.007812 L 11.914062 -31.152344 L 171.300781 16.136719 L 147.519531 96.300781 Z M -11.871094 49.007812 " fill-opacity="1" fill-rule="nonzero"/></g></g></g></g></g></g></g></g><g clip-path="url(#0ce00f7b73)"><g clip-path="url(#d4d32b9841)"><g clip-path="url(#20bb52f1c4)"><g transform="matrix(1, 0, 0, 1, 14, 188)"><g clip-path="url(#7c807420fd)"><g clip-path="url(#47cae7fcc9)"><g clip-path="url(#8a20bad648)"><g clip-path="url(#98a7e5b396)"><path fill="#d23f11" d="M -13.992188 102.933594 L 15.941406 -31.835938 L 236 17.039062 L 206.066406 151.808594 Z M -13.992188 102.933594 " fill-opacity="1" fill-rule="nonzero"/></g></g></g></g></g></g></g></g><g clip-path="url(#d4dcbc5d6b)"><g transform="matrix(1, 0, 0, 1, 186, 2)"><g clip-path="url(#491a23f35b)"><g clip-path="url(#69808e7fa7)"><path fill="#d23f11" d="M -54.703125 145.097656 C -63.851562 144.75 -72.972656 146.691406 -81.160156 150.761719 C -102.859375 159.667969 -126.847656 161.265625 -149.503906 155.359375 C -150.035156 155.226562 -150.566406 155.546875 -150.671875 156.078125 C -150.699219 156.132812 -150.699219 156.160156 -150.699219 156.210938 C -154.609375 206.472656 -117.058594 250.375 -66.800781 254.285156 C -62.066406 254.65625 -57.308594 254.65625 -52.546875 254.285156 C -22.445312 251.917969 0.0507812 225.589844 -2.316406 195.488281 C -4.46875 167.832031 -26.992188 146.1875 -54.703125 145.097656 Z M 29.25 6.578125 C 12.839844 6.152344 -1.679688 17.082031 -5.800781 32.957031 C -14.921875 68.40625 -8.378906 106.085938 12.148438 136.402344 C 25.445312 160.335938 21.535156 190.171875 2.496094 209.847656 C -2.128906 237.023438 -24.625 257.605469 -52.121094 259.761719 C -99.242188 263.484375 -142.136719 232.609375 -153.597656 186.738281 C -164.15625 185.011719 -174.125 180.757812 -182.6875 174.347656 C -183.140625 174.054688 -183.753906 174.160156 -184.046875 174.585938 C -184.179688 174.746094 -184.230469 174.960938 -184.230469 175.144531 C -183.195312 219.953125 -157.453125 260.503906 -117.351562 280.503906 C -63.425781 303.425781 -1.730469 298.824219 48.183594 268.164062 C 83.125 246.679688 94.054688 200.941406 72.59375 166 C 70.785156 163.046875 68.738281 160.226562 66.53125 157.542969 L 22.601562 104.4375 C 11.859375 91.40625 9.226562 73.484375 15.820312 57.929688 C 17.230469 54.632812 21.003906 53.089844 24.300781 54.472656 C 25.367188 54.921875 26.269531 55.640625 26.960938 56.546875 C 28.636719 58.78125 30.390625 60.933594 32.226562 63.007812 C 38.289062 69.894531 48.792969 70.558594 55.679688 64.496094 C 58.261719 62.210938 60.070312 59.179688 60.867188 55.828125 C 61 55.242188 61.160156 54.65625 61.34375 54.074219 C 68.125 35.855469 58.820312 15.566406 40.601562 8.785156 C 36.960938 7.429688 33.132812 6.6875 29.25 6.578125 Z M 27.492188 0.914062 C 49.992188 0.410156 68.605469 18.253906 69.082031 40.75 C 69.214844 45.882812 68.339844 50.988281 66.558594 55.800781 C 64.988281 61.277344 65.175781 67.128906 67.089844 72.472656 C 68.632812 78.777344 72.328125 84.335938 77.59375 88.136719 C 79.960938 89.867188 80.492188 93.1875 78.761719 95.554688 C 77.351562 97.496094 74.828125 98.242188 72.59375 97.417969 C 52.675781 89.917969 35.3125 76.886719 22.546875 59.84375 C 22.226562 59.417969 21.617188 59.335938 21.191406 59.683594 C 21.058594 59.761719 20.953125 59.894531 20.898438 60.054688 C 15.101562 73.722656 17.414062 89.492188 26.882812 100.925781 L 70.785156 154.03125 C 98.867188 187.988281 94.078125 238.25 60.148438 266.328125 C 57.277344 268.722656 54.246094 270.875 51.054688 272.816406 C -0.429688 304.460938 -64.0625 309.195312 -119.667969 285.503906 C -161.65625 264.601562 -188.621094 222.160156 -189.710938 175.277344 C -189.789062 171.6875 -186.945312 168.738281 -183.378906 168.65625 C -181.945312 168.628906 -180.535156 169.082031 -179.390625 169.933594 C -172.132812 175.359375 -163.753906 179.109375 -154.847656 180.917969 C -156.390625 172.621094 -156.84375 164.191406 -156.175781 155.785156 C -155.910156 152.222656 -152.773438 149.5625 -149.210938 149.832031 C -148.835938 149.855469 -148.464844 149.9375 -148.09375 150.015625 C -126.632812 155.628906 -103.925781 154.113281 -83.394531 145.734375 C -53.558594 131.054688 -17.5 143.339844 -2.820312 173.152344 C 1.355469 181.609375 3.453125 190.941406 3.375 200.355469 C 16.5625 182.539062 18.160156 158.683594 7.496094 139.273438 C -13.832031 107.683594 -20.585938 68.484375 -11.089844 31.574219 C -6.570312 13.839844 9.226562 1.289062 27.519531 0.890625 L 27.492188 0.914062 " fill-opacity="1" fill-rule="nonzero"/></g></g></g></g><g clip-path="url(#3b26d599ef)"><path fill="#000000" d="M 175.375 158.914062 C 236.367188 158.914062 285.886719 208.433594 285.886719 269.425781 C 285.886719 330.421875 236.367188 379.9375 175.375 379.9375 C 114.382812 379.9375 64.863281 330.421875 64.863281 269.425781 C 64.863281 208.433594 114.382812 158.914062 175.375 158.914062 Z M 175.375 214.171875 C 205.871094 214.171875 230.632812 238.929688 230.632812 269.425781 C 230.632812 299.921875 205.871094 324.683594 175.375 324.683594 C 144.878906 324.683594 120.121094 299.921875 120.121094 269.425781 C 120.121094 238.929688 144.878906 214.171875 175.375 214.171875 Z M 175.375 214.171875 " fill-opacity="1" fill-rule="evenodd"/></g><g clip-path="url(#e2ccb2f9e1)"><g clip-path="url(#7e82b91c4c)"><g transform="matrix(1, 0, 0, 1, 168, 0)"><g clip-path="url(#05065ec798)"><g clip-path="url(#5ccf13a7d9)"><g clip-path="url(#a7c7023e50)"><path fill="#000000" d="M 0.835938 0 L 89.898438 0 L 89.898438 89.0625 L 0.835938 89.0625 Z M 0.835938 0 " fill-opacity="1" fill-rule="nonzero"/></g></g></g></g></g></g><g clip-path="url(#8850c982b2)"><g clip-path="url(#ff22ac06e9)"><g clip-path="url(#68c9bfdd38)"><g transform="matrix(1, 0, 0, 1, 164, 20)"><g clip-path="url(#cafcdc273b)"><g clip-path="url(#ba8d26e947)"><g clip-path="url(#9fbfb1df45)"><g clip-path="url(#5acef5fd79)"><path fill="#000000" d="M 80.695312 -3.097656 L 129.625 288.558594 L 40.421875 303.527344 L -8.511719 11.871094 Z M 80.695312 -3.097656 " fill-opacity="1" fill-rule="nonzero"/></g></g></g></g></g></g></g></g></g></g><g clip-path="url(#4b718be78d)"><g clip-path="url(#86a8ac43e3)"><g transform="matrix(1, 0, 0, 1, 73, 379)"><g clip-path="url(#7e67068179)"><g clip-path="url(#92f61858d8)"><g clip-path="url(#56abeee6be)"><path fill="#f4442e" d="M 206.613281 103.972656 L 0.566406 103.972656 L 0.566406 0.949219 L 206.613281 0.949219 Z M 206.613281 103.972656 " fill-opacity="1" fill-rule="nonzero"/></g></g></g></g></g></g></svg>