<svg xmlns="http://www.w3.org/2000/svg" xmlns:xlink="http://www.w3.org/1999/xlink" width="851" zoomAndPan="magnify" viewBox="0 0 638.25 236.249991" height="315" preserveAspectRatio="xMidYMid meet" version="1.0"><defs><g/><clipPath id="7e841b2ce6"><rect x="0" width="171" y="0" height="189"/></clipPath></defs><g fill="#1cabb0" fill-opacity="1"><g transform="translate(55.724902, 167.46828)"><g><path d="M 100.546875 4.9375 C 108.710938 3.84375 115.960938 5.972656 122.296875 11.328125 C 125.222656 14.015625 127.507812 17.15625 129.15625 20.75 C 130.800781 24.34375 131.625 28.085938 131.625 31.984375 C 131.625 36.378906 130.921875 40.28125 129.515625 43.6875 C 128.117188 47.101562 126.472656 50 124.578125 52.375 C 122.691406 54.75 121.046875 56.546875 119.640625 57.765625 C 118.242188 58.984375 117.546875 59.59375 117.546875 59.59375 C 119.128906 55.207031 118.335938 51.125 115.171875 47.34375 C 112.117188 43.8125 108.28125 42.410156 103.65625 43.140625 C 98.164062 44.117188 92.222656 45.1875 85.828125 46.34375 C 79.429688 47.5 73.21875 48.59375 67.1875 49.625 C 61.15625 50.664062 55.820312 51.582031 51.1875 52.375 C 46.550781 53.164062 43.257812 53.679688 41.3125 53.921875 C 34 55.023438 27.113281 53.835938 20.65625 50.359375 C 14.195312 46.890625 9.382812 41.800781 6.21875 35.09375 C 2.5625 27.300781 2.832031 19.109375 7.03125 10.515625 C 11.238281 1.921875 18.707031 -5.847656 29.4375 -12.796875 C 23.820312 -17.671875 19.460938 -23.488281 16.359375 -30.25 C 13.253906 -37.019531 11.640625 -44.117188 11.515625 -51.546875 C 11.515625 -58.742188 12.882812 -65.507812 15.625 -71.84375 C 18.375 -78.175781 22.210938 -83.75 27.140625 -88.5625 C 32.078125 -93.382812 37.742188 -97.164062 44.140625 -99.90625 C 50.546875 -102.644531 57.34375 -104.015625 64.53125 -104.015625 L 69.65625 -104.015625 C 76.476562 -104.015625 83 -102.738281 89.21875 -100.1875 C 91.40625 -100.914062 93.625 -102.617188 95.875 -105.296875 C 98.132812 -107.984375 100.023438 -111.15625 101.546875 -114.8125 C 103.078125 -118.46875 103.8125 -122.242188 103.75 -126.140625 C 103.6875 -130.035156 102.375 -133.628906 99.8125 -136.921875 C 97.738281 -139.722656 95.421875 -141.457031 92.859375 -142.125 C 90.304688 -142.800781 88.050781 -142.957031 86.09375 -142.59375 C 84.144531 -142.226562 82.867188 -141.800781 82.265625 -141.3125 C 79.335938 -139.363281 78.238281 -136.625 78.96875 -133.09375 C 78.238281 -135.15625 77.8125 -137.285156 77.6875 -139.484375 C 77.570312 -141.679688 77.695312 -143.875 78.0625 -146.0625 C 79.03125 -151.0625 81.25 -155.144531 84.71875 -158.3125 C 88.195312 -161.476562 92.160156 -163.550781 96.609375 -164.53125 C 101.054688 -165.507812 105.382812 -165.234375 109.59375 -163.703125 C 113.800781 -162.179688 117.179688 -159.226562 119.734375 -154.84375 C 122.296875 -150.207031 123.238281 -145.484375 122.5625 -140.671875 C 121.894531 -135.859375 120.25 -131.164062 117.625 -126.59375 C 115.007812 -122.019531 111.90625 -117.8125 108.3125 -113.96875 C 104.71875 -110.132812 101.273438 -106.96875 97.984375 -104.46875 C 94.691406 -101.976562 92.132812 -100.363281 90.3125 -99.625 C 99.695312 -95.488281 107.222656 -89.179688 112.890625 -80.703125 C 118.554688 -72.234375 121.445312 -62.941406 121.5625 -52.828125 C 121.6875 -45.515625 120.378906 -38.6875 117.640625 -32.34375 C 114.898438 -26.007812 111.0625 -20.40625 106.125 -15.53125 C 101.1875 -10.65625 95.515625 -6.847656 89.109375 -4.109375 C 82.710938 -1.367188 75.859375 0 68.546875 0 L 63.625 0 C 57.40625 0 51.367188 -1.0625 45.515625 -3.1875 C 39.671875 -5.320312 34.367188 -8.460938 29.609375 -12.609375 C 27.054688 -10.421875 25.59375 -7.769531 25.21875 -4.65625 C 24.851562 -1.550781 25.554688 1.398438 27.328125 4.203125 C 29.097656 7.003906 31.898438 9.164062 35.734375 10.6875 C 39.578125 12.21875 44.363281 12.613281 50.09375 11.875 Z M 52.828125 -89.578125 L 52.828125 -14.265625 C 52.828125 -10.484375 54.164062 -7.25 56.84375 -4.5625 C 59.53125 -1.882812 62.765625 -0.546875 66.546875 -0.546875 C 70.441406 -0.546875 73.695312 -1.882812 76.3125 -4.5625 C 78.9375 -7.25 80.25 -10.484375 80.25 -14.265625 L 80.25 -89.578125 C 80.25 -93.472656 78.9375 -96.726562 76.3125 -99.34375 C 73.695312 -101.96875 70.441406 -103.28125 66.546875 -103.28125 C 62.765625 -103.28125 59.53125 -101.96875 56.84375 -99.34375 C 54.164062 -96.726562 52.828125 -93.472656 52.828125 -89.578125 Z M 52.828125 -89.578125 "/></g></g></g><g fill="#1cabb0" fill-opacity="1"><g transform="translate(154.620812, 167.46828)"><g><path d="M 61.609375 -104.015625 C 68.796875 -104.015625 75.523438 -102.671875 81.796875 -99.984375 C 88.078125 -97.304688 93.625 -93.5625 98.4375 -88.75 C 103.257812 -83.9375 107.007812 -78.390625 109.6875 -72.109375 C 112.363281 -65.835938 113.703125 -59.109375 113.703125 -51.921875 C 113.703125 -44.722656 112.363281 -37.984375 109.6875 -31.703125 C 107.007812 -25.429688 103.257812 -19.921875 98.4375 -15.171875 C 93.625 -10.421875 88.078125 -6.703125 81.796875 -4.015625 C 75.523438 -1.335938 68.796875 0 61.609375 0 L 55.578125 0 C 48.378906 0 41.640625 -1.335938 35.359375 -4.015625 C 29.085938 -6.703125 23.578125 -10.421875 18.828125 -15.171875 C 14.078125 -19.921875 10.359375 -25.429688 7.671875 -31.703125 C 4.992188 -37.984375 3.65625 -44.722656 3.65625 -51.921875 C 3.65625 -59.109375 4.992188 -65.835938 7.671875 -72.109375 C 10.359375 -78.390625 14.078125 -83.9375 18.828125 -88.75 C 23.578125 -93.5625 29.085938 -97.304688 35.359375 -99.984375 C 41.640625 -102.671875 48.378906 -104.015625 55.578125 -104.015625 Z M 72.390625 -14.265625 L 72.390625 -89.578125 C 72.390625 -93.472656 71.046875 -96.726562 68.359375 -99.34375 C 65.679688 -101.96875 62.457031 -103.28125 58.6875 -103.28125 C 54.90625 -103.28125 51.671875 -101.96875 48.984375 -99.34375 C 46.304688 -96.726562 44.96875 -93.472656 44.96875 -89.578125 L 44.96875 -14.265625 C 44.96875 -10.484375 46.304688 -7.25 48.984375 -4.5625 C 51.671875 -1.882812 54.90625 -0.546875 58.6875 -0.546875 C 62.457031 -0.546875 65.679688 -1.882812 68.359375 -4.5625 C 71.046875 -7.25 72.390625 -10.484375 72.390625 -14.265625 Z M 72.390625 -14.265625 "/></g></g></g><g fill="#1cabb0" fill-opacity="1"><g transform="translate(239.989298, 167.46828)"><g><path d="M 61.609375 -104.015625 C 68.796875 -104.015625 75.523438 -102.671875 81.796875 -99.984375 C 88.078125 -97.304688 93.625 -93.5625 98.4375 -88.75 C 103.257812 -83.9375 107.007812 -78.390625 109.6875 -72.109375 C 112.363281 -65.835938 113.703125 -59.109375 113.703125 -51.921875 C 113.703125 -44.722656 112.363281 -37.984375 109.6875 -31.703125 C 107.007812 -25.429688 103.257812 -19.921875 98.4375 -15.171875 C 93.625 -10.421875 88.078125 -6.703125 81.796875 -4.015625 C 75.523438 -1.335938 68.796875 0 61.609375 0 L 55.578125 0 C 48.378906 0 41.640625 -1.335938 35.359375 -4.015625 C 29.085938 -6.703125 23.578125 -10.421875 18.828125 -15.171875 C 14.078125 -19.921875 10.359375 -25.429688 7.671875 -31.703125 C 4.992188 -37.984375 3.65625 -44.722656 3.65625 -51.921875 C 3.65625 -59.109375 4.992188 -65.835938 7.671875 -72.109375 C 10.359375 -78.390625 14.078125 -83.9375 18.828125 -88.75 C 23.578125 -93.5625 29.085938 -97.304688 35.359375 -99.984375 C 41.640625 -102.671875 48.378906 -104.015625 55.578125 -104.015625 Z M 72.390625 -14.265625 L 72.390625 -89.578125 C 72.390625 -93.472656 71.046875 -96.726562 68.359375 -99.34375 C 65.679688 -101.96875 62.457031 -103.28125 58.6875 -103.28125 C 54.90625 -103.28125 51.671875 -101.96875 48.984375 -99.34375 C 46.304688 -96.726562 44.96875 -93.472656 44.96875 -89.578125 L 44.96875 -14.265625 C 44.96875 -10.484375 46.304688 -7.25 48.984375 -4.5625 C 51.671875 -1.882812 54.90625 -0.546875 58.6875 -0.546875 C 62.457031 -0.546875 65.679688 -1.882812 68.359375 -4.5625 C 71.046875 -7.25 72.390625 -10.484375 72.390625 -14.265625 Z M 72.390625 -14.265625 "/></g></g></g><g fill="#1cabb0" fill-opacity="1"><g transform="translate(326.637507, 167.46828)"><g><path d="M 120.46875 -12.4375 C 120.46875 -10.238281 121.472656 -8.53125 123.484375 -7.3125 C 125.492188 -6.09375 127.289062 -6.273438 128.875 -7.859375 C 123.519531 -1.890625 116.757812 1.09375 108.59375 1.09375 C 103.957031 1.09375 99.597656 0.0546875 95.515625 -2.015625 C 91.429688 -4.085938 87.988281 -6.953125 85.1875 -10.609375 C 82.382812 -14.265625 80.554688 -18.40625 79.703125 -23.03125 C 77.628906 -19.5 74.945312 -15.9375 71.65625 -12.34375 C 68.363281 -8.75 64.492188 -5.789062 60.046875 -3.46875 C 55.597656 -1.15625 50.390625 0 44.421875 0 C 36.984375 0 30.15625 -2.34375 23.9375 -7.03125 C 17.726562 -11.726562 12.796875 -18.003906 9.140625 -25.859375 C 5.484375 -33.722656 3.65625 -42.410156 3.65625 -51.921875 C 3.65625 -61.546875 5.484375 -70.285156 9.140625 -78.140625 C 12.796875 -86.003906 17.726562 -92.28125 23.9375 -96.96875 C 30.15625 -101.664062 36.984375 -104.015625 44.421875 -104.015625 C 49.910156 -104.015625 54.632812 -103.128906 58.59375 -101.359375 C 62.550781 -99.597656 65.867188 -97.40625 68.546875 -94.78125 C 71.234375 -92.164062 73.335938 -89.515625 74.859375 -86.828125 C 76.378906 -84.148438 77.472656 -81.925781 78.140625 -80.15625 C 78.816406 -78.394531 79.15625 -77.515625 79.15625 -77.515625 L 79.15625 -112.796875 C 79.15625 -117.546875 78.847656 -121.046875 78.234375 -123.296875 C 77.628906 -125.554688 76.835938 -127.113281 75.859375 -127.96875 L 123.765625 -127.96875 C 122.785156 -127.113281 121.988281 -125.554688 121.375 -123.296875 C 120.769531 -121.046875 120.46875 -117.546875 120.46875 -112.796875 Z M 68.921875 -18.09375 C 70.992188 -18.21875 72.972656 -18.734375 74.859375 -19.640625 C 76.742188 -20.554688 78.296875 -21.8125 79.515625 -23.40625 C 79.398438 -24.25 79.3125 -25.097656 79.25 -25.953125 C 79.1875 -26.804688 79.15625 -27.660156 79.15625 -28.515625 L 79.15625 -72.578125 C 79.15625 -76.472656 77.90625 -79.671875 75.40625 -82.171875 C 72.90625 -84.671875 70.253906 -85.921875 67.453125 -85.921875 C 63.679688 -85.921875 60.054688 -84.519531 56.578125 -81.71875 C 53.109375 -78.914062 50.273438 -74.984375 48.078125 -69.921875 C 45.878906 -64.867188 44.78125 -58.925781 44.78125 -52.09375 C 44.78125 -46.851562 45.453125 -42.128906 46.796875 -37.921875 C 48.140625 -33.722656 49.90625 -30.101562 52.09375 -27.0625 C 56.601562 -21.082031 62.03125 -18.09375 68.375 -18.09375 Z M 68.921875 -18.09375 "/></g></g></g><g transform="matrix(1, 0, 0, 1, 420, 16)"><g clip-path="url(#7e841b2ce6)"><g fill="#ff6f61" fill-opacity="1"><g transform="translate(1.093943, 151.261785)"><g><path d="M 30.21875 -122.171875 C 30.21875 -117.503906 29.359375 -113.664062 27.640625 -110.65625 C 25.921875 -107.644531 23.800781 -105.304688 21.28125 -103.640625 C 18.757812 -101.984375 16.238281 -100.785156 13.71875 -100.046875 C 11.207031 -99.316406 9.09375 -98.890625 7.375 -98.765625 C 5.65625 -98.640625 4.796875 -98.578125 4.796875 -98.578125 C 4.796875 -98.578125 5.4375 -98.882812 6.71875 -99.5 C 8.007812 -100.113281 9.269531 -101.066406 10.5 -102.359375 C 11.726562 -103.648438 12.34375 -105.335938 12.34375 -107.421875 C 12.34375 -110.367188 11.695312 -113.007812 10.40625 -115.34375 C 9.113281 -117.675781 7.820312 -119.914062 6.53125 -122.0625 C 5.25 -124.21875 4.609375 -126.460938 4.609375 -128.796875 C 4.609375 -131.742188 5.617188 -134.257812 7.640625 -136.34375 C 9.671875 -138.4375 12.53125 -139.484375 16.21875 -139.484375 C 19.78125 -139.367188 23.003906 -137.957031 25.890625 -135.25 C 28.773438 -132.550781 30.21875 -128.191406 30.21875 -122.171875 Z M 30.21875 -122.171875 "/></g></g></g><g fill="#ff6f61" fill-opacity="1"><g transform="translate(12.330128, 151.261785)"><g><path d="M 76.28125 0 C 76.894531 -0.25 77.234375 -1.109375 77.296875 -2.578125 C 77.359375 -4.054688 76.835938 -6.695312 75.734375 -10.5 L 62.65625 -55.46875 L 20.453125 -55.46875 L 16.953125 -43.296875 C 15.359375 -37.523438 15.175781 -31.875 16.40625 -26.34375 C 17.632812 -20.820312 20.03125 -15.785156 23.59375 -11.234375 C 27.15625 -6.691406 31.515625 -2.945312 36.671875 0 L 3.6875 0 L 41.09375 -128.984375 C 41.332031 -128.859375 42.34375 -128.242188 44.125 -127.140625 C 45.90625 -126.035156 48.578125 -125.082031 52.140625 -124.28125 C 55.703125 -123.488281 60.1875 -123.335938 65.59375 -123.828125 C 69.15625 -124.191406 72.65625 -124.925781 76.09375 -126.03125 C 79.539062 -127.144531 82.429688 -128.128906 84.765625 -128.984375 L 118.484375 -12.71875 C 119.835938 -8.164062 120.941406 -4.96875 121.796875 -3.125 C 122.660156 -1.289062 123.398438 -0.25 124.015625 0 Z M 20.640625 -56.203125 L 62.46875 -56.203125 L 41.453125 -128.0625 Z M 20.640625 -56.203125 "/></g></g></g><g fill="#ff6f61" fill-opacity="1"><g transform="translate(116.429938, 151.261785)"><g><path d="M 27.828125 -108.15625 C 22.046875 -108.15625 17.128906 -110.179688 13.078125 -114.234375 C 9.023438 -118.296875 7 -123.210938 7 -128.984375 C 7 -132.796875 7.921875 -136.265625 9.765625 -139.390625 C 11.609375 -142.523438 14.125 -145.046875 17.3125 -146.953125 C 20.507812 -148.859375 24.015625 -149.8125 27.828125 -149.8125 C 31.628906 -149.8125 35.097656 -148.859375 38.234375 -146.953125 C 41.367188 -145.046875 43.882812 -142.523438 45.78125 -139.390625 C 47.6875 -136.265625 48.640625 -132.796875 48.640625 -128.984375 C 48.640625 -123.210938 46.613281 -118.300781 42.5625 -114.25 C 38.257812 -110.1875 33.347656 -108.15625 27.828125 -108.15625 Z M 48.640625 -15.296875 C 48.640625 -10.503906 48.914062 -6.972656 49.46875 -4.703125 C 50.019531 -2.429688 50.851562 -0.863281 51.96875 0 L 3.6875 0 C 4.664062 -0.863281 5.460938 -2.429688 6.078125 -4.703125 C 6.691406 -6.972656 7 -10.503906 7 -15.296875 L 7 -102.640625 C 7 -102.640625 7.828125 -101.929688 9.484375 -100.515625 C 11.148438 -99.097656 13.734375 -97.773438 17.234375 -96.546875 C 20.734375 -95.328125 25.304688 -95.082031 30.953125 -95.8125 C 34.023438 -96.1875 37.066406 -96.863281 40.078125 -97.84375 C 43.085938 -98.820312 45.941406 -99.988281 48.640625 -101.34375 Z M 48.640625 -15.296875 "/></g></g></g></g></g></svg>