<svg xmlns="http://www.w3.org/2000/svg" xmlns:xlink="http://www.w3.org/1999/xlink" width="134" zoomAndPan="magnify" viewBox="0 0 100.5 149.249994" height="199" preserveAspectRatio="xMidYMid meet" version="1.0"><defs><clipPath id="d0f4b89a4f"><path d="M 0.00390625 102 L 94 102 L 94 148 L 0.00390625 148 Z M 0.00390625 102 " clip-rule="nonzero"></path></clipPath><clipPath id="842c2b8d52"><path d="M 93.785156 148.007812 L -0.160156 147.878906 L -0.0976562 102.757812 L 93.847656 102.886719 Z M 93.785156 148.007812 " clip-rule="nonzero"></path></clipPath><clipPath id="ad797780cf"><path d="M 0.0546875 102.757812 C 0.0195312 127.335938 21.304688 147.910156 46.800781 147.945312 C 72.296875 147.980469 93.636719 127.464844 93.671875 102.886719 L 67.679688 102.851562 C 67.664062 113.78125 58.175781 122.90625 46.835938 122.890625 C 35.496094 122.875 26.03125 113.722656 26.046875 102.792969 Z M 0.0546875 102.757812 " clip-rule="nonzero"></path></clipPath><clipPath id="03f9108fe4"><path d="M 0.00390625 0.683594 L 93.851562 0.683594 L 93.851562 46 L 0.00390625 46 Z M 0.00390625 0.683594 " clip-rule="nonzero"></path></clipPath><clipPath id="d5522d93d0"><path d="M 93.785156 46.007812 L -0.160156 45.878906 L -0.0976562 0.757812 L 93.847656 0.886719 Z M 93.785156 46.007812 " clip-rule="nonzero"></path></clipPath><clipPath id="e796f1d29d"><path d="M 0.0546875 0.757812 C 0.0195312 25.335938 21.304688 45.910156 46.800781 45.945312 C 72.296875 45.980469 93.636719 25.464844 93.671875 0.886719 L 67.679688 0.851562 C 67.664062 11.78125 58.175781 20.90625 46.835938 20.890625 C 35.496094 20.875 26.03125 11.722656 26.046875 0.792969 Z M 0.0546875 0.757812 " clip-rule="nonzero"></path></clipPath><clipPath id="8d81733696"><rect x="0" width="94" y="0" height="46"></rect></clipPath><clipPath id="a6ef9f7861"><path d="M 0.0625 9.152344 L 93.34375 9.152344 L 93.34375 102.433594 L 0.0625 102.433594 Z M 0.0625 9.152344 " clip-rule="nonzero"></path></clipPath><clipPath id="f26892ed6c"><path d="M 60 3 L 100 3 L 100 33 L 60 33 Z M 60 3 " clip-rule="nonzero"></path></clipPath><clipPath id="bed248b628"><path d="M 71.160156 0.00390625 L 99.890625 13.035156 L 89.300781 36.386719 L 60.566406 23.355469 Z M 71.160156 0.00390625 " clip-rule="nonzero"></path></clipPath><clipPath id="9a674680ac"><path d="M 78.941406 3.53125 L 99.839844 13.011719 L 81.460938 32.832031 L 60.566406 23.355469 Z M 78.941406 3.53125 " clip-rule="nonzero"></path></clipPath><clipPath id="4bd096d7bd"><path d="M 0.417969 0.34375 L 40 0.34375 L 40 29.953125 L 0.417969 29.953125 Z M 0.417969 0.34375 " clip-rule="nonzero"></path></clipPath><clipPath id="3fe21a6848"><path d="M 11.160156 -2.996094 L 39.890625 10.035156 L 29.300781 33.386719 L 0.566406 20.355469 Z M 11.160156 -2.996094 " clip-rule="nonzero"></path></clipPath><clipPath id="044f1c6214"><path d="M 18.941406 0.53125 L 39.839844 10.011719 L 21.460938 29.832031 L 0.566406 20.355469 Z M 18.941406 0.53125 " clip-rule="nonzero"></path></clipPath><clipPath id="13804bfa3d"><rect x="0" width="40" y="0" height="30"></rect></clipPath></defs><g clip-path="url(#d0f4b89a4f)"><g clip-path="url(#842c2b8d52)"><g clip-path="url(#ad797780cf)"><g transform="matrix(1, 0, 0, 1, 0, 102)"><g clip-path="url(#8d81733696)"><g clip-path="url(#03f9108fe4)"><g clip-path="url(#d5522d93d0)"><g clip-path="url(#e796f1d29d)"><path fill="#f25c2b" d="M 93.609375 46.007812 L 0.015625 45.878906 L 0.078125 0.757812 L 93.671875 0.886719 Z M 93.609375 46.007812 " fill-opacity="1" fill-rule="nonzero"></path></g></g></g></g></g></g></g></g><g clip-path="url(#a6ef9f7861)"><path fill="#000000" d="M 46.867188 9.152344 C 72.699219 9.152344 93.671875 30.125 93.671875 55.957031 C 93.671875 81.789062 72.699219 102.761719 46.867188 102.761719 C 21.035156 102.761719 0.0625 81.789062 0.0625 55.957031 C 0.0625 30.125 21.035156 9.152344 46.867188 9.152344 Z M 46.867188 32.554688 C 59.785156 32.554688 70.269531 43.039062 70.269531 55.957031 C 70.269531 68.871094 59.785156 79.359375 46.867188 79.359375 C 33.953125 79.359375 23.464844 68.871094 23.464844 55.957031 C 23.464844 43.039062 33.953125 32.554688 46.867188 32.554688 Z M 46.867188 32.554688 " fill-opacity="1" fill-rule="evenodd"></path></g><g clip-path="url(#f26892ed6c)"><g clip-path="url(#bed248b628)"><g clip-path="url(#9a674680ac)"><g transform="matrix(1, 0, 0, 1, 60, 3)"><g clip-path="url(#13804bfa3d)"><g clip-path="url(#4bd096d7bd)"><g clip-path="url(#3fe21a6848)"><g clip-path="url(#044f1c6214)"><path fill="#000000" d="M 11.160156 -2.996094 L 39.800781 9.996094 L 29.207031 33.347656 L 0.566406 20.355469 Z M 11.160156 -2.996094 " fill-opacity="1" fill-rule="nonzero"></path></g></g></g></g></g></g></g></g></svg>