<svg xmlns="http://www.w3.org/2000/svg" xmlns:xlink="http://www.w3.org/1999/xlink" width="851" zoomAndPan="magnify" viewBox="0 0 638.25 236.249991" height="315" preserveAspectRatio="xMidYMid meet" version="1.0"><defs><clipPath id="93feafcb8c"><path d="M 239.625 80.089844 L 320.367188 80.089844 L 320.367188 160.835938 L 239.625 160.835938 Z M 239.625 80.089844 " clip-rule="nonzero"></path></clipPath><clipPath id="5d4711c4e3"><path d="M 45.644531 54.121094 L 148.816406 54.121094 L 148.816406 157.292969 L 45.644531 157.292969 Z M 45.644531 54.121094 " clip-rule="nonzero"></path></clipPath><clipPath id="a9a6dc9b4b"><path d="M 105 45 L 150 45 L 150 78 L 105 78 Z M 105 45 " clip-rule="nonzero"></path></clipPath><clipPath id="2ddf15b92c"><path d="M 117.425781 41.566406 L 149.195312 55.976562 L 137.484375 81.796875 L 105.714844 67.386719 Z M 117.425781 41.566406 " clip-rule="nonzero"></path></clipPath><clipPath id="e8652a978d"><path d="M 126.03125 45.46875 L 149.136719 55.953125 L 128.820312 77.867188 L 105.714844 67.386719 Z M 126.03125 45.46875 " clip-rule="nonzero"></path></clipPath><clipPath id="e2b2c4dedc"><path d="M 0.664062 0.457031 L 44.203125 0.457031 L 44.203125 32.992188 L 0.664062 32.992188 Z M 0.664062 0.457031 " clip-rule="nonzero"></path></clipPath><clipPath id="4468b7ac73"><path d="M 12.425781 -3.433594 L 44.195312 10.976562 L 32.484375 36.796875 L 0.714844 22.386719 Z M 12.425781 -3.433594 " clip-rule="nonzero"></path></clipPath><clipPath id="a809d8059c"><path d="M 21.03125 0.46875 L 44.136719 10.953125 L 23.820312 32.867188 L 0.714844 22.386719 Z M 21.03125 0.46875 " clip-rule="nonzero"></path></clipPath><clipPath id="d36d8755ff"><rect x="0" width="45" y="0" height="33"></rect></clipPath><clipPath id="8c9e90ced9"><path d="M 50 157 L 145 157 L 145 203 L 50 203 Z M 50 157 " clip-rule="nonzero"></path></clipPath><clipPath id="c75f4885ea"><path d="M 144.167969 202.871094 L 50.511719 202.746094 L 50.574219 157.59375 L 144.230469 157.71875 Z M 144.167969 202.871094 " clip-rule="nonzero"></path></clipPath><clipPath id="e06afacdd7"><path d="M 50.585938 157.59375 C 50.554688 182.1875 71.84375 202.773438 97.347656 202.808594 C 122.851562 202.84375 144.199219 182.3125 144.230469 157.71875 L 118.230469 157.683594 C 118.21875 168.621094 108.722656 177.753906 97.382812 177.738281 C 86.039062 177.722656 76.570312 168.566406 76.585938 157.628906 Z M 50.585938 157.59375 " clip-rule="nonzero"></path></clipPath><clipPath id="007a41ca06"><path d="M 0.398438 0.421875 L 94.417969 0.421875 L 94.417969 45.875 L 0.398438 45.875 Z M 0.398438 0.421875 " clip-rule="nonzero"></path></clipPath><clipPath id="7676361a75"><path d="M 94.167969 45.871094 L 0.511719 45.746094 L 0.574219 0.59375 L 94.230469 0.71875 Z M 94.167969 45.871094 " clip-rule="nonzero"></path></clipPath><clipPath id="25afd5ae4a"><path d="M 0.585938 0.59375 C 0.554688 25.1875 21.84375 45.773438 47.347656 45.808594 C 72.851562 45.84375 94.199219 25.3125 94.230469 0.71875 L 68.230469 0.683594 C 68.21875 11.621094 58.722656 20.753906 47.382812 20.738281 C 36.039062 20.722656 26.570312 11.566406 26.585938 0.628906 Z M 0.585938 0.59375 " clip-rule="nonzero"></path></clipPath><clipPath id="b7d035eb5b"><rect x="0" width="95" y="0" height="46"></rect></clipPath><clipPath id="fb34fab36b"><path d="M 153.898438 80.089844 L 234.644531 80.089844 L 234.644531 160.835938 L 153.898438 160.835938 Z M 153.898438 80.089844 " clip-rule="nonzero"></path></clipPath><clipPath id="0e36ccc4c4"><path d="M 533.65625 112.769531 L 563.113281 112.769531 L 563.113281 158.671875 L 533.65625 158.671875 Z M 533.65625 112.769531 " clip-rule="nonzero"></path></clipPath><clipPath id="2f4d2ce9e1"><path d="M 0.65625 0.769531 L 30.113281 0.769531 L 30.113281 46.671875 L 0.65625 46.671875 Z M 0.65625 0.769531 " clip-rule="nonzero"></path></clipPath><clipPath id="98e32f1b0a"><rect x="0" width="31" y="0" height="47"></rect></clipPath><clipPath id="108a80c61f"><path d="M 532.546875 78.695312 L 563.113281 78.695312 L 563.113281 109.261719 L 532.546875 109.261719 Z M 532.546875 78.695312 " clip-rule="nonzero"></path></clipPath><clipPath id="e97d2d7bfc"><path d="M 547.828125 78.695312 C 539.390625 78.695312 532.546875 85.539062 532.546875 93.980469 C 532.546875 102.417969 539.390625 109.261719 547.828125 109.261719 C 556.269531 109.261719 563.113281 102.417969 563.113281 93.980469 C 563.113281 85.539062 556.269531 78.695312 547.828125 78.695312 Z M 547.828125 78.695312 " clip-rule="nonzero"></path></clipPath><clipPath id="589a2f62ef"><path d="M 0.546875 0.695312 L 31.113281 0.695312 L 31.113281 31.261719 L 0.546875 31.261719 Z M 0.546875 0.695312 " clip-rule="nonzero"></path></clipPath><clipPath id="c1f43910e4"><path d="M 15.828125 0.695312 C 7.390625 0.695312 0.546875 7.539062 0.546875 15.980469 C 0.546875 24.417969 7.390625 31.261719 15.828125 31.261719 C 24.269531 31.261719 31.113281 24.417969 31.113281 15.980469 C 31.113281 7.539062 24.269531 0.695312 15.828125 0.695312 Z M 15.828125 0.695312 " clip-rule="nonzero"></path></clipPath><clipPath id="ab5b15bcc6"><rect x="0" width="32" y="0" height="32"></rect></clipPath><clipPath id="8f9a5810c4"><path d="M 0.894531 0.65625 L 119 0.65625 L 119 96.484375 L 0.894531 96.484375 Z M 0.894531 0.65625 " clip-rule="nonzero"></path></clipPath><clipPath id="8fa2eaf6ac"><path d="M 59.929688 0.65625 L 118.96875 96.484375 L 0.894531 96.484375 Z M 59.929688 0.65625 " clip-rule="nonzero"></path></clipPath><clipPath id="7bd85f6436"><path d="M 0.894531 0.65625 L 119 0.65625 L 119 96.484375 L 0.894531 96.484375 Z M 0.894531 0.65625 " clip-rule="nonzero"></path></clipPath><clipPath id="b8091e2c0f"><path d="M 59.929688 0.65625 L 118.96875 96.484375 L 0.894531 96.484375 Z M 59.929688 0.65625 " clip-rule="nonzero"></path></clipPath><clipPath id="21bb428768"><rect x="0" width="119" y="0" height="97"></rect></clipPath><clipPath id="b889306e19"><path d="M 33.046875 0.65625 L 86.914062 0.65625 L 86.914062 44.296875 L 33.046875 44.296875 Z M 33.046875 0.65625 " clip-rule="nonzero"></path></clipPath><clipPath id="1fd719b569"><path d="M 59.929688 0.65625 L 86.816406 44.296875 L 33.046875 44.296875 Z M 59.929688 0.65625 " clip-rule="nonzero"></path></clipPath><clipPath id="66cffda51a"><path d="M 0.046875 0.65625 L 53.863281 0.65625 L 53.863281 44.296875 L 0.046875 44.296875 Z M 0.046875 0.65625 " clip-rule="nonzero"></path></clipPath><clipPath id="3bcc71b4eb"><path d="M 26.929688 0.65625 L 53.816406 44.296875 L 0.046875 44.296875 Z M 26.929688 0.65625 " clip-rule="nonzero"></path></clipPath><clipPath id="037309b2a1"><rect x="0" width="54" y="0" height="45"></rect></clipPath><clipPath id="1b24c7b0b5"><rect x="0" width="120" y="0" height="97"></rect></clipPath><clipPath id="571c7ab033"><path d="M 324.054688 79.476562 L 404.796875 79.476562 L 404.796875 160.21875 L 324.054688 160.21875 Z M 324.054688 79.476562 " clip-rule="nonzero"></path></clipPath><clipPath id="3d84423f6a"><path d="M 385.695312 23.550781 L 405.015625 23.550781 L 405.015625 118.84375 L 385.695312 118.84375 Z M 385.695312 23.550781 " clip-rule="nonzero"></path></clipPath><clipPath id="ec946c7d0e"><path d="M 0.695312 0.550781 L 20.015625 0.550781 L 20.015625 95.84375 L 0.695312 95.84375 Z M 0.695312 0.550781 " clip-rule="nonzero"></path></clipPath><clipPath id="005d37bef4"><rect x="0" width="21" y="0" height="96"></rect></clipPath><clipPath id="22a75023e4"><path d="M 385.695312 121.351562 L 405.015625 121.351562 L 405.015625 161.53125 L 385.695312 161.53125 Z M 385.695312 121.351562 " clip-rule="nonzero"></path></clipPath><clipPath id="3e7c5cb5dc"><path d="M 0.695312 0.351562 L 20.015625 0.351562 L 20.015625 40.53125 L 0.695312 40.53125 Z M 0.695312 0.351562 " clip-rule="nonzero"></path></clipPath><clipPath id="9de32641d0"><rect x="0" width="21" y="0" height="41"></rect></clipPath><clipPath id="36be46e7f0"><path d="M 365.992188 23.546875 L 405.390625 23.546875 L 405.390625 41.5625 L 365.992188 41.5625 Z M 365.992188 23.546875 " clip-rule="nonzero"></path></clipPath><clipPath id="aca1c24afb"><path d="M 0.992188 0.546875 L 40.390625 0.546875 L 40.390625 18.5625 L 0.992188 18.5625 Z M 0.992188 0.546875 " clip-rule="nonzero"></path></clipPath><clipPath id="4e056b877e"><rect x="0" width="41" y="0" height="19"></rect></clipPath><clipPath id="2264d20e5b"><path d="M 0.636719 79 L 636.867188 79 L 636.867188 140 L 0.636719 140 Z M 0.636719 79 " clip-rule="nonzero"></path></clipPath></defs><g clip-path="url(#93feafcb8c)"><path fill="#000000" d="M 280.101562 80.09375 C 302.441406 80.09375 320.578125 98.230469 320.578125 120.570312 C 320.578125 142.910156 302.441406 161.046875 280.101562 161.046875 C 257.761719 161.046875 239.625 142.910156 239.625 120.570312 C 239.625 98.230469 257.761719 80.09375 280.101562 80.09375 Z M 280.101562 100.332031 C 291.269531 100.332031 300.339844 109.398438 300.339844 120.570312 C 300.339844 131.738281 291.269531 140.808594 280.101562 140.808594 C 268.929688 140.808594 259.863281 131.738281 259.863281 120.570312 C 259.863281 109.398438 268.929688 100.332031 280.101562 100.332031 Z M 280.101562 100.332031 " fill-opacity="1" fill-rule="evenodd"></path></g><g clip-path="url(#5d4711c4e3)"><path fill="#000000" d="M 97.378906 54.125 C 125.929688 54.125 149.109375 77.304688 149.109375 105.855469 C 149.109375 134.410156 125.929688 157.589844 97.378906 157.589844 C 68.824219 157.589844 45.644531 134.410156 45.644531 105.855469 C 45.644531 77.304688 68.824219 54.125 97.378906 54.125 Z M 97.378906 79.988281 C 111.652344 79.988281 123.246094 91.582031 123.246094 105.855469 C 123.246094 120.132812 111.652344 131.722656 97.378906 131.722656 C 83.101562 131.722656 71.511719 120.132812 71.511719 105.855469 C 71.511719 91.582031 83.101562 79.988281 97.378906 79.988281 Z M 97.378906 79.988281 " fill-opacity="1" fill-rule="evenodd"></path></g><g clip-path="url(#a9a6dc9b4b)"><g clip-path="url(#2ddf15b92c)"><g clip-path="url(#e8652a978d)"><g transform="matrix(1, 0, 0, 1, 105, 45)"><g clip-path="url(#d36d8755ff)"><g clip-path="url(#e2b2c4dedc)"><g clip-path="url(#4468b7ac73)"><g clip-path="url(#a809d8059c)"><path fill="#000000" d="M 12.425781 -3.433594 L 44.097656 10.933594 L 32.382812 36.753906 L 0.714844 22.386719 Z M 12.425781 -3.433594 " fill-opacity="1" fill-rule="nonzero"></path></g></g></g></g></g></g></g></g><g clip-path="url(#8c9e90ced9)"><g clip-path="url(#c75f4885ea)"><g clip-path="url(#e06afacdd7)"><g transform="matrix(1, 0, 0, 1, 50, 157)"><g clip-path="url(#b7d035eb5b)"><g clip-path="url(#007a41ca06)"><g clip-path="url(#7676361a75)"><g clip-path="url(#25afd5ae4a)"><path fill="#f4442e" d="M 94.167969 45.871094 L 0.511719 45.746094 L 0.574219 0.59375 L 94.230469 0.71875 Z M 94.167969 45.871094 " fill-opacity="1" fill-rule="nonzero"></path></g></g></g></g></g></g></g></g><g clip-path="url(#fb34fab36b)"><path fill="#000000" d="M 194.378906 80.09375 C 216.71875 80.09375 234.855469 98.230469 234.855469 120.570312 C 234.855469 142.910156 216.71875 161.046875 194.378906 161.046875 C 172.039062 161.046875 153.898438 142.910156 153.898438 120.570312 C 153.898438 98.230469 172.039062 80.09375 194.378906 80.09375 Z M 194.378906 100.332031 C 205.546875 100.332031 214.617188 109.398438 214.617188 120.570312 C 214.617188 131.738281 205.546875 140.808594 194.378906 140.808594 C 183.207031 140.808594 174.140625 131.738281 174.140625 120.570312 C 174.140625 109.398438 183.207031 100.332031 194.378906 100.332031 Z M 194.378906 100.332031 " fill-opacity="1" fill-rule="evenodd"></path></g><g clip-path="url(#0e36ccc4c4)"><g transform="matrix(1, 0, 0, 1, 533, 112)"><g clip-path="url(#98e32f1b0a)"><g clip-path="url(#2f4d2ce9e1)"><path fill="#000000" d="M 0.65625 0.769531 L 30.113281 0.769531 L 30.113281 46.679688 L 0.65625 46.679688 Z M 0.65625 0.769531 " fill-opacity="1" fill-rule="nonzero"></path></g></g></g></g><g clip-path="url(#108a80c61f)"><g clip-path="url(#e97d2d7bfc)"><g transform="matrix(1, 0, 0, 1, 532, 78)"><g clip-path="url(#ab5b15bcc6)"><g clip-path="url(#589a2f62ef)"><g clip-path="url(#c1f43910e4)"><path fill="#f4442e" d="M 0.546875 0.695312 L 31.113281 0.695312 L 31.113281 31.261719 L 0.546875 31.261719 Z M 0.546875 0.695312 " fill-opacity="1" fill-rule="nonzero"></path></g></g></g></g></g></g><g transform="matrix(1, 0, 0, 1, 409, 63)"><g clip-path="url(#1b24c7b0b5)"><g clip-path="url(#8f9a5810c4)"><g clip-path="url(#8fa2eaf6ac)"><g transform="matrix(1, 0, 0, 1, -0.000000000000113687, -0.000000000000014211)"><g clip-path="url(#21bb428768)"><g clip-path="url(#7bd85f6436)"><g clip-path="url(#b8091e2c0f)"><path fill="#000000" d="M 0.894531 0.65625 L 118.808594 0.65625 L 118.808594 96.484375 L 0.894531 96.484375 Z M 0.894531 0.65625 " fill-opacity="1" fill-rule="nonzero"></path></g></g></g></g></g></g><g clip-path="url(#b889306e19)"><g clip-path="url(#1fd719b569)"><g transform="matrix(1, 0, 0, 1, 33, -0.000000000000014211)"><g clip-path="url(#037309b2a1)"><g clip-path="url(#66cffda51a)"><g clip-path="url(#3bcc71b4eb)"><path fill="#f4442e" d="M 0.046875 0.65625 L 53.742188 0.65625 L 53.742188 44.296875 L 0.046875 44.296875 Z M 0.046875 0.65625 " fill-opacity="1" fill-rule="nonzero"></path></g></g></g></g></g></g></g></g><g clip-path="url(#571c7ab033)"><path fill="#000000" d="M 364.53125 79.476562 C 386.871094 79.476562 405.007812 97.613281 405.007812 119.953125 C 405.007812 142.292969 386.871094 160.429688 364.53125 160.429688 C 342.191406 160.429688 324.054688 142.292969 324.054688 119.953125 C 324.054688 97.613281 342.191406 79.476562 364.53125 79.476562 Z M 364.53125 99.714844 C 375.703125 99.714844 384.769531 108.785156 384.769531 119.953125 C 384.769531 131.125 375.703125 140.191406 364.53125 140.191406 C 353.363281 140.191406 344.292969 131.125 344.292969 119.953125 C 344.292969 108.785156 353.363281 99.714844 364.53125 99.714844 Z M 364.53125 99.714844 " fill-opacity="1" fill-rule="evenodd"></path></g><g clip-path="url(#3d84423f6a)"><g transform="matrix(1, 0, 0, 1, 385, 23)"><g clip-path="url(#005d37bef4)"><g clip-path="url(#ec946c7d0e)"><path fill="#000000" d="M 0.695312 0.550781 L 20.015625 0.550781 L 20.015625 95.875 L 0.695312 95.875 Z M 0.695312 0.550781 " fill-opacity="1" fill-rule="nonzero"></path></g></g></g></g><g clip-path="url(#22a75023e4)"><g transform="matrix(1, 0, 0, 1, 385, 121)"><g clip-path="url(#9de32641d0)"><g clip-path="url(#3e7c5cb5dc)"><path fill="#000000" d="M 0.695312 0.351562 L 20.015625 0.351562 L 20.015625 40.503906 L 0.695312 40.503906 Z M 0.695312 0.351562 " fill-opacity="1" fill-rule="nonzero"></path></g></g></g></g><g clip-path="url(#36be46e7f0)"><g transform="matrix(1, 0, 0, 1, 365, 23)"><g clip-path="url(#4e056b877e)"><g clip-path="url(#aca1c24afb)"><path fill="#d23f11" d="M 40.390625 0.546875 L 40.390625 18.5625 L 0.984375 18.5625 L 0.984375 0.546875 Z M 40.390625 0.546875 " fill-opacity="1" fill-rule="nonzero"></path></g></g></g></g><g clip-path="url(#2264d20e5b)"><path stroke-linecap="butt" transform="matrix(0.747625, 0.00135019, -0.00135019, 0.747625, 16.190411, 106.215535)" fill="none" stroke-linejoin="miter" d="M 0.00242741 3.499739 L 809.403723 3.500949 " stroke="#fff0d0" stroke-width="7" stroke-opacity="1" stroke-miterlimit="4"></path></g></svg>