<svg xmlns="http://www.w3.org/2000/svg" xmlns:xlink="http://www.w3.org/1999/xlink" width="96" zoomAndPan="magnify" viewBox="0 0 72 73.499998" height="98" preserveAspectRatio="xMidYMid meet" version="1.0"><defs><clipPath id="57b5bfa7a2"><path d="M 0.242188 0 L 71.753906 0 L 71.753906 35.757812 L 0.242188 35.757812 Z M 0.242188 0 " clip-rule="nonzero"></path></clipPath><clipPath id="86cf0b1ac8"><path d="M 0.242188 35.234375 L 17.957031 35.234375 L 17.957031 72.53125 L 0.242188 72.53125 Z M 0.242188 35.234375 " clip-rule="nonzero"></path></clipPath><clipPath id="3bd16fa8bb"><path d="M 0.242188 0.234375 L 17.957031 0.234375 L 17.957031 37.53125 L 0.242188 37.53125 Z M 0.242188 0.234375 " clip-rule="nonzero"></path></clipPath><clipPath id="87f1a42b5b"><rect x="0" width="18" y="0" height="38"></rect></clipPath><clipPath id="646b080b24"><path d="M 53.429688 35.574219 L 71.199219 35.574219 L 71.199219 72.53125 L 53.429688 72.53125 Z M 53.429688 35.574219 " clip-rule="nonzero"></path></clipPath><clipPath id="53f5df4948"><path d="M 0.429688 0.574219 L 18.199219 0.574219 L 18.199219 37.53125 L 0.429688 37.53125 Z M 0.429688 0.574219 " clip-rule="nonzero"></path></clipPath><clipPath id="36fa196351"><rect x="0" width="19" y="0" height="38"></rect></clipPath><clipPath id="ae2f00d25c"><path d="M 17.351562 40.746094 L 54.308594 40.746094 L 54.308594 58.515625 L 17.351562 58.515625 Z M 17.351562 40.746094 " clip-rule="nonzero"></path></clipPath><clipPath id="ae80928972"><path d="M 0.351562 0.746094 L 37.308594 0.746094 L 37.308594 18.515625 L 0.351562 18.515625 Z M 0.351562 0.746094 " clip-rule="nonzero"></path></clipPath><clipPath id="2e23799667"><rect x="0" width="38" y="0" height="19"></rect></clipPath></defs><g clip-path="url(#57b5bfa7a2)"><path fill="#f25c2b" d="M 35.832031 0 C 55.472656 0 71.417969 15.949219 71.417969 35.589844 C 71.417969 55.230469 55.472656 71.175781 35.832031 71.175781 C 16.191406 71.175781 0.242188 55.230469 0.242188 35.589844 C 0.242188 15.949219 16.191406 0 35.832031 0 Z M 35.832031 17.796875 C 45.652344 17.796875 53.625 25.769531 53.625 35.589844 C 53.625 45.410156 45.652344 53.382812 35.832031 53.382812 C 26.011719 53.382812 18.039062 45.410156 18.039062 35.589844 C 18.039062 25.769531 26.011719 17.796875 35.832031 17.796875 Z M 35.832031 17.796875 " fill-opacity="1" fill-rule="evenodd"></path></g><g clip-path="url(#86cf0b1ac8)"><g transform="matrix(1, 0, 0, 1, 0.000000000000000028, 35)"><g clip-path="url(#87f1a42b5b)"><g clip-path="url(#3bd16fa8bb)"><path fill="#f25c2b" d="M 0.242188 0.234375 L 17.957031 0.234375 L 17.957031 37.535156 L 0.242188 37.535156 Z M 0.242188 0.234375 " fill-opacity="1" fill-rule="nonzero"></path></g></g></g></g><g clip-path="url(#646b080b24)"><g transform="matrix(1, 0, 0, 1, 53, 35)"><g clip-path="url(#36fa196351)"><g clip-path="url(#53f5df4948)"><path fill="#f25c2b" d="M 0.429688 0.574219 L 18.199219 0.574219 L 18.199219 37.503906 L 0.429688 37.503906 Z M 0.429688 0.574219 " fill-opacity="1" fill-rule="nonzero"></path></g></g></g></g><g clip-path="url(#ae2f00d25c)"><g transform="matrix(1, 0, 0, 1, 17, 40)"><g clip-path="url(#2e23799667)"><g clip-path="url(#ae80928972)"><path fill="#f25c2b" d="M 37.308594 0.746094 L 37.308594 18.515625 L 0.378906 18.515625 L 0.378906 0.746094 Z M 37.308594 0.746094 " fill-opacity="1" fill-rule="nonzero"></path></g></g></g></g></svg>