<svg xmlns="http://www.w3.org/2000/svg" xmlns:xlink="http://www.w3.org/1999/xlink" width="369" zoomAndPan="magnify" viewBox="0 0 276.75 477.749986" height="637" preserveAspectRatio="xMidYMid meet" version="1.0"><defs><clipPath id="d11a186603"><path d="M 170.242188 11.746094 L 252.667969 11.746094 L 252.667969 112.15625 L 170.242188 112.15625 Z M 170.242188 11.746094 " clip-rule="nonzero"></path></clipPath><clipPath id="c02e5195e6"><path d="M 0.242188 0.746094 L 81.964844 0.746094 L 81.964844 101.15625 L 0.242188 101.15625 Z M 0.242188 0.746094 " clip-rule="nonzero"></path></clipPath><clipPath id="6948ed2466"><rect x="0" width="83" y="0" height="102"></rect></clipPath><clipPath id="2e25d59612"><path d="M 155 22 L 268 22 L 268 303 L 155 303 Z M 155 22 " clip-rule="nonzero"></path></clipPath><clipPath id="28ccb4b779"><path d="M 229.488281 19.164062 L 275.25 291.917969 L 193.128906 305.695312 L 147.367188 32.941406 Z M 229.488281 19.164062 " clip-rule="nonzero"></path></clipPath><clipPath id="476a541a16"><path d="M 237.027344 159.160156 C 258.269531 202.683594 277.9375 245.414062 260.777344 294.320312 L 211.246094 302.632812 C 228.5 252.121094 206.652344 208.167969 185.585938 165.675781 C 164.347656 122.152344 144.675781 79.421875 161.835938 30.515625 L 211.371094 22.203125 C 194.113281 72.714844 215.960938 116.664062 237.027344 159.160156 Z M 237.027344 159.160156 " clip-rule="nonzero"></path></clipPath><clipPath id="e80e164f93"><path d="M 0 0.152344 L 113 0.152344 L 113 280.699219 L 0 280.699219 Z M 0 0.152344 " clip-rule="nonzero"></path></clipPath><clipPath id="2c0abf90fc"><path d="M 74.488281 -2.835938 L 120.25 269.917969 L 38.128906 283.695312 L -7.632812 10.941406 Z M 74.488281 -2.835938 " clip-rule="nonzero"></path></clipPath><clipPath id="c7fa25b947"><path d="M 82.027344 137.160156 C 103.269531 180.683594 122.9375 223.414062 105.777344 272.320312 L 56.246094 280.632812 C 73.5 230.121094 51.652344 186.167969 30.585938 143.675781 C 9.347656 100.152344 -10.324219 57.421875 6.835938 8.515625 L 56.371094 0.203125 C 39.113281 50.714844 60.960938 94.664062 82.027344 137.160156 Z M 82.027344 137.160156 " clip-rule="nonzero"></path></clipPath><clipPath id="48db449b4f"><rect x="0" width="113" y="0" height="281"></rect></clipPath><clipPath id="0398ac43d5"><path d="M 38 180 L 187 180 L 187 259 L 38 259 Z M 38 180 " clip-rule="nonzero"></path></clipPath><clipPath id="a408430709"><path d="M 26.988281 225.339844 L 49.027344 151.0625 L 196.707031 194.882812 L 174.671875 269.15625 Z M 26.988281 225.339844 " clip-rule="nonzero"></path></clipPath><clipPath id="4524c75314"><path d="M 153.675781 182.113281 C 177.363281 189.140625 191.632812 211.464844 185.546875 231.976562 C 179.460938 252.488281 155.324219 263.417969 131.636719 256.390625 C 107.953125 249.359375 38.007812 188.203125 38.007812 188.203125 C 38.007812 188.203125 129.988281 175.085938 153.675781 182.113281 Z M 153.675781 182.113281 " clip-rule="nonzero"></path></clipPath><clipPath id="cc98696b68"><path d="M 0 0 L 149 0 L 149 79 L 0 79 Z M 0 0 " clip-rule="nonzero"></path></clipPath><clipPath id="f432afbe88"><path d="M -11.011719 45.339844 L 11.027344 -28.9375 L 158.707031 14.882812 L 136.671875 89.15625 Z M -11.011719 45.339844 " clip-rule="nonzero"></path></clipPath><clipPath id="9ff568ff48"><path d="M 115.675781 2.113281 C 139.363281 9.140625 153.632812 31.464844 147.546875 51.976562 C 141.460938 72.488281 117.324219 83.417969 93.636719 76.390625 C 69.953125 69.359375 0.0078125 8.203125 0.0078125 8.203125 C 0.0078125 8.203125 91.988281 -4.914062 115.675781 2.113281 Z M 115.675781 2.113281 " clip-rule="nonzero"></path></clipPath><clipPath id="ddea7e3867"><rect x="0" width="149" y="0" height="79"></rect></clipPath><clipPath id="d39b4f11fb"><path d="M 13 198 L 220 198 L 220 327 L 13 327 Z M 13 198 " clip-rule="nonzero"></path></clipPath><clipPath id="6e78941221"><path d="M 0 292.910156 L 27.734375 168.039062 L 232.117188 213.433594 L 204.382812 338.304688 Z M 0 292.910156 " clip-rule="nonzero"></path></clipPath><clipPath id="d5eea280bd"><path d="M 13.867188 230.476562 C 58.453125 211.777344 130.019531 190.757812 173.855469 200.492188 C 205.78125 207.582031 225.484375 241.320312 217.832031 275.777344 C 210.179688 310.234375 178.046875 332.457031 146.121094 325.363281 C 102.285156 315.628906 80.070312 233.742188 13.867188 230.476562 Z M 13.867188 230.476562 " clip-rule="nonzero"></path></clipPath><clipPath id="e0d6cf898b"><path d="M 0.667969 0 L 207 0 L 207 129 L 0.667969 129 Z M 0.667969 0 " clip-rule="nonzero"></path></clipPath><clipPath id="48acf3c514"><path d="M -13 94.910156 L 14.734375 -29.960938 L 219.117188 15.433594 L 191.382812 140.304688 Z M -13 94.910156 " clip-rule="nonzero"></path></clipPath><clipPath id="4967f942a3"><path d="M 0.867188 32.476562 C 45.453125 13.777344 117.019531 -7.242188 160.855469 2.492188 C 192.78125 9.582031 212.484375 43.320312 204.832031 77.777344 C 197.179688 112.234375 165.046875 134.457031 133.121094 127.363281 C 89.285156 117.628906 67.070312 35.742188 0.867188 32.476562 Z M 0.867188 32.476562 " clip-rule="nonzero"></path></clipPath><clipPath id="fdb4527997"><rect x="0" width="207" y="0" height="129"></rect></clipPath><clipPath id="b6d0c93331"><path d="M 60.101562 170.582031 L 264.664062 170.582031 L 264.664062 375.144531 L 60.101562 375.144531 Z M 60.101562 170.582031 " clip-rule="nonzero"></path></clipPath><clipPath id="0ca24902da"><path d="M 160.871094 0.0898438 L 242.921875 0.0898438 L 242.921875 82.140625 L 160.871094 82.140625 Z M 160.871094 0.0898438 " clip-rule="nonzero"></path></clipPath><clipPath id="b5406909c0"><path d="M 201.894531 0.0898438 C 179.238281 0.0898438 160.871094 18.457031 160.871094 41.117188 C 160.871094 63.773438 179.238281 82.140625 201.894531 82.140625 C 224.554688 82.140625 242.921875 63.773438 242.921875 41.117188 C 242.921875 18.457031 224.554688 0.0898438 201.894531 0.0898438 Z M 201.894531 0.0898438 " clip-rule="nonzero"></path></clipPath><clipPath id="31d0b52e17"><path d="M 0.871094 0.0898438 L 82.921875 0.0898438 L 82.921875 82.140625 L 0.871094 82.140625 Z M 0.871094 0.0898438 " clip-rule="nonzero"></path></clipPath><clipPath id="3aa2f0e4f7"><path d="M 41.894531 0.0898438 C 19.238281 0.0898438 0.871094 18.457031 0.871094 41.117188 C 0.871094 63.773438 19.238281 82.140625 41.894531 82.140625 C 64.554688 82.140625 82.921875 63.773438 82.921875 41.117188 C 82.921875 18.457031 64.554688 0.0898438 41.894531 0.0898438 Z M 41.894531 0.0898438 " clip-rule="nonzero"></path></clipPath><clipPath id="d0b8632d00"><rect x="0" width="83" y="0" height="83"></rect></clipPath><clipPath id="e162a8a970"><path d="M 56 375 L 266 375 L 266 477 L 56 477 Z M 56 375 " clip-rule="nonzero"></path></clipPath><clipPath id="f6905606ae"><path d="M 266.089844 476.785156 L 55.5625 476.5 L 55.703125 375.382812 L 266.226562 375.667969 Z M 266.089844 476.785156 " clip-rule="nonzero"></path></clipPath><clipPath id="d06d50e001"><path d="M 56.042969 375.382812 C 55.96875 430.460938 103.667969 476.5625 160.800781 476.640625 C 217.933594 476.71875 265.757812 430.746094 265.832031 375.667969 L 207.589844 375.589844 C 207.554688 400.082031 186.285156 420.53125 160.875 420.496094 C 135.46875 420.460938 114.253906 399.957031 114.289062 375.460938 Z M 56.042969 375.382812 " clip-rule="nonzero"></path></clipPath><clipPath id="27c9318600"><path d="M 0 0.351562 L 209.917969 0.351562 L 209.917969 101.78125 L 0 101.78125 Z M 0 0.351562 " clip-rule="nonzero"></path></clipPath><clipPath id="d12d6402c6"><path d="M 210.089844 101.785156 L -0.4375 101.5 L -0.296875 0.382812 L 210.226562 0.667969 Z M 210.089844 101.785156 " clip-rule="nonzero"></path></clipPath><clipPath id="c051899975"><path d="M 0.0429688 0.382812 C -0.03125 55.460938 47.667969 101.5625 104.800781 101.640625 C 161.933594 101.71875 209.757812 55.746094 209.832031 0.667969 L 151.589844 0.589844 C 151.554688 25.082031 130.285156 45.53125 104.875 45.496094 C 79.46875 45.460938 58.253906 24.957031 58.289062 0.460938 Z M 0.0429688 0.382812 " clip-rule="nonzero"></path></clipPath><clipPath id="a58144aa1c"><rect x="0" width="210" y="0" height="102"></rect></clipPath></defs><g clip-path="url(#d11a186603)"><g transform="matrix(1, 0, 0, 1, 170, 11)"><g clip-path="url(#6948ed2466)"><g clip-path="url(#c02e5195e6)"><path fill="#d7591a" d="M -51.253906 134.363281 C -59.730469 134.042969 -68.183594 135.839844 -75.769531 139.609375 C -95.875 147.863281 -118.101562 149.34375 -139.09375 143.871094 C -139.585938 143.75 -140.078125 144.042969 -140.175781 144.539062 C -140.203125 144.585938 -140.203125 144.609375 -140.203125 144.660156 C -143.824219 191.226562 -109.035156 231.90625 -62.464844 235.527344 C -58.082031 235.875 -53.671875 235.875 -49.261719 235.527344 C -21.367188 233.335938 -0.523438 208.941406 -2.71875 181.050781 C -4.714844 155.425781 -25.582031 135.371094 -51.253906 134.363281 Z M 26.527344 6.019531 C 11.328125 5.625 -2.125 15.75 -5.945312 30.460938 C -14.394531 63.304688 -8.335938 98.214844 10.6875 126.304688 C 23.003906 148.480469 19.382812 176.125 1.742188 194.355469 C -2.546875 219.539062 -23.390625 238.609375 -48.867188 240.605469 C -92.527344 244.054688 -132.269531 215.449219 -142.886719 172.945312 C -152.667969 171.34375 -161.910156 167.402344 -169.84375 161.464844 C -170.261719 161.191406 -170.828125 161.292969 -171.097656 161.6875 C -171.222656 161.832031 -171.269531 162.03125 -171.269531 162.203125 C -170.308594 203.71875 -146.460938 241.292969 -109.304688 259.820312 C -59.335938 281.058594 -2.175781 276.796875 44.070312 248.390625 C 76.445312 228.480469 86.574219 186.101562 66.691406 153.726562 C 65.015625 150.992188 63.117188 148.382812 61.070312 145.890625 L 20.367188 96.6875 C 10.414062 84.617188 7.976562 68.007812 14.085938 53.597656 C 15.390625 50.539062 18.890625 49.113281 21.945312 50.394531 C 22.929688 50.8125 23.769531 51.476562 24.410156 52.316406 C 25.960938 54.382812 27.589844 56.378906 29.289062 58.300781 C 34.90625 64.683594 44.636719 65.300781 51.019531 59.679688 C 53.410156 57.5625 55.085938 54.753906 55.824219 51.648438 C 55.949219 51.105469 56.09375 50.566406 56.269531 50.023438 C 62.550781 33.144531 53.925781 14.347656 37.050781 8.0625 C 33.675781 6.808594 30.125 6.117188 26.527344 6.019531 Z M 24.902344 0.769531 C 45.746094 0.300781 62.992188 16.835938 63.4375 37.679688 C 63.5625 42.433594 62.746094 47.164062 61.097656 51.625 C 59.644531 56.699219 59.816406 62.121094 61.589844 67.074219 C 63.019531 72.914062 66.445312 78.0625 71.320312 81.585938 C 73.515625 83.1875 74.007812 86.265625 72.40625 88.460938 C 71.101562 90.257812 68.757812 90.949219 66.691406 90.183594 C 48.234375 83.234375 32.144531 71.164062 20.320312 55.371094 C 20.023438 54.976562 19.457031 54.902344 19.0625 55.222656 C 18.941406 55.296875 18.839844 55.417969 18.792969 55.566406 C 13.421875 68.230469 15.566406 82.84375 24.335938 93.4375 L 65.015625 142.640625 C 91.03125 174.105469 86.597656 220.671875 55.160156 246.691406 C 52.496094 248.90625 49.6875 250.902344 46.734375 252.703125 C -0.96875 282.019531 -59.929688 286.40625 -111.449219 264.453125 C -150.351562 245.089844 -175.335938 205.765625 -176.347656 162.328125 C -176.421875 159 -173.785156 156.265625 -170.484375 156.191406 C -169.152344 156.167969 -167.847656 156.585938 -166.785156 157.375 C -160.058594 162.402344 -152.300781 165.875 -144.046875 167.550781 C -145.472656 159.863281 -145.894531 152.050781 -145.277344 144.265625 C -145.03125 140.964844 -142.125 138.5 -138.820312 138.746094 C -138.476562 138.773438 -138.132812 138.847656 -137.785156 138.917969 C -117.902344 144.117188 -96.863281 142.714844 -77.839844 134.953125 C -50.195312 121.351562 -16.785156 132.734375 -3.1875 160.355469 C 0.683594 168.191406 2.628906 176.839844 2.554688 185.5625 C 14.777344 169.054688 16.253906 146.953125 6.375 128.964844 C -13.386719 99.695312 -19.644531 63.378906 -10.847656 29.179688 C -6.660156 12.746094 7.976562 1.117188 24.925781 0.746094 L 24.902344 0.769531 " fill-opacity="1" fill-rule="nonzero"></path></g></g></g></g><g clip-path="url(#2e25d59612)"><g clip-path="url(#28ccb4b779)"><g clip-path="url(#476a541a16)"><g transform="matrix(1, 0, 0, 1, 155, 22)"><g clip-path="url(#48db449b4f)"><g clip-path="url(#e80e164f93)"><g clip-path="url(#2c0abf90fc)"><g clip-path="url(#c7fa25b947)"><path fill="#000000" d="M 75.140625 -2.945312 L 120.902344 269.808594 L 37.480469 283.804688 L -8.28125 11.050781 Z M 75.140625 -2.945312 " fill-opacity="1" fill-rule="nonzero"></path></g></g></g></g></g></g></g></g><g clip-path="url(#0398ac43d5)"><g clip-path="url(#a408430709)"><g clip-path="url(#4524c75314)"><g transform="matrix(1, 0, 0, 1, 38, 180)"><g clip-path="url(#ddea7e3867)"><g clip-path="url(#cc98696b68)"><g clip-path="url(#f432afbe88)"><g clip-path="url(#9ff568ff48)"><path fill="#f25c2b" d="M -11.011719 45.339844 L 11.027344 -28.9375 L 158.707031 14.882812 L 136.671875 89.15625 Z M -11.011719 45.339844 " fill-opacity="1" fill-rule="nonzero"></path></g></g></g></g></g></g></g></g><g clip-path="url(#d39b4f11fb)"><g clip-path="url(#6e78941221)"><g clip-path="url(#d5eea280bd)"><g transform="matrix(1, 0, 0, 1, 13, 198)"><g clip-path="url(#fdb4527997)"><g clip-path="url(#e0d6cf898b)"><g clip-path="url(#48acf3c514)"><g clip-path="url(#4967f942a3)"><path fill="#f25c2b" d="M -13 94.910156 L 14.734375 -29.960938 L 218.628906 15.324219 L 190.894531 140.195312 Z M -13 94.910156 " fill-opacity="1" fill-rule="nonzero"></path></g></g></g></g></g></g></g></g><g clip-path="url(#b6d0c93331)"><path fill="#000000" d="M 162.5 170.585938 C 219.015625 170.585938 264.902344 216.46875 264.902344 272.984375 C 264.902344 329.5 219.015625 375.386719 162.5 375.386719 C 105.984375 375.386719 60.101562 329.5 60.101562 272.984375 C 60.101562 216.46875 105.984375 170.585938 162.5 170.585938 Z M 162.5 221.785156 C 190.757812 221.785156 213.699219 244.726562 213.699219 272.984375 C 213.699219 301.242188 190.757812 324.183594 162.5 324.183594 C 134.242188 324.183594 111.300781 301.242188 111.300781 272.984375 C 111.300781 244.726562 134.242188 221.785156 162.5 221.785156 Z M 162.5 221.785156 " fill-opacity="1" fill-rule="evenodd"></path></g><g clip-path="url(#0ca24902da)"><g clip-path="url(#b5406909c0)"><g transform="matrix(1, 0, 0, 1, 160, -0.000000000000053277)"><g clip-path="url(#d0b8632d00)"><g clip-path="url(#31d0b52e17)"><g clip-path="url(#3aa2f0e4f7)"><path fill="#000000" d="M 0.871094 0.0898438 L 82.921875 0.0898438 L 82.921875 82.140625 L 0.871094 82.140625 Z M 0.871094 0.0898438 " fill-opacity="1" fill-rule="nonzero"></path></g></g></g></g></g></g><g clip-path="url(#e162a8a970)"><g clip-path="url(#f6905606ae)"><g clip-path="url(#d06d50e001)"><g transform="matrix(1, 0, 0, 1, 56, 375)"><g clip-path="url(#a58144aa1c)"><g clip-path="url(#27c9318600)"><g clip-path="url(#d12d6402c6)"><g clip-path="url(#c051899975)"><path fill="#f25c2b" d="M 209.695312 101.785156 L -0.0429688 101.5 L 0.0976562 0.382812 L 209.832031 0.667969 Z M 209.695312 101.785156 " fill-opacity="1" fill-rule="nonzero"></path></g></g></g></g></g></g></g></g></svg>