<svg xmlns="http://www.w3.org/2000/svg" xmlns:xlink="http://www.w3.org/1999/xlink" width="126" zoomAndPan="magnify" viewBox="0 0 94.5 94.499998" height="126" preserveAspectRatio="xMidYMid meet" version="1.0"><defs><clipPath id="947ff5c92c"><path d="M 0 0 L 93.257812 0 L 93.257812 93.257812 L 0 93.257812 Z M 0 0 " clip-rule="nonzero"></path></clipPath></defs><g clip-path="url(#947ff5c92c)"><path fill="#000000" d="M 46.792969 0 C 72.617188 0 93.582031 20.96875 93.582031 46.792969 C 93.582031 72.617188 72.617188 93.585938 46.792969 93.585938 C 20.964844 93.585938 0 72.617188 0 46.792969 C 0 20.96875 20.964844 0 46.792969 0 Z M 46.792969 23.398438 C 59.703125 23.398438 70.1875 33.878906 70.1875 46.792969 C 70.1875 59.707031 59.703125 70.1875 46.792969 70.1875 C 33.878906 70.1875 23.394531 59.707031 23.394531 46.792969 C 23.394531 33.878906 33.878906 23.398438 46.792969 23.398438 Z M 46.792969 23.398438 " fill-opacity="1" fill-rule="evenodd"></path></g></svg>