<svg xmlns="http://www.w3.org/2000/svg" xmlns:xlink="http://www.w3.org/1999/xlink" width="43" zoomAndPan="magnify" viewBox="0 0 32.25 58.499999" height="78" preserveAspectRatio="xMidYMid meet" version="1.0"><defs><clipPath id="e680e90d9a"><path d="M 0 0.425781 L 31.15625 0.425781 L 31.15625 14.144531 L 0 14.144531 Z M 0 0.425781 " clip-rule="nonzero"></path></clipPath><clipPath id="1324daf5bf"><path d="M 0 0.425781 L 31.15625 0.425781 L 31.15625 14.144531 L 0 14.144531 Z M 0 0.425781 " clip-rule="nonzero"></path></clipPath><clipPath id="cdee760f45"><rect x="0" width="32" y="0" height="15"></rect></clipPath><clipPath id="4ba3d1b971"><path d="M 0 43.273438 L 31.15625 43.273438 L 31.15625 56.988281 L 0 56.988281 Z M 0 43.273438 " clip-rule="nonzero"></path></clipPath><clipPath id="3a27f92df4"><path d="M 0 0.273438 L 31.15625 0.273438 L 31.15625 13.988281 L 0 13.988281 Z M 0 0.273438 " clip-rule="nonzero"></path></clipPath><clipPath id="360f3b728a"><rect x="0" width="32" y="0" height="14"></rect></clipPath><clipPath id="ae56d41ea9"><path d="M 5.296875 13.453125 L 25.851562 13.453125 L 25.851562 44.664062 L 5.296875 44.664062 Z M 5.296875 13.453125 " clip-rule="nonzero"></path></clipPath><clipPath id="c871f92361"><path d="M 0.296875 0.453125 L 20.851562 0.453125 L 20.851562 31.664062 L 0.296875 31.664062 Z M 0.296875 0.453125 " clip-rule="nonzero"></path></clipPath><clipPath id="352c354bf3"><rect x="0" width="21" y="0" height="32"></rect></clipPath></defs><g clip-path="url(#e680e90d9a)"><g transform="matrix(1, 0, 0, 1, 0, -0.000000000000003053)"><g clip-path="url(#cdee760f45)"><g clip-path="url(#1324daf5bf)"><path fill="#f25c2b" d="M 31.15625 0.425781 L 31.15625 14.144531 L -0.0273438 14.144531 L -0.0273438 0.425781 Z M 31.15625 0.425781 " fill-opacity="1" fill-rule="nonzero"></path></g></g></g></g><g clip-path="url(#4ba3d1b971)"><g transform="matrix(1, 0, 0, 1, 0, 43)"><g clip-path="url(#360f3b728a)"><g clip-path="url(#3a27f92df4)"><path fill="#f25c2b" d="M 31.15625 0.273438 L 31.15625 13.988281 L -0.0273438 13.988281 L -0.0273438 0.273438 Z M 31.15625 0.273438 " fill-opacity="1" fill-rule="nonzero"></path></g></g></g></g><g clip-path="url(#ae56d41ea9)"><g transform="matrix(1, 0, 0, 1, 5, 13)"><g clip-path="url(#352c354bf3)"><g clip-path="url(#c871f92361)"><path fill="#f25c2b" d="M 20.851562 31.664062 L 0.296875 31.664062 L 0.296875 0.429688 L 20.851562 0.429688 Z M 20.851562 31.664062 " fill-opacity="1" fill-rule="nonzero"></path></g></g></g></g></svg>