<svg xmlns="http://www.w3.org/2000/svg" xmlns:xlink="http://www.w3.org/1999/xlink" width="1727" zoomAndPan="magnify" viewBox="0 0 1295.25 1300.5" height="1734" preserveAspectRatio="xMidYMid meet" version="1.0"><defs><clipPath id="3fe1e370e1"><path d="M 18 0.125 L 1294.5 0.125 L 1294.5 1271 L 18 1271 Z M 18 0.125 " clip-rule="nonzero"/></clipPath><clipPath id="be5569d163"><path d="M 850.539062 1114.015625 C 828.203125 1214.320312 734.902344 1280.023438 628.027344 1269.949219 C 532.539062 1261.191406 452.816406 1176.652344 449.75 1078.972656 C 448.4375 1025.535156 436.609375 976.039062 403.757812 933.113281 C 359.082031 874.417969 299.070312 844.632812 225.046875 842.878906 C 126.054688 840.25 50.277344 781.117188 25.746094 686.066406 C 21.804688 670.738281 20.929688 654.53125 18.738281 638.761719 C 20.050781 528.378906 108.53125 437.273438 217.160156 435.519531 C 325.792969 433.769531 423.90625 520.933594 427.414062 634.382812 C 430.917969 747.828125 485.230469 819.664062 582.472656 852.515625 C 606.125 860.402344 632.40625 862.589844 657.375 863.90625 C 787.902344 870.039062 878.574219 986.988281 850.539062 1114.015625 Z M 663.503906 407.488281 C 737.53125 409.238281 797.539062 439.023438 842.65625 497.71875 C 875.070312 540.644531 886.898438 590.140625 888.648438 643.582031 C 891.714844 741.257812 971.433594 825.796875 1066.484375 834.558594 C 1173.363281 844.632812 1266.660156 778.929688 1289 678.621094 C 1317.472656 551.59375 1226.363281 434.644531 1096.269531 428.511719 C 1070.867188 427.199219 1044.585938 425.007812 1020.929688 417.121094 C 923.691406 384.269531 869.8125 312.4375 866.308594 198.988281 C 862.804688 85.539062 770.820312 -1.625 655.621094 0.125 C 547.429688 1.878906 458.949219 93.425781 457.199219 203.367188 C 459.824219 219.136719 460.265625 235.34375 464.207031 250.675781 C 488.734375 345.726562 564.511719 404.859375 663.503906 407.488281 Z M 1096.269531 863.90625 C 1070.867188 862.589844 1044.585938 860.402344 1020.929688 852.515625 C 923.691406 819.664062 869.8125 747.828125 866.308594 634.382812 C 864.121094 562.109375 826.011719 500.347656 768.632812 465.742188 C 737.53125 444.28125 699.421875 430.703125 657.375 428.511719 C 632.40625 427.199219 606.125 425.007812 582.472656 417.121094 C 485.230469 384.269531 430.917969 312.4375 427.414062 198.988281 C 423.90625 85.539062 325.792969 -1.625 217.160156 0.125 C 108.53125 1.878906 20.050781 93.425781 18.738281 203.367188 C 20.929688 219.136719 21.804688 235.34375 25.746094 250.675781 C 50.277344 345.726562 126.054688 404.859375 225.046875 407.488281 C 299.070312 409.238281 359.082031 439.023438 403.757812 497.71875 C 436.609375 540.644531 448.4375 590.140625 449.75 643.582031 C 451.941406 711.910156 491.800781 774.109375 548.304688 807.839844 C 580.71875 829.300781 619.703125 841.566406 663.503906 842.878906 C 737.53125 844.632812 797.539062 874.417969 842.65625 933.113281 C 875.070312 976.039062 886.898438 1025.535156 888.648438 1078.972656 C 891.714844 1176.652344 971.433594 1261.191406 1066.484375 1269.949219 C 1173.363281 1280.023438 1266.660156 1214.320312 1289 1114.015625 C 1317.472656 986.988281 1226.363281 870.039062 1096.269531 863.90625 Z M 1087.511719 407.488281 C 1087.949219 407.488281 1087.949219 407.488281 1088.386719 407.488281 C 1200.957031 406.171875 1291.191406 313.3125 1289.875 200.742188 C 1289 89.921875 1196.578125 -0.3125 1084.445312 0.125 C 973.1875 1.003906 881.640625 91.234375 882.078125 203.804688 C 882.515625 316.378906 975.816406 408.800781 1087.511719 407.488281 Z M 221.105469 863.90625 C 109.847656 864.34375 18.300781 954.136719 18.738281 1067.148438 C 19.175781 1180.15625 112.035156 1272.140625 224.171875 1271.265625 C 337.179688 1269.949219 427.851562 1177.527344 426.535156 1064.519531 C 425.660156 953.261719 333.238281 863.027344 221.105469 863.90625 Z M 221.105469 863.90625 " clip-rule="nonzero"/></clipPath><clipPath id="f278fd041c"><path d="M 0.710938 0.125 L 1276 0.125 L 1276 1270.910156 L 0.710938 1270.910156 Z M 0.710938 0.125 " clip-rule="nonzero"/></clipPath><clipPath id="9342d8443d"><path d="M 832.539062 1114.015625 C 810.203125 1214.320312 716.902344 1280.023438 610.027344 1269.949219 C 514.539062 1261.191406 434.816406 1176.652344 431.75 1078.972656 C 430.4375 1025.535156 418.609375 976.039062 385.757812 933.113281 C 341.082031 874.417969 281.070312 844.632812 207.046875 842.878906 C 108.054688 840.25 32.277344 781.117188 7.746094 686.066406 C 3.804688 670.738281 2.929688 654.53125 0.738281 638.761719 C 2.050781 528.378906 90.53125 437.273438 199.160156 435.519531 C 307.792969 433.769531 405.90625 520.933594 409.414062 634.382812 C 412.917969 747.828125 467.230469 819.664062 564.472656 852.515625 C 588.125 860.402344 614.40625 862.589844 639.375 863.90625 C 769.902344 870.039062 860.574219 986.988281 832.539062 1114.015625 Z M 645.503906 407.488281 C 719.53125 409.238281 779.539062 439.023438 824.65625 497.71875 C 857.070312 540.644531 868.898438 590.140625 870.648438 643.582031 C 873.714844 741.257812 953.433594 825.796875 1048.484375 834.558594 C 1155.363281 844.632812 1248.660156 778.929688 1271 678.621094 C 1299.472656 551.59375 1208.363281 434.644531 1078.269531 428.511719 C 1052.867188 427.199219 1026.585938 425.007812 1002.929688 417.121094 C 905.691406 384.269531 851.8125 312.4375 848.308594 198.988281 C 844.804688 85.539062 752.820312 -1.625 637.621094 0.125 C 529.429688 1.878906 440.949219 93.425781 439.199219 203.367188 C 441.824219 219.136719 442.265625 235.34375 446.207031 250.675781 C 470.734375 345.726562 546.511719 404.859375 645.503906 407.488281 Z M 1078.269531 863.90625 C 1052.867188 862.589844 1026.585938 860.402344 1002.929688 852.515625 C 905.691406 819.664062 851.8125 747.828125 848.308594 634.382812 C 846.121094 562.109375 808.011719 500.347656 750.632812 465.742188 C 719.53125 444.28125 681.421875 430.703125 639.375 428.511719 C 614.40625 427.199219 588.125 425.007812 564.472656 417.121094 C 467.230469 384.269531 412.917969 312.4375 409.414062 198.988281 C 405.90625 85.539062 307.792969 -1.625 199.160156 0.125 C 90.53125 1.878906 2.050781 93.425781 0.738281 203.367188 C 2.929688 219.136719 3.804688 235.34375 7.746094 250.675781 C 32.277344 345.726562 108.054688 404.859375 207.046875 407.488281 C 281.070312 409.238281 341.082031 439.023438 385.757812 497.71875 C 418.609375 540.644531 430.4375 590.140625 431.75 643.582031 C 433.941406 711.910156 473.800781 774.109375 530.304688 807.839844 C 562.71875 829.300781 601.703125 841.566406 645.503906 842.878906 C 719.53125 844.632812 779.539062 874.417969 824.65625 933.113281 C 857.070312 976.039062 868.898438 1025.535156 870.648438 1078.972656 C 873.714844 1176.652344 953.433594 1261.191406 1048.484375 1269.949219 C 1155.363281 1280.023438 1248.660156 1214.320312 1271 1114.015625 C 1299.472656 986.988281 1208.363281 870.039062 1078.269531 863.90625 Z M 1069.511719 407.488281 C 1069.949219 407.488281 1069.949219 407.488281 1070.386719 407.488281 C 1182.957031 406.171875 1273.191406 313.3125 1271.875 200.742188 C 1271 89.921875 1178.578125 -0.3125 1066.445312 0.125 C 955.1875 1.003906 863.640625 91.234375 864.078125 203.804688 C 864.515625 316.378906 957.816406 408.800781 1069.511719 407.488281 Z M 203.105469 863.90625 C 91.847656 864.34375 0.300781 954.136719 0.738281 1067.148438 C 1.175781 1180.15625 94.035156 1272.140625 206.171875 1271.265625 C 319.179688 1269.949219 409.851562 1177.527344 408.535156 1064.519531 C 407.660156 953.261719 315.238281 863.027344 203.105469 863.90625 Z M 203.105469 863.90625 " clip-rule="nonzero"/></clipPath><clipPath id="c1c5bfd9d1"><rect x="0" width="1277" y="0" height="1271"/></clipPath></defs><g clip-path="url(#3fe1e370e1)"><g clip-path="url(#be5569d163)"><g transform="matrix(1, 0, 0, 1, 18, -0.000000000000267619)"><g clip-path="url(#c1c5bfd9d1)"><g clip-path="url(#f278fd041c)"><g clip-path="url(#9342d8443d)"><path fill="#202b3d" d="M 0.738281 0.125 L 1275.804688 0.125 L 1275.804688 1270.828125 L 0.738281 1270.828125 Z M 0.738281 0.125 " fill-opacity="1" fill-rule="nonzero"/></g></g></g></g></g></g><path fill="#ff6f61" d="M 223.007812 928.207031 C 229.640625 928.210938 235.257812 928.496094 239.855469 929.054688 C 267.820312 932.472656 292.445312 942.398438 313.730469 958.832031 C 329.511719 971.015625 342.242188 985.730469 351.917969 1002.972656 C 361.890625 1020.746094 368.003906 1039.234375 370.257812 1058.445312 C 372.792969 1080.082031 370.886719 1100.84375 364.53125 1120.730469 C 345.105469 1181.5625 287.128906 1225.125 222.800781 1225.078125 C 158.464844 1225.023438 100.558594 1181.390625 81.210938 1120.535156 C 74.886719 1100.632812 73.011719 1079.871094 75.578125 1058.242188 C 77.859375 1039.03125 84 1020.546875 93.996094 1002.792969 C 103.699219 985.5625 116.445312 970.867188 132.246094 958.707031 C 153.554688 942.300781 178.191406 932.410156 206.15625 929.027344 C 210.757812 928.472656 216.375 928.199219 223.007812 928.207031 Z M 222.648438 1161.6875 C 222.699219 1161.796875 222.722656 1162.007812 222.730469 1162.332031 C 222.820312 1169.710938 222.757812 1178.15625 222.542969 1187.660156 C 222.464844 1191.019531 223.667969 1193.28125 226.152344 1194.445312 C 228.796875 1195.679688 231.171875 1195.546875 233.269531 1194.042969 C 268.164062 1169.121094 288.074219 1154.960938 293.003906 1151.558594 C 303.03125 1144.648438 309.921875 1139.234375 313.679688 1135.324219 C 328.699219 1119.6875 337.917969 1100.234375 339.132812 1078.800781 C 340.78125 1049.558594 327.695312 1022.265625 304.601562 1004.292969 C 293.464844 995.621094 280.9375 989.988281 267.023438 987.398438 C 261.417969 986.351562 251.808594 985.871094 238.199219 985.960938 C 223.25 986.058594 210.988281 986.0625 201.414062 985.980469 C 188.929688 985.871094 177.75 986.765625 167.175781 990.457031 C 148.113281 997.101562 133.066406 1008.457031 122.027344 1024.523438 C 111.863281 1039.3125 106.550781 1056.046875 106.496094 1073.796875 C 106.460938 1086.785156 109.414062 1099.414062 115.359375 1111.691406 C 129.738281 1141.378906 160.382812 1161.117188 193.691406 1161.234375 C 203.8125 1161.269531 213.183594 1161.238281 221.804688 1161.136719 C 221.984375 1161.132812 222.15625 1161.179688 222.308594 1161.28125 C 222.464844 1161.382812 222.578125 1161.519531 222.648438 1161.6875 Z M 222.648438 1161.6875 " fill-opacity="1" fill-rule="nonzero"/><path fill="#ff6f61" d="M 222.890625 1095.257812 C 227.800781 1095.265625 231.804688 1094.894531 234.910156 1094.152344 C 248.898438 1090.8125 260.253906 1083.640625 268.964844 1072.640625 C 271.070312 1069.984375 272.65625 1068.445312 273.726562 1068.03125 C 276.8125 1066.851562 279.425781 1066.496094 282.4375 1067.96875 C 288.207031 1070.785156 289.800781 1078.105469 285.59375 1083.402344 C 270.070312 1102.960938 247.941406 1114.757812 222.890625 1114.738281 C 197.828125 1114.730469 175.710938 1102.925781 160.203125 1083.347656 C 156.003906 1078.050781 157.601562 1070.730469 163.371094 1067.914062 C 166.390625 1066.453125 169.003906 1066.808594 172.082031 1067.984375 C 173.148438 1068.402344 174.738281 1069.941406 176.839844 1072.605469 C 185.542969 1083.613281 196.890625 1090.792969 210.882812 1094.144531 C 213.984375 1094.886719 217.988281 1095.257812 222.890625 1095.257812 Z M 222.890625 1095.257812 " fill-opacity="1" fill-rule="nonzero"/></svg>