<svg xmlns="http://www.w3.org/2000/svg" xmlns:xlink="http://www.w3.org/1999/xlink" width="666" zoomAndPan="magnify" viewBox="0 0 499.5 499.499998" height="666" preserveAspectRatio="xMidYMid meet" version="1.0"><defs><clipPath id="ea3e45362c"><path d="M 26 26 L 473 26 L 473 473 L 26 473 Z M 26 26 " clip-rule="nonzero"/></clipPath><clipPath id="3cee79a65b"><path d="M 317.457031 417.089844 C 309.632812 452.21875 276.957031 475.226562 239.527344 471.699219 C 206.089844 468.632812 178.167969 439.027344 177.09375 404.816406 C 176.636719 386.101562 172.492188 368.769531 160.988281 353.734375 C 145.339844 333.179688 124.324219 322.75 98.402344 322.136719 C 63.734375 321.214844 37.195312 300.503906 28.605469 267.21875 C 27.222656 261.847656 26.917969 256.171875 26.148438 250.652344 C 26.609375 211.992188 57.597656 180.085938 95.640625 179.472656 C 133.683594 178.859375 168.042969 209.386719 169.273438 249.117188 C 170.5 288.847656 189.519531 314.003906 223.574219 325.511719 C 231.859375 328.269531 241.0625 329.039062 249.808594 329.5 C 295.519531 331.644531 327.273438 372.605469 317.457031 417.089844 Z M 251.953125 169.65625 C 277.878906 170.269531 298.894531 180.699219 314.695312 201.257812 C 326.046875 216.289062 330.1875 233.625 330.800781 252.339844 C 331.875 286.546875 359.792969 316.152344 393.082031 319.21875 C 430.511719 322.75 463.1875 299.738281 471.007812 264.609375 C 480.980469 220.125 449.074219 179.167969 403.515625 177.019531 C 394.617188 176.558594 385.414062 175.792969 377.128906 173.03125 C 343.074219 161.523438 324.207031 136.367188 322.980469 96.636719 C 321.75 56.90625 289.539062 26.378906 249.195312 26.992188 C 211.304688 27.605469 180.316406 59.667969 179.703125 98.171875 C 180.625 103.695312 180.777344 109.371094 182.15625 114.738281 C 190.75 148.027344 217.285156 168.734375 251.953125 169.65625 Z M 403.515625 329.5 C 394.617188 329.039062 385.414062 328.269531 377.128906 325.511719 C 343.074219 314.003906 324.207031 288.847656 322.980469 249.117188 C 322.210938 223.804688 308.867188 202.175781 288.769531 190.058594 C 277.878906 182.542969 264.535156 177.785156 249.808594 177.019531 C 241.0625 176.558594 231.859375 175.792969 223.574219 173.03125 C 189.519531 161.523438 170.5 136.367188 169.273438 96.636719 C 168.042969 56.90625 133.683594 26.378906 95.640625 26.992188 C 57.597656 27.605469 26.609375 59.667969 26.148438 98.171875 C 26.917969 103.695312 27.222656 109.371094 28.605469 114.738281 C 37.195312 148.027344 63.734375 168.734375 98.402344 169.65625 C 124.324219 170.269531 145.339844 180.699219 160.988281 201.257812 C 172.492188 216.289062 176.636719 233.625 177.09375 252.339844 C 177.863281 276.269531 191.820312 298.050781 211.609375 309.863281 C 222.960938 317.378906 236.613281 321.675781 251.953125 322.136719 C 277.878906 322.75 298.894531 333.179688 314.695312 353.734375 C 326.046875 368.769531 330.1875 386.101562 330.800781 404.816406 C 331.875 439.027344 359.792969 468.632812 393.082031 471.699219 C 430.511719 475.226562 463.1875 452.21875 471.007812 417.089844 C 480.980469 372.605469 449.074219 331.644531 403.515625 329.5 Z M 400.445312 169.65625 C 400.597656 169.65625 400.597656 169.65625 400.753906 169.65625 C 440.175781 169.195312 471.777344 136.675781 471.316406 97.25 C 471.007812 58.441406 438.640625 26.839844 399.371094 26.992188 C 360.410156 27.300781 328.347656 58.902344 328.5 98.324219 C 328.65625 137.75 361.328125 170.117188 400.445312 169.65625 Z M 97.019531 329.5 C 58.058594 329.652344 25.996094 361.097656 26.148438 400.675781 C 26.304688 440.253906 58.824219 472.46875 98.09375 472.160156 C 137.671875 471.699219 169.425781 439.332031 168.964844 399.753906 C 168.660156 360.792969 136.292969 329.191406 97.019531 329.5 Z M 97.019531 329.5 " clip-rule="nonzero"/></clipPath><clipPath id="0c01f89e62"><path d="M 0.132812 0.851562 L 447 0.851562 L 447 446.085938 L 0.132812 446.085938 Z M 0.132812 0.851562 " clip-rule="nonzero"/></clipPath><clipPath id="0c5ede8fda"><path d="M 291.457031 391.089844 C 283.632812 426.21875 250.957031 449.226562 213.527344 445.699219 C 180.089844 442.632812 152.167969 413.027344 151.09375 378.816406 C 150.636719 360.101562 146.492188 342.769531 134.988281 327.734375 C 119.339844 307.179688 98.324219 296.75 72.402344 296.136719 C 37.734375 295.214844 11.195312 274.503906 2.605469 241.21875 C 1.222656 235.847656 0.917969 230.171875 0.148438 224.652344 C 0.609375 185.992188 31.597656 154.085938 69.640625 153.472656 C 107.683594 152.859375 142.042969 183.386719 143.273438 223.117188 C 144.5 262.847656 163.519531 288.003906 197.574219 299.511719 C 205.859375 302.269531 215.0625 303.039062 223.808594 303.5 C 269.519531 305.644531 301.273438 346.605469 291.457031 391.089844 Z M 225.953125 143.65625 C 251.878906 144.269531 272.894531 154.699219 288.695312 175.257812 C 300.046875 190.289062 304.1875 207.625 304.800781 226.339844 C 305.875 260.546875 333.792969 290.152344 367.082031 293.21875 C 404.511719 296.75 437.1875 273.738281 445.007812 238.609375 C 454.980469 194.125 423.074219 153.167969 377.515625 151.019531 C 368.617188 150.558594 359.414062 149.792969 351.128906 147.03125 C 317.074219 135.523438 298.207031 110.367188 296.980469 70.636719 C 295.75 30.90625 263.539062 0.378906 223.195312 0.992188 C 185.304688 1.605469 154.316406 33.667969 153.703125 72.171875 C 154.625 77.695312 154.777344 83.371094 156.15625 88.738281 C 164.75 122.027344 191.285156 142.734375 225.953125 143.65625 Z M 377.515625 303.5 C 368.617188 303.039062 359.414062 302.269531 351.128906 299.511719 C 317.074219 288.003906 298.207031 262.847656 296.980469 223.117188 C 296.210938 197.804688 282.867188 176.175781 262.769531 164.058594 C 251.878906 156.542969 238.535156 151.785156 223.808594 151.019531 C 215.0625 150.558594 205.859375 149.792969 197.574219 147.03125 C 163.519531 135.523438 144.5 110.367188 143.273438 70.636719 C 142.042969 30.90625 107.683594 0.378906 69.640625 0.992188 C 31.597656 1.605469 0.609375 33.667969 0.148438 72.171875 C 0.917969 77.695312 1.222656 83.371094 2.605469 88.738281 C 11.195312 122.027344 37.734375 142.734375 72.402344 143.65625 C 98.324219 144.269531 119.339844 154.699219 134.988281 175.257812 C 146.492188 190.289062 150.636719 207.625 151.09375 226.339844 C 151.863281 250.269531 165.820312 272.050781 185.609375 283.863281 C 196.960938 291.378906 210.613281 295.675781 225.953125 296.136719 C 251.878906 296.75 272.894531 307.179688 288.695312 327.734375 C 300.046875 342.769531 304.1875 360.101562 304.800781 378.816406 C 305.875 413.027344 333.792969 442.632812 367.082031 445.699219 C 404.511719 449.226562 437.1875 426.21875 445.007812 391.089844 C 454.980469 346.605469 423.074219 305.644531 377.515625 303.5 Z M 374.445312 143.65625 C 374.597656 143.65625 374.597656 143.65625 374.753906 143.65625 C 414.175781 143.195312 445.777344 110.675781 445.316406 71.25 C 445.007812 32.441406 412.640625 0.839844 373.371094 0.992188 C 334.410156 1.300781 302.347656 32.902344 302.5 72.324219 C 302.65625 111.75 335.328125 144.117188 374.445312 143.65625 Z M 71.019531 303.5 C 32.058594 303.652344 -0.00390625 335.097656 0.148438 374.675781 C 0.304688 414.253906 32.824219 446.46875 72.09375 446.160156 C 111.671875 445.699219 143.425781 413.332031 142.964844 373.753906 C 142.660156 334.792969 110.292969 303.191406 71.019531 303.5 Z M 71.019531 303.5 " clip-rule="nonzero"/></clipPath><clipPath id="8c22685156"><rect x="0" width="447" y="0" height="447"/></clipPath></defs><g clip-path="url(#ea3e45362c)"><g clip-path="url(#3cee79a65b)"><g transform="matrix(1, 0, 0, 1, 26, 26)"><g clip-path="url(#8c22685156)"><g clip-path="url(#0c01f89e62)"><g clip-path="url(#0c5ede8fda)"><path fill="#ff6f61" d="M 0.148438 0.992188 L 446.691406 0.992188 L 446.691406 446.007812 L 0.148438 446.007812 Z M 0.148438 0.992188 " fill-opacity="1" fill-rule="nonzero"/></g></g></g></g></g></g><path fill="#202b3d" d="M 96.914062 352.238281 C 99.144531 352.238281 101.035156 352.332031 102.585938 352.523438 C 111.992188 353.671875 120.277344 357.011719 127.441406 362.542969 C 132.75 366.640625 137.03125 371.589844 140.289062 377.394531 C 143.644531 383.371094 145.703125 389.59375 146.460938 396.058594 C 147.3125 403.335938 146.671875 410.324219 144.535156 417.015625 C 137.996094 437.484375 118.488281 452.140625 96.84375 452.125 C 75.199219 452.105469 55.714844 437.425781 49.207031 416.949219 C 47.078125 410.253906 46.445312 403.265625 47.308594 395.988281 C 48.078125 389.527344 50.144531 383.308594 53.507812 377.332031 C 56.769531 371.535156 61.0625 366.589844 66.375 362.5 C 73.546875 356.980469 81.835938 353.652344 91.246094 352.511719 C 92.792969 352.328125 94.683594 352.234375 96.914062 352.238281 Z M 96.792969 430.796875 C 96.808594 430.832031 96.820312 430.902344 96.820312 431.011719 C 96.851562 433.496094 96.832031 436.335938 96.757812 439.535156 C 96.734375 440.664062 97.136719 441.425781 97.972656 441.816406 C 98.863281 442.234375 99.660156 442.1875 100.367188 441.683594 C 112.109375 433.296875 118.808594 428.53125 120.464844 427.386719 C 123.839844 425.0625 126.160156 423.242188 127.421875 421.925781 C 132.476562 416.664062 135.578125 410.117188 135.988281 402.90625 C 136.542969 393.066406 132.136719 383.886719 124.367188 377.835938 C 120.621094 374.917969 116.40625 373.023438 111.722656 372.152344 C 109.839844 371.800781 106.605469 371.640625 102.027344 371.667969 C 96.996094 371.703125 92.871094 371.703125 89.648438 371.675781 C 85.449219 371.640625 81.6875 371.941406 78.128906 373.179688 C 71.714844 375.417969 66.652344 379.238281 62.9375 384.644531 C 59.519531 389.621094 57.730469 395.25 57.714844 401.222656 C 57.699219 405.59375 58.695312 409.84375 60.695312 413.972656 C 65.535156 423.960938 75.84375 430.605469 87.050781 430.644531 C 90.457031 430.65625 93.609375 430.644531 96.507812 430.609375 C 96.644531 430.609375 96.742188 430.667969 96.792969 430.796875 Z M 96.792969 430.796875 " fill-opacity="1" fill-rule="nonzero"/><path fill="#202b3d" d="M 96.875 408.445312 C 98.527344 408.445312 99.875 408.324219 100.917969 408.074219 C 105.625 406.949219 109.445312 404.535156 112.378906 400.832031 C 113.085938 399.941406 113.621094 399.421875 113.980469 399.28125 C 115.019531 398.886719 115.898438 398.765625 116.910156 399.261719 C 118.851562 400.210938 119.390625 402.671875 117.972656 404.453125 C 112.75 411.035156 105.304688 415.003906 96.875 415 C 88.441406 414.996094 81 411.023438 75.785156 404.4375 C 74.371094 402.65625 74.90625 400.191406 76.847656 399.242188 C 77.867188 398.753906 78.746094 398.871094 79.78125 399.269531 C 80.140625 399.40625 80.671875 399.925781 81.382812 400.820312 C 84.308594 404.527344 88.128906 406.941406 92.835938 408.070312 C 93.878906 408.320312 95.226562 408.445312 96.875 408.445312 Z M 96.875 408.445312 " fill-opacity="1" fill-rule="nonzero"/></svg>