<svg xmlns="http://www.w3.org/2000/svg" xmlns:xlink="http://www.w3.org/1999/xlink" width="666" zoomAndPan="magnify" viewBox="0 0 499.5 499.499998" height="666" preserveAspectRatio="xMidYMid meet" version="1.0"><defs><clipPath id="25f1b718cf"><path d="M 251 47.113281 L 445 47.113281 L 445 146 L 251 146 Z M 251 47.113281 " clip-rule="nonzero"/></clipPath><clipPath id="2a464d5ed7"><path d="M 251 147.644531 L 445 147.644531 L 445 247 L 251 247 Z M 251 147.644531 " clip-rule="nonzero"/></clipPath><clipPath id="726a830453"><path d="M 251 248.171875 L 445 248.171875 L 445 347 L 251 347 Z M 251 248.171875 " clip-rule="nonzero"/></clipPath><clipPath id="8d491592b9"><path d="M 251 348.699219 L 445 348.699219 L 445 448 L 251 448 Z M 251 348.699219 " clip-rule="nonzero"/></clipPath><clipPath id="a93d774810"><path d="M 201 49 L 245.957031 49 L 245.957031 94 L 201 94 Z M 201 49 " clip-rule="nonzero"/></clipPath><clipPath id="40143e8c3d"><path d="M 51 47.113281 L 245.957031 47.113281 L 245.957031 146 L 51 146 Z M 51 47.113281 " clip-rule="nonzero"/></clipPath><clipPath id="ddcfbf7b9c"><path d="M 201 149 L 245.957031 149 L 245.957031 194 L 201 194 Z M 201 149 " clip-rule="nonzero"/></clipPath><clipPath id="9a8b398e64"><path d="M 51 147.644531 L 245.957031 147.644531 L 245.957031 247 L 51 247 Z M 51 147.644531 " clip-rule="nonzero"/></clipPath><clipPath id="46f1990c4d"><path d="M 201 250 L 245.957031 250 L 245.957031 295 L 201 295 Z M 201 250 " clip-rule="nonzero"/></clipPath><clipPath id="9088f16132"><path d="M 51 248.171875 L 245.957031 248.171875 L 245.957031 347 L 51 347 Z M 51 248.171875 " clip-rule="nonzero"/></clipPath><clipPath id="41987334cb"><path d="M 201 351 L 245.957031 351 L 245.957031 395 L 201 395 Z M 201 351 " clip-rule="nonzero"/></clipPath><clipPath id="e6b9c9393d"><path d="M 51 348.699219 L 245.957031 348.699219 L 245.957031 448 L 51 448 Z M 51 348.699219 " clip-rule="nonzero"/></clipPath></defs><path fill="#ff6f61" d="M 423.039062 49.464844 C 434.535156 49.464844 444.476562 59.042969 444.796875 70.507812 C 444.960938 76.496094 442.730469 82.179688 438.519531 86.527344 C 434.332031 90.839844 428.757812 93.226562 422.820312 93.234375 C 422.8125 93.234375 422.800781 93.234375 422.792969 93.234375 C 416.992188 93.234375 411.480469 90.890625 407.269531 86.640625 C 403.015625 82.347656 400.609375 76.472656 400.683594 70.527344 C 400.816406 59.269531 410.921875 49.617188 422.769531 49.464844 C 422.863281 49.464844 422.945312 49.464844 423.039062 49.464844 Z M 422.792969 91.171875 C 422.800781 91.171875 422.8125 91.171875 422.820312 91.171875 C 428.1875 91.160156 433.246094 88.992188 437.042969 85.082031 C 440.863281 81.140625 442.886719 75.988281 442.742188 70.558594 C 442.441406 60.1875 433.453125 51.527344 423.050781 51.527344 C 422.964844 51.527344 422.882812 51.527344 422.800781 51.527344 C 412.046875 51.671875 402.871094 60.382812 402.757812 70.550781 C 402.695312 75.949219 404.882812 81.273438 408.742188 85.183594 C 412.550781 89.046875 417.546875 91.171875 422.792969 91.171875 Z M 422.792969 91.171875 " fill-opacity="1" fill-rule="nonzero"/><path fill="#ff6f61" d="M 323.378906 49.464844 C 334.875 49.464844 344.816406 59.042969 345.132812 70.507812 C 345.300781 76.496094 343.070312 82.179688 338.859375 86.527344 C 334.667969 90.839844 329.09375 93.226562 323.160156 93.234375 C 323.152344 93.234375 323.140625 93.234375 323.121094 93.234375 C 317.320312 93.234375 311.808594 90.890625 307.597656 86.640625 C 303.34375 82.347656 300.949219 76.472656 301.011719 70.527344 C 301.136719 59.269531 311.25 49.617188 323.089844 49.464844 C 323.191406 49.464844 323.285156 49.464844 323.378906 49.464844 Z M 323.121094 91.171875 C 323.128906 91.171875 323.140625 91.171875 323.152344 91.171875 C 328.515625 91.160156 333.574219 89.003906 337.371094 85.09375 C 341.191406 81.148438 343.214844 76 343.070312 70.570312 C 342.78125 60.199219 333.792969 51.539062 323.378906 51.539062 C 323.296875 51.539062 323.210938 51.539062 323.128906 51.539062 C 312.375 51.683594 303.199219 60.394531 303.085938 70.558594 C 303.023438 75.957031 305.203125 81.285156 309.074219 85.195312 C 312.890625 89.046875 317.875 91.171875 323.121094 91.171875 Z M 323.121094 91.171875 " fill-opacity="1" fill-rule="nonzero"/><path fill="#ff6f61" d="M 372.042969 100.75 C 383.539062 100.75 393.480469 110.328125 393.800781 121.792969 C 393.964844 127.78125 391.734375 133.46875 387.523438 137.8125 C 383.332031 142.125 377.761719 144.511719 371.824219 144.519531 C 371.816406 144.519531 371.804688 144.519531 371.785156 144.519531 C 365.984375 144.519531 360.472656 142.179688 356.261719 137.925781 C 352.007812 133.632812 349.605469 127.761719 349.675781 121.816406 C 349.800781 110.554688 359.914062 100.902344 371.753906 100.75 C 371.855469 100.75 371.949219 100.75 372.042969 100.75 Z M 371.792969 142.445312 C 371.804688 142.445312 371.816406 142.445312 371.824219 142.445312 C 377.191406 142.4375 382.25 140.28125 386.046875 136.367188 C 389.867188 132.425781 391.890625 127.273438 391.746094 121.847656 C 391.457031 111.472656 382.464844 102.8125 372.050781 102.8125 C 371.96875 102.8125 371.886719 102.8125 371.804688 102.8125 C 361.050781 102.957031 351.875 111.667969 351.761719 121.835938 C 351.699219 127.234375 353.886719 132.558594 357.746094 136.472656 C 361.554688 140.332031 366.550781 142.445312 371.792969 142.445312 Z M 371.792969 142.445312 " fill-opacity="1" fill-rule="nonzero"/><path fill="#ff6f61" d="M 274.714844 100.75 C 286.210938 100.75 296.148438 110.328125 296.46875 121.792969 C 296.636719 127.78125 294.40625 133.46875 290.195312 137.8125 C 286.003906 142.125 280.429688 144.511719 274.496094 144.519531 C 274.484375 144.519531 274.476562 144.519531 274.457031 144.519531 C 268.65625 144.519531 263.144531 142.179688 258.933594 137.925781 C 254.679688 133.632812 252.273438 127.761719 252.347656 121.816406 C 252.472656 110.554688 262.585938 100.902344 274.425781 100.75 C 274.527344 100.75 274.621094 100.75 274.714844 100.75 Z M 274.457031 142.445312 C 274.464844 142.445312 274.476562 142.445312 274.484375 142.445312 C 279.851562 142.4375 284.910156 140.28125 288.707031 136.367188 C 292.539062 132.425781 294.550781 127.273438 294.40625 121.847656 C 294.117188 111.472656 285.128906 102.8125 274.714844 102.8125 C 274.628906 102.8125 274.546875 102.8125 274.464844 102.8125 C 263.710938 102.957031 254.535156 111.667969 254.421875 121.835938 C 254.359375 127.234375 256.539062 132.558594 260.40625 136.472656 C 264.226562 140.332031 269.210938 142.445312 274.457031 142.445312 Z M 274.457031 142.445312 " fill-opacity="1" fill-rule="nonzero"/><g clip-path="url(#25f1b718cf)"><path fill="#ff6f61" d="M 372.742188 47.027344 C 373.972656 47.027344 375.210938 47.121094 376.449219 47.296875 C 384.828125 48.542969 391.300781 53.734375 393.769531 61.199219 C 394.769531 64.210938 395.253906 67.359375 395.5625 69.753906 C 398.175781 89.820312 403.976562 95.734375 423.773438 98.519531 C 436.351562 100.304688 444.558594 109.410156 444.660156 121.722656 C 444.753906 133.445312 436.320312 143.675781 425.0625 145.511719 C 412.644531 147.546875 401.5 140.539062 397.957031 128.480469 C 397.058594 125.425781 396.472656 122.476562 396.203125 119.710938 C 395.007812 107.210938 385.933594 98.457031 373.640625 97.921875 C 359.730469 97.324219 350.222656 104.886719 348.261719 118.171875 C 346.921875 127.222656 345.414062 137.480469 334.503906 143.003906 C 327.125 146.742188 318.929688 146.78125 312.003906 143.105469 C 305.078125 139.433594 300.515625 132.621094 299.464844 124.425781 C 299.351562 123.527344 299.246094 122.621094 299.144531 121.710938 C 298.699219 117.757812 298.246094 113.660156 296.605469 110.058594 C 295.222656 107.023438 293.207031 104.289062 290.640625 101.914062 C 287.820312 99.324219 285.964844 98.695312 282.257812 97.4375 C 279.800781 96.601562 277.335938 96.351562 274.734375 96.085938 C 272.359375 95.847656 269.914062 95.597656 267.539062 94.886719 C 260.097656 92.667969 254.402344 86.527344 252.328125 78.464844 C 250.199219 70.21875 252.242188 61.921875 257.785156 56.265625 C 261.304688 52.683594 266.167969 50.351562 271.492188 49.699219 C 285.1875 48.027344 296.707031 57.378906 298.894531 71.941406 C 299.070312 73.089844 299.195312 74.265625 299.320312 75.410156 C 299.628906 78.289062 299.917969 81.003906 300.898438 83.429688 C 304.601562 92.574219 315.398438 99.035156 324.957031 97.871094 C 336.257812 96.476562 344.082031 89.507812 346.980469 78.269531 C 347.476562 76.339844 347.902344 74.277344 348.304688 72.285156 C 349.4375 66.6875 350.605469 60.898438 353.824219 56.335938 C 357.972656 50.484375 365.136719 47.027344 372.742188 47.027344 Z M 420.851562 143.800781 C 422.121094 143.800781 423.410156 143.695312 424.722656 143.480469 C 434.835938 141.828125 442.679688 132.28125 442.597656 121.742188 C 442.503906 110.503906 435 102.195312 423.484375 100.574219 C 402.695312 97.640625 396.253906 91.078125 393.511719 70.035156 C 393.210938 67.722656 392.746094 64.707031 391.796875 61.859375 C 389.578125 55.148438 383.726562 50.484375 376.140625 49.351562 C 367.976562 48.140625 359.882812 51.363281 355.519531 57.554688 C 352.554688 61.765625 351.421875 67.328125 350.335938 72.71875 C 349.921875 74.730469 349.511719 76.8125 348.996094 78.804688 C 345.910156 90.757812 337.238281 98.457031 325.226562 99.945312 C 314.789062 101.222656 303.023438 94.183594 299 84.234375 C 297.90625 81.53125 297.585938 78.546875 297.273438 75.660156 C 297.152344 74.542969 297.039062 73.386719 296.863281 72.285156 C 294.839844 58.867188 284.28125 50.257812 271.75 51.785156 C 266.890625 52.382812 262.453125 54.5 259.261719 57.742188 C 254.226562 62.871094 252.378906 70.4375 254.328125 77.980469 C 256.226562 85.339844 261.386719 90.933594 268.136719 92.945312 C 270.328125 93.597656 272.578125 93.824219 274.949219 94.070312 C 277.5625 94.339844 280.253906 94.609375 282.847656 95.496094 C 286.789062 96.835938 288.90625 97.558594 292.042969 100.441406 C 294.820312 102.988281 296.984375 105.949219 298.484375 109.242188 C 300.257812 113.144531 300.734375 117.398438 301.199219 121.515625 C 301.300781 122.414062 301.394531 123.3125 301.507812 124.199219 C 302.46875 131.722656 306.636719 137.96875 312.964844 141.320312 C 319.28125 144.675781 326.785156 144.625 333.566406 141.199219 C 342.800781 136.523438 344.628906 128.585938 346.207031 117.902344 C 348.355469 103.441406 358.613281 95.207031 373.734375 95.867188 C 387.101562 96.445312 396.957031 105.949219 398.269531 119.523438 C 398.515625 122.15625 399.082031 124.984375 399.949219 127.914062 C 402.800781 137.65625 411.109375 143.800781 420.851562 143.800781 Z M 420.851562 143.800781 " fill-opacity="1" fill-rule="nonzero"/></g><path fill="#ff6f61" d="M 423.039062 149.992188 C 434.535156 149.992188 444.476562 159.570312 444.796875 171.035156 C 444.960938 177.023438 442.730469 182.710938 438.519531 187.054688 C 434.332031 191.371094 428.757812 193.753906 422.820312 193.765625 C 422.8125 193.765625 422.800781 193.765625 422.792969 193.765625 C 416.992188 193.765625 411.480469 191.421875 407.269531 187.167969 C 403.015625 182.875 400.609375 177.003906 400.683594 171.058594 C 400.816406 159.796875 410.921875 150.148438 422.769531 149.992188 C 422.863281 149.992188 422.945312 149.992188 423.039062 149.992188 Z M 422.792969 191.699219 C 422.800781 191.699219 422.8125 191.699219 422.820312 191.699219 C 428.1875 191.6875 433.246094 189.523438 437.042969 185.609375 C 440.863281 181.667969 442.886719 176.515625 442.742188 171.089844 C 442.441406 160.714844 433.453125 152.054688 423.050781 152.054688 C 422.964844 152.054688 422.882812 152.054688 422.800781 152.054688 C 412.046875 152.199219 402.871094 160.910156 402.757812 171.078125 C 402.695312 176.476562 404.882812 181.800781 408.742188 185.714844 C 412.550781 189.574219 417.546875 191.699219 422.792969 191.699219 Z M 422.792969 191.699219 " fill-opacity="1" fill-rule="nonzero"/><path fill="#ff6f61" d="M 323.378906 149.992188 C 334.875 149.992188 344.816406 159.570312 345.132812 171.035156 C 345.300781 177.023438 343.070312 182.710938 338.859375 187.054688 C 334.667969 191.371094 329.09375 193.753906 323.160156 193.765625 C 323.152344 193.765625 323.140625 193.765625 323.121094 193.765625 C 317.320312 193.765625 311.808594 191.421875 307.597656 187.167969 C 303.34375 182.875 300.949219 177.003906 301.011719 171.058594 C 301.136719 159.796875 311.25 150.148438 323.089844 149.992188 C 323.191406 149.992188 323.285156 149.992188 323.378906 149.992188 Z M 323.121094 191.699219 C 323.128906 191.699219 323.140625 191.699219 323.152344 191.699219 C 328.515625 191.6875 333.574219 189.53125 337.371094 185.621094 C 341.191406 181.679688 343.214844 176.527344 343.070312 171.097656 C 342.78125 160.726562 333.792969 152.066406 323.378906 152.066406 C 323.296875 152.066406 323.210938 152.066406 323.128906 152.066406 C 312.375 152.210938 303.199219 160.921875 303.085938 171.089844 C 303.023438 176.488281 305.203125 181.8125 309.074219 185.722656 C 312.890625 189.574219 317.875 191.699219 323.121094 191.699219 Z M 323.121094 191.699219 " fill-opacity="1" fill-rule="nonzero"/><path fill="#ff6f61" d="M 372.042969 201.277344 C 383.539062 201.277344 393.480469 210.855469 393.800781 222.324219 C 393.964844 228.308594 391.734375 233.996094 387.523438 238.339844 C 383.332031 242.65625 377.761719 245.039062 371.824219 245.050781 C 371.816406 245.050781 371.804688 245.050781 371.785156 245.050781 C 365.984375 245.050781 360.472656 242.707031 356.261719 238.453125 C 352.007812 234.160156 349.605469 228.289062 349.675781 222.34375 C 349.800781 211.082031 359.914062 201.433594 371.753906 201.277344 C 371.855469 201.277344 371.949219 201.277344 372.042969 201.277344 Z M 371.792969 242.976562 C 371.804688 242.976562 371.816406 242.976562 371.824219 242.976562 C 377.191406 242.964844 382.25 240.808594 386.046875 236.894531 C 389.867188 232.953125 391.890625 227.804688 391.746094 222.375 C 391.457031 212 382.464844 203.34375 372.050781 203.34375 C 371.96875 203.34375 371.886719 203.34375 371.804688 203.34375 C 361.050781 203.488281 351.875 212.199219 351.761719 222.363281 C 351.699219 227.761719 353.886719 233.085938 357.746094 237 C 361.554688 240.859375 366.550781 242.976562 371.792969 242.976562 Z M 371.792969 242.976562 " fill-opacity="1" fill-rule="nonzero"/><path fill="#ff6f61" d="M 274.714844 201.277344 C 286.210938 201.277344 296.148438 210.855469 296.46875 222.324219 C 296.636719 228.308594 294.40625 233.996094 290.195312 238.339844 C 286.003906 242.65625 280.429688 245.039062 274.496094 245.050781 C 274.484375 245.050781 274.476562 245.050781 274.457031 245.050781 C 268.65625 245.050781 263.144531 242.707031 258.933594 238.453125 C 254.679688 234.160156 252.273438 228.289062 252.347656 222.34375 C 252.472656 211.082031 262.585938 201.433594 274.425781 201.277344 C 274.527344 201.277344 274.621094 201.277344 274.714844 201.277344 Z M 274.457031 242.976562 C 274.464844 242.976562 274.476562 242.976562 274.484375 242.976562 C 279.851562 242.964844 284.910156 240.808594 288.707031 236.894531 C 292.539062 232.953125 294.550781 227.804688 294.40625 222.375 C 294.117188 212 285.128906 203.34375 274.714844 203.34375 C 274.628906 203.34375 274.546875 203.34375 274.464844 203.34375 C 263.710938 203.488281 254.535156 212.199219 254.421875 222.363281 C 254.359375 227.761719 256.539062 233.085938 260.40625 237 C 264.226562 240.859375 269.210938 242.976562 274.457031 242.976562 Z M 274.457031 242.976562 " fill-opacity="1" fill-rule="nonzero"/><g clip-path="url(#2a464d5ed7)"><path fill="#ff6f61" d="M 372.742188 147.554688 C 373.972656 147.554688 375.210938 147.648438 376.449219 147.824219 C 384.828125 149.074219 391.300781 154.265625 393.769531 161.726562 C 394.769531 164.742188 395.253906 167.890625 395.5625 170.285156 C 398.175781 190.347656 403.976562 196.261719 423.773438 199.046875 C 436.351562 200.835938 444.558594 209.9375 444.660156 222.25 C 444.753906 233.976562 436.320312 244.203125 425.0625 246.039062 C 412.644531 248.074219 401.5 241.066406 397.957031 229.011719 C 397.058594 225.957031 396.472656 223.003906 396.203125 220.238281 C 395.007812 207.738281 385.933594 198.988281 373.640625 198.449219 C 359.730469 197.851562 350.222656 205.417969 348.261719 218.699219 C 346.921875 227.75 345.414062 238.011719 334.503906 243.53125 C 327.125 247.269531 318.929688 247.308594 312.003906 243.636719 C 305.078125 239.960938 300.515625 233.148438 299.464844 224.953125 C 299.351562 224.058594 299.246094 223.148438 299.144531 222.238281 C 298.699219 218.289062 298.246094 214.191406 296.605469 210.585938 C 295.222656 207.554688 293.207031 204.816406 290.640625 202.445312 C 287.820312 199.851562 285.964844 199.222656 282.257812 197.964844 C 279.800781 197.128906 277.335938 196.882812 274.734375 196.613281 C 272.359375 196.375 269.914062 196.128906 267.539062 195.414062 C 260.097656 193.195312 254.402344 187.054688 252.328125 178.996094 C 250.199219 170.746094 252.242188 162.449219 257.785156 156.792969 C 261.304688 153.210938 266.167969 150.878906 271.492188 150.230469 C 285.1875 148.558594 296.707031 157.910156 298.894531 172.472656 C 299.070312 173.617188 299.195312 174.792969 299.320312 175.9375 C 299.628906 178.820312 299.917969 181.535156 300.898438 183.957031 C 304.601562 193.101562 315.398438 199.566406 324.957031 198.398438 C 336.257812 197.003906 344.082031 190.039062 346.980469 178.796875 C 347.476562 176.867188 347.902344 174.804688 348.304688 172.8125 C 349.4375 167.21875 350.605469 161.429688 353.824219 156.867188 C 357.972656 151.015625 365.136719 147.554688 372.742188 147.554688 Z M 420.851562 244.328125 C 422.121094 244.328125 423.410156 244.222656 424.722656 244.007812 C 434.835938 242.355469 442.679688 232.808594 442.597656 222.269531 C 442.503906 211.03125 435 202.722656 423.484375 201.101562 C 402.695312 198.171875 396.253906 191.605469 393.511719 170.5625 C 393.210938 168.25 392.746094 165.234375 391.796875 162.386719 C 389.578125 155.679688 383.726562 151.015625 376.140625 149.878906 C 367.976562 148.671875 359.882812 151.890625 355.519531 158.082031 C 352.554688 162.292969 351.421875 167.859375 350.335938 173.246094 C 349.921875 175.257812 349.511719 177.34375 348.996094 179.335938 C 345.910156 191.285156 337.238281 198.988281 325.226562 200.472656 C 314.789062 201.753906 303.023438 194.714844 299 184.765625 C 297.90625 182.058594 297.585938 179.078125 297.273438 176.1875 C 297.152344 175.074219 297.039062 173.917969 296.863281 172.8125 C 294.839844 159.394531 284.28125 150.785156 271.75 152.3125 C 266.890625 152.914062 262.453125 155.027344 259.261719 158.269531 C 254.226562 163.398438 252.378906 170.964844 254.328125 178.507812 C 256.226562 185.867188 261.386719 191.460938 268.136719 193.476562 C 270.328125 194.125 272.578125 194.351562 274.949219 194.601562 C 277.5625 194.867188 280.253906 195.136719 282.847656 196.023438 C 286.789062 197.367188 288.90625 198.089844 292.042969 200.96875 C 294.820312 203.515625 296.984375 206.480469 298.484375 209.773438 C 300.257812 213.671875 300.734375 217.925781 301.199219 222.042969 C 301.300781 222.941406 301.394531 223.839844 301.507812 224.726562 C 302.46875 232.25 306.636719 238.496094 312.964844 241.851562 C 319.28125 245.203125 326.785156 245.152344 333.566406 241.726562 C 342.800781 237.050781 344.628906 229.113281 346.207031 218.429688 C 348.355469 203.972656 358.613281 195.734375 373.734375 196.394531 C 387.101562 196.972656 396.957031 206.480469 398.269531 220.050781 C 398.515625 222.683594 399.082031 225.511719 399.949219 228.441406 C 402.800781 238.1875 411.109375 244.328125 420.851562 244.328125 Z M 420.851562 244.328125 " fill-opacity="1" fill-rule="nonzero"/></g><path fill="#ff6f61" d="M 423.039062 250.519531 C 434.535156 250.519531 444.476562 260.097656 444.796875 271.566406 C 444.960938 277.550781 442.730469 283.238281 438.519531 287.582031 C 434.332031 291.898438 428.757812 294.28125 422.820312 294.292969 C 422.8125 294.292969 422.800781 294.292969 422.792969 294.292969 C 416.992188 294.292969 411.480469 291.949219 407.269531 287.699219 C 403.015625 283.402344 400.609375 277.53125 400.683594 271.585938 C 400.816406 260.324219 410.921875 250.675781 422.769531 250.519531 C 422.863281 250.519531 422.945312 250.519531 423.039062 250.519531 Z M 422.792969 292.226562 C 422.800781 292.226562 422.8125 292.226562 422.820312 292.226562 C 428.1875 292.21875 433.246094 290.050781 437.042969 286.140625 C 440.863281 282.195312 442.886719 277.046875 442.742188 271.617188 C 442.441406 261.242188 433.453125 252.585938 423.050781 252.585938 C 422.964844 252.585938 422.882812 252.585938 422.800781 252.585938 C 412.046875 252.730469 402.871094 261.441406 402.757812 271.605469 C 402.695312 277.003906 404.882812 282.332031 408.742188 286.242188 C 412.550781 290.101562 417.546875 292.226562 422.792969 292.226562 Z M 422.792969 292.226562 " fill-opacity="1" fill-rule="nonzero"/><path fill="#ff6f61" d="M 323.378906 250.519531 C 334.875 250.519531 344.816406 260.097656 345.132812 271.566406 C 345.300781 277.550781 343.070312 283.238281 338.859375 287.582031 C 334.667969 291.898438 329.09375 294.28125 323.160156 294.292969 C 323.152344 294.292969 323.140625 294.292969 323.121094 294.292969 C 317.320312 294.292969 311.808594 291.949219 307.597656 287.699219 C 303.34375 283.402344 300.949219 277.53125 301.011719 271.585938 C 301.136719 260.324219 311.25 250.675781 323.089844 250.519531 C 323.191406 250.519531 323.285156 250.519531 323.378906 250.519531 Z M 323.121094 292.226562 C 323.128906 292.226562 323.140625 292.226562 323.152344 292.226562 C 328.515625 292.21875 333.574219 290.0625 337.371094 286.148438 C 341.191406 282.207031 343.214844 277.054688 343.070312 271.628906 C 342.78125 261.253906 333.792969 252.59375 323.378906 252.59375 C 323.296875 252.59375 323.210938 252.59375 323.128906 252.59375 C 312.375 252.738281 303.199219 261.449219 303.085938 271.617188 C 303.023438 277.015625 305.203125 282.339844 309.074219 286.253906 C 312.890625 290.101562 317.875 292.226562 323.121094 292.226562 Z M 323.121094 292.226562 " fill-opacity="1" fill-rule="nonzero"/><path fill="#ff6f61" d="M 372.042969 301.804688 C 383.539062 301.804688 393.480469 311.382812 393.800781 322.851562 C 393.964844 328.835938 391.734375 334.523438 387.523438 338.871094 C 383.332031 343.183594 377.761719 345.566406 371.824219 345.578125 C 371.816406 345.578125 371.804688 345.578125 371.785156 345.578125 C 365.984375 345.578125 360.472656 343.234375 356.261719 338.984375 C 352.007812 334.691406 349.605469 328.816406 349.675781 322.871094 C 349.800781 311.613281 359.914062 301.960938 371.753906 301.804688 C 371.855469 301.804688 371.949219 301.804688 372.042969 301.804688 Z M 371.792969 343.503906 C 371.804688 343.503906 371.816406 343.503906 371.824219 343.503906 C 377.191406 343.492188 382.25 341.335938 386.046875 337.425781 C 389.867188 333.480469 391.890625 328.332031 391.746094 322.902344 C 391.457031 312.53125 382.464844 303.871094 372.050781 303.871094 C 371.96875 303.871094 371.886719 303.871094 371.804688 303.871094 C 361.050781 304.015625 351.875 312.726562 351.761719 322.890625 C 351.699219 328.289062 353.886719 333.617188 357.746094 337.527344 C 361.554688 341.386719 366.550781 343.503906 371.792969 343.503906 Z M 371.792969 343.503906 " fill-opacity="1" fill-rule="nonzero"/><path fill="#ff6f61" d="M 274.714844 301.804688 C 286.210938 301.804688 296.148438 311.382812 296.46875 322.851562 C 296.636719 328.835938 294.40625 334.523438 290.195312 338.871094 C 286.003906 343.183594 280.429688 345.566406 274.496094 345.578125 C 274.484375 345.578125 274.476562 345.578125 274.457031 345.578125 C 268.65625 345.578125 263.144531 343.234375 258.933594 338.984375 C 254.679688 334.691406 252.273438 328.816406 252.347656 322.871094 C 252.472656 311.613281 262.585938 301.960938 274.425781 301.804688 C 274.527344 301.804688 274.621094 301.804688 274.714844 301.804688 Z M 274.457031 343.503906 C 274.464844 343.503906 274.476562 343.503906 274.484375 343.503906 C 279.851562 343.492188 284.910156 341.335938 288.707031 337.425781 C 292.539062 333.480469 294.550781 328.332031 294.40625 322.902344 C 294.117188 312.53125 285.128906 303.871094 274.714844 303.871094 C 274.628906 303.871094 274.546875 303.871094 274.464844 303.871094 C 263.710938 304.015625 254.535156 312.726562 254.421875 322.890625 C 254.359375 328.289062 256.539062 333.617188 260.40625 337.527344 C 264.226562 341.386719 269.210938 343.503906 274.457031 343.503906 Z M 274.457031 343.503906 " fill-opacity="1" fill-rule="nonzero"/><g clip-path="url(#726a830453)"><path fill="#ff6f61" d="M 372.742188 248.085938 C 373.972656 248.085938 375.210938 248.175781 376.449219 248.351562 C 384.828125 249.601562 391.300781 254.792969 393.769531 262.253906 C 394.769531 265.269531 395.253906 268.417969 395.5625 270.8125 C 398.175781 290.875 403.976562 296.789062 423.773438 299.578125 C 436.351562 301.363281 444.558594 310.464844 444.660156 322.777344 C 444.753906 334.503906 436.320312 344.730469 425.0625 346.570312 C 412.644531 348.601562 401.5 341.59375 397.957031 329.539062 C 397.058594 326.484375 396.472656 323.53125 396.203125 320.765625 C 395.007812 308.265625 385.933594 299.515625 373.640625 298.976562 C 359.730469 298.378906 350.222656 305.945312 348.261719 319.226562 C 346.921875 328.28125 345.414062 338.539062 334.503906 344.0625 C 327.125 347.796875 318.929688 347.839844 312.003906 344.164062 C 305.078125 340.488281 300.515625 333.679688 299.464844 325.484375 C 299.351562 324.585938 299.246094 323.675781 299.144531 322.769531 C 298.699219 318.816406 298.246094 314.71875 296.605469 311.117188 C 295.222656 308.082031 293.207031 305.347656 290.640625 302.972656 C 287.820312 300.382812 285.964844 299.753906 282.257812 298.492188 C 279.800781 297.65625 277.335938 297.410156 274.734375 297.140625 C 272.359375 296.902344 269.914062 296.65625 267.539062 295.945312 C 260.097656 293.726562 254.402344 287.582031 252.328125 279.523438 C 250.199219 271.277344 252.242188 262.976562 257.785156 257.320312 C 261.304688 253.742188 266.167969 251.40625 271.492188 250.757812 C 285.1875 249.085938 296.707031 258.4375 298.894531 273 C 299.070312 274.144531 299.195312 275.320312 299.320312 276.46875 C 299.628906 279.347656 299.917969 282.0625 300.898438 284.488281 C 304.601562 293.632812 315.398438 300.09375 324.957031 298.925781 C 336.257812 297.535156 344.082031 290.566406 346.980469 279.328125 C 347.476562 277.398438 347.902344 275.332031 348.304688 273.339844 C 349.4375 267.746094 350.605469 261.957031 353.824219 257.394531 C 357.972656 251.542969 365.136719 248.085938 372.742188 248.085938 Z M 420.851562 344.855469 C 422.121094 344.855469 423.410156 344.753906 424.722656 344.535156 C 434.835938 342.882812 442.679688 333.335938 442.597656 322.800781 C 442.503906 311.558594 435 303.25 423.484375 301.632812 C 402.695312 298.699219 396.253906 292.136719 393.511719 271.089844 C 393.210938 268.777344 392.746094 265.765625 391.796875 262.917969 C 389.578125 256.207031 383.726562 251.542969 376.140625 250.40625 C 367.976562 249.199219 359.882812 252.417969 355.519531 258.613281 C 352.554688 262.824219 351.421875 268.386719 350.335938 273.773438 C 349.921875 275.785156 349.511719 277.871094 348.996094 279.863281 C 345.910156 291.816406 337.238281 299.515625 325.226562 301 C 314.789062 302.28125 303.023438 295.242188 299 285.292969 C 297.90625 282.589844 297.585938 279.605469 297.273438 276.714844 C 297.152344 275.601562 297.039062 274.445312 296.863281 273.339844 C 294.839844 259.921875 284.28125 251.316406 271.75 252.84375 C 266.890625 253.441406 262.453125 255.558594 259.261719 258.796875 C 254.226562 263.925781 252.378906 271.492188 254.328125 279.039062 C 256.226562 286.398438 261.386719 291.992188 268.136719 294.003906 C 270.328125 294.652344 272.578125 294.878906 274.949219 295.128906 C 277.5625 295.398438 280.253906 295.664062 282.847656 296.554688 C 286.789062 297.894531 288.90625 298.617188 292.042969 301.496094 C 294.820312 304.046875 296.984375 307.007812 298.484375 310.300781 C 300.257812 314.203125 300.734375 318.453125 301.199219 322.574219 C 301.300781 323.46875 301.394531 324.367188 301.507812 325.257812 C 302.46875 332.78125 306.636719 339.023438 312.964844 342.378906 C 319.28125 345.734375 326.785156 345.683594 333.566406 342.253906 C 342.800781 337.578125 344.628906 329.640625 346.207031 318.960938 C 348.355469 304.5 358.613281 296.265625 373.734375 296.925781 C 387.101562 297.503906 396.957031 307.007812 398.269531 320.582031 C 398.515625 323.210938 399.082031 326.039062 399.949219 328.972656 C 402.800781 338.714844 411.109375 344.855469 420.851562 344.855469 Z M 420.851562 344.855469 " fill-opacity="1" fill-rule="nonzero"/></g><path fill="#ff6f61" d="M 423.039062 351.050781 C 434.535156 351.050781 444.476562 360.628906 444.796875 372.09375 C 444.960938 378.082031 442.730469 383.765625 438.519531 388.113281 C 434.332031 392.425781 428.757812 394.8125 422.820312 394.820312 C 422.8125 394.820312 422.800781 394.820312 422.792969 394.820312 C 416.992188 394.820312 411.480469 392.476562 407.269531 388.226562 C 403.015625 383.933594 400.609375 378.058594 400.683594 372.113281 C 400.816406 360.855469 410.921875 351.203125 422.769531 351.050781 C 422.863281 351.050781 422.945312 351.050781 423.039062 351.050781 Z M 422.792969 392.757812 C 422.800781 392.757812 422.8125 392.757812 422.820312 392.757812 C 428.1875 392.746094 433.246094 390.578125 437.042969 386.667969 C 440.863281 382.726562 442.886719 377.574219 442.742188 372.144531 C 442.441406 361.773438 433.453125 353.113281 423.050781 353.113281 C 422.964844 353.113281 422.882812 353.113281 422.800781 353.113281 C 412.046875 353.257812 402.871094 361.96875 402.757812 372.136719 C 402.695312 377.53125 404.882812 382.859375 408.742188 386.769531 C 412.550781 390.628906 417.546875 392.757812 422.792969 392.757812 Z M 422.792969 392.757812 " fill-opacity="1" fill-rule="nonzero"/><path fill="#ff6f61" d="M 323.378906 351.050781 C 334.875 351.050781 344.816406 360.628906 345.132812 372.09375 C 345.300781 378.082031 343.070312 383.765625 338.859375 388.113281 C 334.667969 392.425781 329.09375 394.8125 323.160156 394.820312 C 323.152344 394.820312 323.140625 394.820312 323.121094 394.820312 C 317.320312 394.820312 311.808594 392.476562 307.597656 388.226562 C 303.34375 383.933594 300.949219 378.058594 301.011719 372.113281 C 301.136719 360.855469 311.25 351.203125 323.089844 351.050781 C 323.191406 351.050781 323.285156 351.050781 323.378906 351.050781 Z M 323.121094 392.757812 C 323.128906 392.757812 323.140625 392.757812 323.152344 392.757812 C 328.515625 392.746094 333.574219 390.589844 337.371094 386.675781 C 341.191406 382.734375 343.214844 377.585938 343.070312 372.15625 C 342.78125 361.78125 333.792969 353.125 323.378906 353.125 C 323.296875 353.125 323.210938 353.125 323.128906 353.125 C 312.375 353.269531 303.199219 361.980469 303.085938 372.144531 C 303.023438 377.542969 305.203125 382.871094 309.074219 386.78125 C 312.890625 390.628906 317.875 392.757812 323.121094 392.757812 Z M 323.121094 392.757812 " fill-opacity="1" fill-rule="nonzero"/><path fill="#ff6f61" d="M 372.042969 402.335938 C 383.539062 402.335938 393.480469 411.914062 393.800781 423.378906 C 393.964844 429.367188 391.734375 435.054688 387.523438 439.398438 C 383.332031 443.710938 377.761719 446.097656 371.824219 446.105469 C 371.816406 446.105469 371.804688 446.105469 371.785156 446.105469 C 365.984375 446.105469 360.472656 443.765625 356.261719 439.511719 C 352.007812 435.21875 349.605469 429.34375 349.675781 423.402344 C 349.800781 412.140625 359.914062 402.488281 371.753906 402.335938 C 371.855469 402.335938 371.949219 402.335938 372.042969 402.335938 Z M 371.792969 444.03125 C 371.804688 444.03125 371.816406 444.03125 371.824219 444.03125 C 377.191406 444.023438 382.25 441.863281 386.046875 437.953125 C 389.867188 434.011719 391.890625 428.859375 391.746094 423.429688 C 391.457031 413.058594 382.464844 404.398438 372.050781 404.398438 C 371.96875 404.398438 371.886719 404.398438 371.804688 404.398438 C 361.050781 404.542969 351.875 413.253906 351.761719 423.421875 C 351.699219 428.820312 353.886719 434.144531 357.746094 438.054688 C 361.554688 441.917969 366.550781 444.03125 371.792969 444.03125 Z M 371.792969 444.03125 " fill-opacity="1" fill-rule="nonzero"/><path fill="#ff6f61" d="M 274.714844 402.335938 C 286.210938 402.335938 296.148438 411.914062 296.46875 423.378906 C 296.636719 429.367188 294.40625 435.054688 290.195312 439.398438 C 286.003906 443.710938 280.429688 446.097656 274.496094 446.105469 C 274.484375 446.105469 274.476562 446.105469 274.457031 446.105469 C 268.65625 446.105469 263.144531 443.765625 258.933594 439.511719 C 254.679688 435.21875 252.273438 429.34375 252.347656 423.402344 C 252.472656 412.140625 262.585938 402.488281 274.425781 402.335938 C 274.527344 402.335938 274.621094 402.335938 274.714844 402.335938 Z M 274.457031 444.03125 C 274.464844 444.03125 274.476562 444.03125 274.484375 444.03125 C 279.851562 444.023438 284.910156 441.863281 288.707031 437.953125 C 292.539062 434.011719 294.550781 428.859375 294.40625 423.429688 C 294.117188 413.058594 285.128906 404.398438 274.714844 404.398438 C 274.628906 404.398438 274.546875 404.398438 274.464844 404.398438 C 263.710938 404.542969 254.535156 413.253906 254.421875 423.421875 C 254.359375 428.820312 256.539062 434.144531 260.40625 438.054688 C 264.226562 441.917969 269.210938 444.03125 274.457031 444.03125 Z M 274.457031 444.03125 " fill-opacity="1" fill-rule="nonzero"/><g clip-path="url(#8d491592b9)"><path fill="#ff6f61" d="M 372.742188 348.613281 C 373.972656 348.613281 375.210938 348.707031 376.449219 348.882812 C 384.828125 350.128906 391.300781 355.320312 393.769531 362.785156 C 394.769531 365.796875 395.253906 368.945312 395.5625 371.339844 C 398.175781 391.40625 403.976562 397.320312 423.773438 400.105469 C 436.351562 401.890625 444.558594 410.996094 444.660156 423.308594 C 444.753906 435.03125 436.320312 445.261719 425.0625 447.097656 C 412.644531 449.132812 401.5 442.121094 397.957031 430.066406 C 397.058594 427.011719 396.472656 424.0625 396.203125 421.292969 C 395.007812 408.796875 385.933594 400.042969 373.640625 399.507812 C 359.730469 398.910156 350.222656 406.472656 348.261719 419.757812 C 346.921875 428.808594 345.414062 439.066406 334.503906 444.589844 C 327.125 448.324219 318.929688 448.367188 312.003906 444.691406 C 305.078125 441.019531 300.515625 434.207031 299.464844 426.011719 C 299.351562 425.113281 299.246094 424.207031 299.144531 423.296875 C 298.699219 419.34375 298.246094 415.246094 296.605469 411.644531 C 295.222656 408.609375 293.207031 405.875 290.640625 403.5 C 287.820312 400.910156 285.964844 400.28125 282.257812 399.023438 C 279.800781 398.1875 277.335938 397.9375 274.734375 397.667969 C 272.359375 397.433594 269.914062 397.183594 267.539062 396.472656 C 260.097656 394.253906 254.402344 388.113281 252.328125 380.050781 C 250.199219 371.804688 252.242188 363.507812 257.785156 357.851562 C 261.304688 354.269531 266.167969 351.9375 271.492188 351.285156 C 285.1875 349.613281 296.707031 358.964844 298.894531 373.527344 C 299.070312 374.675781 299.195312 375.851562 299.320312 376.996094 C 299.628906 379.875 299.917969 382.589844 300.898438 385.015625 C 304.601562 394.160156 315.398438 400.621094 324.957031 399.457031 C 336.257812 398.0625 344.082031 391.09375 346.980469 379.855469 C 347.476562 377.925781 347.902344 375.859375 348.304688 373.867188 C 349.4375 368.273438 350.605469 362.484375 353.824219 357.921875 C 357.972656 352.070312 365.136719 348.613281 372.742188 348.613281 Z M 420.851562 445.382812 C 422.121094 445.382812 423.410156 445.28125 424.722656 445.066406 C 434.835938 443.414062 442.679688 433.867188 442.597656 423.328125 C 442.503906 412.089844 435 403.78125 423.484375 402.160156 C 402.695312 399.226562 396.253906 392.664062 393.511719 371.617188 C 393.210938 369.308594 392.746094 366.292969 391.796875 363.445312 C 389.578125 356.734375 383.726562 352.070312 376.140625 350.933594 C 367.976562 349.726562 359.882812 352.949219 355.519531 359.140625 C 352.554688 363.351562 351.421875 368.914062 350.335938 374.300781 C 349.921875 376.316406 349.511719 378.398438 348.996094 380.390625 C 345.910156 392.34375 337.238281 400.042969 325.226562 401.53125 C 314.789062 402.808594 303.023438 395.769531 299 385.820312 C 297.90625 383.117188 297.585938 380.132812 297.273438 377.242188 C 297.152344 376.128906 297.039062 374.972656 296.863281 373.867188 C 294.839844 360.453125 284.28125 351.84375 271.75 353.371094 C 266.890625 353.96875 262.453125 356.085938 259.261719 359.328125 C 254.226562 364.457031 252.378906 372.023438 254.328125 379.566406 C 256.226562 386.925781 261.386719 392.519531 268.136719 394.53125 C 270.328125 395.183594 272.578125 395.410156 274.949219 395.65625 C 277.5625 395.925781 280.253906 396.195312 282.847656 397.082031 C 286.789062 398.421875 288.90625 399.144531 292.042969 402.023438 C 294.820312 404.574219 296.984375 407.535156 298.484375 410.828125 C 300.257812 414.730469 300.734375 418.984375 301.199219 423.101562 C 301.300781 424 301.394531 424.898438 301.507812 425.785156 C 302.46875 433.308594 306.636719 439.554688 312.964844 442.90625 C 319.28125 446.261719 326.785156 446.210938 333.566406 442.785156 C 342.800781 438.109375 344.628906 430.171875 346.207031 419.488281 C 348.355469 405.027344 358.613281 396.792969 373.734375 397.453125 C 387.101562 398.03125 396.957031 407.535156 398.269531 421.109375 C 398.515625 423.742188 399.082031 426.570312 399.949219 429.5 C 402.800781 439.242188 411.109375 445.382812 420.851562 445.382812 Z M 420.851562 445.382812 " fill-opacity="1" fill-rule="nonzero"/></g><g clip-path="url(#a93d774810)"><path fill="#ff6f61" d="M 223.4375 49.464844 C 234.9375 49.464844 244.875 59.042969 245.195312 70.507812 C 245.359375 76.496094 243.132812 82.179688 238.921875 86.527344 C 234.730469 90.839844 229.15625 93.226562 223.222656 93.234375 C 223.210938 93.234375 223.203125 93.234375 223.191406 93.234375 C 217.390625 93.234375 211.878906 90.890625 207.667969 86.640625 C 203.414062 82.347656 201.011719 76.472656 201.082031 70.527344 C 201.21875 59.269531 211.320312 49.617188 223.171875 49.464844 C 223.261719 49.464844 223.347656 49.464844 223.4375 49.464844 Z M 223.191406 91.171875 C 223.203125 91.171875 223.210938 91.171875 223.222656 91.171875 C 228.589844 91.160156 233.644531 88.992188 237.445312 85.082031 C 241.261719 81.140625 243.285156 75.988281 243.140625 70.558594 C 242.84375 60.1875 233.851562 51.527344 223.449219 51.527344 C 223.367188 51.527344 223.285156 51.527344 223.203125 51.527344 C 212.445312 51.671875 203.269531 60.382812 203.15625 70.550781 C 203.09375 75.949219 205.285156 81.273438 209.144531 85.183594 C 212.953125 89.046875 217.949219 91.171875 223.191406 91.171875 Z M 223.191406 91.171875 " fill-opacity="1" fill-rule="nonzero"/></g><path fill="#ff6f61" d="M 123.777344 49.464844 C 135.273438 49.464844 145.214844 59.042969 145.535156 70.507812 C 145.699219 76.496094 143.46875 82.179688 139.257812 86.527344 C 135.070312 90.839844 129.496094 93.226562 123.5625 93.234375 C 123.550781 93.234375 123.539062 93.234375 123.519531 93.234375 C 117.71875 93.234375 112.207031 90.890625 107.996094 86.640625 C 103.742188 82.347656 101.347656 76.472656 101.410156 70.527344 C 101.535156 59.269531 111.648438 49.617188 123.488281 49.464844 C 123.589844 49.464844 123.683594 49.464844 123.777344 49.464844 Z M 123.519531 91.171875 C 123.53125 91.171875 123.539062 91.171875 123.550781 91.171875 C 128.917969 91.160156 133.976562 89.003906 137.773438 85.09375 C 141.589844 81.148438 143.613281 76 143.46875 70.570312 C 143.179688 60.199219 134.191406 51.539062 123.777344 51.539062 C 123.695312 51.539062 123.613281 51.539062 123.53125 51.539062 C 112.773438 51.683594 103.597656 60.394531 103.484375 70.558594 C 103.425781 75.957031 105.601562 81.285156 109.472656 85.195312 C 113.289062 89.046875 118.277344 91.171875 123.519531 91.171875 Z M 123.519531 91.171875 " fill-opacity="1" fill-rule="nonzero"/><path fill="#ff6f61" d="M 172.441406 100.75 C 183.941406 100.75 193.878906 110.328125 194.199219 121.792969 C 194.363281 127.78125 192.132812 133.46875 187.921875 137.8125 C 183.734375 142.125 178.160156 144.511719 172.226562 144.519531 C 172.214844 144.519531 172.203125 144.519531 172.183594 144.519531 C 166.382812 144.519531 160.871094 142.179688 156.660156 137.925781 C 152.410156 133.632812 150.003906 127.761719 150.074219 121.816406 C 150.199219 110.554688 160.3125 100.902344 172.152344 100.75 C 172.257812 100.75 172.347656 100.75 172.441406 100.75 Z M 172.195312 142.445312 C 172.203125 142.445312 172.214844 142.445312 172.226562 142.445312 C 177.59375 142.4375 182.648438 140.28125 186.449219 136.367188 C 190.265625 132.425781 192.289062 127.273438 192.144531 121.847656 C 191.855469 111.472656 182.867188 102.8125 172.453125 102.8125 C 172.371094 102.8125 172.285156 102.8125 172.203125 102.8125 C 161.449219 102.957031 152.273438 111.667969 152.160156 121.835938 C 152.097656 127.234375 154.285156 132.558594 158.148438 136.472656 C 161.957031 140.332031 166.949219 142.445312 172.195312 142.445312 Z M 172.195312 142.445312 " fill-opacity="1" fill-rule="nonzero"/><path fill="#ff6f61" d="M 75.113281 100.75 C 86.609375 100.75 96.550781 110.328125 96.871094 121.792969 C 97.035156 127.78125 94.804688 133.46875 90.59375 137.8125 C 86.40625 142.125 80.832031 144.511719 74.894531 144.519531 C 74.886719 144.519531 74.875 144.519531 74.855469 144.519531 C 69.054688 144.519531 63.542969 142.179688 59.332031 137.925781 C 55.078125 133.632812 52.675781 127.761719 52.746094 121.816406 C 52.871094 110.554688 62.984375 100.902344 74.824219 100.75 C 74.925781 100.75 75.019531 100.75 75.113281 100.75 Z M 74.855469 142.445312 C 74.867188 142.445312 74.875 142.445312 74.886719 142.445312 C 80.253906 142.4375 85.308594 140.28125 89.109375 136.367188 C 92.9375 132.425781 94.949219 127.273438 94.804688 121.847656 C 94.515625 111.472656 85.527344 102.8125 75.113281 102.8125 C 75.03125 102.8125 74.949219 102.8125 74.867188 102.8125 C 64.109375 102.957031 54.933594 111.667969 54.820312 121.835938 C 54.757812 127.234375 56.9375 132.558594 60.808594 136.472656 C 64.625 140.332031 69.613281 142.445312 74.855469 142.445312 Z M 74.855469 142.445312 " fill-opacity="1" fill-rule="nonzero"/><g clip-path="url(#40143e8c3d)"><path fill="#ff6f61" d="M 173.144531 47.027344 C 174.371094 47.027344 175.609375 47.121094 176.847656 47.296875 C 185.230469 48.542969 191.699219 53.734375 194.167969 61.199219 C 195.167969 64.210938 195.652344 67.359375 195.964844 69.753906 C 198.574219 89.820312 204.375 95.734375 224.171875 98.519531 C 236.753906 100.304688 244.957031 109.410156 245.0625 121.722656 C 245.15625 133.445312 236.722656 143.675781 225.460938 145.511719 C 213.046875 147.546875 201.898438 140.539062 198.359375 128.480469 C 197.460938 125.425781 196.871094 122.476562 196.605469 119.710938 C 195.40625 107.210938 186.332031 98.457031 174.042969 97.921875 C 160.128906 97.324219 150.621094 104.886719 148.660156 118.171875 C 147.320312 127.222656 145.8125 137.480469 134.902344 143.003906 C 127.523438 146.742188 119.328125 146.78125 112.402344 143.105469 C 105.476562 139.433594 100.914062 132.621094 99.863281 124.425781 C 99.75 123.527344 99.644531 122.621094 99.542969 121.710938 C 99.097656 117.757812 98.644531 113.660156 97.003906 110.058594 C 95.621094 107.023438 93.609375 104.289062 91.039062 101.914062 C 88.222656 99.324219 86.363281 98.695312 82.65625 97.4375 C 80.203125 96.601562 77.734375 96.351562 75.132812 96.085938 C 72.757812 95.847656 70.3125 95.597656 67.941406 94.886719 C 60.5 92.667969 54.800781 86.527344 52.726562 78.464844 C 50.601562 70.21875 52.644531 61.921875 58.1875 56.265625 C 61.707031 52.683594 66.566406 50.351562 71.894531 49.699219 C 85.589844 48.027344 97.105469 57.378906 99.296875 71.941406 C 99.472656 73.089844 99.59375 74.265625 99.71875 75.410156 C 100.027344 78.289062 100.316406 81.003906 101.296875 83.429688 C 105.003906 92.574219 115.800781 99.035156 125.355469 97.871094 C 136.65625 96.476562 144.480469 89.507812 147.382812 78.269531 C 147.878906 76.339844 148.300781 74.277344 148.703125 72.285156 C 149.839844 66.6875 151.003906 60.898438 154.226562 56.335938 C 158.375 50.484375 165.535156 47.027344 173.144531 47.027344 Z M 221.25 143.800781 C 222.519531 143.800781 223.808594 143.695312 225.121094 143.480469 C 235.234375 141.828125 243.078125 132.28125 242.996094 121.742188 C 242.90625 110.503906 235.402344 102.195312 223.882812 100.574219 C 203.09375 97.640625 196.65625 91.078125 193.910156 70.035156 C 193.609375 67.722656 193.144531 64.707031 192.195312 61.859375 C 189.976562 55.148438 184.125 50.484375 176.539062 49.351562 C 168.375 48.140625 160.285156 51.363281 155.917969 57.554688 C 152.957031 61.765625 151.820312 67.328125 150.734375 72.71875 C 150.324219 74.730469 149.910156 76.8125 149.394531 78.804688 C 146.308594 90.757812 137.636719 98.457031 125.625 99.945312 C 115.191406 101.222656 103.425781 94.183594 99.398438 84.234375 C 98.304688 81.53125 97.984375 78.546875 97.675781 75.660156 C 97.550781 74.542969 97.4375 73.386719 97.261719 72.285156 C 95.238281 58.867188 84.679688 50.257812 72.152344 51.785156 C 67.289062 52.382812 62.851562 54.5 59.664062 57.742188 C 54.625 62.871094 52.777344 70.4375 54.730469 77.980469 C 56.628906 85.339844 61.789062 90.933594 68.539062 92.945312 C 70.726562 93.597656 72.976562 93.824219 75.351562 94.070312 C 77.960938 94.339844 80.65625 94.609375 83.246094 95.496094 C 87.1875 96.835938 89.304688 97.558594 92.441406 100.441406 C 95.21875 102.988281 97.386719 105.949219 98.882812 109.242188 C 100.65625 113.144531 101.132812 117.398438 101.597656 121.515625 C 101.699219 122.414062 101.792969 123.3125 101.90625 124.199219 C 102.867188 131.722656 107.035156 137.96875 113.363281 141.320312 C 119.679688 144.675781 127.183594 144.625 133.964844 141.199219 C 143.203125 136.523438 145.027344 128.585938 146.609375 117.902344 C 148.753906 103.441406 159.015625 95.207031 174.132812 95.867188 C 187.5 96.445312 197.355469 105.949219 198.667969 119.523438 C 198.914062 122.15625 199.484375 124.984375 200.351562 127.914062 C 203.199219 137.65625 211.507812 143.800781 221.25 143.800781 Z M 221.25 143.800781 " fill-opacity="1" fill-rule="nonzero"/></g><g clip-path="url(#ddcfbf7b9c)"><path fill="#ff6f61" d="M 223.4375 149.992188 C 234.9375 149.992188 244.875 159.570312 245.195312 171.035156 C 245.359375 177.023438 243.132812 182.710938 238.921875 187.054688 C 234.730469 191.371094 229.15625 193.753906 223.222656 193.765625 C 223.210938 193.765625 223.203125 193.765625 223.191406 193.765625 C 217.390625 193.765625 211.878906 191.421875 207.667969 187.167969 C 203.414062 182.875 201.011719 177.003906 201.082031 171.058594 C 201.21875 159.796875 211.320312 150.148438 223.171875 149.992188 C 223.261719 149.992188 223.347656 149.992188 223.4375 149.992188 Z M 223.191406 191.699219 C 223.203125 191.699219 223.210938 191.699219 223.222656 191.699219 C 228.589844 191.6875 233.644531 189.523438 237.445312 185.609375 C 241.261719 181.667969 243.285156 176.515625 243.140625 171.089844 C 242.84375 160.714844 233.851562 152.054688 223.449219 152.054688 C 223.367188 152.054688 223.285156 152.054688 223.203125 152.054688 C 212.445312 152.199219 203.269531 160.910156 203.15625 171.078125 C 203.09375 176.476562 205.285156 181.800781 209.144531 185.714844 C 212.953125 189.574219 217.949219 191.699219 223.191406 191.699219 Z M 223.191406 191.699219 " fill-opacity="1" fill-rule="nonzero"/></g><path fill="#ff6f61" d="M 123.777344 149.992188 C 135.273438 149.992188 145.214844 159.570312 145.535156 171.035156 C 145.699219 177.023438 143.46875 182.710938 139.257812 187.054688 C 135.070312 191.371094 129.496094 193.753906 123.5625 193.765625 C 123.550781 193.765625 123.539062 193.765625 123.519531 193.765625 C 117.71875 193.765625 112.207031 191.421875 107.996094 187.167969 C 103.742188 182.875 101.347656 177.003906 101.410156 171.058594 C 101.535156 159.796875 111.648438 150.148438 123.488281 149.992188 C 123.589844 149.992188 123.683594 149.992188 123.777344 149.992188 Z M 123.519531 191.699219 C 123.53125 191.699219 123.539062 191.699219 123.550781 191.699219 C 128.917969 191.6875 133.976562 189.53125 137.773438 185.621094 C 141.589844 181.679688 143.613281 176.527344 143.46875 171.097656 C 143.179688 160.726562 134.191406 152.066406 123.777344 152.066406 C 123.695312 152.066406 123.613281 152.066406 123.53125 152.066406 C 112.773438 152.210938 103.597656 160.921875 103.484375 171.089844 C 103.425781 176.488281 105.601562 181.8125 109.472656 185.722656 C 113.289062 189.574219 118.277344 191.699219 123.519531 191.699219 Z M 123.519531 191.699219 " fill-opacity="1" fill-rule="nonzero"/><path fill="#ff6f61" d="M 172.441406 201.277344 C 183.941406 201.277344 193.878906 210.855469 194.199219 222.324219 C 194.363281 228.308594 192.132812 233.996094 187.921875 238.339844 C 183.734375 242.65625 178.160156 245.039062 172.226562 245.050781 C 172.214844 245.050781 172.203125 245.050781 172.183594 245.050781 C 166.382812 245.050781 160.871094 242.707031 156.660156 238.453125 C 152.410156 234.160156 150.003906 228.289062 150.074219 222.34375 C 150.199219 211.082031 160.3125 201.433594 172.152344 201.277344 C 172.257812 201.277344 172.347656 201.277344 172.441406 201.277344 Z M 172.195312 242.976562 C 172.203125 242.976562 172.214844 242.976562 172.226562 242.976562 C 177.59375 242.964844 182.648438 240.808594 186.449219 236.894531 C 190.265625 232.953125 192.289062 227.804688 192.144531 222.375 C 191.855469 212 182.867188 203.34375 172.453125 203.34375 C 172.371094 203.34375 172.285156 203.34375 172.203125 203.34375 C 161.449219 203.488281 152.273438 212.199219 152.160156 222.363281 C 152.097656 227.761719 154.285156 233.085938 158.148438 237 C 161.957031 240.859375 166.949219 242.976562 172.195312 242.976562 Z M 172.195312 242.976562 " fill-opacity="1" fill-rule="nonzero"/><path fill="#ff6f61" d="M 75.113281 201.277344 C 86.609375 201.277344 96.550781 210.855469 96.871094 222.324219 C 97.035156 228.308594 94.804688 233.996094 90.59375 238.339844 C 86.40625 242.65625 80.832031 245.039062 74.894531 245.050781 C 74.886719 245.050781 74.875 245.050781 74.855469 245.050781 C 69.054688 245.050781 63.542969 242.707031 59.332031 238.453125 C 55.078125 234.160156 52.675781 228.289062 52.746094 222.34375 C 52.871094 211.082031 62.984375 201.433594 74.824219 201.277344 C 74.925781 201.277344 75.019531 201.277344 75.113281 201.277344 Z M 74.855469 242.976562 C 74.867188 242.976562 74.875 242.976562 74.886719 242.976562 C 80.253906 242.964844 85.308594 240.808594 89.109375 236.894531 C 92.9375 232.953125 94.949219 227.804688 94.804688 222.375 C 94.515625 212 85.527344 203.34375 75.113281 203.34375 C 75.03125 203.34375 74.949219 203.34375 74.867188 203.34375 C 64.109375 203.488281 54.933594 212.199219 54.820312 222.363281 C 54.757812 227.761719 56.9375 233.085938 60.808594 237 C 64.625 240.859375 69.613281 242.976562 74.855469 242.976562 Z M 74.855469 242.976562 " fill-opacity="1" fill-rule="nonzero"/><g clip-path="url(#9a8b398e64)"><path fill="#ff6f61" d="M 173.144531 147.554688 C 174.371094 147.554688 175.609375 147.648438 176.847656 147.824219 C 185.230469 149.074219 191.699219 154.265625 194.167969 161.726562 C 195.167969 164.742188 195.652344 167.890625 195.964844 170.285156 C 198.574219 190.347656 204.375 196.261719 224.171875 199.046875 C 236.753906 200.835938 244.957031 209.9375 245.0625 222.25 C 245.15625 233.976562 236.722656 244.203125 225.460938 246.039062 C 213.046875 248.074219 201.898438 241.066406 198.359375 229.011719 C 197.460938 225.957031 196.871094 223.003906 196.605469 220.238281 C 195.40625 207.738281 186.332031 198.988281 174.042969 198.449219 C 160.128906 197.851562 150.621094 205.417969 148.660156 218.699219 C 147.320312 227.75 145.8125 238.011719 134.902344 243.53125 C 127.523438 247.269531 119.328125 247.308594 112.402344 243.636719 C 105.476562 239.960938 100.914062 233.148438 99.863281 224.953125 C 99.75 224.058594 99.644531 223.148438 99.542969 222.238281 C 99.097656 218.289062 98.644531 214.191406 97.003906 210.585938 C 95.621094 207.554688 93.609375 204.816406 91.039062 202.445312 C 88.222656 199.851562 86.363281 199.222656 82.65625 197.964844 C 80.203125 197.128906 77.734375 196.882812 75.132812 196.613281 C 72.757812 196.375 70.3125 196.128906 67.941406 195.414062 C 60.5 193.195312 54.800781 187.054688 52.726562 178.996094 C 50.601562 170.746094 52.644531 162.449219 58.1875 156.792969 C 61.707031 153.210938 66.566406 150.878906 71.894531 150.230469 C 85.589844 148.558594 97.105469 157.910156 99.296875 172.472656 C 99.472656 173.617188 99.59375 174.792969 99.71875 175.9375 C 100.027344 178.820312 100.316406 181.535156 101.296875 183.957031 C 105.003906 193.101562 115.800781 199.566406 125.355469 198.398438 C 136.65625 197.003906 144.480469 190.039062 147.382812 178.796875 C 147.878906 176.867188 148.300781 174.804688 148.703125 172.8125 C 149.839844 167.21875 151.003906 161.429688 154.226562 156.867188 C 158.375 151.015625 165.535156 147.554688 173.144531 147.554688 Z M 221.25 244.328125 C 222.519531 244.328125 223.808594 244.222656 225.121094 244.007812 C 235.234375 242.355469 243.078125 232.808594 242.996094 222.269531 C 242.90625 211.03125 235.402344 202.722656 223.882812 201.101562 C 203.09375 198.171875 196.65625 191.605469 193.910156 170.5625 C 193.609375 168.25 193.144531 165.234375 192.195312 162.386719 C 189.976562 155.679688 184.125 151.015625 176.539062 149.878906 C 168.375 148.671875 160.285156 151.890625 155.917969 158.082031 C 152.957031 162.292969 151.820312 167.859375 150.734375 173.246094 C 150.324219 175.257812 149.910156 177.34375 149.394531 179.335938 C 146.308594 191.285156 137.636719 198.988281 125.625 200.472656 C 115.191406 201.753906 103.425781 194.714844 99.398438 184.765625 C 98.304688 182.058594 97.984375 179.078125 97.675781 176.1875 C 97.550781 175.074219 97.4375 173.917969 97.261719 172.8125 C 95.238281 159.394531 84.679688 150.785156 72.152344 152.3125 C 67.289062 152.914062 62.851562 155.027344 59.664062 158.269531 C 54.625 163.398438 52.777344 170.964844 54.730469 178.507812 C 56.628906 185.867188 61.789062 191.460938 68.539062 193.476562 C 70.726562 194.125 72.976562 194.351562 75.351562 194.601562 C 77.960938 194.867188 80.65625 195.136719 83.246094 196.023438 C 87.1875 197.367188 89.304688 198.089844 92.441406 200.96875 C 95.21875 203.515625 97.386719 206.480469 98.882812 209.773438 C 100.65625 213.671875 101.132812 217.925781 101.597656 222.042969 C 101.699219 222.941406 101.792969 223.839844 101.90625 224.726562 C 102.867188 232.25 107.035156 238.496094 113.363281 241.851562 C 119.679688 245.203125 127.183594 245.152344 133.964844 241.726562 C 143.203125 237.050781 145.027344 229.113281 146.609375 218.429688 C 148.753906 203.972656 159.015625 195.734375 174.132812 196.394531 C 187.5 196.972656 197.355469 206.480469 198.667969 220.050781 C 198.914062 222.683594 199.484375 225.511719 200.351562 228.441406 C 203.199219 238.1875 211.507812 244.328125 221.25 244.328125 Z M 221.25 244.328125 " fill-opacity="1" fill-rule="nonzero"/></g><g clip-path="url(#46f1990c4d)"><path fill="#ff6f61" d="M 223.4375 250.519531 C 234.9375 250.519531 244.875 260.097656 245.195312 271.566406 C 245.359375 277.550781 243.132812 283.238281 238.921875 287.582031 C 234.730469 291.898438 229.15625 294.28125 223.222656 294.292969 C 223.210938 294.292969 223.203125 294.292969 223.191406 294.292969 C 217.390625 294.292969 211.878906 291.949219 207.667969 287.699219 C 203.414062 283.402344 201.011719 277.53125 201.082031 271.585938 C 201.21875 260.324219 211.320312 250.675781 223.171875 250.519531 C 223.261719 250.519531 223.347656 250.519531 223.4375 250.519531 Z M 223.191406 292.226562 C 223.203125 292.226562 223.210938 292.226562 223.222656 292.226562 C 228.589844 292.21875 233.644531 290.050781 237.445312 286.140625 C 241.261719 282.195312 243.285156 277.046875 243.140625 271.617188 C 242.84375 261.242188 233.851562 252.585938 223.449219 252.585938 C 223.367188 252.585938 223.285156 252.585938 223.203125 252.585938 C 212.445312 252.730469 203.269531 261.441406 203.15625 271.605469 C 203.09375 277.003906 205.285156 282.332031 209.144531 286.242188 C 212.953125 290.101562 217.949219 292.226562 223.191406 292.226562 Z M 223.191406 292.226562 " fill-opacity="1" fill-rule="nonzero"/></g><path fill="#ff6f61" d="M 123.777344 250.519531 C 135.273438 250.519531 145.214844 260.097656 145.535156 271.566406 C 145.699219 277.550781 143.46875 283.238281 139.257812 287.582031 C 135.070312 291.898438 129.496094 294.28125 123.5625 294.292969 C 123.550781 294.292969 123.539062 294.292969 123.519531 294.292969 C 117.71875 294.292969 112.207031 291.949219 107.996094 287.699219 C 103.742188 283.402344 101.347656 277.53125 101.410156 271.585938 C 101.535156 260.324219 111.648438 250.675781 123.488281 250.519531 C 123.589844 250.519531 123.683594 250.519531 123.777344 250.519531 Z M 123.519531 292.226562 C 123.53125 292.226562 123.539062 292.226562 123.550781 292.226562 C 128.917969 292.21875 133.976562 290.0625 137.773438 286.148438 C 141.589844 282.207031 143.613281 277.054688 143.46875 271.628906 C 143.179688 261.253906 134.191406 252.59375 123.777344 252.59375 C 123.695312 252.59375 123.613281 252.59375 123.53125 252.59375 C 112.773438 252.738281 103.597656 261.449219 103.484375 271.617188 C 103.425781 277.015625 105.601562 282.339844 109.472656 286.253906 C 113.289062 290.101562 118.277344 292.226562 123.519531 292.226562 Z M 123.519531 292.226562 " fill-opacity="1" fill-rule="nonzero"/><path fill="#ff6f61" d="M 172.441406 301.804688 C 183.941406 301.804688 193.878906 311.382812 194.199219 322.851562 C 194.363281 328.835938 192.132812 334.523438 187.921875 338.871094 C 183.734375 343.183594 178.160156 345.566406 172.226562 345.578125 C 172.214844 345.578125 172.203125 345.578125 172.183594 345.578125 C 166.382812 345.578125 160.871094 343.234375 156.660156 338.984375 C 152.410156 334.691406 150.003906 328.816406 150.074219 322.871094 C 150.199219 311.613281 160.3125 301.960938 172.152344 301.804688 C 172.257812 301.804688 172.347656 301.804688 172.441406 301.804688 Z M 172.195312 343.503906 C 172.203125 343.503906 172.214844 343.503906 172.226562 343.503906 C 177.59375 343.492188 182.648438 341.335938 186.449219 337.425781 C 190.265625 333.480469 192.289062 328.332031 192.144531 322.902344 C 191.855469 312.53125 182.867188 303.871094 172.453125 303.871094 C 172.371094 303.871094 172.285156 303.871094 172.203125 303.871094 C 161.449219 304.015625 152.273438 312.726562 152.160156 322.890625 C 152.097656 328.289062 154.285156 333.617188 158.148438 337.527344 C 161.957031 341.386719 166.949219 343.503906 172.195312 343.503906 Z M 172.195312 343.503906 " fill-opacity="1" fill-rule="nonzero"/><path fill="#ff6f61" d="M 75.113281 301.804688 C 86.609375 301.804688 96.550781 311.382812 96.871094 322.851562 C 97.035156 328.835938 94.804688 334.523438 90.59375 338.871094 C 86.40625 343.183594 80.832031 345.566406 74.894531 345.578125 C 74.886719 345.578125 74.875 345.578125 74.855469 345.578125 C 69.054688 345.578125 63.542969 343.234375 59.332031 338.984375 C 55.078125 334.691406 52.675781 328.816406 52.746094 322.871094 C 52.871094 311.613281 62.984375 301.960938 74.824219 301.804688 C 74.925781 301.804688 75.019531 301.804688 75.113281 301.804688 Z M 74.855469 343.503906 C 74.867188 343.503906 74.875 343.503906 74.886719 343.503906 C 80.253906 343.492188 85.308594 341.335938 89.109375 337.425781 C 92.9375 333.480469 94.949219 328.332031 94.804688 322.902344 C 94.515625 312.53125 85.527344 303.871094 75.113281 303.871094 C 75.03125 303.871094 74.949219 303.871094 74.867188 303.871094 C 64.109375 304.015625 54.933594 312.726562 54.820312 322.890625 C 54.757812 328.289062 56.9375 333.617188 60.808594 337.527344 C 64.625 341.386719 69.613281 343.503906 74.855469 343.503906 Z M 74.855469 343.503906 " fill-opacity="1" fill-rule="nonzero"/><g clip-path="url(#9088f16132)"><path fill="#ff6f61" d="M 173.144531 248.085938 C 174.371094 248.085938 175.609375 248.175781 176.847656 248.351562 C 185.230469 249.601562 191.699219 254.792969 194.167969 262.253906 C 195.167969 265.269531 195.652344 268.417969 195.964844 270.8125 C 198.574219 290.875 204.375 296.789062 224.171875 299.578125 C 236.753906 301.363281 244.957031 310.464844 245.0625 322.777344 C 245.15625 334.503906 236.722656 344.730469 225.460938 346.570312 C 213.046875 348.601562 201.898438 341.59375 198.359375 329.539062 C 197.460938 326.484375 196.871094 323.53125 196.605469 320.765625 C 195.40625 308.265625 186.332031 299.515625 174.042969 298.976562 C 160.128906 298.378906 150.621094 305.945312 148.660156 319.226562 C 147.320312 328.28125 145.8125 338.539062 134.902344 344.0625 C 127.523438 347.796875 119.328125 347.839844 112.402344 344.164062 C 105.476562 340.488281 100.914062 333.679688 99.863281 325.484375 C 99.75 324.585938 99.644531 323.675781 99.542969 322.769531 C 99.097656 318.816406 98.644531 314.71875 97.003906 311.117188 C 95.621094 308.082031 93.609375 305.347656 91.039062 302.972656 C 88.222656 300.382812 86.363281 299.753906 82.65625 298.492188 C 80.203125 297.65625 77.734375 297.410156 75.132812 297.140625 C 72.757812 296.902344 70.3125 296.65625 67.941406 295.945312 C 60.5 293.726562 54.800781 287.582031 52.726562 279.523438 C 50.601562 271.277344 52.644531 262.976562 58.1875 257.320312 C 61.707031 253.742188 66.566406 251.40625 71.894531 250.757812 C 85.589844 249.085938 97.105469 258.4375 99.296875 273 C 99.472656 274.144531 99.59375 275.320312 99.71875 276.46875 C 100.027344 279.347656 100.316406 282.0625 101.296875 284.488281 C 105.003906 293.632812 115.800781 300.09375 125.355469 298.925781 C 136.65625 297.535156 144.480469 290.566406 147.382812 279.328125 C 147.878906 277.398438 148.300781 275.332031 148.703125 273.339844 C 149.839844 267.746094 151.003906 261.957031 154.226562 257.394531 C 158.375 251.542969 165.535156 248.085938 173.144531 248.085938 Z M 221.25 344.855469 C 222.519531 344.855469 223.808594 344.753906 225.121094 344.535156 C 235.234375 342.882812 243.078125 333.335938 242.996094 322.800781 C 242.90625 311.558594 235.402344 303.25 223.882812 301.632812 C 203.09375 298.699219 196.65625 292.136719 193.910156 271.089844 C 193.609375 268.777344 193.144531 265.765625 192.195312 262.917969 C 189.976562 256.207031 184.125 251.542969 176.539062 250.40625 C 168.375 249.199219 160.285156 252.417969 155.917969 258.613281 C 152.957031 262.824219 151.820312 268.386719 150.734375 273.773438 C 150.324219 275.785156 149.910156 277.871094 149.394531 279.863281 C 146.308594 291.816406 137.636719 299.515625 125.625 301 C 115.191406 302.28125 103.425781 295.242188 99.398438 285.292969 C 98.304688 282.589844 97.984375 279.605469 97.675781 276.714844 C 97.550781 275.601562 97.4375 274.445312 97.261719 273.339844 C 95.238281 259.921875 84.679688 251.316406 72.152344 252.84375 C 67.289062 253.441406 62.851562 255.558594 59.664062 258.796875 C 54.625 263.925781 52.777344 271.492188 54.730469 279.039062 C 56.628906 286.398438 61.789062 291.992188 68.539062 294.003906 C 70.726562 294.652344 72.976562 294.878906 75.351562 295.128906 C 77.960938 295.398438 80.65625 295.664062 83.246094 296.554688 C 87.1875 297.894531 89.304688 298.617188 92.441406 301.496094 C 95.21875 304.046875 97.386719 307.007812 98.882812 310.300781 C 100.65625 314.203125 101.132812 318.453125 101.597656 322.574219 C 101.699219 323.46875 101.792969 324.367188 101.90625 325.257812 C 102.867188 332.78125 107.035156 339.023438 113.363281 342.378906 C 119.679688 345.734375 127.183594 345.683594 133.964844 342.253906 C 143.203125 337.578125 145.027344 329.640625 146.609375 318.960938 C 148.753906 304.5 159.015625 296.265625 174.132812 296.925781 C 187.5 297.503906 197.355469 307.007812 198.667969 320.582031 C 198.914062 323.210938 199.484375 326.039062 200.351562 328.972656 C 203.199219 338.714844 211.507812 344.855469 221.25 344.855469 Z M 221.25 344.855469 " fill-opacity="1" fill-rule="nonzero"/></g><g clip-path="url(#41987334cb)"><path fill="#ff6f61" d="M 223.4375 351.050781 C 234.9375 351.050781 244.875 360.628906 245.195312 372.09375 C 245.359375 378.082031 243.132812 383.765625 238.921875 388.113281 C 234.730469 392.425781 229.15625 394.8125 223.222656 394.820312 C 223.210938 394.820312 223.203125 394.820312 223.191406 394.820312 C 217.390625 394.820312 211.878906 392.476562 207.667969 388.226562 C 203.414062 383.933594 201.011719 378.058594 201.082031 372.113281 C 201.21875 360.855469 211.320312 351.203125 223.171875 351.050781 C 223.261719 351.050781 223.347656 351.050781 223.4375 351.050781 Z M 223.191406 392.757812 C 223.203125 392.757812 223.210938 392.757812 223.222656 392.757812 C 228.589844 392.746094 233.644531 390.578125 237.445312 386.667969 C 241.261719 382.726562 243.285156 377.574219 243.140625 372.144531 C 242.84375 361.773438 233.851562 353.113281 223.449219 353.113281 C 223.367188 353.113281 223.285156 353.113281 223.203125 353.113281 C 212.445312 353.257812 203.269531 361.96875 203.15625 372.136719 C 203.09375 377.53125 205.285156 382.859375 209.144531 386.769531 C 212.953125 390.628906 217.949219 392.757812 223.191406 392.757812 Z M 223.191406 392.757812 " fill-opacity="1" fill-rule="nonzero"/></g><path fill="#ff6f61" d="M 123.777344 351.050781 C 135.273438 351.050781 145.214844 360.628906 145.535156 372.09375 C 145.699219 378.082031 143.46875 383.765625 139.257812 388.113281 C 135.070312 392.425781 129.496094 394.8125 123.5625 394.820312 C 123.550781 394.820312 123.539062 394.820312 123.519531 394.820312 C 117.71875 394.820312 112.207031 392.476562 107.996094 388.226562 C 103.742188 383.933594 101.347656 378.058594 101.410156 372.113281 C 101.535156 360.855469 111.648438 351.203125 123.488281 351.050781 C 123.589844 351.050781 123.683594 351.050781 123.777344 351.050781 Z M 123.519531 392.757812 C 123.53125 392.757812 123.539062 392.757812 123.550781 392.757812 C 128.917969 392.746094 133.976562 390.589844 137.773438 386.675781 C 141.589844 382.734375 143.613281 377.585938 143.46875 372.15625 C 143.179688 361.78125 134.191406 353.125 123.777344 353.125 C 123.695312 353.125 123.613281 353.125 123.53125 353.125 C 112.773438 353.269531 103.597656 361.980469 103.484375 372.144531 C 103.425781 377.542969 105.601562 382.871094 109.472656 386.78125 C 113.289062 390.628906 118.277344 392.757812 123.519531 392.757812 Z M 123.519531 392.757812 " fill-opacity="1" fill-rule="nonzero"/><path fill="#ff6f61" d="M 172.441406 402.335938 C 183.941406 402.335938 193.878906 411.914062 194.199219 423.378906 C 194.363281 429.367188 192.132812 435.054688 187.921875 439.398438 C 183.734375 443.710938 178.160156 446.097656 172.226562 446.105469 C 172.214844 446.105469 172.203125 446.105469 172.183594 446.105469 C 166.382812 446.105469 160.871094 443.765625 156.660156 439.511719 C 152.410156 435.21875 150.003906 429.34375 150.074219 423.402344 C 150.199219 412.140625 160.3125 402.488281 172.152344 402.335938 C 172.257812 402.335938 172.347656 402.335938 172.441406 402.335938 Z M 172.195312 444.03125 C 172.203125 444.03125 172.214844 444.03125 172.226562 444.03125 C 177.59375 444.023438 182.648438 441.863281 186.449219 437.953125 C 190.265625 434.011719 192.289062 428.859375 192.144531 423.429688 C 191.855469 413.058594 182.867188 404.398438 172.453125 404.398438 C 172.371094 404.398438 172.285156 404.398438 172.203125 404.398438 C 161.449219 404.542969 152.273438 413.253906 152.160156 423.421875 C 152.097656 428.820312 154.285156 434.144531 158.148438 438.054688 C 161.957031 441.917969 166.949219 444.03125 172.195312 444.03125 Z M 172.195312 444.03125 " fill-opacity="1" fill-rule="nonzero"/><path fill="#ff6f61" d="M 75.113281 402.335938 C 86.609375 402.335938 96.550781 411.914062 96.871094 423.378906 C 97.035156 429.367188 94.804688 435.054688 90.59375 439.398438 C 86.40625 443.710938 80.832031 446.097656 74.894531 446.105469 C 74.886719 446.105469 74.875 446.105469 74.855469 446.105469 C 69.054688 446.105469 63.542969 443.765625 59.332031 439.511719 C 55.078125 435.21875 52.675781 429.34375 52.746094 423.402344 C 52.871094 412.140625 62.984375 402.488281 74.824219 402.335938 C 74.925781 402.335938 75.019531 402.335938 75.113281 402.335938 Z M 74.855469 444.03125 C 74.867188 444.03125 74.875 444.03125 74.886719 444.03125 C 80.253906 444.023438 85.308594 441.863281 89.109375 437.953125 C 92.9375 434.011719 94.949219 428.859375 94.804688 423.429688 C 94.515625 413.058594 85.527344 404.398438 75.113281 404.398438 C 75.03125 404.398438 74.949219 404.398438 74.867188 404.398438 C 64.109375 404.542969 54.933594 413.253906 54.820312 423.421875 C 54.757812 428.820312 56.9375 434.144531 60.808594 438.054688 C 64.625 441.917969 69.613281 444.03125 74.855469 444.03125 Z M 74.855469 444.03125 " fill-opacity="1" fill-rule="nonzero"/><g clip-path="url(#e6b9c9393d)"><path fill="#ff6f61" d="M 173.144531 348.613281 C 174.371094 348.613281 175.609375 348.707031 176.847656 348.882812 C 185.230469 350.128906 191.699219 355.320312 194.167969 362.785156 C 195.167969 365.796875 195.652344 368.945312 195.964844 371.339844 C 198.574219 391.40625 204.375 397.320312 224.171875 400.105469 C 236.753906 401.890625 244.957031 410.996094 245.0625 423.308594 C 245.15625 435.03125 236.722656 445.261719 225.460938 447.097656 C 213.046875 449.132812 201.898438 442.121094 198.359375 430.066406 C 197.460938 427.011719 196.871094 424.0625 196.605469 421.292969 C 195.40625 408.796875 186.332031 400.042969 174.042969 399.507812 C 160.128906 398.910156 150.621094 406.472656 148.660156 419.757812 C 147.320312 428.808594 145.8125 439.066406 134.902344 444.589844 C 127.523438 448.324219 119.328125 448.367188 112.402344 444.691406 C 105.476562 441.019531 100.914062 434.207031 99.863281 426.011719 C 99.75 425.113281 99.644531 424.207031 99.542969 423.296875 C 99.097656 419.34375 98.644531 415.246094 97.003906 411.644531 C 95.621094 408.609375 93.609375 405.875 91.039062 403.5 C 88.222656 400.910156 86.363281 400.28125 82.65625 399.023438 C 80.203125 398.1875 77.734375 397.9375 75.132812 397.667969 C 72.757812 397.433594 70.3125 397.183594 67.941406 396.472656 C 60.5 394.253906 54.800781 388.113281 52.726562 380.050781 C 50.601562 371.804688 52.644531 363.507812 58.1875 357.851562 C 61.707031 354.269531 66.566406 351.9375 71.894531 351.285156 C 85.589844 349.613281 97.105469 358.964844 99.296875 373.527344 C 99.472656 374.675781 99.59375 375.851562 99.71875 376.996094 C 100.027344 379.875 100.316406 382.589844 101.296875 385.015625 C 105.003906 394.160156 115.800781 400.621094 125.355469 399.457031 C 136.65625 398.0625 144.480469 391.09375 147.382812 379.855469 C 147.878906 377.925781 148.300781 375.859375 148.703125 373.867188 C 149.839844 368.273438 151.003906 362.484375 154.226562 357.921875 C 158.375 352.070312 165.535156 348.613281 173.144531 348.613281 Z M 221.25 445.382812 C 222.519531 445.382812 223.808594 445.28125 225.121094 445.066406 C 235.234375 443.414062 243.078125 433.867188 242.996094 423.328125 C 242.90625 412.089844 235.402344 403.78125 223.882812 402.160156 C 203.09375 399.226562 196.65625 392.664062 193.910156 371.617188 C 193.609375 369.308594 193.144531 366.292969 192.195312 363.445312 C 189.976562 356.734375 184.125 352.070312 176.539062 350.933594 C 168.375 349.726562 160.285156 352.949219 155.917969 359.140625 C 152.957031 363.351562 151.820312 368.914062 150.734375 374.300781 C 150.324219 376.316406 149.910156 378.398438 149.394531 380.390625 C 146.308594 392.34375 137.636719 400.042969 125.625 401.53125 C 115.191406 402.808594 103.425781 395.769531 99.398438 385.820312 C 98.304688 383.117188 97.984375 380.132812 97.675781 377.242188 C 97.550781 376.128906 97.4375 374.972656 97.261719 373.867188 C 95.238281 360.453125 84.679688 351.84375 72.152344 353.371094 C 67.289062 353.96875 62.851562 356.085938 59.664062 359.328125 C 54.625 364.457031 52.777344 372.023438 54.730469 379.566406 C 56.628906 386.925781 61.789062 392.519531 68.539062 394.53125 C 70.726562 395.183594 72.976562 395.410156 75.351562 395.65625 C 77.960938 395.925781 80.65625 396.195312 83.246094 397.082031 C 87.1875 398.421875 89.304688 399.144531 92.441406 402.023438 C 95.21875 404.574219 97.386719 407.535156 98.882812 410.828125 C 100.65625 414.730469 101.132812 418.984375 101.597656 423.101562 C 101.699219 424 101.792969 424.898438 101.90625 425.785156 C 102.867188 433.308594 107.035156 439.554688 113.363281 442.90625 C 119.679688 446.261719 127.183594 446.210938 133.964844 442.785156 C 143.203125 438.109375 145.027344 430.171875 146.609375 419.488281 C 148.753906 405.027344 159.015625 396.792969 174.132812 397.453125 C 187.5 398.03125 197.355469 407.535156 198.667969 421.109375 C 198.914062 423.742188 199.484375 426.570312 200.351562 429.5 C 203.199219 439.242188 211.507812 445.382812 221.25 445.382812 Z M 221.25 445.382812 " fill-opacity="1" fill-rule="nonzero"/></g></svg>