<svg xmlns="http://www.w3.org/2000/svg" xmlns:xlink="http://www.w3.org/1999/xlink" width="400" zoomAndPan="magnify" viewBox="0 0 300 149.999998" height="200" preserveAspectRatio="xMidYMid meet" version="1.0"><path fill="#ff6f61" d="M 253.316406 7.792969 C 269.484375 7.792969 283.460938 21.261719 283.914062 37.390625 C 284.144531 45.808594 281.007812 53.804688 275.085938 59.917969 C 269.195312 65.984375 261.355469 69.335938 253.011719 69.351562 C 252.996094 69.351562 252.980469 69.351562 252.964844 69.351562 C 244.808594 69.351562 237.058594 66.054688 231.136719 60.078125 C 225.15625 54.039062 221.773438 45.777344 221.875 37.417969 C 222.066406 21.582031 236.273438 8.011719 252.9375 7.792969 C 253.066406 7.792969 253.183594 7.792969 253.316406 7.792969 Z M 252.964844 66.449219 C 252.980469 66.449219 252.996094 66.449219 253.011719 66.449219 C 260.558594 66.433594 267.671875 63.386719 273.011719 57.882812 C 278.382812 52.339844 281.226562 45.097656 281.023438 37.460938 C 280.601562 22.875 267.960938 10.695312 253.328125 10.695312 C 253.214844 10.695312 253.097656 10.695312 252.980469 10.695312 C 237.855469 10.898438 224.953125 23.148438 224.792969 37.449219 C 224.707031 45.039062 227.785156 52.527344 233.210938 58.03125 C 238.566406 63.457031 245.59375 66.449219 252.964844 66.449219 Z M 252.964844 66.449219 " fill-opacity="1" fill-rule="nonzero"/><path fill="#ff6f61" d="M 113.160156 7.792969 C 129.328125 7.792969 143.308594 21.261719 143.757812 37.390625 C 143.988281 45.808594 140.855469 53.804688 134.929688 59.917969 C 129.039062 65.984375 121.199219 69.335938 112.855469 69.351562 C 112.839844 69.351562 112.824219 69.351562 112.796875 69.351562 C 104.640625 69.351562 96.886719 66.054688 90.964844 60.078125 C 84.984375 54.039062 81.617188 45.777344 81.707031 37.417969 C 81.878906 21.582031 96.105469 8.011719 112.753906 7.792969 C 112.898438 7.792969 113.027344 7.792969 113.160156 7.792969 Z M 112.796875 66.449219 C 112.8125 66.449219 112.824219 66.449219 112.839844 66.449219 C 120.386719 66.433594 127.5 63.398438 132.839844 57.898438 C 138.210938 52.355469 141.058594 45.113281 140.855469 37.476562 C 140.449219 22.890625 127.804688 10.710938 113.160156 10.710938 C 113.042969 10.710938 112.925781 10.710938 112.8125 10.710938 C 97.6875 10.914062 84.78125 23.164062 84.621094 37.460938 C 84.535156 45.054688 87.597656 52.542969 93.042969 58.042969 C 98.414062 63.457031 105.421875 66.449219 112.796875 66.449219 Z M 112.796875 66.449219 " fill-opacity="1" fill-rule="nonzero"/><path fill="#ff6f61" d="M 181.597656 79.917969 C 197.765625 79.917969 211.746094 93.386719 212.195312 109.515625 C 212.425781 117.933594 209.292969 125.929688 203.371094 132.039062 C 197.476562 138.109375 189.636719 141.460938 181.292969 141.476562 C 181.277344 141.476562 181.261719 141.476562 181.234375 141.476562 C 173.078125 141.476562 165.324219 138.179688 159.402344 132.199219 C 153.421875 126.164062 150.042969 117.902344 150.144531 109.542969 C 150.316406 93.707031 164.542969 80.136719 181.191406 79.917969 C 181.335938 79.917969 181.464844 79.917969 181.597656 79.917969 Z M 181.25 138.558594 C 181.261719 138.558594 181.277344 138.558594 181.292969 138.558594 C 188.839844 138.542969 195.953125 135.511719 201.292969 130.007812 C 206.664062 124.464844 209.507812 117.222656 209.304688 109.585938 C 208.898438 95 196.257812 82.820312 181.613281 82.820312 C 181.496094 82.820312 181.378906 82.820312 181.261719 82.820312 C 166.136719 83.023438 153.234375 95.273438 153.074219 109.570312 C 152.988281 117.164062 156.066406 124.652344 161.492188 130.152344 C 166.851562 135.582031 173.875 138.558594 181.25 138.558594 Z M 181.25 138.558594 " fill-opacity="1" fill-rule="nonzero"/><path fill="#ff6f61" d="M 44.722656 79.917969 C 60.890625 79.917969 74.867188 93.386719 75.320312 109.515625 C 75.550781 117.933594 72.414062 125.929688 66.492188 132.039062 C 60.601562 138.109375 52.761719 141.460938 44.417969 141.476562 C 44.402344 141.476562 44.386719 141.476562 44.359375 141.476562 C 36.203125 141.476562 28.449219 138.179688 22.527344 132.199219 C 16.546875 126.164062 13.167969 117.902344 13.269531 109.542969 C 13.441406 93.707031 27.667969 80.136719 44.316406 79.917969 C 44.460938 79.917969 44.589844 79.917969 44.722656 79.917969 Z M 44.359375 138.558594 C 44.375 138.558594 44.386719 138.558594 44.402344 138.558594 C 51.949219 138.542969 59.0625 135.511719 64.402344 130.007812 C 69.789062 124.464844 72.621094 117.222656 72.414062 109.585938 C 72.007812 95 59.367188 82.820312 44.722656 82.820312 C 44.605469 82.820312 44.488281 82.820312 44.375 82.820312 C 29.25 83.023438 16.34375 95.273438 16.183594 109.570312 C 16.097656 117.164062 19.160156 124.652344 24.605469 130.152344 C 29.972656 135.582031 36.984375 138.558594 44.359375 138.558594 Z M 44.359375 138.558594 " fill-opacity="1" fill-rule="nonzero"/><path fill="#ff6f61" d="M 182.585938 4.367188 C 184.3125 4.367188 186.054688 4.5 187.792969 4.746094 C 199.582031 6.5 208.683594 13.804688 212.152344 24.296875 C 213.558594 28.535156 214.242188 32.960938 214.675781 36.328125 C 218.347656 64.546875 226.507812 72.863281 254.34375 76.78125 C 272.039062 79.292969 283.578125 92.097656 283.722656 109.414062 C 283.855469 125.902344 271.996094 140.285156 256.160156 142.867188 C 238.699219 145.730469 223.023438 135.871094 218.042969 118.917969 C 216.78125 114.625 215.953125 110.472656 215.578125 106.582031 C 213.894531 89.003906 201.132812 76.695312 183.847656 75.941406 C 164.28125 75.097656 150.914062 85.738281 148.15625 104.417969 C 146.269531 117.148438 144.148438 131.578125 128.804688 139.34375 C 118.429688 144.597656 106.902344 144.65625 97.164062 139.488281 C 87.425781 134.320312 81.007812 124.738281 79.527344 113.214844 C 79.367188 111.953125 79.222656 110.675781 79.078125 109.398438 C 78.453125 103.839844 77.816406 98.078125 75.507812 93.011719 C 73.5625 88.742188 70.730469 84.898438 67.117188 81.558594 C 63.15625 77.914062 60.542969 77.03125 55.332031 75.257812 C 51.878906 74.082031 48.410156 73.734375 44.75 73.355469 C 41.414062 73.023438 37.972656 72.675781 34.632812 71.671875 C 24.167969 68.554688 16.15625 59.917969 13.238281 48.582031 C 10.25 36.984375 13.121094 25.3125 20.917969 17.359375 C 25.867188 12.320312 32.703125 9.042969 40.191406 8.128906 C 59.453125 5.777344 75.652344 18.925781 78.730469 39.40625 C 78.976562 41.019531 79.152344 42.671875 79.324219 44.285156 C 79.761719 48.332031 80.167969 52.152344 81.546875 55.5625 C 86.757812 68.421875 101.9375 77.507812 115.378906 75.867188 C 131.273438 73.910156 142.277344 64.113281 146.355469 48.304688 C 147.050781 45.589844 147.648438 42.6875 148.210938 39.886719 C 149.808594 32.019531 151.449219 23.875 155.976562 17.460938 C 161.8125 9.230469 171.886719 4.367188 182.585938 4.367188 Z M 250.238281 140.460938 C 252.023438 140.460938 253.835938 140.316406 255.679688 140.007812 C 269.90625 137.6875 280.9375 124.261719 280.820312 109.441406 C 280.691406 93.632812 270.136719 81.949219 253.9375 79.671875 C 224.707031 75.550781 215.648438 66.316406 211.789062 36.722656 C 211.367188 33.46875 210.714844 29.230469 209.378906 25.226562 C 206.257812 15.792969 198.027344 9.230469 187.359375 7.632812 C 175.878906 5.9375 164.5 10.464844 158.359375 19.171875 C 154.191406 25.09375 152.597656 32.917969 151.070312 40.496094 C 150.492188 43.324219 149.910156 46.257812 149.183594 49.058594 C 144.84375 65.867188 132.652344 76.695312 115.757812 78.785156 C 101.082031 80.585938 84.535156 70.6875 78.875 56.695312 C 77.335938 52.890625 76.886719 48.695312 76.449219 44.632812 C 76.277344 43.066406 76.117188 41.4375 75.871094 39.886719 C 73.027344 21.015625 58.175781 8.910156 40.554688 11.058594 C 33.71875 11.902344 27.476562 14.875 22.992188 19.433594 C 15.910156 26.648438 13.3125 37.289062 16.054688 47.898438 C 18.726562 58.246094 25.984375 66.113281 35.476562 68.945312 C 38.554688 69.859375 41.71875 70.179688 45.054688 70.527344 C 48.726562 70.90625 52.515625 71.28125 56.160156 72.53125 C 61.703125 74.417969 64.679688 75.433594 69.09375 79.484375 C 72.996094 83.066406 76.042969 87.234375 78.148438 91.863281 C 80.644531 97.351562 81.3125 103.332031 81.96875 109.121094 C 82.113281 110.386719 82.242188 111.648438 82.402344 112.894531 C 83.753906 123.476562 89.617188 132.257812 98.515625 136.976562 C 107.398438 141.695312 117.949219 141.621094 127.484375 136.800781 C 140.476562 130.226562 143.046875 119.066406 145.265625 104.042969 C 148.285156 83.707031 162.714844 72.125 183.976562 73.050781 C 202.773438 73.867188 216.636719 87.234375 218.480469 106.320312 C 218.828125 110.023438 219.625 114 220.84375 118.121094 C 224.851562 131.824219 236.535156 140.460938 250.238281 140.460938 Z M 250.238281 140.460938 " fill-opacity="1" fill-rule="nonzero"/></svg>