<svg xmlns="http://www.w3.org/2000/svg" xmlns:xlink="http://www.w3.org/1999/xlink" width="400" zoomAndPan="magnify" viewBox="0 0 300 149.999998" height="200" preserveAspectRatio="xMidYMid meet" version="1.0"><defs><clipPath id="a056e41378"><path d="M 13 5.023438 L 284 5.023438 L 284 143 L 13 143 Z M 13 5.023438 " clip-rule="nonzero"/></clipPath></defs><path fill="#202b3d" d="M 253.5 8.183594 C 269.578125 8.183594 283.472656 21.574219 283.921875 37.609375 C 284.152344 45.976562 281.035156 53.929688 275.148438 60.003906 C 269.289062 66.035156 261.496094 69.371094 253.199219 69.382812 C 253.183594 69.382812 253.167969 69.382812 253.15625 69.382812 C 245.046875 69.382812 237.339844 66.109375 231.453125 60.164062 C 225.507812 54.160156 222.144531 45.949219 222.246094 37.636719 C 222.433594 21.894531 236.558594 8.398438 253.125 8.183594 C 253.257812 8.183594 253.371094 8.183594 253.5 8.183594 Z M 253.15625 66.496094 C 253.167969 66.496094 253.183594 66.496094 253.199219 66.496094 C 260.703125 66.484375 267.773438 63.453125 273.085938 57.984375 C 278.421875 52.472656 281.25 45.269531 281.050781 37.679688 C 280.632812 23.175781 268.0625 11.070312 253.515625 11.070312 C 253.402344 11.070312 253.285156 11.070312 253.167969 11.070312 C 238.132812 11.273438 225.304688 23.449219 225.144531 37.664062 C 225.058594 45.210938 228.117188 52.660156 233.515625 58.128906 C 238.839844 63.523438 245.824219 66.496094 253.15625 66.496094 Z M 253.15625 66.496094 " fill-opacity="1" fill-rule="nonzero"/><path fill="#202b3d" d="M 114.160156 8.183594 C 130.234375 8.183594 144.132812 21.574219 144.578125 37.609375 C 144.808594 45.976562 141.691406 53.929688 135.804688 60.003906 C 129.945312 66.035156 122.152344 69.371094 113.855469 69.382812 C 113.839844 69.382812 113.828125 69.382812 113.796875 69.382812 C 105.6875 69.382812 97.984375 66.109375 92.09375 60.164062 C 86.148438 54.160156 82.800781 45.949219 82.886719 37.636719 C 83.0625 21.894531 97.203125 8.398438 113.753906 8.183594 C 113.898438 8.183594 114.03125 8.183594 114.160156 8.183594 Z M 113.796875 66.496094 C 113.8125 66.496094 113.828125 66.496094 113.839844 66.496094 C 121.34375 66.484375 128.417969 63.46875 133.726562 58 C 139.066406 52.484375 141.894531 45.285156 141.691406 37.695312 C 141.289062 23.191406 128.71875 11.085938 114.160156 11.085938 C 114.042969 11.085938 113.929688 11.085938 113.8125 11.085938 C 98.777344 11.285156 85.945312 23.464844 85.789062 37.679688 C 85.703125 45.226562 88.746094 52.671875 94.160156 58.140625 C 99.496094 63.523438 106.46875 66.496094 113.796875 66.496094 Z M 113.796875 66.496094 " fill-opacity="1" fill-rule="nonzero"/><path fill="#202b3d" d="M 182.199219 79.890625 C 198.277344 79.890625 212.171875 93.28125 212.621094 109.3125 C 212.851562 117.683594 209.734375 125.632812 203.847656 131.710938 C 197.988281 137.742188 190.195312 141.074219 181.898438 141.089844 C 181.882812 141.089844 181.867188 141.089844 181.839844 141.089844 C 173.730469 141.089844 166.023438 137.8125 160.136719 131.867188 C 154.191406 125.867188 150.828125 117.65625 150.929688 109.34375 C 151.101562 93.597656 165.242188 80.105469 181.796875 79.890625 C 181.941406 79.890625 182.070312 79.890625 182.199219 79.890625 Z M 181.851562 138.1875 C 181.867188 138.1875 181.882812 138.1875 181.898438 138.1875 C 189.402344 138.175781 196.472656 135.160156 201.78125 129.691406 C 207.121094 124.175781 209.949219 116.976562 209.746094 109.386719 C 209.34375 94.882812 196.773438 82.777344 182.214844 82.777344 C 182.097656 82.777344 181.984375 82.777344 181.867188 82.777344 C 166.832031 82.976562 154.003906 95.15625 153.84375 109.371094 C 153.757812 116.917969 156.816406 124.363281 162.214844 129.835938 C 167.539062 135.230469 174.523438 138.1875 181.851562 138.1875 Z M 181.851562 138.1875 " fill-opacity="1" fill-rule="nonzero"/><path fill="#202b3d" d="M 46.117188 79.890625 C 62.195312 79.890625 76.089844 93.28125 76.539062 109.3125 C 76.769531 117.683594 73.652344 125.632812 67.765625 131.710938 C 61.90625 137.742188 54.113281 141.074219 45.816406 141.089844 C 45.800781 141.089844 45.785156 141.089844 45.757812 141.089844 C 37.648438 141.089844 29.941406 137.8125 24.054688 131.867188 C 18.109375 125.867188 14.746094 117.65625 14.847656 109.34375 C 15.019531 93.597656 29.164062 80.105469 45.714844 79.890625 C 45.859375 79.890625 45.988281 79.890625 46.117188 79.890625 Z M 45.757812 138.1875 C 45.773438 138.1875 45.785156 138.1875 45.800781 138.1875 C 53.304688 138.175781 60.375 135.160156 65.6875 129.691406 C 71.039062 124.175781 73.855469 116.976562 73.652344 109.386719 C 73.25 94.882812 60.679688 82.777344 46.117188 82.777344 C 46.003906 82.777344 45.886719 82.777344 45.773438 82.777344 C 30.734375 82.976562 17.90625 95.15625 17.746094 109.371094 C 17.660156 116.917969 20.707031 124.363281 26.117188 129.835938 C 31.457031 135.230469 38.425781 138.1875 45.757812 138.1875 Z M 45.757812 138.1875 " fill-opacity="1" fill-rule="nonzero"/><g clip-path="url(#a056e41378)"><path fill="#202b3d" d="M 183.179688 4.777344 C 184.898438 4.777344 186.628906 4.90625 188.363281 5.152344 C 200.078125 6.898438 209.128906 14.15625 212.578125 24.589844 C 213.976562 28.804688 214.65625 33.207031 215.085938 36.554688 C 218.738281 64.605469 226.847656 72.875 254.527344 76.773438 C 272.117188 79.269531 283.589844 91.996094 283.734375 109.210938 C 283.863281 125.605469 272.074219 139.90625 256.332031 142.476562 C 238.96875 145.316406 223.386719 135.519531 218.433594 118.664062 C 217.179688 114.394531 216.355469 110.265625 215.980469 106.398438 C 214.308594 88.921875 201.625 76.6875 184.4375 75.933594 C 164.984375 75.097656 151.695312 85.675781 148.953125 104.25 C 147.074219 116.902344 144.96875 131.25 129.714844 138.96875 C 119.398438 144.191406 107.941406 144.25 98.257812 139.113281 C 88.574219 133.976562 82.195312 124.453125 80.722656 112.992188 C 80.566406 111.738281 80.421875 110.46875 80.277344 109.199219 C 79.65625 103.671875 79.019531 97.941406 76.726562 92.90625 C 74.792969 88.664062 71.976562 84.839844 68.386719 81.519531 C 64.445312 77.898438 61.847656 77.019531 56.667969 75.257812 C 53.234375 74.089844 49.785156 73.742188 46.148438 73.367188 C 42.828125 73.035156 39.410156 72.6875 36.089844 71.691406 C 25.683594 68.589844 17.71875 60.003906 14.820312 48.734375 C 11.847656 37.203125 14.703125 25.601562 22.453125 17.691406 C 27.375 12.6875 34.171875 9.425781 41.617188 8.515625 C 60.765625 6.175781 76.871094 19.25 79.929688 39.613281 C 80.175781 41.214844 80.347656 42.859375 80.519531 44.460938 C 80.953125 48.488281 81.359375 52.285156 82.730469 55.675781 C 87.910156 68.460938 103.003906 77.492188 116.367188 75.863281 C 132.167969 73.914062 143.105469 64.175781 147.164062 48.460938 C 147.855469 45.761719 148.445312 42.875 149.007812 40.089844 C 150.597656 32.269531 152.226562 24.171875 156.730469 17.792969 C 162.53125 9.613281 172.546875 4.777344 183.179688 4.777344 Z M 250.441406 140.078125 C 252.21875 140.078125 254.019531 139.933594 255.855469 139.632812 C 269.996094 137.324219 280.964844 123.976562 280.847656 109.242188 C 280.71875 93.527344 270.226562 81.910156 254.121094 79.644531 C 225.058594 75.546875 216.054688 66.367188 212.214844 36.945312 C 211.796875 33.710938 211.148438 29.496094 209.820312 25.515625 C 206.71875 16.136719 198.535156 9.613281 187.929688 8.023438 C 176.515625 6.335938 165.199219 10.839844 159.097656 19.496094 C 154.953125 25.386719 153.367188 33.164062 151.851562 40.695312 C 151.273438 43.507812 150.699219 46.425781 149.976562 49.210938 C 145.660156 65.921875 133.539062 76.6875 116.742188 78.765625 C 102.152344 80.554688 85.703125 70.710938 80.074219 56.800781 C 78.542969 53.019531 78.097656 48.847656 77.664062 44.808594 C 77.492188 43.25 77.332031 41.632812 77.085938 40.089844 C 74.257812 21.328125 59.496094 9.292969 41.976562 11.429688 C 35.179688 12.265625 28.976562 15.226562 24.515625 19.757812 C 17.472656 26.929688 14.890625 37.507812 17.617188 48.054688 C 20.273438 58.34375 27.488281 66.164062 36.925781 68.980469 C 39.984375 69.890625 43.132812 70.207031 46.449219 70.554688 C 50.101562 70.929688 53.867188 71.304688 57.488281 72.542969 C 63.003906 74.421875 65.960938 75.429688 70.347656 79.457031 C 74.230469 83.019531 77.261719 87.164062 79.351562 91.765625 C 81.835938 97.21875 82.5 103.167969 83.148438 108.925781 C 83.292969 110.179688 83.421875 111.433594 83.582031 112.675781 C 84.921875 123.195312 90.753906 131.925781 99.597656 136.617188 C 108.429688 141.304688 118.921875 141.234375 128.402344 136.441406 C 141.316406 129.90625 143.871094 118.808594 146.078125 103.875 C 149.082031 83.65625 163.425781 72.140625 184.566406 73.0625 C 203.253906 73.871094 217.035156 87.164062 218.867188 106.140625 C 219.214844 109.820312 220.007812 113.773438 221.21875 117.871094 C 225.203125 131.492188 236.820312 140.078125 250.441406 140.078125 Z M 250.441406 140.078125 " fill-opacity="1" fill-rule="nonzero"/></g><path fill="#202b3d" d="M 45.433594 90.070312 C 46.363281 90.070312 47.152344 90.109375 47.796875 90.1875 C 51.722656 90.667969 55.179688 92.0625 58.167969 94.367188 C 60.382812 96.078125 62.171875 98.144531 63.527344 100.566406 C 64.929688 103.058594 65.785156 105.65625 66.101562 108.351562 C 66.460938 111.390625 66.191406 114.304688 65.300781 117.09375 C 62.574219 125.636719 54.433594 131.75 45.402344 131.742188 C 36.371094 131.734375 28.242188 125.609375 25.527344 117.066406 C 24.640625 114.273438 24.375 111.359375 24.738281 108.324219 C 25.058594 105.625 25.917969 103.03125 27.324219 100.539062 C 28.683594 98.121094 30.472656 96.058594 32.691406 94.351562 C 35.683594 92.046875 39.140625 90.660156 43.066406 90.183594 C 43.710938 90.105469 44.5 90.070312 45.433594 90.070312 Z M 45.382812 122.84375 C 45.390625 122.859375 45.394531 122.890625 45.394531 122.933594 C 45.40625 123.972656 45.398438 125.15625 45.367188 126.492188 C 45.355469 126.960938 45.527344 127.28125 45.875 127.441406 C 46.246094 127.617188 46.578125 127.597656 46.871094 127.386719 C 51.773438 123.886719 54.566406 121.902344 55.257812 121.421875 C 56.667969 120.453125 57.632812 119.691406 58.160156 119.144531 C 60.269531 116.949219 61.5625 114.21875 61.734375 111.210938 C 61.964844 107.105469 60.128906 103.273438 56.886719 100.75 C 55.324219 99.53125 53.566406 98.742188 51.613281 98.378906 C 50.824219 98.230469 49.476562 98.164062 47.566406 98.175781 C 45.464844 98.191406 43.746094 98.191406 42.402344 98.179688 C 40.648438 98.164062 39.078125 98.289062 37.59375 98.808594 C 34.917969 99.742188 32.808594 101.335938 31.257812 103.589844 C 29.832031 105.667969 29.085938 108.015625 29.078125 110.507812 C 29.070312 112.332031 29.488281 114.101562 30.320312 115.828125 C 32.339844 119.992188 36.640625 122.765625 41.316406 122.78125 C 42.738281 122.785156 44.054688 122.78125 45.261719 122.765625 C 45.320312 122.765625 45.359375 122.792969 45.382812 122.84375 Z M 45.382812 122.84375 " fill-opacity="1" fill-rule="nonzero"/><path fill="#202b3d" d="M 45.417969 113.519531 C 46.105469 113.519531 46.667969 113.46875 47.101562 113.363281 C 49.066406 112.894531 50.660156 111.890625 51.882812 110.34375 C 52.179688 109.972656 52.402344 109.753906 52.550781 109.699219 C 52.984375 109.53125 53.351562 109.480469 53.773438 109.6875 C 54.585938 110.085938 54.808594 111.113281 54.21875 111.855469 C 52.039062 114.601562 48.933594 116.257812 45.417969 116.253906 C 41.898438 116.253906 38.792969 114.597656 36.617188 111.847656 C 36.027344 111.105469 36.25 110.078125 37.0625 109.679688 C 37.484375 109.476562 37.851562 109.527344 38.285156 109.691406 C 38.433594 109.75 38.65625 109.964844 38.953125 110.339844 C 40.171875 111.886719 41.765625 112.894531 43.730469 113.363281 C 44.164062 113.46875 44.726562 113.519531 45.417969 113.519531 Z M 45.417969 113.519531 " fill-opacity="1" fill-rule="nonzero"/></svg>