<svg xmlns="http://www.w3.org/2000/svg" xmlns:xlink="http://www.w3.org/1999/xlink" width="2000" zoomAndPan="magnify" viewBox="0 0 1500 1499.999933" height="2000" preserveAspectRatio="xMidYMid meet" version="1.0"><defs><clipPath id="7f5c8b727d"><path d="M 120 102 L 1401 102 L 1401 1379 L 120 1379 Z M 120 102 " clip-rule="nonzero"/></clipPath><clipPath id="166dac7368"><path d="M 955.207031 1220.910156 C 932.78125 1321.601562 839.125 1387.558594 731.832031 1377.445312 C 635.976562 1368.652344 555.949219 1283.789062 552.871094 1185.730469 C 551.550781 1132.085938 539.679688 1082.398438 506.699219 1039.308594 C 461.851562 980.386719 401.609375 950.484375 327.296875 948.726562 C 227.921875 946.089844 151.851562 886.726562 127.230469 791.308594 C 123.273438 775.921875 122.390625 759.652344 120.195312 743.820312 C 121.511719 633.015625 210.335938 541.554688 319.382812 539.796875 C 428.433594 538.035156 526.925781 625.539062 530.445312 739.425781 C 533.964844 853.308594 588.488281 925.421875 686.101562 958.402344 C 709.847656 966.316406 736.230469 968.515625 761.292969 969.832031 C 892.328125 975.988281 983.347656 1093.390625 955.207031 1220.910156 Z M 767.449219 511.652344 C 841.761719 513.414062 902.003906 543.3125 947.292969 602.234375 C 979.832031 645.324219 991.703125 695.011719 993.460938 748.660156 C 996.539062 846.714844 1076.566406 931.578125 1171.984375 940.371094 C 1279.273438 950.484375 1372.933594 884.53125 1395.359375 783.835938 C 1423.941406 656.320312 1332.480469 538.914062 1201.886719 532.757812 C 1176.382812 531.441406 1150 529.242188 1126.253906 521.328125 C 1028.640625 488.347656 974.554688 416.234375 971.035156 302.351562 C 967.519531 188.464844 875.179688 100.960938 759.535156 102.722656 C 650.925781 104.480469 562.105469 196.378906 560.347656 306.746094 C 562.984375 322.578125 563.421875 338.847656 567.382812 354.238281 C 592.003906 449.652344 668.074219 509.015625 767.449219 511.652344 Z M 1201.886719 969.832031 C 1176.382812 968.515625 1150 966.316406 1126.253906 958.402344 C 1028.640625 925.421875 974.554688 853.308594 971.035156 739.425781 C 968.839844 666.871094 930.582031 604.871094 872.980469 570.136719 C 841.761719 548.589844 803.507812 534.957031 761.292969 532.757812 C 736.230469 531.441406 709.847656 529.242188 686.101562 521.328125 C 588.488281 488.347656 533.964844 416.234375 530.445312 302.351562 C 526.925781 188.464844 428.433594 100.960938 319.382812 102.722656 C 210.335938 104.480469 121.511719 196.378906 120.195312 306.746094 C 122.390625 322.578125 123.273438 338.847656 127.230469 354.238281 C 151.851562 449.652344 227.921875 509.015625 327.296875 511.652344 C 401.609375 513.414062 461.851562 543.3125 506.699219 602.234375 C 539.679688 645.324219 551.550781 695.011719 552.871094 748.660156 C 555.070312 817.253906 595.082031 879.691406 651.804688 913.550781 C 684.34375 935.097656 723.480469 947.410156 767.449219 948.726562 C 841.761719 950.484375 902.003906 980.386719 947.292969 1039.308594 C 979.832031 1082.398438 991.703125 1132.085938 993.460938 1185.730469 C 996.539062 1283.789062 1076.566406 1368.652344 1171.984375 1377.445312 C 1279.273438 1387.558594 1372.933594 1321.601562 1395.359375 1220.910156 C 1423.941406 1093.390625 1332.480469 975.988281 1201.886719 969.832031 Z M 1193.089844 511.652344 C 1193.53125 511.652344 1193.53125 511.652344 1193.972656 511.652344 C 1306.976562 510.335938 1397.558594 417.117188 1396.238281 304.109375 C 1395.359375 192.863281 1302.578125 102.28125 1190.011719 102.722656 C 1078.328125 103.601562 986.425781 194.179688 986.867188 307.1875 C 987.304688 420.191406 1080.964844 512.972656 1193.089844 511.652344 Z M 323.339844 969.832031 C 211.652344 970.273438 119.753906 1060.414062 120.195312 1173.859375 C 120.632812 1287.304688 213.851562 1379.644531 326.417969 1378.765625 C 439.863281 1377.445312 530.886719 1284.667969 529.566406 1171.222656 C 528.6875 1059.535156 435.90625 968.953125 323.339844 969.832031 Z M 323.339844 969.832031 " clip-rule="nonzero"/></clipPath><clipPath id="aa32fc4dff"><path d="M 0 0.71875 L 1281 0.71875 L 1281 1276.558594 L 0 1276.558594 Z M 0 0.71875 " clip-rule="nonzero"/></clipPath><clipPath id="3ea6d631a8"><path d="M 835.207031 1118.910156 C 812.78125 1219.601562 719.125 1285.558594 611.832031 1275.445312 C 515.976562 1266.652344 435.949219 1181.789062 432.871094 1083.730469 C 431.550781 1030.085938 419.679688 980.398438 386.699219 937.308594 C 341.851562 878.386719 281.609375 848.484375 207.296875 846.726562 C 107.921875 844.089844 31.851562 784.726562 7.230469 689.308594 C 3.273438 673.921875 2.390625 657.652344 0.195312 641.820312 C 1.511719 531.015625 90.335938 439.554688 199.382812 437.796875 C 308.433594 436.035156 406.925781 523.539062 410.445312 637.425781 C 413.964844 751.308594 468.488281 823.421875 566.101562 856.402344 C 589.847656 864.316406 616.230469 866.515625 641.292969 867.832031 C 772.328125 873.988281 863.347656 991.390625 835.207031 1118.910156 Z M 647.449219 409.652344 C 721.761719 411.414062 782.003906 441.3125 827.292969 500.234375 C 859.832031 543.324219 871.703125 593.011719 873.460938 646.660156 C 876.539062 744.714844 956.566406 829.578125 1051.984375 838.371094 C 1159.273438 848.484375 1252.933594 782.53125 1275.359375 681.835938 C 1303.941406 554.320312 1212.480469 436.914062 1081.886719 430.757812 C 1056.382812 429.441406 1030 427.242188 1006.253906 419.328125 C 908.640625 386.347656 854.554688 314.234375 851.035156 200.351562 C 847.519531 86.464844 755.179688 -1.039062 639.535156 0.722656 C 530.925781 2.480469 442.105469 94.378906 440.347656 204.746094 C 442.984375 220.578125 443.421875 236.847656 447.382812 252.238281 C 472.003906 347.652344 548.074219 407.015625 647.449219 409.652344 Z M 1081.886719 867.832031 C 1056.382812 866.515625 1030 864.316406 1006.253906 856.402344 C 908.640625 823.421875 854.554688 751.308594 851.035156 637.425781 C 848.839844 564.871094 810.582031 502.871094 752.980469 468.136719 C 721.761719 446.589844 683.507812 432.957031 641.292969 430.757812 C 616.230469 429.441406 589.847656 427.242188 566.101562 419.328125 C 468.488281 386.347656 413.964844 314.234375 410.445312 200.351562 C 406.925781 86.464844 308.433594 -1.039062 199.382812 0.722656 C 90.335938 2.480469 1.511719 94.378906 0.195312 204.746094 C 2.390625 220.578125 3.273438 236.847656 7.230469 252.238281 C 31.851562 347.652344 107.921875 407.015625 207.296875 409.652344 C 281.609375 411.414062 341.851562 441.3125 386.699219 500.234375 C 419.679688 543.324219 431.550781 593.011719 432.871094 646.660156 C 435.070312 715.253906 475.082031 777.691406 531.804688 811.550781 C 564.34375 833.097656 603.480469 845.410156 647.449219 846.726562 C 721.761719 848.484375 782.003906 878.386719 827.292969 937.308594 C 859.832031 980.398438 871.703125 1030.085938 873.460938 1083.730469 C 876.539062 1181.789062 956.566406 1266.652344 1051.984375 1275.445312 C 1159.273438 1285.558594 1252.933594 1219.601562 1275.359375 1118.910156 C 1303.941406 991.390625 1212.480469 873.988281 1081.886719 867.832031 Z M 1073.089844 409.652344 C 1073.53125 409.652344 1073.53125 409.652344 1073.972656 409.652344 C 1186.976562 408.335938 1277.558594 315.117188 1276.238281 202.109375 C 1275.359375 90.863281 1182.578125 0.28125 1070.011719 0.722656 C 958.328125 1.601562 866.425781 92.179688 866.867188 205.1875 C 867.304688 318.191406 960.964844 410.972656 1073.089844 409.652344 Z M 203.339844 867.832031 C 91.652344 868.273438 -0.246094 958.414062 0.195312 1071.859375 C 0.632812 1185.304688 93.851562 1277.644531 206.417969 1276.765625 C 319.863281 1275.445312 410.886719 1182.667969 409.566406 1069.222656 C 408.6875 957.535156 315.90625 866.953125 203.339844 867.832031 Z M 203.339844 867.832031 " clip-rule="nonzero"/></clipPath><clipPath id="5133bc24f7"><rect x="0" width="1281" y="0" height="1277"/></clipPath></defs><g clip-path="url(#7f5c8b727d)"><g clip-path="url(#166dac7368)"><g transform="matrix(1, 0, 0, 1, 120, 102)"><g clip-path="url(#5133bc24f7)"><g clip-path="url(#aa32fc4dff)"><g clip-path="url(#3ea6d631a8)"><path fill="#1cabb0" d="M 0.195312 0.722656 L 1280.183594 0.722656 L 1280.183594 1276.324219 L 0.195312 1276.324219 Z M 0.195312 0.722656 " fill-opacity="1" fill-rule="nonzero"/></g></g></g></g></g></g></svg>