<svg xmlns="http://www.w3.org/2000/svg" xmlns:xlink="http://www.w3.org/1999/xlink" width="1760" zoomAndPan="magnify" viewBox="0 0 1320 1320.749939" height="1761" preserveAspectRatio="xMidYMid meet" version="1.0"><defs><clipPath id="f19729bf71"><path d="M 39 0 L 1319.875 0 L 1319.875 1276 L 39 1276 Z M 39 0 " clip-rule="nonzero"/></clipPath><clipPath id="bede515f43"><path d="M 874.476562 1117.976562 C 852.054688 1218.652344 758.414062 1284.597656 651.144531 1274.484375 C 555.304688 1265.691406 475.292969 1180.84375 472.214844 1082.804688 C 470.894531 1029.171875 459.023438 979.492188 426.054688 936.410156 C 381.210938 877.5 320.980469 847.605469 246.683594 845.847656 C 147.328125 843.207031 71.273438 783.859375 46.652344 688.457031 C 42.695312 673.070312 41.816406 656.804688 39.621094 640.980469 C 40.9375 530.191406 129.742188 438.75 238.769531 436.992188 C 347.800781 435.234375 446.277344 522.71875 449.792969 636.582031 C 453.308594 750.445312 507.824219 822.546875 605.421875 855.519531 C 629.160156 863.429688 655.539062 865.628906 680.597656 866.949219 C 811.609375 873.101562 902.609375 990.484375 874.476562 1117.976562 Z M 686.753906 408.855469 C 761.050781 410.613281 821.28125 440.507812 866.5625 499.417969 C 899.09375 542.503906 910.964844 592.179688 912.722656 645.816406 C 915.800781 743.851562 995.8125 828.699219 1091.210938 837.492188 C 1198.480469 847.605469 1292.121094 781.660156 1314.542969 680.984375 C 1343.121094 553.492188 1251.675781 436.113281 1121.105469 429.957031 C 1095.609375 428.636719 1069.230469 426.441406 1045.492188 418.527344 C 947.894531 385.554688 893.816406 313.457031 890.300781 199.589844 C 886.785156 85.726562 794.460938 -1.757812 678.839844 0 C 570.25 1.757812 481.445312 93.640625 479.6875 203.988281 C 482.324219 219.816406 482.765625 236.082031 486.722656 251.46875 C 511.339844 346.867188 587.398438 406.21875 686.753906 408.855469 Z M 1121.105469 866.949219 C 1095.609375 865.628906 1069.230469 863.429688 1045.492188 855.519531 C 947.894531 822.546875 893.816406 750.445312 890.300781 636.582031 C 888.101562 564.042969 849.855469 502.054688 792.265625 467.324219 C 761.050781 445.785156 722.800781 432.15625 680.597656 429.957031 C 655.539062 428.636719 629.160156 426.441406 605.421875 418.527344 C 507.824219 385.554688 453.308594 313.457031 449.792969 199.589844 C 446.277344 85.726562 347.800781 -1.757812 238.769531 0 C 129.742188 1.757812 40.9375 93.640625 39.621094 203.988281 C 41.816406 219.816406 42.695312 236.082031 46.652344 251.46875 C 71.273438 346.867188 147.328125 406.21875 246.683594 408.855469 C 320.980469 410.613281 381.210938 440.507812 426.054688 499.417969 C 459.023438 542.503906 470.894531 592.179688 472.214844 645.816406 C 474.414062 714.398438 514.417969 776.824219 571.128906 810.675781 C 603.664062 832.21875 642.789062 844.527344 686.753906 845.847656 C 761.050781 847.605469 821.28125 877.5 866.5625 936.410156 C 899.09375 979.492188 910.964844 1029.171875 912.722656 1082.804688 C 915.800781 1180.84375 995.8125 1265.691406 1091.210938 1274.484375 C 1198.480469 1284.597656 1292.121094 1218.652344 1314.542969 1117.976562 C 1343.121094 990.484375 1251.675781 873.101562 1121.105469 866.949219 Z M 1112.3125 408.855469 C 1112.753906 408.855469 1112.753906 408.855469 1113.191406 408.855469 C 1226.179688 407.535156 1316.742188 314.335938 1315.421875 201.351562 C 1314.542969 90.125 1221.78125 -0.441406 1109.238281 0 C 997.570312 0.878906 905.6875 91.441406 906.128906 204.425781 C 906.566406 317.410156 1000.207031 410.171875 1112.3125 408.855469 Z M 242.726562 866.949219 C 131.0625 867.386719 39.179688 957.511719 39.621094 1070.9375 C 40.058594 1184.359375 133.261719 1276.683594 245.804688 1275.804688 C 359.230469 1274.484375 450.234375 1181.722656 448.914062 1068.296875 C 448.035156 956.632812 355.273438 866.070312 242.726562 866.949219 Z M 242.726562 866.949219 " clip-rule="nonzero"/></clipPath><clipPath id="5048d14072"><path d="M 0.476562 0 L 1280.875 0 L 1280.875 1275.597656 L 0.476562 1275.597656 Z M 0.476562 0 " clip-rule="nonzero"/></clipPath><clipPath id="e2d54d2b49"><path d="M 835.476562 1117.976562 C 813.054688 1218.652344 719.414062 1284.597656 612.144531 1274.484375 C 516.304688 1265.691406 436.292969 1180.84375 433.214844 1082.804688 C 431.894531 1029.171875 420.023438 979.492188 387.054688 936.410156 C 342.210938 877.5 281.980469 847.605469 207.683594 845.847656 C 108.328125 843.207031 32.273438 783.859375 7.652344 688.457031 C 3.695312 673.070312 2.816406 656.804688 0.621094 640.980469 C 1.9375 530.191406 90.742188 438.75 199.769531 436.992188 C 308.800781 435.234375 407.277344 522.71875 410.792969 636.582031 C 414.308594 750.445312 468.824219 822.546875 566.421875 855.519531 C 590.160156 863.429688 616.539062 865.628906 641.597656 866.949219 C 772.609375 873.101562 863.609375 990.484375 835.476562 1117.976562 Z M 647.753906 408.855469 C 722.050781 410.613281 782.28125 440.507812 827.5625 499.417969 C 860.09375 542.503906 871.964844 592.179688 873.722656 645.816406 C 876.800781 743.851562 956.8125 828.699219 1052.210938 837.492188 C 1159.480469 847.605469 1253.121094 781.660156 1275.542969 680.984375 C 1304.121094 553.492188 1212.675781 436.113281 1082.105469 429.957031 C 1056.609375 428.636719 1030.230469 426.441406 1006.492188 418.527344 C 908.894531 385.554688 854.816406 313.457031 851.300781 199.589844 C 847.785156 85.726562 755.460938 -1.757812 639.839844 0 C 531.25 1.757812 442.445312 93.640625 440.6875 203.988281 C 443.324219 219.816406 443.765625 236.082031 447.722656 251.46875 C 472.339844 346.867188 548.398438 406.21875 647.753906 408.855469 Z M 1082.105469 866.949219 C 1056.609375 865.628906 1030.230469 863.429688 1006.492188 855.519531 C 908.894531 822.546875 854.816406 750.445312 851.300781 636.582031 C 849.101562 564.042969 810.855469 502.054688 753.265625 467.324219 C 722.050781 445.785156 683.800781 432.15625 641.597656 429.957031 C 616.539062 428.636719 590.160156 426.441406 566.421875 418.527344 C 468.824219 385.554688 414.308594 313.457031 410.792969 199.589844 C 407.277344 85.726562 308.800781 -1.757812 199.769531 0 C 90.742188 1.757812 1.9375 93.640625 0.621094 203.988281 C 2.816406 219.816406 3.695312 236.082031 7.652344 251.46875 C 32.273438 346.867188 108.328125 406.21875 207.683594 408.855469 C 281.980469 410.613281 342.210938 440.507812 387.054688 499.417969 C 420.023438 542.503906 431.894531 592.179688 433.214844 645.816406 C 435.414062 714.398438 475.417969 776.824219 532.128906 810.675781 C 564.664062 832.21875 603.789062 844.527344 647.753906 845.847656 C 722.050781 847.605469 782.28125 877.5 827.5625 936.410156 C 860.09375 979.492188 871.964844 1029.171875 873.722656 1082.804688 C 876.800781 1180.84375 956.8125 1265.691406 1052.210938 1274.484375 C 1159.480469 1284.597656 1253.121094 1218.652344 1275.542969 1117.976562 C 1304.121094 990.484375 1212.675781 873.101562 1082.105469 866.949219 Z M 1073.3125 408.855469 C 1073.753906 408.855469 1073.753906 408.855469 1074.191406 408.855469 C 1187.179688 407.535156 1277.742188 314.335938 1276.421875 201.351562 C 1275.542969 90.125 1182.78125 -0.441406 1070.238281 0 C 958.570312 0.878906 866.6875 91.441406 867.128906 204.425781 C 867.566406 317.410156 961.207031 410.171875 1073.3125 408.855469 Z M 203.726562 866.949219 C 92.0625 867.386719 0.179688 957.511719 0.621094 1070.9375 C 1.058594 1184.359375 94.261719 1276.683594 206.804688 1275.804688 C 320.230469 1274.484375 411.234375 1181.722656 409.914062 1068.296875 C 409.035156 956.632812 316.273438 866.070312 203.726562 866.949219 Z M 203.726562 866.949219 " clip-rule="nonzero"/></clipPath><clipPath id="2033fc322a"><rect x="0" width="1281" y="0" height="1276"/></clipPath></defs><g clip-path="url(#f19729bf71)"><g clip-path="url(#bede515f43)"><g transform="matrix(1, 0, 0, 1, 39, -0.000000000000150945)"><g clip-path="url(#2033fc322a)"><g clip-path="url(#5048d14072)"><g clip-path="url(#e2d54d2b49)"><path fill="#d9d9d9" d="M 0.621094 0 L 1280.367188 0 L 1280.367188 1275.363281 L 0.621094 1275.363281 Z M 0.621094 0 " fill-opacity="1" fill-rule="nonzero"/></g></g></g></g></g></g><path fill="#202b3d" d="M 247.085938 909.464844 C 254.429688 909.46875 260.652344 909.785156 265.746094 910.402344 C 296.714844 914.1875 323.984375 925.179688 347.554688 943.378906 C 365.03125 956.871094 379.128906 973.167969 389.84375 992.261719 C 400.886719 1011.941406 407.65625 1032.417969 410.152344 1053.691406 C 412.964844 1077.652344 410.851562 1100.644531 403.8125 1122.667969 C 382.300781 1190.035156 318.09375 1238.273438 246.859375 1238.226562 C 175.613281 1238.164062 111.484375 1189.84375 90.0625 1122.449219 C 83.058594 1100.414062 80.976562 1077.417969 83.820312 1053.464844 C 86.347656 1032.191406 93.148438 1011.726562 104.21875 992.0625 C 114.960938 972.980469 129.078125 956.707031 146.574219 943.242188 C 170.171875 925.074219 197.457031 914.117188 228.425781 910.371094 C 233.519531 909.761719 239.738281 909.457031 247.085938 909.464844 Z M 246.691406 1168.027344 C 246.742188 1168.144531 246.773438 1168.382812 246.78125 1168.738281 C 246.878906 1176.910156 246.808594 1186.261719 246.570312 1196.785156 C 246.488281 1200.503906 247.820312 1203.011719 250.570312 1204.300781 C 253.5 1205.667969 256.125 1205.519531 258.449219 1203.855469 C 297.09375 1176.257812 319.144531 1160.574219 324.601562 1156.808594 C 335.703125 1149.15625 343.335938 1143.160156 347.496094 1138.832031 C 364.132812 1121.511719 374.34375 1099.96875 375.683594 1076.234375 C 377.511719 1043.847656 363.015625 1013.628906 337.445312 993.722656 C 325.109375 984.121094 311.238281 977.882812 295.828125 975.011719 C 289.621094 973.855469 278.984375 973.324219 263.910156 973.421875 C 247.355469 973.527344 233.777344 973.535156 223.171875 973.441406 C 209.351562 973.324219 196.96875 974.3125 185.257812 978.398438 C 164.148438 985.757812 147.484375 998.332031 135.261719 1016.125 C 124.003906 1032.503906 118.121094 1051.039062 118.0625 1070.695312 C 118.023438 1085.078125 121.292969 1099.0625 127.875 1112.65625 C 143.800781 1145.535156 177.734375 1167.394531 214.621094 1167.523438 C 225.832031 1167.5625 236.207031 1167.527344 245.753906 1167.414062 C 245.957031 1167.410156 246.144531 1167.464844 246.3125 1167.574219 C 246.484375 1167.6875 246.609375 1167.835938 246.691406 1168.027344 Z M 246.691406 1168.027344 " fill-opacity="1" fill-rule="nonzero"/><path fill="#202b3d" d="M 246.957031 1094.460938 C 252.394531 1094.464844 256.832031 1094.058594 260.265625 1093.234375 C 275.761719 1089.535156 288.332031 1081.59375 297.980469 1069.410156 C 300.3125 1066.46875 302.070312 1064.769531 303.253906 1064.308594 C 306.671875 1063.003906 309.5625 1062.609375 312.902344 1064.238281 C 319.289062 1067.359375 321.054688 1075.464844 316.394531 1081.328125 C 299.207031 1102.992188 274.699219 1116.050781 246.957031 1116.03125 C 219.203125 1116.023438 194.707031 1102.949219 177.539062 1081.269531 C 172.886719 1075.40625 174.65625 1067.296875 181.042969 1064.179688 C 184.390625 1062.558594 187.28125 1062.953125 190.6875 1064.257812 C 191.875 1064.71875 193.632812 1066.421875 195.960938 1069.371094 C 205.597656 1081.5625 218.164062 1089.511719 233.65625 1093.226562 C 237.09375 1094.046875 241.527344 1094.460938 246.957031 1094.460938 Z M 246.957031 1094.460938 " fill-opacity="1" fill-rule="nonzero"/></svg>