<svg xmlns="http://www.w3.org/2000/svg" xmlns:xlink="http://www.w3.org/1999/xlink" width="2000" zoomAndPan="magnify" viewBox="0 0 1500 1499.999933" height="2000" preserveAspectRatio="xMidYMid meet" version="1.0"><defs><clipPath id="10c62a2db5"><path d="M 120 102 L 1401 102 L 1401 1379 L 120 1379 Z M 120 102 " clip-rule="nonzero"/></clipPath><clipPath id="e7b6fff970"><path d="M 955.207031 1220.910156 C 932.78125 1321.601562 839.125 1387.558594 731.832031 1377.445312 C 635.976562 1368.652344 555.949219 1283.789062 552.871094 1185.730469 C 551.550781 1132.085938 539.679688 1082.398438 506.699219 1039.308594 C 461.851562 980.386719 401.609375 950.484375 327.296875 948.726562 C 227.921875 946.089844 151.851562 886.726562 127.230469 791.308594 C 123.273438 775.921875 122.390625 759.652344 120.195312 743.820312 C 121.511719 633.015625 210.335938 541.554688 319.382812 539.796875 C 428.433594 538.035156 526.925781 625.539062 530.445312 739.425781 C 533.964844 853.308594 588.488281 925.421875 686.101562 958.402344 C 709.847656 966.316406 736.230469 968.515625 761.292969 969.832031 C 892.328125 975.988281 983.347656 1093.390625 955.207031 1220.910156 Z M 767.449219 511.652344 C 841.761719 513.414062 902.003906 543.3125 947.292969 602.234375 C 979.832031 645.324219 991.703125 695.011719 993.460938 748.660156 C 996.539062 846.714844 1076.566406 931.578125 1171.984375 940.371094 C 1279.273438 950.484375 1372.933594 884.53125 1395.359375 783.835938 C 1423.941406 656.320312 1332.480469 538.914062 1201.886719 532.757812 C 1176.382812 531.441406 1150 529.242188 1126.253906 521.328125 C 1028.640625 488.347656 974.554688 416.234375 971.035156 302.351562 C 967.519531 188.464844 875.179688 100.960938 759.535156 102.722656 C 650.925781 104.480469 562.105469 196.378906 560.347656 306.746094 C 562.984375 322.578125 563.421875 338.847656 567.382812 354.238281 C 592.003906 449.652344 668.074219 509.015625 767.449219 511.652344 Z M 1201.886719 969.832031 C 1176.382812 968.515625 1150 966.316406 1126.253906 958.402344 C 1028.640625 925.421875 974.554688 853.308594 971.035156 739.425781 C 968.839844 666.871094 930.582031 604.871094 872.980469 570.136719 C 841.761719 548.589844 803.507812 534.957031 761.292969 532.757812 C 736.230469 531.441406 709.847656 529.242188 686.101562 521.328125 C 588.488281 488.347656 533.964844 416.234375 530.445312 302.351562 C 526.925781 188.464844 428.433594 100.960938 319.382812 102.722656 C 210.335938 104.480469 121.511719 196.378906 120.195312 306.746094 C 122.390625 322.578125 123.273438 338.847656 127.230469 354.238281 C 151.851562 449.652344 227.921875 509.015625 327.296875 511.652344 C 401.609375 513.414062 461.851562 543.3125 506.699219 602.234375 C 539.679688 645.324219 551.550781 695.011719 552.871094 748.660156 C 555.070312 817.253906 595.082031 879.691406 651.804688 913.550781 C 684.34375 935.097656 723.480469 947.410156 767.449219 948.726562 C 841.761719 950.484375 902.003906 980.386719 947.292969 1039.308594 C 979.832031 1082.398438 991.703125 1132.085938 993.460938 1185.730469 C 996.539062 1283.789062 1076.566406 1368.652344 1171.984375 1377.445312 C 1279.273438 1387.558594 1372.933594 1321.601562 1395.359375 1220.910156 C 1423.941406 1093.390625 1332.480469 975.988281 1201.886719 969.832031 Z M 1193.089844 511.652344 C 1193.53125 511.652344 1193.53125 511.652344 1193.972656 511.652344 C 1306.976562 510.335938 1397.558594 417.117188 1396.238281 304.109375 C 1395.359375 192.863281 1302.578125 102.28125 1190.011719 102.722656 C 1078.328125 103.601562 986.425781 194.179688 986.867188 307.1875 C 987.304688 420.191406 1080.964844 512.972656 1193.089844 511.652344 Z M 323.339844 969.832031 C 211.652344 970.273438 119.753906 1060.414062 120.195312 1173.859375 C 120.632812 1287.304688 213.851562 1379.644531 326.417969 1378.765625 C 439.863281 1377.445312 530.886719 1284.667969 529.566406 1171.222656 C 528.6875 1059.535156 435.90625 968.953125 323.339844 969.832031 Z M 323.339844 969.832031 " clip-rule="nonzero"/></clipPath><clipPath id="ca8b2d508e"><path d="M 0 0.71875 L 1281 0.71875 L 1281 1276.558594 L 0 1276.558594 Z M 0 0.71875 " clip-rule="nonzero"/></clipPath><clipPath id="5b899b7859"><path d="M 835.207031 1118.910156 C 812.78125 1219.601562 719.125 1285.558594 611.832031 1275.445312 C 515.976562 1266.652344 435.949219 1181.789062 432.871094 1083.730469 C 431.550781 1030.085938 419.679688 980.398438 386.699219 937.308594 C 341.851562 878.386719 281.609375 848.484375 207.296875 846.726562 C 107.921875 844.089844 31.851562 784.726562 7.230469 689.308594 C 3.273438 673.921875 2.390625 657.652344 0.195312 641.820312 C 1.511719 531.015625 90.335938 439.554688 199.382812 437.796875 C 308.433594 436.035156 406.925781 523.539062 410.445312 637.425781 C 413.964844 751.308594 468.488281 823.421875 566.101562 856.402344 C 589.847656 864.316406 616.230469 866.515625 641.292969 867.832031 C 772.328125 873.988281 863.347656 991.390625 835.207031 1118.910156 Z M 647.449219 409.652344 C 721.761719 411.414062 782.003906 441.3125 827.292969 500.234375 C 859.832031 543.324219 871.703125 593.011719 873.460938 646.660156 C 876.539062 744.714844 956.566406 829.578125 1051.984375 838.371094 C 1159.273438 848.484375 1252.933594 782.53125 1275.359375 681.835938 C 1303.941406 554.320312 1212.480469 436.914062 1081.886719 430.757812 C 1056.382812 429.441406 1030 427.242188 1006.253906 419.328125 C 908.640625 386.347656 854.554688 314.234375 851.035156 200.351562 C 847.519531 86.464844 755.179688 -1.039062 639.535156 0.722656 C 530.925781 2.480469 442.105469 94.378906 440.347656 204.746094 C 442.984375 220.578125 443.421875 236.847656 447.382812 252.238281 C 472.003906 347.652344 548.074219 407.015625 647.449219 409.652344 Z M 1081.886719 867.832031 C 1056.382812 866.515625 1030 864.316406 1006.253906 856.402344 C 908.640625 823.421875 854.554688 751.308594 851.035156 637.425781 C 848.839844 564.871094 810.582031 502.871094 752.980469 468.136719 C 721.761719 446.589844 683.507812 432.957031 641.292969 430.757812 C 616.230469 429.441406 589.847656 427.242188 566.101562 419.328125 C 468.488281 386.347656 413.964844 314.234375 410.445312 200.351562 C 406.925781 86.464844 308.433594 -1.039062 199.382812 0.722656 C 90.335938 2.480469 1.511719 94.378906 0.195312 204.746094 C 2.390625 220.578125 3.273438 236.847656 7.230469 252.238281 C 31.851562 347.652344 107.921875 407.015625 207.296875 409.652344 C 281.609375 411.414062 341.851562 441.3125 386.699219 500.234375 C 419.679688 543.324219 431.550781 593.011719 432.871094 646.660156 C 435.070312 715.253906 475.082031 777.691406 531.804688 811.550781 C 564.34375 833.097656 603.480469 845.410156 647.449219 846.726562 C 721.761719 848.484375 782.003906 878.386719 827.292969 937.308594 C 859.832031 980.398438 871.703125 1030.085938 873.460938 1083.730469 C 876.539062 1181.789062 956.566406 1266.652344 1051.984375 1275.445312 C 1159.273438 1285.558594 1252.933594 1219.601562 1275.359375 1118.910156 C 1303.941406 991.390625 1212.480469 873.988281 1081.886719 867.832031 Z M 1073.089844 409.652344 C 1073.53125 409.652344 1073.53125 409.652344 1073.972656 409.652344 C 1186.976562 408.335938 1277.558594 315.117188 1276.238281 202.109375 C 1275.359375 90.863281 1182.578125 0.28125 1070.011719 0.722656 C 958.328125 1.601562 866.425781 92.179688 866.867188 205.1875 C 867.304688 318.191406 960.964844 410.972656 1073.089844 409.652344 Z M 203.339844 867.832031 C 91.652344 868.273438 -0.246094 958.414062 0.195312 1071.859375 C 0.632812 1185.304688 93.851562 1277.644531 206.417969 1276.765625 C 319.863281 1275.445312 410.886719 1182.667969 409.566406 1069.222656 C 408.6875 957.535156 315.90625 866.953125 203.339844 867.832031 Z M 203.339844 867.832031 " clip-rule="nonzero"/></clipPath><clipPath id="7c9a9b03db"><rect x="0" width="1281" y="0" height="1277"/></clipPath></defs><g clip-path="url(#10c62a2db5)"><g clip-path="url(#e7b6fff970)"><g transform="matrix(1, 0, 0, 1, 120, 102)"><g clip-path="url(#7c9a9b03db)"><g clip-path="url(#ca8b2d508e)"><g clip-path="url(#5b899b7859)"><path fill="#d9d9d9" d="M 0.195312 0.722656 L 1280.183594 0.722656 L 1280.183594 1276.324219 L 0.195312 1276.324219 Z M 0.195312 0.722656 " fill-opacity="1" fill-rule="nonzero"/></g></g></g></g></g></g><path fill="#202b3d" d="M 327.699219 1012.355469 C 335.046875 1012.363281 341.269531 1012.675781 346.363281 1013.296875 C 377.339844 1017.082031 404.613281 1028.074219 428.1875 1046.277344 C 445.667969 1059.773438 459.765625 1076.070312 470.484375 1095.171875 C 481.53125 1114.855469 488.300781 1135.335938 490.796875 1156.613281 C 493.609375 1180.578125 491.496094 1203.574219 484.457031 1225.601562 C 462.941406 1292.980469 398.722656 1341.230469 327.472656 1341.179688 C 256.214844 1341.121094 192.074219 1292.792969 170.644531 1225.382812 C 163.640625 1203.34375 161.558594 1180.34375 164.402344 1156.386719 C 166.933594 1135.109375 173.734375 1114.636719 184.804688 1094.972656 C 195.550781 1075.886719 209.671875 1059.609375 227.171875 1046.140625 C 250.773438 1027.96875 278.058594 1017.011719 309.035156 1013.265625 C 314.128906 1012.652344 320.351562 1012.351562 327.699219 1012.355469 Z M 327.304688 1270.96875 C 327.355469 1271.085938 327.386719 1271.324219 327.394531 1271.679688 C 327.492188 1279.855469 327.421875 1289.207031 327.1875 1299.734375 C 327.101562 1303.453125 328.433594 1305.957031 331.183594 1307.25 C 334.113281 1308.617188 336.742188 1308.46875 339.066406 1306.804688 C 377.71875 1279.199219 399.769531 1263.515625 405.230469 1259.75 C 416.335938 1252.09375 423.96875 1246.097656 428.128906 1241.765625 C 444.769531 1224.445312 454.980469 1202.898438 456.324219 1179.160156 C 458.148438 1146.769531 443.652344 1116.539062 418.078125 1096.632812 C 405.738281 1087.027344 391.863281 1080.789062 376.453125 1077.917969 C 370.246094 1076.761719 359.601562 1076.230469 344.527344 1076.328125 C 327.96875 1076.433594 314.386719 1076.441406 303.78125 1076.347656 C 289.957031 1076.230469 277.574219 1077.21875 265.859375 1081.304688 C 244.746094 1088.664062 228.078125 1101.242188 215.851562 1119.039062 C 204.59375 1135.421875 198.710938 1153.957031 198.652344 1173.617188 C 198.609375 1188.003906 201.882812 1201.992188 208.464844 1215.589844 C 224.394531 1248.472656 258.335938 1270.335938 295.230469 1270.464844 C 306.441406 1270.503906 316.820312 1270.46875 326.367188 1270.355469 C 326.570312 1270.351562 326.757812 1270.40625 326.925781 1270.515625 C 327.097656 1270.628906 327.222656 1270.777344 327.304688 1270.96875 Z M 327.304688 1270.96875 " fill-opacity="1" fill-rule="nonzero"/><path fill="#202b3d" d="M 327.570312 1197.386719 C 333.007812 1197.394531 337.445312 1196.988281 340.882812 1196.164062 C 356.378906 1192.464844 368.953125 1184.519531 378.605469 1172.335938 C 380.9375 1169.390625 382.695312 1167.691406 383.878906 1167.230469 C 387.296875 1165.925781 390.1875 1165.53125 393.527344 1167.160156 C 399.917969 1170.28125 401.683594 1178.386719 397.023438 1184.253906 C 379.832031 1205.921875 355.320312 1218.984375 327.570312 1218.964844 C 299.8125 1218.957031 275.3125 1205.878906 258.140625 1184.195312 C 253.488281 1178.328125 255.253906 1170.222656 261.644531 1167.101562 C 264.992188 1165.480469 267.886719 1165.875 271.292969 1167.179688 C 272.476562 1167.640625 274.234375 1169.347656 276.566406 1172.296875 C 286.203125 1184.488281 298.773438 1192.441406 314.269531 1196.152344 C 317.707031 1196.976562 322.140625 1197.386719 327.570312 1197.386719 Z M 327.570312 1197.386719 " fill-opacity="1" fill-rule="nonzero"/></svg>