<svg xmlns="http://www.w3.org/2000/svg" xmlns:xlink="http://www.w3.org/1999/xlink" width="2000" zoomAndPan="magnify" viewBox="0 0 1500 1499.999933" height="2000" preserveAspectRatio="xMidYMid meet" version="1.0"><defs><clipPath id="f684a13cab"><path d="M 113 90 L 1391 90 L 1391 1362 L 113 1362 Z M 113 90 " clip-rule="nonzero"/></clipPath><clipPath id="03cef86806"><path d="M 946.25 1204.804688 C 923.894531 1305.171875 830.542969 1370.914062 723.605469 1360.832031 C 628.058594 1352.066406 548.292969 1267.480469 545.226562 1169.746094 C 543.910156 1116.273438 532.078125 1066.75 499.207031 1023.800781 C 454.503906 965.070312 394.460938 935.265625 320.390625 933.515625 C 221.339844 930.882812 145.519531 871.71875 120.976562 776.613281 C 117.03125 761.273438 116.15625 745.054688 113.964844 729.277344 C 115.277344 618.832031 203.808594 527.671875 312.503906 525.917969 C 421.195312 524.164062 519.367188 611.382812 522.875 724.894531 C 526.378906 838.410156 580.726562 910.285156 678.023438 943.15625 C 701.691406 951.046875 727.988281 953.238281 752.96875 954.550781 C 883.574219 960.6875 974.296875 1077.707031 946.25 1204.804688 Z M 759.105469 497.867188 C 833.171875 499.621094 893.21875 529.425781 938.359375 588.152344 C 970.792969 631.105469 982.625 680.628906 984.378906 734.097656 C 987.445312 831.835938 1067.210938 916.421875 1162.316406 925.1875 C 1269.257812 935.265625 1362.609375 869.527344 1384.960938 769.160156 C 1413.449219 642.0625 1322.289062 525.042969 1192.121094 518.90625 C 1166.699219 517.589844 1140.402344 515.398438 1116.738281 507.511719 C 1019.441406 474.640625 965.53125 402.761719 962.027344 289.25 C 958.519531 175.738281 866.480469 88.519531 751.214844 90.273438 C 642.960938 92.027344 554.429688 183.625 552.675781 293.632812 C 555.308594 309.410156 555.746094 325.625 559.691406 340.964844 C 584.234375 436.070312 660.054688 495.238281 759.105469 497.867188 Z M 1192.121094 954.550781 C 1166.699219 953.238281 1140.402344 951.046875 1116.738281 943.15625 C 1019.441406 910.285156 965.53125 838.410156 962.027344 724.894531 C 959.835938 652.578125 921.703125 590.78125 864.289062 556.160156 C 833.171875 534.683594 795.042969 521.097656 752.96875 518.90625 C 727.988281 517.589844 701.691406 515.398438 678.023438 507.511719 C 580.726562 474.640625 526.378906 402.761719 522.875 289.25 C 519.367188 175.738281 421.195312 88.519531 312.503906 90.273438 C 203.808594 92.027344 115.277344 183.625 113.964844 293.632812 C 116.15625 309.410156 117.03125 325.625 120.976562 340.964844 C 145.519531 436.070312 221.339844 495.238281 320.390625 497.867188 C 394.460938 499.621094 454.503906 529.425781 499.207031 588.152344 C 532.078125 631.105469 543.910156 680.628906 545.226562 734.097656 C 547.417969 802.46875 587.300781 864.703125 643.839844 898.453125 C 676.269531 919.929688 715.277344 932.199219 759.105469 933.515625 C 833.171875 935.265625 893.21875 965.070312 938.359375 1023.800781 C 970.792969 1066.75 982.625 1116.273438 984.378906 1169.746094 C 987.445312 1267.480469 1067.210938 1352.066406 1162.316406 1360.832031 C 1269.257812 1370.914062 1362.609375 1305.171875 1384.960938 1204.804688 C 1413.449219 1077.707031 1322.289062 960.6875 1192.121094 954.550781 Z M 1183.355469 497.867188 C 1183.792969 497.867188 1183.792969 497.867188 1184.230469 497.867188 C 1296.867188 496.554688 1387.152344 403.640625 1385.839844 291.003906 C 1384.960938 180.121094 1292.484375 89.835938 1180.289062 90.273438 C 1068.964844 91.148438 977.367188 181.433594 977.804688 294.070312 C 978.242188 406.707031 1071.59375 499.183594 1183.355469 497.867188 Z M 316.445312 954.550781 C 205.125 954.988281 113.527344 1044.835938 113.964844 1157.910156 C 114.402344 1270.984375 207.316406 1363.023438 319.515625 1362.148438 C 432.589844 1360.832031 523.3125 1268.355469 521.996094 1155.28125 C 521.121094 1043.960938 428.644531 953.675781 316.445312 954.550781 Z M 316.445312 954.550781 " clip-rule="nonzero"/></clipPath><clipPath id="c2c73718cf"><path d="M 0.761719 0.238281 L 1277 0.238281 L 1277 1271.761719 L 0.761719 1271.761719 Z M 0.761719 0.238281 " clip-rule="nonzero"/></clipPath><clipPath id="db0453a0d0"><path d="M 833.25 1114.804688 C 810.894531 1215.171875 717.542969 1280.914062 610.605469 1270.832031 C 515.058594 1262.066406 435.292969 1177.480469 432.226562 1079.746094 C 430.910156 1026.273438 419.078125 976.75 386.207031 933.800781 C 341.503906 875.070312 281.460938 845.265625 207.390625 843.515625 C 108.339844 840.882812 32.519531 781.71875 7.976562 686.613281 C 4.03125 671.273438 3.15625 655.054688 0.964844 639.277344 C 2.277344 528.832031 90.808594 437.671875 199.503906 435.917969 C 308.195312 434.164062 406.367188 521.382812 409.875 634.894531 C 413.378906 748.410156 467.726562 820.285156 565.023438 853.15625 C 588.691406 861.046875 614.988281 863.238281 639.96875 864.550781 C 770.574219 870.6875 861.296875 987.707031 833.25 1114.804688 Z M 646.105469 407.867188 C 720.171875 409.621094 780.21875 439.425781 825.359375 498.152344 C 857.792969 541.105469 869.625 590.628906 871.378906 644.097656 C 874.445312 741.835938 954.210938 826.421875 1049.316406 835.1875 C 1156.257812 845.265625 1249.609375 779.527344 1271.960938 679.160156 C 1300.449219 552.0625 1209.289062 435.042969 1079.121094 428.90625 C 1053.699219 427.589844 1027.402344 425.398438 1003.738281 417.511719 C 906.441406 384.640625 852.53125 312.761719 849.027344 199.25 C 845.519531 85.738281 753.480469 -1.480469 638.214844 0.273438 C 529.960938 2.027344 441.429688 93.625 439.675781 203.632812 C 442.308594 219.410156 442.746094 235.625 446.691406 250.964844 C 471.234375 346.070312 547.054688 405.238281 646.105469 407.867188 Z M 1079.121094 864.550781 C 1053.699219 863.238281 1027.402344 861.046875 1003.738281 853.15625 C 906.441406 820.285156 852.53125 748.410156 849.027344 634.894531 C 846.835938 562.578125 808.703125 500.78125 751.289062 466.160156 C 720.171875 444.683594 682.042969 431.097656 639.96875 428.90625 C 614.988281 427.589844 588.691406 425.398438 565.023438 417.511719 C 467.726562 384.640625 413.378906 312.761719 409.875 199.25 C 406.367188 85.738281 308.195312 -1.480469 199.503906 0.273438 C 90.808594 2.027344 2.277344 93.625 0.964844 203.632812 C 3.15625 219.410156 4.03125 235.625 7.976562 250.964844 C 32.519531 346.070312 108.339844 405.238281 207.390625 407.867188 C 281.460938 409.621094 341.503906 439.425781 386.207031 498.152344 C 419.078125 541.105469 430.910156 590.628906 432.226562 644.097656 C 434.417969 712.46875 474.300781 774.703125 530.839844 808.453125 C 563.269531 829.929688 602.277344 842.199219 646.105469 843.515625 C 720.171875 845.265625 780.21875 875.070312 825.359375 933.800781 C 857.792969 976.75 869.625 1026.273438 871.378906 1079.746094 C 874.445312 1177.480469 954.210938 1262.066406 1049.316406 1270.832031 C 1156.257812 1280.914062 1249.609375 1215.171875 1271.960938 1114.804688 C 1300.449219 987.707031 1209.289062 870.6875 1079.121094 864.550781 Z M 1070.355469 407.867188 C 1070.792969 407.867188 1070.792969 407.867188 1071.230469 407.867188 C 1183.867188 406.554688 1274.152344 313.640625 1272.839844 201.003906 C 1271.960938 90.121094 1179.484375 -0.164062 1067.289062 0.273438 C 955.964844 1.148438 864.367188 91.433594 864.804688 204.070312 C 865.242188 316.707031 958.59375 409.183594 1070.355469 407.867188 Z M 203.445312 864.550781 C 92.125 864.988281 0.527344 954.835938 0.964844 1067.910156 C 1.402344 1180.984375 94.316406 1273.023438 206.515625 1272.148438 C 319.589844 1270.832031 410.3125 1178.355469 408.996094 1065.28125 C 408.121094 953.960938 315.644531 863.675781 203.445312 864.550781 Z M 203.445312 864.550781 " clip-rule="nonzero"/></clipPath><clipPath id="b3be1b6bd6"><rect x="0" width="1278" y="0" height="1272"/></clipPath></defs><g clip-path="url(#f684a13cab)"><g clip-path="url(#03cef86806)"><g transform="matrix(1, 0, 0, 1, 113, 90)"><g clip-path="url(#b3be1b6bd6)"><g clip-path="url(#c2c73718cf)"><g clip-path="url(#db0453a0d0)"><path fill="#202b3d" d="M 0.964844 0.273438 L 1276.769531 0.273438 L 1276.769531 1271.710938 L 0.964844 1271.710938 Z M 0.964844 0.273438 " fill-opacity="1" fill-rule="nonzero"/></g></g></g></g></g></g><path fill="#ff6f61" d="M 318.351562 1018.890625 C 324.988281 1018.894531 330.609375 1019.179688 335.210938 1019.738281 C 363.191406 1023.15625 387.832031 1033.089844 409.128906 1049.53125 C 424.917969 1061.726562 437.652344 1076.445312 447.335938 1093.699219 C 457.316406 1111.480469 463.433594 1129.984375 465.6875 1149.203125 C 468.226562 1170.851562 466.316406 1191.625 459.957031 1211.527344 C 440.519531 1272.390625 382.507812 1315.980469 318.144531 1315.933594 C 253.773438 1315.878906 195.832031 1272.222656 176.472656 1211.328125 C 170.144531 1191.417969 168.265625 1170.640625 170.835938 1149 C 173.121094 1129.777344 179.261719 1111.285156 189.265625 1093.519531 C 198.972656 1076.28125 211.730469 1061.574219 227.535156 1049.40625 C 248.859375 1032.992188 273.507812 1023.09375 301.488281 1019.710938 C 306.09375 1019.15625 311.714844 1018.882812 318.351562 1018.890625 Z M 317.992188 1252.507812 C 318.042969 1252.613281 318.066406 1252.828125 318.074219 1253.148438 C 318.164062 1260.535156 318.101562 1268.984375 317.886719 1278.492188 C 317.808594 1281.855469 319.011719 1284.117188 321.5 1285.28125 C 324.144531 1286.519531 326.519531 1286.386719 328.617188 1284.882812 C 363.535156 1259.945312 383.457031 1245.773438 388.386719 1242.375 C 398.421875 1235.457031 405.316406 1230.042969 409.074219 1226.128906 C 424.105469 1210.480469 433.332031 1191.015625 434.542969 1169.570312 C 436.195312 1140.3125 423.097656 1113.003906 399.992188 1095.019531 C 388.847656 1086.34375 376.316406 1080.707031 362.390625 1078.113281 C 356.785156 1077.070312 347.171875 1076.589844 333.550781 1076.679688 C 318.59375 1076.773438 306.324219 1076.78125 296.746094 1076.695312 C 284.253906 1076.589844 273.070312 1077.480469 262.488281 1081.175781 C 243.414062 1087.824219 228.359375 1099.1875 217.3125 1115.261719 C 207.144531 1130.0625 201.828125 1146.804688 201.773438 1164.566406 C 201.738281 1177.5625 204.695312 1190.199219 210.640625 1202.480469 C 225.03125 1232.1875 255.691406 1251.9375 289.019531 1252.050781 C 299.148438 1252.089844 308.523438 1252.054688 317.144531 1251.953125 C 317.328125 1251.949219 317.5 1252 317.652344 1252.101562 C 317.808594 1252.203125 317.921875 1252.335938 317.992188 1252.507812 Z M 317.992188 1252.507812 " fill-opacity="1" fill-rule="nonzero"/><path fill="#ff6f61" d="M 318.234375 1186.039062 C 323.148438 1186.042969 327.15625 1185.675781 330.257812 1184.933594 C 344.257812 1181.589844 355.617188 1174.414062 364.335938 1163.40625 C 366.441406 1160.75 368.03125 1159.210938 369.101562 1158.792969 C 372.1875 1157.617188 374.800781 1157.261719 377.816406 1158.730469 C 383.589844 1161.550781 385.183594 1168.875 380.972656 1174.175781 C 365.441406 1193.746094 343.300781 1205.546875 318.234375 1205.53125 C 293.15625 1205.523438 271.027344 1193.710938 255.511719 1174.121094 C 251.3125 1168.820312 252.90625 1161.496094 258.679688 1158.679688 C 261.703125 1157.214844 264.316406 1157.574219 267.394531 1158.75 C 268.464844 1159.167969 270.054688 1160.707031 272.160156 1163.371094 C 280.863281 1174.386719 292.21875 1181.570312 306.21875 1184.921875 C 309.324219 1185.667969 313.328125 1186.039062 318.234375 1186.039062 Z M 318.234375 1186.039062 " fill-opacity="1" fill-rule="nonzero"/></svg>