<svg xmlns="http://www.w3.org/2000/svg" xmlns:xlink="http://www.w3.org/1999/xlink" width="209" zoomAndPan="magnify" viewBox="0 0 156.75 213" height="284" preserveAspectRatio="xMidYMid meet" version="1.0"><defs><clipPath id="df4f1e0709"><path d="M 0 0.167969 L 156.5 0.167969 L 156.5 212.828125 L 0 212.828125 Z M 0 0.167969 " clip-rule="nonzero"></path></clipPath><clipPath id="e56745f8d1"><path d="M 21 102 L 106 102 L 106 147 L 21 147 Z M 21 102 " clip-rule="nonzero"></path></clipPath><clipPath id="b0c2284a11"><path d="M 15.296875 127.796875 L 27.785156 85.710938 L 111.46875 110.539062 L 98.980469 152.628906 Z M 15.296875 127.796875 " clip-rule="nonzero"></path></clipPath><clipPath id="68d6f6a214"><path d="M 87.085938 103.304688 C 100.507812 107.285156 108.589844 119.9375 105.144531 131.558594 C 101.695312 143.179688 88.019531 149.375 74.597656 145.390625 C 61.175781 141.410156 21.542969 106.753906 21.542969 106.753906 C 21.542969 106.753906 73.664062 99.320312 87.085938 103.304688 Z M 87.085938 103.304688 " clip-rule="nonzero"></path></clipPath><clipPath id="00b289c107"><path d="M 0.324219 0 L 85 0 L 85 45 L 0.324219 45 Z M 0.324219 0 " clip-rule="nonzero"></path></clipPath><clipPath id="d4b3106687"><path d="M -5.703125 25.796875 L 6.785156 -16.289062 L 90.46875 8.539062 L 77.980469 50.628906 Z M -5.703125 25.796875 " clip-rule="nonzero"></path></clipPath><clipPath id="2897da15d9"><path d="M 66.085938 1.304688 C 79.507812 5.285156 87.589844 17.9375 84.144531 29.558594 C 80.695312 41.179688 67.019531 47.375 53.597656 43.390625 C 40.175781 39.410156 0.542969 4.753906 0.542969 4.753906 C 0.542969 4.753906 52.664062 -2.679688 66.085938 1.304688 Z M 66.085938 1.304688 " clip-rule="nonzero"></path></clipPath><clipPath id="849a816673"><rect x="0" width="85" y="0" height="45"></rect></clipPath><clipPath id="ba382fe8e1"><path d="M 7 112 L 125 112 L 125 186 L 7 186 Z M 7 112 " clip-rule="nonzero"></path></clipPath><clipPath id="dc7b098b02"><path d="M 0.00390625 166.089844 L 15.71875 95.332031 L 131.53125 121.054688 L 115.816406 191.8125 Z M 0.00390625 166.089844 " clip-rule="nonzero"></path></clipPath><clipPath id="fc5e705717"><path d="M 7.863281 130.710938 C 33.125 120.117188 73.679688 108.203125 98.519531 113.71875 C 116.609375 117.738281 127.773438 136.855469 123.4375 156.378906 C 119.101562 175.90625 100.894531 188.496094 82.800781 184.480469 C 57.960938 178.960938 45.375 132.5625 7.863281 130.710938 Z M 7.863281 130.710938 " clip-rule="nonzero"></path></clipPath><clipPath id="ab25dcc1df"><path d="M 0.667969 0 L 118 0 L 118 74 L 0.667969 74 Z M 0.667969 0 " clip-rule="nonzero"></path></clipPath><clipPath id="3025b82826"><path d="M -6.996094 54.089844 L 8.71875 -16.667969 L 124.53125 9.054688 L 108.816406 79.8125 Z M -6.996094 54.089844 " clip-rule="nonzero"></path></clipPath><clipPath id="2857bfb11b"><path d="M 0.863281 18.710938 C 26.125 8.117188 66.679688 -3.796875 91.519531 1.71875 C 109.609375 5.738281 120.773438 24.855469 116.4375 44.378906 C 112.101562 63.90625 93.894531 76.496094 75.800781 72.480469 C 50.960938 66.960938 38.375 20.5625 0.863281 18.710938 Z M 0.863281 18.710938 " clip-rule="nonzero"></path></clipPath><clipPath id="5bc3bfa28a"><rect x="0" width="118" y="0" height="74"></rect></clipPath><clipPath id="4b8b5adce1"><path d="M 96.46875 6.773438 L 142.609375 6.773438 L 142.609375 63.902344 L 96.46875 63.902344 Z M 96.46875 6.773438 " clip-rule="nonzero"></path></clipPath><clipPath id="b94697e9f4"><path d="M 0.46875 0.773438 L 46.609375 0.773438 L 46.609375 57.902344 L 0.46875 57.902344 Z M 0.46875 0.773438 " clip-rule="nonzero"></path></clipPath><clipPath id="d623c19bb6"><rect x="0" width="47" y="0" height="58"></rect></clipPath><clipPath id="aa39c6c07d"><path d="M 88 12 L 152 12 L 152 172 L 88 172 Z M 88 12 " clip-rule="nonzero"></path></clipPath><clipPath id="cfdcc81e75"><path d="M 130.039062 10.980469 L 155.96875 165.53125 L 109.4375 173.339844 L 83.507812 18.785156 Z M 130.039062 10.980469 " clip-rule="nonzero"></path></clipPath><clipPath id="a35aaaa50b"><path d="M 134.3125 90.304688 C 146.347656 114.96875 157.492188 139.179688 147.769531 166.894531 L 119.703125 171.601562 C 129.480469 142.980469 117.101562 118.078125 105.164062 93.996094 C 93.125 69.335938 81.980469 45.125 91.707031 17.410156 L 119.773438 12.699219 C 109.992188 41.324219 122.375 66.226562 134.3125 90.304688 Z M 134.3125 90.304688 " clip-rule="nonzero"></path></clipPath><clipPath id="da60883afe"><path d="M 0 0.628906 L 64 0.628906 L 64 159.734375 L 0 159.734375 Z M 0 0.628906 " clip-rule="nonzero"></path></clipPath><clipPath id="2191fd61a3"><path d="M 42.039062 -1.019531 L 67.96875 153.53125 L 21.4375 161.339844 L -4.492188 6.785156 Z M 42.039062 -1.019531 " clip-rule="nonzero"></path></clipPath><clipPath id="6b462b9ee2"><path d="M 46.3125 78.304688 C 58.347656 102.96875 69.492188 127.179688 59.769531 154.894531 L 31.703125 159.601562 C 41.480469 130.980469 29.101562 106.078125 17.164062 81.996094 C 5.125 57.335938 -6.019531 33.125 3.707031 5.410156 L 31.773438 0.699219 C 21.992188 29.324219 34.375 54.226562 46.3125 78.304688 Z M 46.3125 78.304688 " clip-rule="nonzero"></path></clipPath><clipPath id="1c63ef2f26"><rect x="0" width="64" y="0" height="160"></rect></clipPath><clipPath id="8b91bb5ec2"><path d="M 34.054688 96.777344 L 150.511719 96.777344 L 150.511719 212.828125 L 34.054688 212.828125 Z M 34.054688 96.777344 " clip-rule="nonzero"></path></clipPath><clipPath id="8bc9076e65"><path d="M 91.15625 0.167969 L 137.648438 0.167969 L 137.648438 46.664062 L 91.15625 46.664062 Z M 91.15625 0.167969 " clip-rule="nonzero"></path></clipPath><clipPath id="cfa63ff306"><path d="M 114.402344 0.167969 C 101.5625 0.167969 91.15625 10.578125 91.15625 23.417969 C 91.15625 36.253906 101.5625 46.664062 114.402344 46.664062 C 127.242188 46.664062 137.648438 36.253906 137.648438 23.417969 C 137.648438 10.578125 127.242188 0.167969 114.402344 0.167969 Z M 114.402344 0.167969 " clip-rule="nonzero"></path></clipPath><clipPath id="8940487382"><path d="M 0.15625 0.167969 L 46.648438 0.167969 L 46.648438 46.664062 L 0.15625 46.664062 Z M 0.15625 0.167969 " clip-rule="nonzero"></path></clipPath><clipPath id="49dbab686e"><path d="M 23.402344 0.167969 C 10.5625 0.167969 0.15625 10.578125 0.15625 23.417969 C 0.15625 36.253906 10.5625 46.664062 23.402344 46.664062 C 36.242188 46.664062 46.648438 36.253906 46.648438 23.417969 C 46.648438 10.578125 36.242188 0.167969 23.402344 0.167969 Z M 23.402344 0.167969 " clip-rule="nonzero"></path></clipPath><clipPath id="3b7c80a5ca"><rect x="0" width="47" y="0" height="47"></rect></clipPath><clipPath id="a21030c462"><rect x="0" width="157" y="0" height="213"></rect></clipPath></defs><g clip-path="url(#df4f1e0709)"><g transform="matrix(1, 0, 0, 1, 0, 0.000000000000005579)"><g clip-path="url(#a21030c462)"><g clip-path="url(#e56745f8d1)"><g clip-path="url(#b0c2284a11)"><g clip-path="url(#68d6f6a214)"><g transform="matrix(1, 0, 0, 1, 21, 102)"><g clip-path="url(#849a816673)"><g clip-path="url(#00b289c107)"><g clip-path="url(#d4b3106687)"><g clip-path="url(#2897da15d9)"><path fill="#f25c2b" d="M -5.703125 25.796875 L 6.785156 -16.289062 L 90.46875 8.539062 L 77.980469 50.628906 Z M -5.703125 25.796875 " fill-opacity="1" fill-rule="nonzero"></path></g></g></g></g></g></g></g></g><g clip-path="url(#ba382fe8e1)"><g clip-path="url(#dc7b098b02)"><g clip-path="url(#fc5e705717)"><g transform="matrix(1, 0, 0, 1, 7, 112)"><g clip-path="url(#5bc3bfa28a)"><g clip-path="url(#ab25dcc1df)"><g clip-path="url(#3025b82826)"><g clip-path="url(#2857bfb11b)"><path fill="#f25c2b" d="M -6.996094 54.089844 L 8.71875 -16.667969 L 124.253906 8.992188 L 108.539062 79.75 Z M -6.996094 54.089844 " fill-opacity="1" fill-rule="nonzero"></path></g></g></g></g></g></g></g></g><g clip-path="url(#4b8b5adce1)"><g transform="matrix(1, 0, 0, 1, 96, 6)"><g clip-path="url(#d623c19bb6)"><g clip-path="url(#b94697e9f4)"><path fill="#d7591a" d="M -28.710938 76.488281 C -33.515625 76.304688 -38.304688 77.324219 -42.601562 79.460938 C -53.996094 84.136719 -66.589844 84.976562 -78.484375 81.875 C -78.761719 81.808594 -79.042969 81.972656 -79.097656 82.253906 C -79.113281 82.28125 -79.113281 82.296875 -79.113281 82.324219 C -81.164062 108.710938 -61.453125 131.761719 -35.0625 133.8125 C -32.578125 134.007812 -30.078125 134.007812 -27.582031 133.8125 C -11.777344 132.570312 0.0351562 118.75 -1.207031 102.945312 C -2.339844 88.425781 -14.164062 77.058594 -28.710938 76.488281 Z M 15.363281 3.761719 C 6.75 3.539062 -0.871094 9.277344 -3.035156 17.613281 C -7.824219 36.222656 -4.390625 56.003906 6.386719 71.921875 C 13.367188 84.488281 11.316406 100.152344 1.320312 110.484375 C -1.109375 124.753906 -12.921875 135.558594 -27.355469 136.691406 C -52.097656 138.644531 -74.617188 122.433594 -80.632812 98.351562 C -86.175781 97.445312 -91.414062 95.210938 -95.910156 91.84375 C -96.144531 91.691406 -96.46875 91.746094 -96.621094 91.972656 C -96.691406 92.054688 -96.71875 92.167969 -96.71875 92.265625 C -96.171875 115.789062 -82.660156 137.082031 -61.605469 147.578125 C -33.289062 159.613281 -0.898438 157.199219 25.304688 141.101562 C 43.652344 129.820312 49.390625 105.804688 38.121094 87.460938 C 37.171875 85.910156 36.097656 84.429688 34.9375 83.019531 L 11.875 55.140625 C 6.234375 48.300781 4.851562 38.890625 8.316406 30.722656 C 9.054688 28.988281 11.039062 28.179688 12.769531 28.90625 C 13.328125 29.144531 13.800781 29.519531 14.164062 29.996094 C 15.042969 31.167969 15.964844 32.300781 16.929688 33.386719 C 20.113281 37.003906 25.625 37.351562 29.242188 34.167969 C 30.597656 32.96875 31.546875 31.378906 31.964844 29.617188 C 32.035156 29.3125 32.117188 29.003906 32.214844 28.695312 C 35.777344 19.132812 30.890625 8.480469 21.328125 4.921875 C 19.414062 4.207031 17.402344 3.816406 15.363281 3.761719 Z M 14.445312 0.789062 C 26.253906 0.523438 36.027344 9.890625 36.28125 21.703125 C 36.347656 24.398438 35.886719 27.078125 34.953125 29.605469 C 34.128906 32.480469 34.226562 35.550781 35.234375 38.359375 C 36.042969 41.667969 37.984375 44.585938 40.746094 46.582031 C 41.988281 47.488281 42.269531 49.234375 41.363281 50.476562 C 40.621094 51.496094 39.296875 51.886719 38.121094 51.453125 C 27.664062 47.515625 18.546875 40.675781 11.847656 31.726562 C 11.679688 31.503906 11.359375 31.460938 11.136719 31.644531 C 11.066406 31.683594 11.007812 31.753906 10.980469 31.839844 C 7.9375 39.015625 9.152344 47.292969 14.121094 53.296875 L 37.171875 81.179688 C 51.917969 99.007812 49.402344 125.394531 31.589844 140.136719 C 30.082031 141.394531 28.488281 142.527344 26.8125 143.542969 C -0.214844 160.160156 -33.625 162.644531 -62.820312 150.203125 C -84.863281 139.230469 -99.023438 116.949219 -99.59375 92.332031 C -99.636719 90.449219 -98.140625 88.898438 -96.269531 88.855469 C -95.515625 88.84375 -94.777344 89.082031 -94.175781 89.527344 C -90.367188 92.375 -85.96875 94.34375 -81.289062 95.292969 C -82.101562 90.9375 -82.335938 86.511719 -81.988281 82.101562 C -81.847656 80.230469 -80.203125 78.832031 -78.332031 78.972656 C -78.136719 78.988281 -77.941406 79.027344 -77.746094 79.070312 C -66.476562 82.015625 -54.554688 81.21875 -43.777344 76.824219 C -28.109375 69.117188 -9.179688 75.566406 -1.472656 91.214844 C 0.71875 95.65625 1.824219 100.558594 1.78125 105.5 C 8.707031 96.144531 9.542969 83.621094 3.945312 73.429688 C -7.253906 56.84375 -10.796875 36.265625 -5.816406 16.886719 C -3.441406 7.574219 4.851562 0.984375 14.457031 0.773438 L 14.445312 0.789062 " fill-opacity="1" fill-rule="nonzero"></path></g></g></g></g><g clip-path="url(#aa39c6c07d)"><g clip-path="url(#cfdcc81e75)"><g clip-path="url(#a35aaaa50b)"><g transform="matrix(1, 0, 0, 1, 88, 12)"><g clip-path="url(#1c63ef2f26)"><g clip-path="url(#da60883afe)"><g clip-path="url(#2191fd61a3)"><g clip-path="url(#6b462b9ee2)"><path fill="#000000" d="M 42.40625 -1.082031 L 68.339844 153.46875 L 21.066406 161.402344 L -4.863281 6.847656 Z M 42.40625 -1.082031 " fill-opacity="1" fill-rule="nonzero"></path></g></g></g></g></g></g></g></g><g clip-path="url(#8b91bb5ec2)"><path fill="#000000" d="M 92.078125 96.777344 C 124.101562 96.777344 150.101562 122.777344 150.101562 154.800781 C 150.101562 186.824219 124.101562 212.824219 92.078125 212.824219 C 60.054688 212.824219 34.054688 186.824219 34.054688 154.800781 C 34.054688 122.777344 60.054688 96.777344 92.078125 96.777344 Z M 92.078125 125.789062 C 108.089844 125.789062 121.089844 138.789062 121.089844 154.800781 C 121.089844 170.8125 108.089844 183.8125 92.078125 183.8125 C 76.066406 183.8125 63.066406 170.8125 63.066406 154.800781 C 63.066406 138.789062 76.066406 125.789062 92.078125 125.789062 Z M 92.078125 125.789062 " fill-opacity="1" fill-rule="evenodd"></path></g><g clip-path="url(#8bc9076e65)"><g clip-path="url(#cfa63ff306)"><g transform="matrix(1, 0, 0, 1, 91, 0.000000000000005579)"><g clip-path="url(#3b7c80a5ca)"><g clip-path="url(#8940487382)"><g clip-path="url(#49dbab686e)"><path fill="#000000" d="M 0.15625 0.167969 L 46.648438 0.167969 L 46.648438 46.664062 L 0.15625 46.664062 Z M 0.15625 0.167969 " fill-opacity="1" fill-rule="nonzero"></path></g></g></g></g></g></g></g></g></g></svg>